<?xml version="1.0" encoding="utf-8" standalone="no"?>
<!DOCTYPE svg PUBLIC "-//W3C//DTD SVG 1.1//EN"
  "http://www.w3.org/Graphics/SVG/1.1/DTD/svg11.dtd">
<svg xmlns:xlink="http://www.w3.org/1999/xlink" width="648pt" height="216pt" viewBox="0 0 648 216" xmlns="http://www.w3.org/2000/svg" version="1.1">
 <metadata>
  <rdf:RDF xmlns:dc="http://purl.org/dc/elements/1.1/" xmlns:cc="http://creativecommons.org/ns#" xmlns:rdf="http://www.w3.org/1999/02/22-rdf-syntax-ns#">
   <cc:Work>
    <dc:type rdf:resource="http://purl.org/dc/dcmitype/StillImage"/>
    <dc:date>2022-06-12T12:18:12.411172</dc:date>
    <dc:format>image/svg+xml</dc:format>
    <dc:creator>
     <cc:Agent>
      <dc:title>Matplotlib v3.5.1, https://matplotlib.org/</dc:title>
     </cc:Agent>
    </dc:creator>
   </cc:Work>
  </rdf:RDF>
 </metadata>
 <defs>
  <style type="text/css">*{stroke-linejoin: round; stroke-linecap: butt}</style>
 </defs>
 <g id="figure_1">
  <g id="patch_1">
   <path d="M 0 216 
L 648 216 
L 648 0 
L 0 0 
L 0 216 
z
" style="fill: none"/>
  </g>
  <g id="axes_1">
   <g id="patch_2">
    <path d="M 81 189 
L 309.272727 189 
L 309.272727 25.92 
L 81 25.92 
z
" style="fill: #ffffff"/>
   </g>
   <g id="matplotlib.axis_1">
    <g id="xtick_1">
     <g id="line2d_1">
      <path d="M 81 189 
L 81 25.92 
" clip-path="url(#p564df41cb7)" style="fill: none; stroke-dasharray: 2,3.3; stroke-dashoffset: 0; stroke: #b0b0b0; stroke-width: 2"/>
     </g>
     <g id="line2d_2">
      <defs>
       <path id="m91dbfe6a2d" d="M 0 0 
L 0 3.5 
" style="stroke: #000000; stroke-width: 0.8"/>
      </defs>
      <g>
       <use xlink:href="#m91dbfe6a2d" x="81" y="189" style="stroke: #000000; stroke-width: 0.8"/>
      </g>
     </g>
     <g id="text_1">
      <!-- 0 -->
      <g transform="translate(78.455 202.07875)scale(0.08 -0.08)">
       <defs>
        <path id="DejaVuSans-30" d="M 2034 4250 
Q 1547 4250 1301 3770 
Q 1056 3291 1056 2328 
Q 1056 1369 1301 889 
Q 1547 409 2034 409 
Q 2525 409 2770 889 
Q 3016 1369 3016 2328 
Q 3016 3291 2770 3770 
Q 2525 4250 2034 4250 
z
M 2034 4750 
Q 2819 4750 3233 4129 
Q 3647 3509 3647 2328 
Q 3647 1150 3233 529 
Q 2819 -91 2034 -91 
Q 1250 -91 836 529 
Q 422 1150 422 2328 
Q 422 3509 836 4129 
Q 1250 4750 2034 4750 
z
" transform="scale(0.015625)"/>
       </defs>
       <use xlink:href="#DejaVuSans-30"/>
      </g>
     </g>
    </g>
    <g id="xtick_2">
     <g id="line2d_3">
      <path d="M 126.654545 189 
L 126.654545 25.92 
" clip-path="url(#p564df41cb7)" style="fill: none; stroke-dasharray: 2,3.3; stroke-dashoffset: 0; stroke: #b0b0b0; stroke-width: 2"/>
     </g>
     <g id="line2d_4">
      <g>
       <use xlink:href="#m91dbfe6a2d" x="126.654545" y="189" style="stroke: #000000; stroke-width: 0.8"/>
      </g>
     </g>
     <g id="text_2">
      <!-- 1 -->
      <g transform="translate(124.109545 202.07875)scale(0.08 -0.08)">
       <defs>
        <path id="DejaVuSans-31" d="M 794 531 
L 1825 531 
L 1825 4091 
L 703 3866 
L 703 4441 
L 1819 4666 
L 2450 4666 
L 2450 531 
L 3481 531 
L 3481 0 
L 794 0 
L 794 531 
z
" transform="scale(0.015625)"/>
       </defs>
       <use xlink:href="#DejaVuSans-31"/>
      </g>
     </g>
    </g>
    <g id="xtick_3">
     <g id="line2d_5">
      <path d="M 172.309091 189 
L 172.309091 25.92 
" clip-path="url(#p564df41cb7)" style="fill: none; stroke-dasharray: 2,3.3; stroke-dashoffset: 0; stroke: #b0b0b0; stroke-width: 2"/>
     </g>
     <g id="line2d_6">
      <g>
       <use xlink:href="#m91dbfe6a2d" x="172.309091" y="189" style="stroke: #000000; stroke-width: 0.8"/>
      </g>
     </g>
     <g id="text_3">
      <!-- 2 -->
      <g transform="translate(169.764091 202.07875)scale(0.08 -0.08)">
       <defs>
        <path id="DejaVuSans-32" d="M 1228 531 
L 3431 531 
L 3431 0 
L 469 0 
L 469 531 
Q 828 903 1448 1529 
Q 2069 2156 2228 2338 
Q 2531 2678 2651 2914 
Q 2772 3150 2772 3378 
Q 2772 3750 2511 3984 
Q 2250 4219 1831 4219 
Q 1534 4219 1204 4116 
Q 875 4013 500 3803 
L 500 4441 
Q 881 4594 1212 4672 
Q 1544 4750 1819 4750 
Q 2544 4750 2975 4387 
Q 3406 4025 3406 3419 
Q 3406 3131 3298 2873 
Q 3191 2616 2906 2266 
Q 2828 2175 2409 1742 
Q 1991 1309 1228 531 
z
" transform="scale(0.015625)"/>
       </defs>
       <use xlink:href="#DejaVuSans-32"/>
      </g>
     </g>
    </g>
    <g id="xtick_4">
     <g id="line2d_7">
      <path d="M 217.963636 189 
L 217.963636 25.92 
" clip-path="url(#p564df41cb7)" style="fill: none; stroke-dasharray: 2,3.3; stroke-dashoffset: 0; stroke: #b0b0b0; stroke-width: 2"/>
     </g>
     <g id="line2d_8">
      <g>
       <use xlink:href="#m91dbfe6a2d" x="217.963636" y="189" style="stroke: #000000; stroke-width: 0.8"/>
      </g>
     </g>
     <g id="text_4">
      <!-- 3 -->
      <g transform="translate(215.418636 202.07875)scale(0.08 -0.08)">
       <defs>
        <path id="DejaVuSans-33" d="M 2597 2516 
Q 3050 2419 3304 2112 
Q 3559 1806 3559 1356 
Q 3559 666 3084 287 
Q 2609 -91 1734 -91 
Q 1441 -91 1130 -33 
Q 819 25 488 141 
L 488 750 
Q 750 597 1062 519 
Q 1375 441 1716 441 
Q 2309 441 2620 675 
Q 2931 909 2931 1356 
Q 2931 1769 2642 2001 
Q 2353 2234 1838 2234 
L 1294 2234 
L 1294 2753 
L 1863 2753 
Q 2328 2753 2575 2939 
Q 2822 3125 2822 3475 
Q 2822 3834 2567 4026 
Q 2313 4219 1838 4219 
Q 1578 4219 1281 4162 
Q 984 4106 628 3988 
L 628 4550 
Q 988 4650 1302 4700 
Q 1616 4750 1894 4750 
Q 2613 4750 3031 4423 
Q 3450 4097 3450 3541 
Q 3450 3153 3228 2886 
Q 3006 2619 2597 2516 
z
" transform="scale(0.015625)"/>
       </defs>
       <use xlink:href="#DejaVuSans-33"/>
      </g>
     </g>
    </g>
    <g id="xtick_5">
     <g id="line2d_9">
      <path d="M 263.618182 189 
L 263.618182 25.92 
" clip-path="url(#p564df41cb7)" style="fill: none; stroke-dasharray: 2,3.3; stroke-dashoffset: 0; stroke: #b0b0b0; stroke-width: 2"/>
     </g>
     <g id="line2d_10">
      <g>
       <use xlink:href="#m91dbfe6a2d" x="263.618182" y="189" style="stroke: #000000; stroke-width: 0.8"/>
      </g>
     </g>
     <g id="text_5">
      <!-- 4 -->
      <g transform="translate(261.073182 202.07875)scale(0.08 -0.08)">
       <defs>
        <path id="DejaVuSans-34" d="M 2419 4116 
L 825 1625 
L 2419 1625 
L 2419 4116 
z
M 2253 4666 
L 3047 4666 
L 3047 1625 
L 3713 1625 
L 3713 1100 
L 3047 1100 
L 3047 0 
L 2419 0 
L 2419 1100 
L 313 1100 
L 313 1709 
L 2253 4666 
z
" transform="scale(0.015625)"/>
       </defs>
       <use xlink:href="#DejaVuSans-34"/>
      </g>
     </g>
    </g>
    <g id="xtick_6">
     <g id="line2d_11">
      <path d="M 309.272727 189 
L 309.272727 25.92 
" clip-path="url(#p564df41cb7)" style="fill: none; stroke-dasharray: 2,3.3; stroke-dashoffset: 0; stroke: #b0b0b0; stroke-width: 2"/>
     </g>
     <g id="line2d_12">
      <g>
       <use xlink:href="#m91dbfe6a2d" x="309.272727" y="189" style="stroke: #000000; stroke-width: 0.8"/>
      </g>
     </g>
     <g id="text_6">
      <!-- 5 -->
      <g transform="translate(306.727727 202.07875)scale(0.08 -0.08)">
       <defs>
        <path id="DejaVuSans-35" d="M 691 4666 
L 3169 4666 
L 3169 4134 
L 1269 4134 
L 1269 2991 
Q 1406 3038 1543 3061 
Q 1681 3084 1819 3084 
Q 2600 3084 3056 2656 
Q 3513 2228 3513 1497 
Q 3513 744 3044 326 
Q 2575 -91 1722 -91 
Q 1428 -91 1123 -41 
Q 819 9 494 109 
L 494 744 
Q 775 591 1075 516 
Q 1375 441 1709 441 
Q 2250 441 2565 725 
Q 2881 1009 2881 1497 
Q 2881 1984 2565 2268 
Q 2250 2553 1709 2553 
Q 1456 2553 1204 2497 
Q 953 2441 691 2322 
L 691 4666 
z
" transform="scale(0.015625)"/>
       </defs>
       <use xlink:href="#DejaVuSans-35"/>
      </g>
     </g>
    </g>
    <g id="text_7">
     <!-- Timp (s) -->
     <g transform="translate(178.795114 213.82125)scale(0.08 -0.08)">
      <defs>
       <path id="DejaVuSans-54" d="M -19 4666 
L 3928 4666 
L 3928 4134 
L 2272 4134 
L 2272 0 
L 1638 0 
L 1638 4134 
L -19 4134 
L -19 4666 
z
" transform="scale(0.015625)"/>
       <path id="DejaVuSans-69" d="M 603 3500 
L 1178 3500 
L 1178 0 
L 603 0 
L 603 3500 
z
M 603 4863 
L 1178 4863 
L 1178 4134 
L 603 4134 
L 603 4863 
z
" transform="scale(0.015625)"/>
       <path id="DejaVuSans-6d" d="M 3328 2828 
Q 3544 3216 3844 3400 
Q 4144 3584 4550 3584 
Q 5097 3584 5394 3201 
Q 5691 2819 5691 2113 
L 5691 0 
L 5113 0 
L 5113 2094 
Q 5113 2597 4934 2840 
Q 4756 3084 4391 3084 
Q 3944 3084 3684 2787 
Q 3425 2491 3425 1978 
L 3425 0 
L 2847 0 
L 2847 2094 
Q 2847 2600 2669 2842 
Q 2491 3084 2119 3084 
Q 1678 3084 1418 2786 
Q 1159 2488 1159 1978 
L 1159 0 
L 581 0 
L 581 3500 
L 1159 3500 
L 1159 2956 
Q 1356 3278 1631 3431 
Q 1906 3584 2284 3584 
Q 2666 3584 2933 3390 
Q 3200 3197 3328 2828 
z
" transform="scale(0.015625)"/>
       <path id="DejaVuSans-70" d="M 1159 525 
L 1159 -1331 
L 581 -1331 
L 581 3500 
L 1159 3500 
L 1159 2969 
Q 1341 3281 1617 3432 
Q 1894 3584 2278 3584 
Q 2916 3584 3314 3078 
Q 3713 2572 3713 1747 
Q 3713 922 3314 415 
Q 2916 -91 2278 -91 
Q 1894 -91 1617 61 
Q 1341 213 1159 525 
z
M 3116 1747 
Q 3116 2381 2855 2742 
Q 2594 3103 2138 3103 
Q 1681 3103 1420 2742 
Q 1159 2381 1159 1747 
Q 1159 1113 1420 752 
Q 1681 391 2138 391 
Q 2594 391 2855 752 
Q 3116 1113 3116 1747 
z
" transform="scale(0.015625)"/>
       <path id="DejaVuSans-20" transform="scale(0.015625)"/>
       <path id="DejaVuSans-28" d="M 1984 4856 
Q 1566 4138 1362 3434 
Q 1159 2731 1159 2009 
Q 1159 1288 1364 580 
Q 1569 -128 1984 -844 
L 1484 -844 
Q 1016 -109 783 600 
Q 550 1309 550 2009 
Q 550 2706 781 3412 
Q 1013 4119 1484 4856 
L 1984 4856 
z
" transform="scale(0.015625)"/>
       <path id="DejaVuSans-73" d="M 2834 3397 
L 2834 2853 
Q 2591 2978 2328 3040 
Q 2066 3103 1784 3103 
Q 1356 3103 1142 2972 
Q 928 2841 928 2578 
Q 928 2378 1081 2264 
Q 1234 2150 1697 2047 
L 1894 2003 
Q 2506 1872 2764 1633 
Q 3022 1394 3022 966 
Q 3022 478 2636 193 
Q 2250 -91 1575 -91 
Q 1294 -91 989 -36 
Q 684 19 347 128 
L 347 722 
Q 666 556 975 473 
Q 1284 391 1588 391 
Q 1994 391 2212 530 
Q 2431 669 2431 922 
Q 2431 1156 2273 1281 
Q 2116 1406 1581 1522 
L 1381 1569 
Q 847 1681 609 1914 
Q 372 2147 372 2553 
Q 372 3047 722 3315 
Q 1072 3584 1716 3584 
Q 2034 3584 2315 3537 
Q 2597 3491 2834 3397 
z
" transform="scale(0.015625)"/>
       <path id="DejaVuSans-29" d="M 513 4856 
L 1013 4856 
Q 1481 4119 1714 3412 
Q 1947 2706 1947 2009 
Q 1947 1309 1714 600 
Q 1481 -109 1013 -844 
L 513 -844 
Q 928 -128 1133 580 
Q 1338 1288 1338 2009 
Q 1338 2731 1133 3434 
Q 928 4138 513 4856 
z
" transform="scale(0.015625)"/>
      </defs>
      <use xlink:href="#DejaVuSans-54"/>
      <use xlink:href="#DejaVuSans-69" x="57.958984"/>
      <use xlink:href="#DejaVuSans-6d" x="85.742188"/>
      <use xlink:href="#DejaVuSans-70" x="183.154297"/>
      <use xlink:href="#DejaVuSans-20" x="246.630859"/>
      <use xlink:href="#DejaVuSans-28" x="278.417969"/>
      <use xlink:href="#DejaVuSans-73" x="317.431641"/>
      <use xlink:href="#DejaVuSans-29" x="369.53125"/>
     </g>
    </g>
   </g>
   <g id="matplotlib.axis_2">
    <g id="ytick_1">
     <g id="line2d_13">
      <path d="M 81 169.958845 
L 309.272727 169.958845 
" clip-path="url(#p564df41cb7)" style="fill: none; stroke-dasharray: 2,3.3; stroke-dashoffset: 0; stroke: #b0b0b0; stroke-width: 2"/>
     </g>
     <g id="line2d_14">
      <defs>
       <path id="mc24af650af" d="M 0 0 
L -3.5 0 
" style="stroke: #000000; stroke-width: 0.8"/>
      </defs>
      <g>
       <use xlink:href="#mc24af650af" x="81" y="169.958845" style="stroke: #000000; stroke-width: 0.8"/>
      </g>
     </g>
     <g id="text_8">
      <!-- −100 -->
      <g transform="translate(52.02625 172.99822)scale(0.08 -0.08)">
       <defs>
        <path id="DejaVuSans-2212" d="M 678 2272 
L 4684 2272 
L 4684 1741 
L 678 1741 
L 678 2272 
z
" transform="scale(0.015625)"/>
       </defs>
       <use xlink:href="#DejaVuSans-2212"/>
       <use xlink:href="#DejaVuSans-31" x="83.789062"/>
       <use xlink:href="#DejaVuSans-30" x="147.412109"/>
       <use xlink:href="#DejaVuSans-30" x="211.035156"/>
      </g>
     </g>
    </g>
    <g id="ytick_2">
     <g id="line2d_15">
      <path d="M 81 143.622087 
L 309.272727 143.622087 
" clip-path="url(#p564df41cb7)" style="fill: none; stroke-dasharray: 2,3.3; stroke-dashoffset: 0; stroke: #b0b0b0; stroke-width: 2"/>
     </g>
     <g id="line2d_16">
      <g>
       <use xlink:href="#mc24af650af" x="81" y="143.622087" style="stroke: #000000; stroke-width: 0.8"/>
      </g>
     </g>
     <g id="text_9">
      <!-- 0 -->
      <g transform="translate(68.91 146.661462)scale(0.08 -0.08)">
       <use xlink:href="#DejaVuSans-30"/>
      </g>
     </g>
    </g>
    <g id="ytick_3">
     <g id="line2d_17">
      <path d="M 81 117.285329 
L 309.272727 117.285329 
" clip-path="url(#p564df41cb7)" style="fill: none; stroke-dasharray: 2,3.3; stroke-dashoffset: 0; stroke: #b0b0b0; stroke-width: 2"/>
     </g>
     <g id="line2d_18">
      <g>
       <use xlink:href="#mc24af650af" x="81" y="117.285329" style="stroke: #000000; stroke-width: 0.8"/>
      </g>
     </g>
     <g id="text_10">
      <!-- 100 -->
      <g transform="translate(58.73 120.324704)scale(0.08 -0.08)">
       <use xlink:href="#DejaVuSans-31"/>
       <use xlink:href="#DejaVuSans-30" x="63.623047"/>
       <use xlink:href="#DejaVuSans-30" x="127.246094"/>
      </g>
     </g>
    </g>
    <g id="ytick_4">
     <g id="line2d_19">
      <path d="M 81 90.948572 
L 309.272727 90.948572 
" clip-path="url(#p564df41cb7)" style="fill: none; stroke-dasharray: 2,3.3; stroke-dashoffset: 0; stroke: #b0b0b0; stroke-width: 2"/>
     </g>
     <g id="line2d_20">
      <g>
       <use xlink:href="#mc24af650af" x="81" y="90.948572" style="stroke: #000000; stroke-width: 0.8"/>
      </g>
     </g>
     <g id="text_11">
      <!-- 200 -->
      <g transform="translate(58.73 93.987947)scale(0.08 -0.08)">
       <use xlink:href="#DejaVuSans-32"/>
       <use xlink:href="#DejaVuSans-30" x="63.623047"/>
       <use xlink:href="#DejaVuSans-30" x="127.246094"/>
      </g>
     </g>
    </g>
    <g id="ytick_5">
     <g id="line2d_21">
      <path d="M 81 64.611814 
L 309.272727 64.611814 
" clip-path="url(#p564df41cb7)" style="fill: none; stroke-dasharray: 2,3.3; stroke-dashoffset: 0; stroke: #b0b0b0; stroke-width: 2"/>
     </g>
     <g id="line2d_22">
      <g>
       <use xlink:href="#mc24af650af" x="81" y="64.611814" style="stroke: #000000; stroke-width: 0.8"/>
      </g>
     </g>
     <g id="text_12">
      <!-- 300 -->
      <g transform="translate(58.73 67.651189)scale(0.08 -0.08)">
       <use xlink:href="#DejaVuSans-33"/>
       <use xlink:href="#DejaVuSans-30" x="63.623047"/>
       <use xlink:href="#DejaVuSans-30" x="127.246094"/>
      </g>
     </g>
    </g>
    <g id="ytick_6">
     <g id="line2d_23">
      <path d="M 81 38.275056 
L 309.272727 38.275056 
" clip-path="url(#p564df41cb7)" style="fill: none; stroke-dasharray: 2,3.3; stroke-dashoffset: 0; stroke: #b0b0b0; stroke-width: 2"/>
     </g>
     <g id="line2d_24">
      <g>
       <use xlink:href="#mc24af650af" x="81" y="38.275056" style="stroke: #000000; stroke-width: 0.8"/>
      </g>
     </g>
     <g id="text_13">
      <!-- 400 -->
      <g transform="translate(58.73 41.314431)scale(0.08 -0.08)">
       <use xlink:href="#DejaVuSans-34"/>
       <use xlink:href="#DejaVuSans-30" x="63.623047"/>
       <use xlink:href="#DejaVuSans-30" x="127.246094"/>
      </g>
     </g>
    </g>
   </g>
   <g id="line2d_25">
    <path d="M 81 140.988411 
L 83.967545 140.868009 
L 86.944222 140.524215 
L 89.943725 139.953289 
L 92.984318 139.147021 
L 96.079696 138.094574 
L 99.243556 136.782279 
L 102.498725 135.189065 
L 105.8589 133.294369 
L 109.351473 131.066616 
L 112.999271 128.472547 
L 116.834253 125.468736 
L 120.906638 121.991811 
L 125.275778 117.963484 
L 130.037547 113.264078 
L 135.365433 107.685121 
L 141.642933 100.776787 
L 150.25338 90.939827 
L 165.533956 73.458759 
L 171.930158 66.515165 
L 177.299133 61.006941 
L 182.079164 56.414746 
L 186.457435 52.510971 
L 190.538951 49.164793 
L 194.383064 46.296322 
L 198.035427 43.844203 
L 201.532565 41.760566 
L 204.897305 40.011377 
L 208.15704 38.56485 
L 211.325465 37.399866 
L 214.420844 36.496583 
L 217.461436 35.839284 
L 220.46094 35.417037 
L 223.437616 35.22185 
L 226.405162 35.250019 
L 229.377273 35.501001 
L 232.367645 35.977412 
L 235.389976 36.684976 
L 238.462527 37.634023 
L 241.598995 38.837219 
L 244.81764 40.312173 
L 248.136725 42.080246 
L 251.574513 44.166113 
L 255.158395 46.603692 
L 258.920329 49.434949 
L 262.89684 52.71013 
L 267.147278 56.504106 
L 271.749256 60.915923 
L 276.844304 66.116078 
L 282.710913 72.432425 
L 290.134342 80.77215 
L 309.272727 102.566791 
L 309.272727 102.566791 
" clip-path="url(#p564df41cb7)" style="fill: none; stroke: #1f77b4; stroke-width: 1.5; stroke-linecap: square"/>
   </g>
   <g id="line2d_26">
    <path d="M 81 140.461676 
L 85.204784 139.95552 
L 89.43696 139.221601 
L 93.723922 138.25156 
L 98.088496 137.034813 
L 102.562642 135.555237 
L 107.182882 133.791278 
L 111.994871 131.713679 
L 117.05796 129.282443 
L 122.458893 126.438531 
L 128.339198 123.085851 
L 134.959107 119.048303 
L 142.962349 113.894237 
L 156.571969 104.81195 
L 167.862338 97.396702 
L 175.308595 92.768927 
L 181.622618 89.101061 
L 187.302044 86.054529 
L 192.561447 83.481979 
L 197.519531 81.30132 
L 202.253907 79.459566 
L 206.814796 77.921809 
L 211.247853 76.66026 
L 215.580469 75.65708 
L 219.844604 74.896828 
L 224.067649 74.369034 
L 228.272433 74.067241 
L 232.481782 73.987931 
L 236.723089 74.130775 
L 241.019182 74.498641 
L 245.397453 75.097591 
L 249.894425 75.938519 
L 254.551189 77.037448 
L 259.417964 78.416804 
L 264.567796 80.110448 
L 270.114824 82.172673 
L 276.25536 84.69825 
L 283.413993 87.891828 
L 293.106453 92.48055 
L 309.272727 100.184637 
L 309.272727 100.184637 
" clip-path="url(#p564df41cb7)" style="fill: none; stroke: #ff7f0e; stroke-width: 1.5; stroke-linecap: square"/>
   </g>
   <g id="line2d_27">
    <path d="M 81 143.622087 
L 81.821782 108.795534 
L 82.611605 84.234986 
L 83.36034 67.426574 
L 84.067985 56.21102 
L 84.720845 49.130913 
L 85.309789 44.947512 
L 85.825685 42.708307 
L 86.259404 41.695495 
L 86.601813 41.380359 
L 86.87574 41.400326 
L 87.172495 41.666427 
L 87.555993 42.34494 
L 88.067324 43.753338 
L 88.743011 46.328305 
L 89.665233 50.803674 
L 91.039435 58.70456 
L 95.974691 87.956918 
L 97.631951 96.032367 
L 99.147682 102.353778 
L 100.576669 107.394617 
L 101.946305 111.437134 
L 103.265722 114.659927 
L 104.544049 117.213069 
L 105.785853 119.211866 
L 107.000264 120.75738 
L 108.196413 121.928388 
L 109.383431 122.785421 
L 110.575015 123.376053 
L 111.793991 123.734433 
L 113.067753 123.876573 
L 114.423693 123.801332 
L 115.893769 123.492823 
L 117.514505 122.920378 
L 119.331556 122.03642 
L 121.395142 120.777734 
L 123.769178 119.060375 
L 126.526713 116.78169 
L 129.768185 113.804602 
L 133.63056 109.944145 
L 138.323847 104.925635 
L 144.290896 98.201865 
L 153.577031 87.357755 
L 165.52026 73.476884 
L 171.957551 66.343879 
L 177.335656 60.708232 
L 182.115687 56.014509 
L 186.489393 52.025441 
L 190.561778 48.606986 
L 194.39676 45.67358 
L 198.039993 43.162809 
L 201.523435 41.028587 
L 204.874478 39.232999 
L 208.115951 37.745596 
L 211.266115 36.542317 
L 214.343231 35.602975 
L 217.365562 34.911561 
L 220.342238 34.457486 
L 223.291522 34.231535 
L 226.231675 34.229064 
L 229.171827 34.449004 
L 232.130242 34.893835 
L 235.120615 35.569392 
L 238.156642 36.48461 
L 241.25202 37.651404 
L 244.429576 39.08895 
L 247.703007 40.816537 
L 251.090575 42.858499 
L 254.619671 45.248617 
L 258.317689 48.025467 
L 262.221153 51.238987 
L 266.380282 54.956025 
L 270.868124 59.270963 
L 275.80338 64.331728 
L 281.414324 70.413667 
L 288.271636 78.191253 
L 300.484227 92.456044 
L 309.272727 102.568413 
L 309.272727 102.568413 
" clip-path="url(#p564df41cb7)" style="fill: none; stroke: #2ca02c; stroke-width: 1.5; stroke-linecap: square"/>
   </g>
   <g id="line2d_28">
    <path d="M 81 143.622087 
L 81.666556 160.648472 
L 82.278327 171.078528 
L 82.830747 177.050981 
L 83.305555 180.048906 
L 83.693618 181.277891 
L 83.976676 181.58079 
L 84.186687 181.519612 
L 84.433222 181.168564 
L 84.775631 180.236947 
L 85.250438 178.221404 
L 85.903298 174.376908 
L 86.843782 167.363754 
L 88.628875 152.007086 
L 90.765507 134.27745 
L 92.185364 124.3106 
L 93.427167 117.096009 
L 94.563965 111.743961 
L 95.618585 107.800976 
L 96.600158 104.947667 
L 97.52238 102.916742 
L 98.385251 101.526838 
L 99.197902 100.6184 
L 99.974029 100.071016 
L 100.731895 99.801403 
L 101.508022 99.761122 
L 102.3435 99.945935 
L 103.288549 100.3922 
L 104.407085 101.178439 
L 105.813245 102.455326 
L 107.81748 104.605539 
L 113.706916 111.082182 
L 115.838984 113.009555 
L 117.783867 114.47436 
L 119.637442 115.596977 
L 121.454493 116.440626 
L 123.271544 117.040449 
L 125.120553 117.41652 
L 127.033478 117.5773 
L 129.042278 117.52093 
L 131.188042 117.235327 
L 133.516424 116.697249 
L 136.086775 115.870088 
L 138.976707 114.700377 
L 142.300358 113.107794 
L 146.249476 110.959423 
L 151.20756 107.995845 
L 158.430109 103.39339 
L 174.400069 93.162622 
L 181.051936 89.206514 
L 186.845498 86.014825 
L 192.145991 83.344785 
L 197.113205 81.088375 
L 201.838451 79.183349 
L 206.385644 77.587781 
L 210.795873 76.274362 
L 215.101096 75.222848 
L 219.333273 74.416992 
L 223.519795 73.845585 
L 227.678924 73.501777 
L 231.838053 73.380734 
L 236.024575 73.481616 
L 240.256751 73.806496 
L 244.56654 74.36125 
L 248.981335 75.154904 
L 253.542224 76.202448 
L 258.294862 77.52441 
L 263.303165 79.151053 
L 268.663009 81.129196 
L 274.534184 83.53792 
L 281.231705 86.533427 
L 289.636707 90.5506 
L 309.272727 100.173188 
L 309.272727 100.173188 
" clip-path="url(#p564df41cb7)" style="fill: none; stroke: #d62728; stroke-width: 1.5; stroke-linecap: square"/>
   </g>
   <g id="patch_3">
    <path d="M 81 189 
L 81 25.92 
" style="fill: none; stroke: #000000; stroke-width: 0.8; stroke-linejoin: miter; stroke-linecap: square"/>
   </g>
   <g id="patch_4">
    <path d="M 309.272727 189 
L 309.272727 25.92 
" style="fill: none; stroke: #000000; stroke-width: 0.8; stroke-linejoin: miter; stroke-linecap: square"/>
   </g>
   <g id="patch_5">
    <path d="M 81 189 
L 309.272727 189 
" style="fill: none; stroke: #000000; stroke-width: 0.8; stroke-linejoin: miter; stroke-linecap: square"/>
   </g>
   <g id="patch_6">
    <path d="M 81 25.92 
L 309.272727 25.92 
" style="fill: none; stroke: #000000; stroke-width: 0.8; stroke-linejoin: miter; stroke-linecap: square"/>
   </g>
   <g id="legend_1">
    <g id="patch_7">
     <path d="M 184.210227 185 
L 303.672727 185 
Q 305.272727 185 305.272727 183.4 
L 305.272727 137.23 
Q 305.272727 135.63 303.672727 135.63 
L 184.210227 135.63 
Q 182.610227 135.63 182.610227 137.23 
L 182.610227 183.4 
Q 182.610227 185 184.210227 185 
z
" style="fill: #ffffff; opacity: 0.8; stroke: #cccccc; stroke-linejoin: miter"/>
    </g>
    <g id="line2d_29">
     <path d="M 185.810227 142.10875 
L 193.810227 142.10875 
L 201.810227 142.10875 
" style="fill: none; stroke: #1f77b4; stroke-width: 1.5; stroke-linecap: square"/>
    </g>
    <g id="text_14">
     <!-- Viteză X (m/s) -->
     <g transform="translate(208.210227 144.90875)scale(0.08 -0.08)">
      <defs>
       <path id="DejaVuSans-56" d="M 1831 0 
L 50 4666 
L 709 4666 
L 2188 738 
L 3669 4666 
L 4325 4666 
L 2547 0 
L 1831 0 
z
" transform="scale(0.015625)"/>
       <path id="DejaVuSans-74" d="M 1172 4494 
L 1172 3500 
L 2356 3500 
L 2356 3053 
L 1172 3053 
L 1172 1153 
Q 1172 725 1289 603 
Q 1406 481 1766 481 
L 2356 481 
L 2356 0 
L 1766 0 
Q 1100 0 847 248 
Q 594 497 594 1153 
L 594 3053 
L 172 3053 
L 172 3500 
L 594 3500 
L 594 4494 
L 1172 4494 
z
" transform="scale(0.015625)"/>
       <path id="DejaVuSans-65" d="M 3597 1894 
L 3597 1613 
L 953 1613 
Q 991 1019 1311 708 
Q 1631 397 2203 397 
Q 2534 397 2845 478 
Q 3156 559 3463 722 
L 3463 178 
Q 3153 47 2828 -22 
Q 2503 -91 2169 -91 
Q 1331 -91 842 396 
Q 353 884 353 1716 
Q 353 2575 817 3079 
Q 1281 3584 2069 3584 
Q 2775 3584 3186 3129 
Q 3597 2675 3597 1894 
z
M 3022 2063 
Q 3016 2534 2758 2815 
Q 2500 3097 2075 3097 
Q 1594 3097 1305 2825 
Q 1016 2553 972 2059 
L 3022 2063 
z
" transform="scale(0.015625)"/>
       <path id="DejaVuSans-7a" d="M 353 3500 
L 3084 3500 
L 3084 2975 
L 922 459 
L 3084 459 
L 3084 0 
L 275 0 
L 275 525 
L 2438 3041 
L 353 3041 
L 353 3500 
z
" transform="scale(0.015625)"/>
       <path id="DejaVuSans-103" d="M 870 4897 
L 1239 4897 
Q 1273 4663 1424 4545 
Q 1576 4428 1848 4428 
Q 2117 4428 2267 4544 
Q 2417 4660 2457 4897 
L 2826 4897 
Q 2795 4450 2548 4225 
Q 2301 4000 1848 4000 
Q 1395 4000 1148 4225 
Q 901 4450 870 4897 
z
M 2194 1759 
Q 1497 1759 1228 1600 
Q 959 1441 959 1056 
Q 959 750 1161 570 
Q 1363 391 1709 391 
Q 2188 391 2477 730 
Q 2766 1069 2766 1631 
L 2766 1759 
L 2194 1759 
z
M 3341 1997 
L 3341 0 
L 2766 0 
L 2766 531 
Q 2569 213 2275 61 
Q 1981 -91 1556 -91 
Q 1019 -91 701 211 
Q 384 513 384 1019 
Q 384 1609 779 1909 
Q 1175 2209 1959 2209 
L 2766 2209 
L 2766 2266 
Q 2766 2663 2505 2880 
Q 2244 3097 1772 3097 
Q 1472 3097 1187 3025 
Q 903 2953 641 2809 
L 641 3341 
Q 956 3463 1253 3523 
Q 1550 3584 1831 3584 
Q 2591 3584 2966 3190 
Q 3341 2797 3341 1997 
z
" transform="scale(0.015625)"/>
       <path id="DejaVuSans-58" d="M 403 4666 
L 1081 4666 
L 2241 2931 
L 3406 4666 
L 4084 4666 
L 2584 2425 
L 4184 0 
L 3506 0 
L 2194 1984 
L 872 0 
L 191 0 
L 1856 2491 
L 403 4666 
z
" transform="scale(0.015625)"/>
       <path id="DejaVuSans-2f" d="M 1625 4666 
L 2156 4666 
L 531 -594 
L 0 -594 
L 1625 4666 
z
" transform="scale(0.015625)"/>
      </defs>
      <use xlink:href="#DejaVuSans-56"/>
      <use xlink:href="#DejaVuSans-69" x="66.158203"/>
      <use xlink:href="#DejaVuSans-74" x="93.941406"/>
      <use xlink:href="#DejaVuSans-65" x="133.150391"/>
      <use xlink:href="#DejaVuSans-7a" x="194.673828"/>
      <use xlink:href="#DejaVuSans-103" x="247.164062"/>
      <use xlink:href="#DejaVuSans-20" x="308.443359"/>
      <use xlink:href="#DejaVuSans-58" x="340.230469"/>
      <use xlink:href="#DejaVuSans-20" x="408.736328"/>
      <use xlink:href="#DejaVuSans-28" x="440.523438"/>
      <use xlink:href="#DejaVuSans-6d" x="479.537109"/>
      <use xlink:href="#DejaVuSans-2f" x="576.949219"/>
      <use xlink:href="#DejaVuSans-73" x="610.640625"/>
      <use xlink:href="#DejaVuSans-29" x="662.740234"/>
     </g>
    </g>
    <g id="line2d_30">
     <path d="M 185.810227 153.85125 
L 193.810227 153.85125 
L 201.810227 153.85125 
" style="fill: none; stroke: #ff7f0e; stroke-width: 1.5; stroke-linecap: square"/>
    </g>
    <g id="text_15">
     <!-- Viteză Y (m/s) -->
     <g transform="translate(208.210227 156.65125)scale(0.08 -0.08)">
      <defs>
       <path id="DejaVuSans-59" d="M -13 4666 
L 666 4666 
L 1959 2747 
L 3244 4666 
L 3922 4666 
L 2272 2222 
L 2272 0 
L 1638 0 
L 1638 2222 
L -13 4666 
z
" transform="scale(0.015625)"/>
      </defs>
      <use xlink:href="#DejaVuSans-56"/>
      <use xlink:href="#DejaVuSans-69" x="66.158203"/>
      <use xlink:href="#DejaVuSans-74" x="93.941406"/>
      <use xlink:href="#DejaVuSans-65" x="133.150391"/>
      <use xlink:href="#DejaVuSans-7a" x="194.673828"/>
      <use xlink:href="#DejaVuSans-103" x="247.164062"/>
      <use xlink:href="#DejaVuSans-20" x="308.443359"/>
      <use xlink:href="#DejaVuSans-59" x="340.230469"/>
      <use xlink:href="#DejaVuSans-20" x="401.314453"/>
      <use xlink:href="#DejaVuSans-28" x="433.101562"/>
      <use xlink:href="#DejaVuSans-6d" x="472.115234"/>
      <use xlink:href="#DejaVuSans-2f" x="569.527344"/>
      <use xlink:href="#DejaVuSans-73" x="603.21875"/>
      <use xlink:href="#DejaVuSans-29" x="655.318359"/>
     </g>
    </g>
    <g id="line2d_31">
     <path d="M 185.810227 165.59375 
L 193.810227 165.59375 
L 201.810227 165.59375 
" style="fill: none; stroke: #2ca02c; stroke-width: 1.5; stroke-linecap: square"/>
    </g>
    <g id="text_16">
     <!-- Viteză X estimată (m/s) -->
     <g transform="translate(208.210227 168.39375)scale(0.08 -0.08)">
      <defs>
       <path id="DejaVuSans-61" d="M 2194 1759 
Q 1497 1759 1228 1600 
Q 959 1441 959 1056 
Q 959 750 1161 570 
Q 1363 391 1709 391 
Q 2188 391 2477 730 
Q 2766 1069 2766 1631 
L 2766 1759 
L 2194 1759 
z
M 3341 1997 
L 3341 0 
L 2766 0 
L 2766 531 
Q 2569 213 2275 61 
Q 1981 -91 1556 -91 
Q 1019 -91 701 211 
Q 384 513 384 1019 
Q 384 1609 779 1909 
Q 1175 2209 1959 2209 
L 2766 2209 
L 2766 2266 
Q 2766 2663 2505 2880 
Q 2244 3097 1772 3097 
Q 1472 3097 1187 3025 
Q 903 2953 641 2809 
L 641 3341 
Q 956 3463 1253 3523 
Q 1550 3584 1831 3584 
Q 2591 3584 2966 3190 
Q 3341 2797 3341 1997 
z
" transform="scale(0.015625)"/>
      </defs>
      <use xlink:href="#DejaVuSans-56"/>
      <use xlink:href="#DejaVuSans-69" x="66.158203"/>
      <use xlink:href="#DejaVuSans-74" x="93.941406"/>
      <use xlink:href="#DejaVuSans-65" x="133.150391"/>
      <use xlink:href="#DejaVuSans-7a" x="194.673828"/>
      <use xlink:href="#DejaVuSans-103" x="247.164062"/>
      <use xlink:href="#DejaVuSans-20" x="308.443359"/>
      <use xlink:href="#DejaVuSans-58" x="340.230469"/>
      <use xlink:href="#DejaVuSans-20" x="408.736328"/>
      <use xlink:href="#DejaVuSans-65" x="440.523438"/>
      <use xlink:href="#DejaVuSans-73" x="502.046875"/>
      <use xlink:href="#DejaVuSans-74" x="554.146484"/>
      <use xlink:href="#DejaVuSans-69" x="593.355469"/>
      <use xlink:href="#DejaVuSans-6d" x="621.138672"/>
      <use xlink:href="#DejaVuSans-61" x="718.550781"/>
      <use xlink:href="#DejaVuSans-74" x="779.830078"/>
      <use xlink:href="#DejaVuSans-103" x="819.039062"/>
      <use xlink:href="#DejaVuSans-20" x="880.318359"/>
      <use xlink:href="#DejaVuSans-28" x="912.105469"/>
      <use xlink:href="#DejaVuSans-6d" x="951.119141"/>
      <use xlink:href="#DejaVuSans-2f" x="1048.53125"/>
      <use xlink:href="#DejaVuSans-73" x="1082.222656"/>
      <use xlink:href="#DejaVuSans-29" x="1134.322266"/>
     </g>
    </g>
    <g id="line2d_32">
     <path d="M 185.810227 177.33625 
L 193.810227 177.33625 
L 201.810227 177.33625 
" style="fill: none; stroke: #d62728; stroke-width: 1.5; stroke-linecap: square"/>
    </g>
    <g id="text_17">
     <!-- Viteză Y estimată (m/s) -->
     <g transform="translate(208.210227 180.13625)scale(0.08 -0.08)">
      <use xlink:href="#DejaVuSans-56"/>
      <use xlink:href="#DejaVuSans-69" x="66.158203"/>
      <use xlink:href="#DejaVuSans-74" x="93.941406"/>
      <use xlink:href="#DejaVuSans-65" x="133.150391"/>
      <use xlink:href="#DejaVuSans-7a" x="194.673828"/>
      <use xlink:href="#DejaVuSans-103" x="247.164062"/>
      <use xlink:href="#DejaVuSans-20" x="308.443359"/>
      <use xlink:href="#DejaVuSans-59" x="340.230469"/>
      <use xlink:href="#DejaVuSans-20" x="401.314453"/>
      <use xlink:href="#DejaVuSans-65" x="433.101562"/>
      <use xlink:href="#DejaVuSans-73" x="494.625"/>
      <use xlink:href="#DejaVuSans-74" x="546.724609"/>
      <use xlink:href="#DejaVuSans-69" x="585.933594"/>
      <use xlink:href="#DejaVuSans-6d" x="613.716797"/>
      <use xlink:href="#DejaVuSans-61" x="711.128906"/>
      <use xlink:href="#DejaVuSans-74" x="772.408203"/>
      <use xlink:href="#DejaVuSans-103" x="811.617188"/>
      <use xlink:href="#DejaVuSans-20" x="872.896484"/>
      <use xlink:href="#DejaVuSans-28" x="904.683594"/>
      <use xlink:href="#DejaVuSans-6d" x="943.697266"/>
      <use xlink:href="#DejaVuSans-2f" x="1041.109375"/>
      <use xlink:href="#DejaVuSans-73" x="1074.800781"/>
      <use xlink:href="#DejaVuSans-29" x="1126.900391"/>
     </g>
    </g>
   </g>
  </g>
  <g id="axes_2">
   <g id="patch_8">
    <path d="M 354.927273 189 
L 583.2 189 
L 583.2 25.92 
L 354.927273 25.92 
z
" style="fill: #ffffff"/>
   </g>
   <g id="matplotlib.axis_3">
    <g id="xtick_7">
     <g id="line2d_33">
      <path d="M 354.927273 189 
L 354.927273 25.92 
" clip-path="url(#p514090fd2c)" style="fill: none; stroke-dasharray: 2,3.3; stroke-dashoffset: 0; stroke: #b0b0b0; stroke-width: 2"/>
     </g>
     <g id="line2d_34">
      <g>
       <use xlink:href="#m91dbfe6a2d" x="354.927273" y="189" style="stroke: #000000; stroke-width: 0.8"/>
      </g>
     </g>
     <g id="text_18">
      <!-- 0.00 -->
      <g transform="translate(346.021023 202.07875)scale(0.08 -0.08)">
       <defs>
        <path id="DejaVuSans-2e" d="M 684 794 
L 1344 794 
L 1344 0 
L 684 0 
L 684 794 
z
" transform="scale(0.015625)"/>
       </defs>
       <use xlink:href="#DejaVuSans-30"/>
       <use xlink:href="#DejaVuSans-2e" x="63.623047"/>
       <use xlink:href="#DejaVuSans-30" x="95.410156"/>
       <use xlink:href="#DejaVuSans-30" x="159.033203"/>
      </g>
     </g>
    </g>
    <g id="xtick_8">
     <g id="line2d_35">
      <path d="M 383.461364 189 
L 383.461364 25.92 
" clip-path="url(#p514090fd2c)" style="fill: none; stroke-dasharray: 2,3.3; stroke-dashoffset: 0; stroke: #b0b0b0; stroke-width: 2"/>
     </g>
     <g id="line2d_36">
      <g>
       <use xlink:href="#m91dbfe6a2d" x="383.461364" y="189" style="stroke: #000000; stroke-width: 0.8"/>
      </g>
     </g>
     <g id="text_19">
      <!-- 0.25 -->
      <g transform="translate(374.555114 202.07875)scale(0.08 -0.08)">
       <use xlink:href="#DejaVuSans-30"/>
       <use xlink:href="#DejaVuSans-2e" x="63.623047"/>
       <use xlink:href="#DejaVuSans-32" x="95.410156"/>
       <use xlink:href="#DejaVuSans-35" x="159.033203"/>
      </g>
     </g>
    </g>
    <g id="xtick_9">
     <g id="line2d_37">
      <path d="M 411.995455 189 
L 411.995455 25.92 
" clip-path="url(#p514090fd2c)" style="fill: none; stroke-dasharray: 2,3.3; stroke-dashoffset: 0; stroke: #b0b0b0; stroke-width: 2"/>
     </g>
     <g id="line2d_38">
      <g>
       <use xlink:href="#m91dbfe6a2d" x="411.995455" y="189" style="stroke: #000000; stroke-width: 0.8"/>
      </g>
     </g>
     <g id="text_20">
      <!-- 0.50 -->
      <g transform="translate(403.089205 202.07875)scale(0.08 -0.08)">
       <use xlink:href="#DejaVuSans-30"/>
       <use xlink:href="#DejaVuSans-2e" x="63.623047"/>
       <use xlink:href="#DejaVuSans-35" x="95.410156"/>
       <use xlink:href="#DejaVuSans-30" x="159.033203"/>
      </g>
     </g>
    </g>
    <g id="xtick_10">
     <g id="line2d_39">
      <path d="M 440.529545 189 
L 440.529545 25.92 
" clip-path="url(#p514090fd2c)" style="fill: none; stroke-dasharray: 2,3.3; stroke-dashoffset: 0; stroke: #b0b0b0; stroke-width: 2"/>
     </g>
     <g id="line2d_40">
      <g>
       <use xlink:href="#m91dbfe6a2d" x="440.529545" y="189" style="stroke: #000000; stroke-width: 0.8"/>
      </g>
     </g>
     <g id="text_21">
      <!-- 0.75 -->
      <g transform="translate(431.623295 202.07875)scale(0.08 -0.08)">
       <defs>
        <path id="DejaVuSans-37" d="M 525 4666 
L 3525 4666 
L 3525 4397 
L 1831 0 
L 1172 0 
L 2766 4134 
L 525 4134 
L 525 4666 
z
" transform="scale(0.015625)"/>
       </defs>
       <use xlink:href="#DejaVuSans-30"/>
       <use xlink:href="#DejaVuSans-2e" x="63.623047"/>
       <use xlink:href="#DejaVuSans-37" x="95.410156"/>
       <use xlink:href="#DejaVuSans-35" x="159.033203"/>
      </g>
     </g>
    </g>
    <g id="xtick_11">
     <g id="line2d_41">
      <path d="M 469.063636 189 
L 469.063636 25.92 
" clip-path="url(#p514090fd2c)" style="fill: none; stroke-dasharray: 2,3.3; stroke-dashoffset: 0; stroke: #b0b0b0; stroke-width: 2"/>
     </g>
     <g id="line2d_42">
      <g>
       <use xlink:href="#m91dbfe6a2d" x="469.063636" y="189" style="stroke: #000000; stroke-width: 0.8"/>
      </g>
     </g>
     <g id="text_22">
      <!-- 1.00 -->
      <g transform="translate(460.157386 202.07875)scale(0.08 -0.08)">
       <use xlink:href="#DejaVuSans-31"/>
       <use xlink:href="#DejaVuSans-2e" x="63.623047"/>
       <use xlink:href="#DejaVuSans-30" x="95.410156"/>
       <use xlink:href="#DejaVuSans-30" x="159.033203"/>
      </g>
     </g>
    </g>
    <g id="xtick_12">
     <g id="line2d_43">
      <path d="M 497.597727 189 
L 497.597727 25.92 
" clip-path="url(#p514090fd2c)" style="fill: none; stroke-dasharray: 2,3.3; stroke-dashoffset: 0; stroke: #b0b0b0; stroke-width: 2"/>
     </g>
     <g id="line2d_44">
      <g>
       <use xlink:href="#m91dbfe6a2d" x="497.597727" y="189" style="stroke: #000000; stroke-width: 0.8"/>
      </g>
     </g>
     <g id="text_23">
      <!-- 1.25 -->
      <g transform="translate(488.691477 202.07875)scale(0.08 -0.08)">
       <use xlink:href="#DejaVuSans-31"/>
       <use xlink:href="#DejaVuSans-2e" x="63.623047"/>
       <use xlink:href="#DejaVuSans-32" x="95.410156"/>
       <use xlink:href="#DejaVuSans-35" x="159.033203"/>
      </g>
     </g>
    </g>
    <g id="xtick_13">
     <g id="line2d_45">
      <path d="M 526.131818 189 
L 526.131818 25.92 
" clip-path="url(#p514090fd2c)" style="fill: none; stroke-dasharray: 2,3.3; stroke-dashoffset: 0; stroke: #b0b0b0; stroke-width: 2"/>
     </g>
     <g id="line2d_46">
      <g>
       <use xlink:href="#m91dbfe6a2d" x="526.131818" y="189" style="stroke: #000000; stroke-width: 0.8"/>
      </g>
     </g>
     <g id="text_24">
      <!-- 1.50 -->
      <g transform="translate(517.225568 202.07875)scale(0.08 -0.08)">
       <use xlink:href="#DejaVuSans-31"/>
       <use xlink:href="#DejaVuSans-2e" x="63.623047"/>
       <use xlink:href="#DejaVuSans-35" x="95.410156"/>
       <use xlink:href="#DejaVuSans-30" x="159.033203"/>
      </g>
     </g>
    </g>
    <g id="xtick_14">
     <g id="line2d_47">
      <path d="M 554.665909 189 
L 554.665909 25.92 
" clip-path="url(#p514090fd2c)" style="fill: none; stroke-dasharray: 2,3.3; stroke-dashoffset: 0; stroke: #b0b0b0; stroke-width: 2"/>
     </g>
     <g id="line2d_48">
      <g>
       <use xlink:href="#m91dbfe6a2d" x="554.665909" y="189" style="stroke: #000000; stroke-width: 0.8"/>
      </g>
     </g>
     <g id="text_25">
      <!-- 1.75 -->
      <g transform="translate(545.759659 202.07875)scale(0.08 -0.08)">
       <use xlink:href="#DejaVuSans-31"/>
       <use xlink:href="#DejaVuSans-2e" x="63.623047"/>
       <use xlink:href="#DejaVuSans-37" x="95.410156"/>
       <use xlink:href="#DejaVuSans-35" x="159.033203"/>
      </g>
     </g>
    </g>
    <g id="xtick_15">
     <g id="line2d_49">
      <path d="M 583.2 189 
L 583.2 25.92 
" clip-path="url(#p514090fd2c)" style="fill: none; stroke-dasharray: 2,3.3; stroke-dashoffset: 0; stroke: #b0b0b0; stroke-width: 2"/>
     </g>
     <g id="line2d_50">
      <g>
       <use xlink:href="#m91dbfe6a2d" x="583.2" y="189" style="stroke: #000000; stroke-width: 0.8"/>
      </g>
     </g>
     <g id="text_26">
      <!-- 2.00 -->
      <g transform="translate(574.29375 202.07875)scale(0.08 -0.08)">
       <use xlink:href="#DejaVuSans-32"/>
       <use xlink:href="#DejaVuSans-2e" x="63.623047"/>
       <use xlink:href="#DejaVuSans-30" x="95.410156"/>
       <use xlink:href="#DejaVuSans-30" x="159.033203"/>
      </g>
     </g>
    </g>
    <g id="text_27">
     <!-- Timp (s) -->
     <g transform="translate(452.722386 213.82125)scale(0.08 -0.08)">
      <use xlink:href="#DejaVuSans-54"/>
      <use xlink:href="#DejaVuSans-69" x="57.958984"/>
      <use xlink:href="#DejaVuSans-6d" x="85.742188"/>
      <use xlink:href="#DejaVuSans-70" x="183.154297"/>
      <use xlink:href="#DejaVuSans-20" x="246.630859"/>
      <use xlink:href="#DejaVuSans-28" x="278.417969"/>
      <use xlink:href="#DejaVuSans-73" x="317.431641"/>
      <use xlink:href="#DejaVuSans-29" x="369.53125"/>
     </g>
    </g>
   </g>
   <g id="matplotlib.axis_4">
    <g id="ytick_7">
     <g id="line2d_51">
      <path d="M 354.927273 189 
L 583.2 189 
" clip-path="url(#p514090fd2c)" style="fill: none; stroke-dasharray: 2,3.3; stroke-dashoffset: 0; stroke: #b0b0b0; stroke-width: 2"/>
     </g>
     <g id="line2d_52">
      <g>
       <use xlink:href="#mc24af650af" x="354.927273" y="189" style="stroke: #000000; stroke-width: 0.8"/>
      </g>
     </g>
     <g id="text_28">
      <!-- 0 -->
      <g transform="translate(342.837273 192.039375)scale(0.08 -0.08)">
       <use xlink:href="#DejaVuSans-30"/>
      </g>
     </g>
    </g>
    <g id="ytick_8">
     <g id="line2d_53">
      <path d="M 354.927273 156.384 
L 583.2 156.384 
" clip-path="url(#p514090fd2c)" style="fill: none; stroke-dasharray: 2,3.3; stroke-dashoffset: 0; stroke: #b0b0b0; stroke-width: 2"/>
     </g>
     <g id="line2d_54">
      <g>
       <use xlink:href="#mc24af650af" x="354.927273" y="156.384" style="stroke: #000000; stroke-width: 0.8"/>
      </g>
     </g>
     <g id="text_29">
      <!-- 50 -->
      <g transform="translate(337.747273 159.423375)scale(0.08 -0.08)">
       <use xlink:href="#DejaVuSans-35"/>
       <use xlink:href="#DejaVuSans-30" x="63.623047"/>
      </g>
     </g>
    </g>
    <g id="ytick_9">
     <g id="line2d_55">
      <path d="M 354.927273 123.768 
L 583.2 123.768 
" clip-path="url(#p514090fd2c)" style="fill: none; stroke-dasharray: 2,3.3; stroke-dashoffset: 0; stroke: #b0b0b0; stroke-width: 2"/>
     </g>
     <g id="line2d_56">
      <g>
       <use xlink:href="#mc24af650af" x="354.927273" y="123.768" style="stroke: #000000; stroke-width: 0.8"/>
      </g>
     </g>
     <g id="text_30">
      <!-- 100 -->
      <g transform="translate(332.657273 126.807375)scale(0.08 -0.08)">
       <use xlink:href="#DejaVuSans-31"/>
       <use xlink:href="#DejaVuSans-30" x="63.623047"/>
       <use xlink:href="#DejaVuSans-30" x="127.246094"/>
      </g>
     </g>
    </g>
    <g id="ytick_10">
     <g id="line2d_57">
      <path d="M 354.927273 91.152 
L 583.2 91.152 
" clip-path="url(#p514090fd2c)" style="fill: none; stroke-dasharray: 2,3.3; stroke-dashoffset: 0; stroke: #b0b0b0; stroke-width: 2"/>
     </g>
     <g id="line2d_58">
      <g>
       <use xlink:href="#mc24af650af" x="354.927273" y="91.152" style="stroke: #000000; stroke-width: 0.8"/>
      </g>
     </g>
     <g id="text_31">
      <!-- 150 -->
      <g transform="translate(332.657273 94.191375)scale(0.08 -0.08)">
       <use xlink:href="#DejaVuSans-31"/>
       <use xlink:href="#DejaVuSans-35" x="63.623047"/>
       <use xlink:href="#DejaVuSans-30" x="127.246094"/>
      </g>
     </g>
    </g>
    <g id="ytick_11">
     <g id="line2d_59">
      <path d="M 354.927273 58.536 
L 583.2 58.536 
" clip-path="url(#p514090fd2c)" style="fill: none; stroke-dasharray: 2,3.3; stroke-dashoffset: 0; stroke: #b0b0b0; stroke-width: 2"/>
     </g>
     <g id="line2d_60">
      <g>
       <use xlink:href="#mc24af650af" x="354.927273" y="58.536" style="stroke: #000000; stroke-width: 0.8"/>
      </g>
     </g>
     <g id="text_32">
      <!-- 200 -->
      <g transform="translate(332.657273 61.575375)scale(0.08 -0.08)">
       <use xlink:href="#DejaVuSans-32"/>
       <use xlink:href="#DejaVuSans-30" x="63.623047"/>
       <use xlink:href="#DejaVuSans-30" x="127.246094"/>
      </g>
     </g>
    </g>
    <g id="ytick_12">
     <g id="line2d_61">
      <path d="M 354.927273 25.92 
L 583.2 25.92 
" clip-path="url(#p514090fd2c)" style="fill: none; stroke-dasharray: 2,3.3; stroke-dashoffset: 0; stroke: #b0b0b0; stroke-width: 2"/>
     </g>
     <g id="line2d_62">
      <g>
       <use xlink:href="#mc24af650af" x="354.927273" y="25.92" style="stroke: #000000; stroke-width: 0.8"/>
      </g>
     </g>
     <g id="text_33">
      <!-- 250 -->
      <g transform="translate(332.657273 28.959375)scale(0.08 -0.08)">
       <use xlink:href="#DejaVuSans-32"/>
       <use xlink:href="#DejaVuSans-35" x="63.623047"/>
       <use xlink:href="#DejaVuSans-30" x="127.246094"/>
      </g>
     </g>
    </g>
   </g>
   <g id="line2d_63">
    <path d="M 354.927273 104.1984 
L 363.86415 103.57609 
L 371.808041 102.803283 
L 379.124182 101.870517 
L 385.983777 100.773892 
L 392.512377 99.506454 
L 398.778464 98.064457 
L 404.827691 96.445353 
L 410.717127 94.639466 
L 416.4696 92.643363 
L 422.107936 90.45203 
L 427.666377 88.053206 
L 433.156336 85.441476 
L 438.589227 82.610589 
L 443.987877 79.546518 
L 449.3637 76.23913 
L 454.728109 72.67686 
L 460.092518 68.846577 
L 465.468341 64.733461 
L 470.855577 60.330523 
L 476.277055 55.610844 
L 481.732773 50.56483 
L 487.234145 45.171869 
L 492.792586 39.409301 
L 498.408095 33.265181 
L 504.092086 26.714633 
L 509.855973 19.730697 
L 515.711168 12.284339 
L 521.669086 4.344482 
L 525.53335 -1 
L 525.53335 -1 
" clip-path="url(#p514090fd2c)" style="fill: none; stroke: #1f77b4; stroke-width: 1.5; stroke-linecap: square"/>
   </g>
   <g id="line2d_64">
    <path d="M 354.927273 149.8608 
L 362.026555 149.262364 
L 368.908977 148.459937 
L 375.608782 147.455794 
L 382.160209 146.249853 
L 388.5975 144.839128 
L 394.932068 143.223517 
L 401.186741 141.399007 
L 407.384345 139.359315 
L 413.536295 137.100074 
L 419.654005 134.616006 
L 425.748886 131.900821 
L 431.832355 128.947124 
L 437.927236 125.740108 
L 444.033532 122.27526 
L 450.174068 118.53428 
L 456.348845 114.510965 
L 462.569277 110.191535 
L 468.846777 105.560863 
L 475.204173 100.593317 
L 481.641464 95.279278 
L 488.170064 89.599695 
L 494.801386 83.534325 
L 501.558259 77.050616 
L 508.440682 70.136439 
L 515.482895 62.7442 
L 522.696314 54.847109 
L 530.09235 46.418068 
L 537.716659 37.388712 
L 545.580655 27.72794 
L 553.729991 17.361491 
L 562.221736 6.195902 
L 567.558025 -1 
L 567.558025 -1 
" clip-path="url(#p514090fd2c)" style="fill: none; stroke: #ff7f0e; stroke-width: 1.5; stroke-linecap: square"/>
   </g>
   <g id="line2d_65">
    <path d="M 354.927273 189 
L 356.296909 169.080886 
L 357.643718 152.633938 
L 358.9677 139.08846 
L 360.280268 127.877526 
L 361.570009 118.719569 
L 362.836923 111.272031 
L 364.081009 105.248035 
L 365.290855 100.44811 
L 366.477873 96.614719 
L 367.642064 93.58297 
L 368.772014 91.235703 
L 369.879136 89.426856 
L 370.974845 88.049288 
L 372.059141 87.033702 
L 373.143436 86.314425 
L 374.261973 85.836656 
L 375.437577 85.577794 
L 376.704491 85.529283 
L 378.119782 85.701779 
L 379.774759 86.135245 
L 381.829214 86.916151 
L 384.751105 88.288431 
L 392.48955 92.017155 
L 395.571232 93.198046 
L 398.424641 94.055867 
L 401.186741 94.655639 
L 403.937427 95.025898 
L 406.722355 95.176187 
L 409.587177 95.10673 
L 412.566136 94.809603 
L 415.682059 94.273168 
L 418.9806 93.476891 
L 422.484586 92.399545 
L 426.228259 91.013193 
L 430.245859 89.28483 
L 434.5488 87.187813 
L 439.137082 84.700681 
L 443.987877 81.815492 
L 449.078359 78.526389 
L 454.351459 74.852632 
L 459.761523 70.811154 
L 465.274309 66.413843 
L 470.844164 61.685518 
L 476.459673 56.625838 
L 482.109423 51.235114 
L 487.793414 45.503425 
L 493.523059 39.408172 
L 499.298359 32.937503 
L 505.119314 26.080066 
L 511.00875 18.796353 
L 516.978082 11.057455 
L 523.027309 2.848515 
L 525.773714 -1 
L 525.773714 -1 
" clip-path="url(#p514090fd2c)" style="fill: none; stroke: #2ca02c; stroke-width: 1.5; stroke-linecap: square"/>
   </g>
   <g id="line2d_66">
    <path d="M 354.927273 189 
L 356.285495 179.459929 
L 357.620891 171.605929 
L 358.944873 165.105121 
L 360.246027 159.790356 
L 361.535768 155.425755 
L 362.814095 151.862276 
L 364.081009 148.972796 
L 365.336509 146.648952 
L 366.592009 144.783337 
L 367.847509 143.307084 
L 369.125836 142.141864 
L 370.438405 141.242486 
L 371.819455 140.564699 
L 373.303227 140.085099 
L 374.946791 139.790059 
L 376.852868 139.680228 
L 379.192664 139.778035 
L 382.548273 140.16261 
L 391.085673 141.217815 
L 394.74945 141.395951 
L 398.207782 141.341975 
L 401.643286 141.06555 
L 405.147273 140.559455 
L 408.788223 139.807079 
L 412.623205 138.784754 
L 416.697873 137.464972 
L 421.046468 135.819603 
L 425.714645 133.812184 
L 430.713818 131.417294 
L 436.0554 128.608591 
L 441.70515 125.383872 
L 447.617414 121.751348 
L 453.746536 117.722827 
L 460.03545 113.321537 
L 466.4385 108.56772 
L 472.932859 103.468132 
L 479.507114 98.022087 
L 486.161264 92.220005 
L 492.906723 86.041693 
L 499.743491 79.476771 
L 506.694395 72.492434 
L 513.782264 65.05312 
L 521.018509 57.13352 
L 528.437373 48.681648 
L 536.050268 39.669152 
L 543.90285 30.025493 
L 552.029359 19.690068 
L 560.47545 8.585052 
L 567.560905 -1 
L 567.560905 -1 
" clip-path="url(#p514090fd2c)" style="fill: none; stroke: #d62728; stroke-width: 1.5; stroke-linecap: square"/>
   </g>
   <g id="patch_9">
    <path d="M 354.927273 189 
L 354.927273 25.92 
" style="fill: none; stroke: #000000; stroke-width: 0.8; stroke-linejoin: miter; stroke-linecap: square"/>
   </g>
   <g id="patch_10">
    <path d="M 583.2 189 
L 583.2 25.92 
" style="fill: none; stroke: #000000; stroke-width: 0.8; stroke-linejoin: miter; stroke-linecap: square"/>
   </g>
   <g id="patch_11">
    <path d="M 354.927273 189 
L 583.2 189 
" style="fill: none; stroke: #000000; stroke-width: 0.8; stroke-linejoin: miter; stroke-linecap: square"/>
   </g>
   <g id="patch_12">
    <path d="M 354.927273 25.92 
L 583.2 25.92 
" style="fill: none; stroke: #000000; stroke-width: 0.8; stroke-linejoin: miter; stroke-linecap: square"/>
   </g>
   <g id="legend_2">
    <g id="patch_13">
     <path d="M 466.08625 185 
L 577.6 185 
Q 579.2 185 579.2 183.4 
L 579.2 136.11 
Q 579.2 134.51 577.6 134.51 
L 466.08625 134.51 
Q 464.48625 134.51 464.48625 136.11 
L 464.48625 183.4 
Q 464.48625 185 466.08625 185 
z
" style="fill: #ffffff; opacity: 0.8; stroke: #cccccc; stroke-linejoin: miter"/>
    </g>
    <g id="line2d_67">
     <path d="M 467.68625 140.98875 
L 475.68625 140.98875 
L 483.68625 140.98875 
" style="fill: none; stroke: #1f77b4; stroke-width: 1.5; stroke-linecap: square"/>
    </g>
    <g id="text_34">
     <!-- Poziție X (m) -->
     <g transform="translate(490.08625 143.78875)scale(0.08 -0.08)">
      <defs>
       <path id="DejaVuSans-50" d="M 1259 4147 
L 1259 2394 
L 2053 2394 
Q 2494 2394 2734 2622 
Q 2975 2850 2975 3272 
Q 2975 3691 2734 3919 
Q 2494 4147 2053 4147 
L 1259 4147 
z
M 628 4666 
L 2053 4666 
Q 2838 4666 3239 4311 
Q 3641 3956 3641 3272 
Q 3641 2581 3239 2228 
Q 2838 1875 2053 1875 
L 1259 1875 
L 1259 0 
L 628 0 
L 628 4666 
z
" transform="scale(0.015625)"/>
       <path id="DejaVuSans-6f" d="M 1959 3097 
Q 1497 3097 1228 2736 
Q 959 2375 959 1747 
Q 959 1119 1226 758 
Q 1494 397 1959 397 
Q 2419 397 2687 759 
Q 2956 1122 2956 1747 
Q 2956 2369 2687 2733 
Q 2419 3097 1959 3097 
z
M 1959 3584 
Q 2709 3584 3137 3096 
Q 3566 2609 3566 1747 
Q 3566 888 3137 398 
Q 2709 -91 1959 -91 
Q 1206 -91 779 398 
Q 353 888 353 1747 
Q 353 2609 779 3096 
Q 1206 3584 1959 3584 
z
" transform="scale(0.015625)"/>
       <path id="DejaVuSans-21b" d="M 1388 -538 
L 2047 -538 
L 1534 -1538 
L 1131 -1538 
L 1388 -538 
z
M 1172 4494 
L 1172 3500 
L 2356 3500 
L 2356 3053 
L 1172 3053 
L 1172 1153 
Q 1172 725 1289 603 
Q 1406 481 1766 481 
L 2356 481 
L 2356 0 
L 1766 0 
Q 1100 0 847 248 
Q 594 497 594 1153 
L 594 3053 
L 172 3053 
L 172 3500 
L 594 3500 
L 594 4494 
L 1172 4494 
z
" transform="scale(0.015625)"/>
      </defs>
      <use xlink:href="#DejaVuSans-50"/>
      <use xlink:href="#DejaVuSans-6f" x="56.677734"/>
      <use xlink:href="#DejaVuSans-7a" x="117.859375"/>
      <use xlink:href="#DejaVuSans-69" x="170.349609"/>
      <use xlink:href="#DejaVuSans-21b" x="198.132812"/>
      <use xlink:href="#DejaVuSans-69" x="237.341797"/>
      <use xlink:href="#DejaVuSans-65" x="265.125"/>
      <use xlink:href="#DejaVuSans-20" x="326.648438"/>
      <use xlink:href="#DejaVuSans-58" x="358.435547"/>
      <use xlink:href="#DejaVuSans-20" x="426.941406"/>
      <use xlink:href="#DejaVuSans-28" x="458.728516"/>
      <use xlink:href="#DejaVuSans-6d" x="497.742188"/>
      <use xlink:href="#DejaVuSans-29" x="595.154297"/>
     </g>
    </g>
    <g id="line2d_68">
     <path d="M 467.68625 152.99 
L 475.68625 152.99 
L 483.68625 152.99 
" style="fill: none; stroke: #ff7f0e; stroke-width: 1.5; stroke-linecap: square"/>
    </g>
    <g id="text_35">
     <!-- Poziție Y (m) -->
     <g transform="translate(490.08625 155.79)scale(0.08 -0.08)">
      <use xlink:href="#DejaVuSans-50"/>
      <use xlink:href="#DejaVuSans-6f" x="56.677734"/>
      <use xlink:href="#DejaVuSans-7a" x="117.859375"/>
      <use xlink:href="#DejaVuSans-69" x="170.349609"/>
      <use xlink:href="#DejaVuSans-21b" x="198.132812"/>
      <use xlink:href="#DejaVuSans-69" x="237.341797"/>
      <use xlink:href="#DejaVuSans-65" x="265.125"/>
      <use xlink:href="#DejaVuSans-20" x="326.648438"/>
      <use xlink:href="#DejaVuSans-59" x="358.435547"/>
      <use xlink:href="#DejaVuSans-20" x="419.519531"/>
      <use xlink:href="#DejaVuSans-28" x="451.306641"/>
      <use xlink:href="#DejaVuSans-6d" x="490.320312"/>
      <use xlink:href="#DejaVuSans-29" x="587.732422"/>
     </g>
    </g>
    <g id="line2d_69">
     <path d="M 467.68625 165.03375 
L 475.68625 165.03375 
L 483.68625 165.03375 
" style="fill: none; stroke: #2ca02c; stroke-width: 1.5; stroke-linecap: square"/>
    </g>
    <g id="text_36">
     <!-- Poziție estimată X(m) -->
     <g transform="translate(490.08625 167.83375)scale(0.08 -0.08)">
      <use xlink:href="#DejaVuSans-50"/>
      <use xlink:href="#DejaVuSans-6f" x="56.677734"/>
      <use xlink:href="#DejaVuSans-7a" x="117.859375"/>
      <use xlink:href="#DejaVuSans-69" x="170.349609"/>
      <use xlink:href="#DejaVuSans-21b" x="198.132812"/>
      <use xlink:href="#DejaVuSans-69" x="237.341797"/>
      <use xlink:href="#DejaVuSans-65" x="265.125"/>
      <use xlink:href="#DejaVuSans-20" x="326.648438"/>
      <use xlink:href="#DejaVuSans-65" x="358.435547"/>
      <use xlink:href="#DejaVuSans-73" x="419.958984"/>
      <use xlink:href="#DejaVuSans-74" x="472.058594"/>
      <use xlink:href="#DejaVuSans-69" x="511.267578"/>
      <use xlink:href="#DejaVuSans-6d" x="539.050781"/>
      <use xlink:href="#DejaVuSans-61" x="636.462891"/>
      <use xlink:href="#DejaVuSans-74" x="697.742188"/>
      <use xlink:href="#DejaVuSans-103" x="736.951172"/>
      <use xlink:href="#DejaVuSans-20" x="798.230469"/>
      <use xlink:href="#DejaVuSans-58" x="830.017578"/>
      <use xlink:href="#DejaVuSans-28" x="898.523438"/>
      <use xlink:href="#DejaVuSans-6d" x="937.537109"/>
      <use xlink:href="#DejaVuSans-29" x="1034.949219"/>
     </g>
    </g>
    <g id="line2d_70">
     <path d="M 467.68625 177.0775 
L 475.68625 177.0775 
L 483.68625 177.0775 
" style="fill: none; stroke: #d62728; stroke-width: 1.5; stroke-linecap: square"/>
    </g>
    <g id="text_37">
     <!-- Poziție estimată Y(m) -->
     <g transform="translate(490.08625 179.8775)scale(0.08 -0.08)">
      <use xlink:href="#DejaVuSans-50"/>
      <use xlink:href="#DejaVuSans-6f" x="56.677734"/>
      <use xlink:href="#DejaVuSans-7a" x="117.859375"/>
      <use xlink:href="#DejaVuSans-69" x="170.349609"/>
      <use xlink:href="#DejaVuSans-21b" x="198.132812"/>
      <use xlink:href="#DejaVuSans-69" x="237.341797"/>
      <use xlink:href="#DejaVuSans-65" x="265.125"/>
      <use xlink:href="#DejaVuSans-20" x="326.648438"/>
      <use xlink:href="#DejaVuSans-65" x="358.435547"/>
      <use xlink:href="#DejaVuSans-73" x="419.958984"/>
      <use xlink:href="#DejaVuSans-74" x="472.058594"/>
      <use xlink:href="#DejaVuSans-69" x="511.267578"/>
      <use xlink:href="#DejaVuSans-6d" x="539.050781"/>
      <use xlink:href="#DejaVuSans-61" x="636.462891"/>
      <use xlink:href="#DejaVuSans-74" x="697.742188"/>
      <use xlink:href="#DejaVuSans-103" x="736.951172"/>
      <use xlink:href="#DejaVuSans-20" x="798.230469"/>
      <use xlink:href="#DejaVuSans-59" x="830.017578"/>
      <use xlink:href="#DejaVuSans-28" x="891.101562"/>
      <use xlink:href="#DejaVuSans-6d" x="930.115234"/>
      <use xlink:href="#DejaVuSans-29" x="1027.527344"/>
     </g>
    </g>
   </g>
  </g>
 </g>
 <defs>
  <clipPath id="p564df41cb7">
   <rect x="81" y="25.92" width="228.272727" height="163.08"/>
  </clipPath>
  <clipPath id="p514090fd2c">
   <rect x="354.927273" y="25.92" width="228.272727" height="163.08"/>
  </clipPath>
 </defs>
</svg>
