<?xml version="1.0" encoding="utf-8" standalone="no"?>
<!DOCTYPE svg PUBLIC "-//W3C//DTD SVG 1.1//EN"
  "http://www.w3.org/Graphics/SVG/1.1/DTD/svg11.dtd">
<svg xmlns:xlink="http://www.w3.org/1999/xlink" width="648pt" height="216pt" viewBox="0 0 648 216" xmlns="http://www.w3.org/2000/svg" version="1.1">
 <metadata>
  <rdf:RDF xmlns:dc="http://purl.org/dc/elements/1.1/" xmlns:cc="http://creativecommons.org/ns#" xmlns:rdf="http://www.w3.org/1999/02/22-rdf-syntax-ns#">
   <cc:Work>
    <dc:type rdf:resource="http://purl.org/dc/dcmitype/StillImage"/>
    <dc:date>2022-06-12T11:41:35.049128</dc:date>
    <dc:format>image/svg+xml</dc:format>
    <dc:creator>
     <cc:Agent>
      <dc:title>Matplotlib v3.5.1, https://matplotlib.org/</dc:title>
     </cc:Agent>
    </dc:creator>
   </cc:Work>
  </rdf:RDF>
 </metadata>
 <defs>
  <style type="text/css">*{stroke-linejoin: round; stroke-linecap: butt}</style>
 </defs>
 <g id="figure_1">
  <g id="patch_1">
   <path d="M 0 216 
L 648 216 
L 648 0 
L 0 0 
L 0 216 
z
" style="fill: none"/>
  </g>
  <g id="axes_1">
   <g id="patch_2">
    <path d="M 81 189 
L 309.272727 189 
L 309.272727 25.92 
L 81 25.92 
z
" style="fill: #ffffff"/>
   </g>
   <g id="matplotlib.axis_1">
    <g id="xtick_1">
     <g id="line2d_1">
      <path d="M 81 189 
L 81 25.92 
" clip-path="url(#p023af0ee13)" style="fill: none; stroke-dasharray: 2,3.3; stroke-dashoffset: 0; stroke: #b0b0b0; stroke-width: 2"/>
     </g>
     <g id="line2d_2">
      <defs>
       <path id="m69a3ca2238" d="M 0 0 
L 0 3.5 
" style="stroke: #000000; stroke-width: 0.8"/>
      </defs>
      <g>
       <use xlink:href="#m69a3ca2238" x="81" y="189" style="stroke: #000000; stroke-width: 0.8"/>
      </g>
     </g>
     <g id="text_1">
      <!-- 0.0 -->
      <g transform="translate(74.63875 202.07875)scale(0.08 -0.08)">
       <defs>
        <path id="DejaVuSans-30" d="M 2034 4250 
Q 1547 4250 1301 3770 
Q 1056 3291 1056 2328 
Q 1056 1369 1301 889 
Q 1547 409 2034 409 
Q 2525 409 2770 889 
Q 3016 1369 3016 2328 
Q 3016 3291 2770 3770 
Q 2525 4250 2034 4250 
z
M 2034 4750 
Q 2819 4750 3233 4129 
Q 3647 3509 3647 2328 
Q 3647 1150 3233 529 
Q 2819 -91 2034 -91 
Q 1250 -91 836 529 
Q 422 1150 422 2328 
Q 422 3509 836 4129 
Q 1250 4750 2034 4750 
z
" transform="scale(0.015625)"/>
        <path id="DejaVuSans-2e" d="M 684 794 
L 1344 794 
L 1344 0 
L 684 0 
L 684 794 
z
" transform="scale(0.015625)"/>
       </defs>
       <use xlink:href="#DejaVuSans-30"/>
       <use xlink:href="#DejaVuSans-2e" x="63.623047"/>
       <use xlink:href="#DejaVuSans-30" x="95.410156"/>
      </g>
     </g>
    </g>
    <g id="xtick_2">
     <g id="line2d_3">
      <path d="M 119.045455 189 
L 119.045455 25.92 
" clip-path="url(#p023af0ee13)" style="fill: none; stroke-dasharray: 2,3.3; stroke-dashoffset: 0; stroke: #b0b0b0; stroke-width: 2"/>
     </g>
     <g id="line2d_4">
      <g>
       <use xlink:href="#m69a3ca2238" x="119.045455" y="189" style="stroke: #000000; stroke-width: 0.8"/>
      </g>
     </g>
     <g id="text_2">
      <!-- 0.5 -->
      <g transform="translate(112.684205 202.07875)scale(0.08 -0.08)">
       <defs>
        <path id="DejaVuSans-35" d="M 691 4666 
L 3169 4666 
L 3169 4134 
L 1269 4134 
L 1269 2991 
Q 1406 3038 1543 3061 
Q 1681 3084 1819 3084 
Q 2600 3084 3056 2656 
Q 3513 2228 3513 1497 
Q 3513 744 3044 326 
Q 2575 -91 1722 -91 
Q 1428 -91 1123 -41 
Q 819 9 494 109 
L 494 744 
Q 775 591 1075 516 
Q 1375 441 1709 441 
Q 2250 441 2565 725 
Q 2881 1009 2881 1497 
Q 2881 1984 2565 2268 
Q 2250 2553 1709 2553 
Q 1456 2553 1204 2497 
Q 953 2441 691 2322 
L 691 4666 
z
" transform="scale(0.015625)"/>
       </defs>
       <use xlink:href="#DejaVuSans-30"/>
       <use xlink:href="#DejaVuSans-2e" x="63.623047"/>
       <use xlink:href="#DejaVuSans-35" x="95.410156"/>
      </g>
     </g>
    </g>
    <g id="xtick_3">
     <g id="line2d_5">
      <path d="M 157.090909 189 
L 157.090909 25.92 
" clip-path="url(#p023af0ee13)" style="fill: none; stroke-dasharray: 2,3.3; stroke-dashoffset: 0; stroke: #b0b0b0; stroke-width: 2"/>
     </g>
     <g id="line2d_6">
      <g>
       <use xlink:href="#m69a3ca2238" x="157.090909" y="189" style="stroke: #000000; stroke-width: 0.8"/>
      </g>
     </g>
     <g id="text_3">
      <!-- 1.0 -->
      <g transform="translate(150.729659 202.07875)scale(0.08 -0.08)">
       <defs>
        <path id="DejaVuSans-31" d="M 794 531 
L 1825 531 
L 1825 4091 
L 703 3866 
L 703 4441 
L 1819 4666 
L 2450 4666 
L 2450 531 
L 3481 531 
L 3481 0 
L 794 0 
L 794 531 
z
" transform="scale(0.015625)"/>
       </defs>
       <use xlink:href="#DejaVuSans-31"/>
       <use xlink:href="#DejaVuSans-2e" x="63.623047"/>
       <use xlink:href="#DejaVuSans-30" x="95.410156"/>
      </g>
     </g>
    </g>
    <g id="xtick_4">
     <g id="line2d_7">
      <path d="M 195.136364 189 
L 195.136364 25.92 
" clip-path="url(#p023af0ee13)" style="fill: none; stroke-dasharray: 2,3.3; stroke-dashoffset: 0; stroke: #b0b0b0; stroke-width: 2"/>
     </g>
     <g id="line2d_8">
      <g>
       <use xlink:href="#m69a3ca2238" x="195.136364" y="189" style="stroke: #000000; stroke-width: 0.8"/>
      </g>
     </g>
     <g id="text_4">
      <!-- 1.5 -->
      <g transform="translate(188.775114 202.07875)scale(0.08 -0.08)">
       <use xlink:href="#DejaVuSans-31"/>
       <use xlink:href="#DejaVuSans-2e" x="63.623047"/>
       <use xlink:href="#DejaVuSans-35" x="95.410156"/>
      </g>
     </g>
    </g>
    <g id="xtick_5">
     <g id="line2d_9">
      <path d="M 233.181818 189 
L 233.181818 25.92 
" clip-path="url(#p023af0ee13)" style="fill: none; stroke-dasharray: 2,3.3; stroke-dashoffset: 0; stroke: #b0b0b0; stroke-width: 2"/>
     </g>
     <g id="line2d_10">
      <g>
       <use xlink:href="#m69a3ca2238" x="233.181818" y="189" style="stroke: #000000; stroke-width: 0.8"/>
      </g>
     </g>
     <g id="text_5">
      <!-- 2.0 -->
      <g transform="translate(226.820568 202.07875)scale(0.08 -0.08)">
       <defs>
        <path id="DejaVuSans-32" d="M 1228 531 
L 3431 531 
L 3431 0 
L 469 0 
L 469 531 
Q 828 903 1448 1529 
Q 2069 2156 2228 2338 
Q 2531 2678 2651 2914 
Q 2772 3150 2772 3378 
Q 2772 3750 2511 3984 
Q 2250 4219 1831 4219 
Q 1534 4219 1204 4116 
Q 875 4013 500 3803 
L 500 4441 
Q 881 4594 1212 4672 
Q 1544 4750 1819 4750 
Q 2544 4750 2975 4387 
Q 3406 4025 3406 3419 
Q 3406 3131 3298 2873 
Q 3191 2616 2906 2266 
Q 2828 2175 2409 1742 
Q 1991 1309 1228 531 
z
" transform="scale(0.015625)"/>
       </defs>
       <use xlink:href="#DejaVuSans-32"/>
       <use xlink:href="#DejaVuSans-2e" x="63.623047"/>
       <use xlink:href="#DejaVuSans-30" x="95.410156"/>
      </g>
     </g>
    </g>
    <g id="xtick_6">
     <g id="line2d_11">
      <path d="M 271.227273 189 
L 271.227273 25.92 
" clip-path="url(#p023af0ee13)" style="fill: none; stroke-dasharray: 2,3.3; stroke-dashoffset: 0; stroke: #b0b0b0; stroke-width: 2"/>
     </g>
     <g id="line2d_12">
      <g>
       <use xlink:href="#m69a3ca2238" x="271.227273" y="189" style="stroke: #000000; stroke-width: 0.8"/>
      </g>
     </g>
     <g id="text_6">
      <!-- 2.5 -->
      <g transform="translate(264.866023 202.07875)scale(0.08 -0.08)">
       <use xlink:href="#DejaVuSans-32"/>
       <use xlink:href="#DejaVuSans-2e" x="63.623047"/>
       <use xlink:href="#DejaVuSans-35" x="95.410156"/>
      </g>
     </g>
    </g>
    <g id="xtick_7">
     <g id="line2d_13">
      <path d="M 309.272727 189 
L 309.272727 25.92 
" clip-path="url(#p023af0ee13)" style="fill: none; stroke-dasharray: 2,3.3; stroke-dashoffset: 0; stroke: #b0b0b0; stroke-width: 2"/>
     </g>
     <g id="line2d_14">
      <g>
       <use xlink:href="#m69a3ca2238" x="309.272727" y="189" style="stroke: #000000; stroke-width: 0.8"/>
      </g>
     </g>
     <g id="text_7">
      <!-- 3.0 -->
      <g transform="translate(302.911477 202.07875)scale(0.08 -0.08)">
       <defs>
        <path id="DejaVuSans-33" d="M 2597 2516 
Q 3050 2419 3304 2112 
Q 3559 1806 3559 1356 
Q 3559 666 3084 287 
Q 2609 -91 1734 -91 
Q 1441 -91 1130 -33 
Q 819 25 488 141 
L 488 750 
Q 750 597 1062 519 
Q 1375 441 1716 441 
Q 2309 441 2620 675 
Q 2931 909 2931 1356 
Q 2931 1769 2642 2001 
Q 2353 2234 1838 2234 
L 1294 2234 
L 1294 2753 
L 1863 2753 
Q 2328 2753 2575 2939 
Q 2822 3125 2822 3475 
Q 2822 3834 2567 4026 
Q 2313 4219 1838 4219 
Q 1578 4219 1281 4162 
Q 984 4106 628 3988 
L 628 4550 
Q 988 4650 1302 4700 
Q 1616 4750 1894 4750 
Q 2613 4750 3031 4423 
Q 3450 4097 3450 3541 
Q 3450 3153 3228 2886 
Q 3006 2619 2597 2516 
z
" transform="scale(0.015625)"/>
       </defs>
       <use xlink:href="#DejaVuSans-33"/>
       <use xlink:href="#DejaVuSans-2e" x="63.623047"/>
       <use xlink:href="#DejaVuSans-30" x="95.410156"/>
      </g>
     </g>
    </g>
    <g id="text_8">
     <!-- Timp (s) -->
     <g transform="translate(178.795114 213.82125)scale(0.08 -0.08)">
      <defs>
       <path id="DejaVuSans-54" d="M -19 4666 
L 3928 4666 
L 3928 4134 
L 2272 4134 
L 2272 0 
L 1638 0 
L 1638 4134 
L -19 4134 
L -19 4666 
z
" transform="scale(0.015625)"/>
       <path id="DejaVuSans-69" d="M 603 3500 
L 1178 3500 
L 1178 0 
L 603 0 
L 603 3500 
z
M 603 4863 
L 1178 4863 
L 1178 4134 
L 603 4134 
L 603 4863 
z
" transform="scale(0.015625)"/>
       <path id="DejaVuSans-6d" d="M 3328 2828 
Q 3544 3216 3844 3400 
Q 4144 3584 4550 3584 
Q 5097 3584 5394 3201 
Q 5691 2819 5691 2113 
L 5691 0 
L 5113 0 
L 5113 2094 
Q 5113 2597 4934 2840 
Q 4756 3084 4391 3084 
Q 3944 3084 3684 2787 
Q 3425 2491 3425 1978 
L 3425 0 
L 2847 0 
L 2847 2094 
Q 2847 2600 2669 2842 
Q 2491 3084 2119 3084 
Q 1678 3084 1418 2786 
Q 1159 2488 1159 1978 
L 1159 0 
L 581 0 
L 581 3500 
L 1159 3500 
L 1159 2956 
Q 1356 3278 1631 3431 
Q 1906 3584 2284 3584 
Q 2666 3584 2933 3390 
Q 3200 3197 3328 2828 
z
" transform="scale(0.015625)"/>
       <path id="DejaVuSans-70" d="M 1159 525 
L 1159 -1331 
L 581 -1331 
L 581 3500 
L 1159 3500 
L 1159 2969 
Q 1341 3281 1617 3432 
Q 1894 3584 2278 3584 
Q 2916 3584 3314 3078 
Q 3713 2572 3713 1747 
Q 3713 922 3314 415 
Q 2916 -91 2278 -91 
Q 1894 -91 1617 61 
Q 1341 213 1159 525 
z
M 3116 1747 
Q 3116 2381 2855 2742 
Q 2594 3103 2138 3103 
Q 1681 3103 1420 2742 
Q 1159 2381 1159 1747 
Q 1159 1113 1420 752 
Q 1681 391 2138 391 
Q 2594 391 2855 752 
Q 3116 1113 3116 1747 
z
" transform="scale(0.015625)"/>
       <path id="DejaVuSans-20" transform="scale(0.015625)"/>
       <path id="DejaVuSans-28" d="M 1984 4856 
Q 1566 4138 1362 3434 
Q 1159 2731 1159 2009 
Q 1159 1288 1364 580 
Q 1569 -128 1984 -844 
L 1484 -844 
Q 1016 -109 783 600 
Q 550 1309 550 2009 
Q 550 2706 781 3412 
Q 1013 4119 1484 4856 
L 1984 4856 
z
" transform="scale(0.015625)"/>
       <path id="DejaVuSans-73" d="M 2834 3397 
L 2834 2853 
Q 2591 2978 2328 3040 
Q 2066 3103 1784 3103 
Q 1356 3103 1142 2972 
Q 928 2841 928 2578 
Q 928 2378 1081 2264 
Q 1234 2150 1697 2047 
L 1894 2003 
Q 2506 1872 2764 1633 
Q 3022 1394 3022 966 
Q 3022 478 2636 193 
Q 2250 -91 1575 -91 
Q 1294 -91 989 -36 
Q 684 19 347 128 
L 347 722 
Q 666 556 975 473 
Q 1284 391 1588 391 
Q 1994 391 2212 530 
Q 2431 669 2431 922 
Q 2431 1156 2273 1281 
Q 2116 1406 1581 1522 
L 1381 1569 
Q 847 1681 609 1914 
Q 372 2147 372 2553 
Q 372 3047 722 3315 
Q 1072 3584 1716 3584 
Q 2034 3584 2315 3537 
Q 2597 3491 2834 3397 
z
" transform="scale(0.015625)"/>
       <path id="DejaVuSans-29" d="M 513 4856 
L 1013 4856 
Q 1481 4119 1714 3412 
Q 1947 2706 1947 2009 
Q 1947 1309 1714 600 
Q 1481 -109 1013 -844 
L 513 -844 
Q 928 -128 1133 580 
Q 1338 1288 1338 2009 
Q 1338 2731 1133 3434 
Q 928 4138 513 4856 
z
" transform="scale(0.015625)"/>
      </defs>
      <use xlink:href="#DejaVuSans-54"/>
      <use xlink:href="#DejaVuSans-69" x="57.958984"/>
      <use xlink:href="#DejaVuSans-6d" x="85.742188"/>
      <use xlink:href="#DejaVuSans-70" x="183.154297"/>
      <use xlink:href="#DejaVuSans-20" x="246.630859"/>
      <use xlink:href="#DejaVuSans-28" x="278.417969"/>
      <use xlink:href="#DejaVuSans-73" x="317.431641"/>
      <use xlink:href="#DejaVuSans-29" x="369.53125"/>
     </g>
    </g>
   </g>
   <g id="matplotlib.axis_2">
    <g id="ytick_1">
     <g id="line2d_15">
      <path d="M 81 188.064247 
L 309.272727 188.064247 
" clip-path="url(#p023af0ee13)" style="fill: none; stroke-dasharray: 2,3.3; stroke-dashoffset: 0; stroke: #b0b0b0; stroke-width: 2"/>
     </g>
     <g id="line2d_16">
      <defs>
       <path id="m452dd4743f" d="M 0 0 
L -3.5 0 
" style="stroke: #000000; stroke-width: 0.8"/>
      </defs>
      <g>
       <use xlink:href="#m452dd4743f" x="81" y="188.064247" style="stroke: #000000; stroke-width: 0.8"/>
      </g>
     </g>
     <g id="text_9">
      <!-- −400 -->
      <g transform="translate(52.02625 191.103622)scale(0.08 -0.08)">
       <defs>
        <path id="DejaVuSans-2212" d="M 678 2272 
L 4684 2272 
L 4684 1741 
L 678 1741 
L 678 2272 
z
" transform="scale(0.015625)"/>
        <path id="DejaVuSans-34" d="M 2419 4116 
L 825 1625 
L 2419 1625 
L 2419 4116 
z
M 2253 4666 
L 3047 4666 
L 3047 1625 
L 3713 1625 
L 3713 1100 
L 3047 1100 
L 3047 0 
L 2419 0 
L 2419 1100 
L 313 1100 
L 313 1709 
L 2253 4666 
z
" transform="scale(0.015625)"/>
       </defs>
       <use xlink:href="#DejaVuSans-2212"/>
       <use xlink:href="#DejaVuSans-34" x="83.789062"/>
       <use xlink:href="#DejaVuSans-30" x="147.412109"/>
       <use xlink:href="#DejaVuSans-30" x="211.035156"/>
      </g>
     </g>
    </g>
    <g id="ytick_2">
     <g id="line2d_17">
      <path d="M 81 160.307554 
L 309.272727 160.307554 
" clip-path="url(#p023af0ee13)" style="fill: none; stroke-dasharray: 2,3.3; stroke-dashoffset: 0; stroke: #b0b0b0; stroke-width: 2"/>
     </g>
     <g id="line2d_18">
      <g>
       <use xlink:href="#m452dd4743f" x="81" y="160.307554" style="stroke: #000000; stroke-width: 0.8"/>
      </g>
     </g>
     <g id="text_10">
      <!-- −300 -->
      <g transform="translate(52.02625 163.346929)scale(0.08 -0.08)">
       <use xlink:href="#DejaVuSans-2212"/>
       <use xlink:href="#DejaVuSans-33" x="83.789062"/>
       <use xlink:href="#DejaVuSans-30" x="147.412109"/>
       <use xlink:href="#DejaVuSans-30" x="211.035156"/>
      </g>
     </g>
    </g>
    <g id="ytick_3">
     <g id="line2d_19">
      <path d="M 81 132.550861 
L 309.272727 132.550861 
" clip-path="url(#p023af0ee13)" style="fill: none; stroke-dasharray: 2,3.3; stroke-dashoffset: 0; stroke: #b0b0b0; stroke-width: 2"/>
     </g>
     <g id="line2d_20">
      <g>
       <use xlink:href="#m452dd4743f" x="81" y="132.550861" style="stroke: #000000; stroke-width: 0.8"/>
      </g>
     </g>
     <g id="text_11">
      <!-- −200 -->
      <g transform="translate(52.02625 135.590236)scale(0.08 -0.08)">
       <use xlink:href="#DejaVuSans-2212"/>
       <use xlink:href="#DejaVuSans-32" x="83.789062"/>
       <use xlink:href="#DejaVuSans-30" x="147.412109"/>
       <use xlink:href="#DejaVuSans-30" x="211.035156"/>
      </g>
     </g>
    </g>
    <g id="ytick_4">
     <g id="line2d_21">
      <path d="M 81 104.794167 
L 309.272727 104.794167 
" clip-path="url(#p023af0ee13)" style="fill: none; stroke-dasharray: 2,3.3; stroke-dashoffset: 0; stroke: #b0b0b0; stroke-width: 2"/>
     </g>
     <g id="line2d_22">
      <g>
       <use xlink:href="#m452dd4743f" x="81" y="104.794167" style="stroke: #000000; stroke-width: 0.8"/>
      </g>
     </g>
     <g id="text_12">
      <!-- −100 -->
      <g transform="translate(52.02625 107.833542)scale(0.08 -0.08)">
       <use xlink:href="#DejaVuSans-2212"/>
       <use xlink:href="#DejaVuSans-31" x="83.789062"/>
       <use xlink:href="#DejaVuSans-30" x="147.412109"/>
       <use xlink:href="#DejaVuSans-30" x="211.035156"/>
      </g>
     </g>
    </g>
    <g id="ytick_5">
     <g id="line2d_23">
      <path d="M 81 77.037474 
L 309.272727 77.037474 
" clip-path="url(#p023af0ee13)" style="fill: none; stroke-dasharray: 2,3.3; stroke-dashoffset: 0; stroke: #b0b0b0; stroke-width: 2"/>
     </g>
     <g id="line2d_24">
      <g>
       <use xlink:href="#m452dd4743f" x="81" y="77.037474" style="stroke: #000000; stroke-width: 0.8"/>
      </g>
     </g>
     <g id="text_13">
      <!-- 0 -->
      <g transform="translate(68.91 80.076849)scale(0.08 -0.08)">
       <use xlink:href="#DejaVuSans-30"/>
      </g>
     </g>
    </g>
    <g id="ytick_6">
     <g id="line2d_25">
      <path d="M 81 49.280781 
L 309.272727 49.280781 
" clip-path="url(#p023af0ee13)" style="fill: none; stroke-dasharray: 2,3.3; stroke-dashoffset: 0; stroke: #b0b0b0; stroke-width: 2"/>
     </g>
     <g id="line2d_26">
      <g>
       <use xlink:href="#m452dd4743f" x="81" y="49.280781" style="stroke: #000000; stroke-width: 0.8"/>
      </g>
     </g>
     <g id="text_14">
      <!-- 100 -->
      <g transform="translate(58.73 52.320156)scale(0.08 -0.08)">
       <use xlink:href="#DejaVuSans-31"/>
       <use xlink:href="#DejaVuSans-30" x="63.623047"/>
       <use xlink:href="#DejaVuSans-30" x="127.246094"/>
      </g>
     </g>
    </g>
   </g>
   <g id="line2d_27">
    <path d="M 81 40.953773 
L 81.015218 41.030355 
L 82.133755 51.160151 
L 83.237073 59.201168 
L 84.317564 65.50656 
L 85.375227 70.421939 
L 86.417673 74.250062 
L 87.437291 77.179028 
L 88.434082 79.391923 
L 89.408045 81.035947 
L 90.3744 82.2456 
L 91.333145 83.101304 
L 92.314718 83.684385 
L 93.341945 84.035948 
L 94.452873 84.178529 
L 95.708373 84.110415 
L 97.207364 83.797607 
L 99.147682 83.150746 
L 102.282627 81.836854 
L 107.685082 79.588943 
L 110.979818 78.477223 
L 114.183245 77.631546 
L 117.531245 76.980189 
L 121.198827 76.497764 
L 125.406655 76.174886 
L 130.565618 76.011893 
L 137.657291 76.02742 
L 152.540673 76.342795 
L 173.899391 76.711683 
L 201.543218 76.932546 
L 271.645773 77.201879 
L 309.272727 77.285252 
L 309.272727 77.285252 
" clip-path="url(#p023af0ee13)" style="fill: none; stroke: #1f77b4; stroke-width: 1.5; stroke-linecap: square"/>
   </g>
   <g id="line2d_28">
    <path d="M 81 60.383458 
L 81.030436 60.493806 
L 82.141364 65.304971 
L 83.237073 69.099082 
L 84.317564 72.070511 
L 85.390445 74.392219 
L 86.455718 76.183398 
L 87.520991 77.551351 
L 88.601482 78.583616 
L 89.712409 79.341165 
L 90.884209 79.872179 
L 92.162536 80.205059 
L 93.608264 80.347057 
L 95.335527 80.28476 
L 97.564991 79.968701 
L 101.179309 79.199527 
L 107.913355 77.77117 
L 112.197273 77.112985 
L 116.663809 76.655956 
L 121.769509 76.364022 
L 128.199191 76.230954 
L 137.870345 76.277205 
L 197.8452 76.896056 
L 291.330491 77.34445 
L 309.272727 77.392213 
L 309.272727 77.392213 
" clip-path="url(#p023af0ee13)" style="fill: none; stroke: #ff7f0e; stroke-width: 1.5; stroke-linecap: square"/>
   </g>
   <g id="line2d_29">
    <path d="M 81 74.261805 
L 82.050055 103.366764 
L 83.069673 125.725812 
L 84.051245 142.607965 
L 84.994773 155.199328 
L 85.892645 164.368468 
L 86.737255 170.856855 
L 87.5286 175.323593 
L 88.251464 178.22622 
L 88.905845 180.009475 
L 89.484136 180.997747 
L 89.986336 181.457876 
L 90.435273 181.587224 
L 90.8766 181.479157 
L 91.363582 181.114835 
L 91.941873 180.383454 
L 92.649518 179.103103 
L 93.524564 177.026383 
L 94.620273 173.813386 
L 96.043173 168.901293 
L 98.082409 160.982525 
L 105.394745 131.938347 
L 107.761173 123.77768 
L 109.937373 117.049415 
L 112.014655 111.33168 
L 114.031064 106.418941 
L 116.009427 102.173488 
L 117.964964 98.493753 
L 119.912891 95.293644 
L 121.868427 92.501845 
L 123.846791 90.060181 
L 125.8632 87.921667 
L 127.932873 86.048557 
L 130.078636 84.405182 
L 132.323318 82.9652 
L 134.704964 81.701833 
L 137.261618 80.598656 
L 140.046545 79.641389 
L 143.135836 78.818426 
L 146.6208 78.124869 
L 150.653618 77.555151 
L 155.454955 77.108902 
L 161.420482 76.787349 
L 169.3035 76.598084 
L 180.831273 76.562549 
L 201.292118 76.753742 
L 309.272727 78.039424 
L 309.272727 78.039424 
" clip-path="url(#p023af0ee13)" style="fill: none; stroke: #2ca02c; stroke-width: 1.5; stroke-linecap: square"/>
   </g>
   <g id="line2d_30">
    <path d="M 81 73.706671 
L 81.852218 59.283596 
L 82.658782 49.17191 
L 83.412082 42.356117 
L 84.0969 38.034006 
L 84.713236 35.45324 
L 85.245873 34.089852 
L 85.6872 33.49622 
L 86.052436 33.333751 
L 86.387236 33.422168 
L 86.767691 33.773332 
L 87.239455 34.541514 
L 87.840573 35.98599 
L 88.609091 38.46577 
L 89.598273 42.468323 
L 90.952691 48.956468 
L 93.319118 61.581383 
L 96.461673 78.047463 
L 98.401991 87.029384 
L 100.091209 93.835501 
L 101.635855 99.171321 
L 103.081582 103.393584 
L 104.443609 106.709107 
L 105.737155 109.292942 
L 106.969827 111.275495 
L 108.149236 112.765936 
L 109.2906 113.859881 
L 110.401527 114.623509 
L 111.497236 115.111981 
L 112.608164 115.364778 
L 113.757136 115.396274 
L 114.974591 115.203999 
L 116.306182 114.762706 
L 117.797564 114.025811 
L 119.509609 112.922229 
L 121.556455 111.325588 
L 124.166373 108.989451 
L 128.252455 104.992327 
L 134.9865 98.427433 
L 138.722564 95.114788 
L 142.108609 92.405375 
L 145.3653 90.08175 
L 148.583945 88.056627 
L 151.833027 86.274006 
L 155.165809 84.698893 
L 158.635555 83.305852 
L 162.295527 82.07778 
L 166.2066 81.00216 
L 170.452473 80.067874 
L 175.139673 79.267702 
L 180.420382 78.596363 
L 186.522873 78.050815 
L 193.797164 77.631333 
L 202.890027 77.339741 
L 215.117836 77.184279 
L 234.056864 77.189326 
L 292.022918 77.542026 
L 309.272727 77.618564 
L 309.272727 77.618564 
" clip-path="url(#p023af0ee13)" style="fill: none; stroke: #d62728; stroke-width: 1.5; stroke-linecap: square"/>
   </g>
   <g id="line2d_31">
    <path d="M 81 77.037474 
L 82.187018 77.809174 
L 83.457736 78.369731 
L 84.857809 78.741015 
L 86.463327 78.930812 
L 88.411255 78.927496 
L 91.005955 78.685394 
L 95.921427 77.95349 
L 101.970655 77.131034 
L 106.947 76.688459 
L 112.433155 76.431053 
L 119.319382 76.343349 
L 130.261255 76.456202 
L 163.718427 76.880772 
L 198.545236 77.005932 
L 309.272727 77.109937 
L 309.272727 77.109937 
" clip-path="url(#p023af0ee13)" style="fill: none; stroke: #9467bd; stroke-width: 1.5; stroke-linecap: square"/>
   </g>
   <g id="line2d_32">
    <path d="M 81.007609 74.26767 
L 82.278327 75.105193 
L 83.647964 75.740281 
L 85.177391 76.200135 
L 86.950309 76.495094 
L 89.149336 76.625206 
L 92.208191 76.565082 
L 109.351473 75.887991 
L 117.508418 76.001475 
L 159.107318 76.880894 
L 185.396727 77.005225 
L 256.648255 77.03715 
L 309.272727 77.037464 
L 309.272727 77.037464 
" clip-path="url(#p023af0ee13)" style="fill: none; stroke: #8c564b; stroke-width: 1.5; stroke-linecap: square"/>
   </g>
   <g id="patch_3">
    <path d="M 81 189 
L 81 25.92 
" style="fill: none; stroke: #000000; stroke-width: 0.8; stroke-linejoin: miter; stroke-linecap: square"/>
   </g>
   <g id="patch_4">
    <path d="M 309.272727 189 
L 309.272727 25.92 
" style="fill: none; stroke: #000000; stroke-width: 0.8; stroke-linejoin: miter; stroke-linecap: square"/>
   </g>
   <g id="patch_5">
    <path d="M 81 189 
L 309.272727 189 
" style="fill: none; stroke: #000000; stroke-width: 0.8; stroke-linejoin: miter; stroke-linecap: square"/>
   </g>
   <g id="patch_6">
    <path d="M 81 25.92 
L 309.272727 25.92 
" style="fill: none; stroke: #000000; stroke-width: 0.8; stroke-linejoin: miter; stroke-linecap: square"/>
   </g>
   <g id="legend_1">
    <g id="patch_7">
     <path d="M 160.142727 185 
L 303.672727 185 
Q 305.272727 185 305.272727 183.4 
L 305.272727 112.71 
Q 305.272727 111.11 303.672727 111.11 
L 160.142727 111.11 
Q 158.542727 111.11 158.542727 112.71 
L 158.542727 183.4 
Q 158.542727 185 160.142727 185 
z
" style="fill: #ffffff; opacity: 0.8; stroke: #cccccc; stroke-linejoin: miter"/>
    </g>
    <g id="line2d_33">
     <path d="M 161.742727 117.58875 
L 169.742727 117.58875 
L 177.742727 117.58875 
" style="fill: none; stroke: #1f77b4; stroke-width: 1.5; stroke-linecap: square"/>
    </g>
    <g id="text_15">
     <!-- Eroarea poziției X -->
     <g transform="translate(184.142727 120.38875)scale(0.08 -0.08)">
      <defs>
       <path id="DejaVuSans-45" d="M 628 4666 
L 3578 4666 
L 3578 4134 
L 1259 4134 
L 1259 2753 
L 3481 2753 
L 3481 2222 
L 1259 2222 
L 1259 531 
L 3634 531 
L 3634 0 
L 628 0 
L 628 4666 
z
" transform="scale(0.015625)"/>
       <path id="DejaVuSans-72" d="M 2631 2963 
Q 2534 3019 2420 3045 
Q 2306 3072 2169 3072 
Q 1681 3072 1420 2755 
Q 1159 2438 1159 1844 
L 1159 0 
L 581 0 
L 581 3500 
L 1159 3500 
L 1159 2956 
Q 1341 3275 1631 3429 
Q 1922 3584 2338 3584 
Q 2397 3584 2469 3576 
Q 2541 3569 2628 3553 
L 2631 2963 
z
" transform="scale(0.015625)"/>
       <path id="DejaVuSans-6f" d="M 1959 3097 
Q 1497 3097 1228 2736 
Q 959 2375 959 1747 
Q 959 1119 1226 758 
Q 1494 397 1959 397 
Q 2419 397 2687 759 
Q 2956 1122 2956 1747 
Q 2956 2369 2687 2733 
Q 2419 3097 1959 3097 
z
M 1959 3584 
Q 2709 3584 3137 3096 
Q 3566 2609 3566 1747 
Q 3566 888 3137 398 
Q 2709 -91 1959 -91 
Q 1206 -91 779 398 
Q 353 888 353 1747 
Q 353 2609 779 3096 
Q 1206 3584 1959 3584 
z
" transform="scale(0.015625)"/>
       <path id="DejaVuSans-61" d="M 2194 1759 
Q 1497 1759 1228 1600 
Q 959 1441 959 1056 
Q 959 750 1161 570 
Q 1363 391 1709 391 
Q 2188 391 2477 730 
Q 2766 1069 2766 1631 
L 2766 1759 
L 2194 1759 
z
M 3341 1997 
L 3341 0 
L 2766 0 
L 2766 531 
Q 2569 213 2275 61 
Q 1981 -91 1556 -91 
Q 1019 -91 701 211 
Q 384 513 384 1019 
Q 384 1609 779 1909 
Q 1175 2209 1959 2209 
L 2766 2209 
L 2766 2266 
Q 2766 2663 2505 2880 
Q 2244 3097 1772 3097 
Q 1472 3097 1187 3025 
Q 903 2953 641 2809 
L 641 3341 
Q 956 3463 1253 3523 
Q 1550 3584 1831 3584 
Q 2591 3584 2966 3190 
Q 3341 2797 3341 1997 
z
" transform="scale(0.015625)"/>
       <path id="DejaVuSans-65" d="M 3597 1894 
L 3597 1613 
L 953 1613 
Q 991 1019 1311 708 
Q 1631 397 2203 397 
Q 2534 397 2845 478 
Q 3156 559 3463 722 
L 3463 178 
Q 3153 47 2828 -22 
Q 2503 -91 2169 -91 
Q 1331 -91 842 396 
Q 353 884 353 1716 
Q 353 2575 817 3079 
Q 1281 3584 2069 3584 
Q 2775 3584 3186 3129 
Q 3597 2675 3597 1894 
z
M 3022 2063 
Q 3016 2534 2758 2815 
Q 2500 3097 2075 3097 
Q 1594 3097 1305 2825 
Q 1016 2553 972 2059 
L 3022 2063 
z
" transform="scale(0.015625)"/>
       <path id="DejaVuSans-7a" d="M 353 3500 
L 3084 3500 
L 3084 2975 
L 922 459 
L 3084 459 
L 3084 0 
L 275 0 
L 275 525 
L 2438 3041 
L 353 3041 
L 353 3500 
z
" transform="scale(0.015625)"/>
       <path id="DejaVuSans-21b" d="M 1388 -538 
L 2047 -538 
L 1534 -1538 
L 1131 -1538 
L 1388 -538 
z
M 1172 4494 
L 1172 3500 
L 2356 3500 
L 2356 3053 
L 1172 3053 
L 1172 1153 
Q 1172 725 1289 603 
Q 1406 481 1766 481 
L 2356 481 
L 2356 0 
L 1766 0 
Q 1100 0 847 248 
Q 594 497 594 1153 
L 594 3053 
L 172 3053 
L 172 3500 
L 594 3500 
L 594 4494 
L 1172 4494 
z
" transform="scale(0.015625)"/>
       <path id="DejaVuSans-58" d="M 403 4666 
L 1081 4666 
L 2241 2931 
L 3406 4666 
L 4084 4666 
L 2584 2425 
L 4184 0 
L 3506 0 
L 2194 1984 
L 872 0 
L 191 0 
L 1856 2491 
L 403 4666 
z
" transform="scale(0.015625)"/>
      </defs>
      <use xlink:href="#DejaVuSans-45"/>
      <use xlink:href="#DejaVuSans-72" x="63.183594"/>
      <use xlink:href="#DejaVuSans-6f" x="102.046875"/>
      <use xlink:href="#DejaVuSans-61" x="163.228516"/>
      <use xlink:href="#DejaVuSans-72" x="224.507812"/>
      <use xlink:href="#DejaVuSans-65" x="263.371094"/>
      <use xlink:href="#DejaVuSans-61" x="324.894531"/>
      <use xlink:href="#DejaVuSans-20" x="386.173828"/>
      <use xlink:href="#DejaVuSans-70" x="417.960938"/>
      <use xlink:href="#DejaVuSans-6f" x="481.4375"/>
      <use xlink:href="#DejaVuSans-7a" x="542.619141"/>
      <use xlink:href="#DejaVuSans-69" x="595.109375"/>
      <use xlink:href="#DejaVuSans-21b" x="622.892578"/>
      <use xlink:href="#DejaVuSans-69" x="662.101562"/>
      <use xlink:href="#DejaVuSans-65" x="689.884766"/>
      <use xlink:href="#DejaVuSans-69" x="751.408203"/>
      <use xlink:href="#DejaVuSans-20" x="779.191406"/>
      <use xlink:href="#DejaVuSans-58" x="810.978516"/>
     </g>
    </g>
    <g id="line2d_34">
     <path d="M 161.742727 129.59 
L 169.742727 129.59 
L 177.742727 129.59 
" style="fill: none; stroke: #ff7f0e; stroke-width: 1.5; stroke-linecap: square"/>
    </g>
    <g id="text_16">
     <!-- Eroarea poziției Y -->
     <g transform="translate(184.142727 132.39)scale(0.08 -0.08)">
      <defs>
       <path id="DejaVuSans-59" d="M -13 4666 
L 666 4666 
L 1959 2747 
L 3244 4666 
L 3922 4666 
L 2272 2222 
L 2272 0 
L 1638 0 
L 1638 2222 
L -13 4666 
z
" transform="scale(0.015625)"/>
      </defs>
      <use xlink:href="#DejaVuSans-45"/>
      <use xlink:href="#DejaVuSans-72" x="63.183594"/>
      <use xlink:href="#DejaVuSans-6f" x="102.046875"/>
      <use xlink:href="#DejaVuSans-61" x="163.228516"/>
      <use xlink:href="#DejaVuSans-72" x="224.507812"/>
      <use xlink:href="#DejaVuSans-65" x="263.371094"/>
      <use xlink:href="#DejaVuSans-61" x="324.894531"/>
      <use xlink:href="#DejaVuSans-20" x="386.173828"/>
      <use xlink:href="#DejaVuSans-70" x="417.960938"/>
      <use xlink:href="#DejaVuSans-6f" x="481.4375"/>
      <use xlink:href="#DejaVuSans-7a" x="542.619141"/>
      <use xlink:href="#DejaVuSans-69" x="595.109375"/>
      <use xlink:href="#DejaVuSans-21b" x="622.892578"/>
      <use xlink:href="#DejaVuSans-69" x="662.101562"/>
      <use xlink:href="#DejaVuSans-65" x="689.884766"/>
      <use xlink:href="#DejaVuSans-69" x="751.408203"/>
      <use xlink:href="#DejaVuSans-20" x="779.191406"/>
      <use xlink:href="#DejaVuSans-59" x="810.978516"/>
     </g>
    </g>
    <g id="line2d_35">
     <path d="M 161.742727 141.59125 
L 169.742727 141.59125 
L 177.742727 141.59125 
" style="fill: none; stroke: #2ca02c; stroke-width: 1.5; stroke-linecap: square"/>
    </g>
    <g id="text_17">
     <!-- Eroarea vitezei X -->
     <g transform="translate(184.142727 144.39125)scale(0.08 -0.08)">
      <defs>
       <path id="DejaVuSans-76" d="M 191 3500 
L 800 3500 
L 1894 563 
L 2988 3500 
L 3597 3500 
L 2284 0 
L 1503 0 
L 191 3500 
z
" transform="scale(0.015625)"/>
       <path id="DejaVuSans-74" d="M 1172 4494 
L 1172 3500 
L 2356 3500 
L 2356 3053 
L 1172 3053 
L 1172 1153 
Q 1172 725 1289 603 
Q 1406 481 1766 481 
L 2356 481 
L 2356 0 
L 1766 0 
Q 1100 0 847 248 
Q 594 497 594 1153 
L 594 3053 
L 172 3053 
L 172 3500 
L 594 3500 
L 594 4494 
L 1172 4494 
z
" transform="scale(0.015625)"/>
      </defs>
      <use xlink:href="#DejaVuSans-45"/>
      <use xlink:href="#DejaVuSans-72" x="63.183594"/>
      <use xlink:href="#DejaVuSans-6f" x="102.046875"/>
      <use xlink:href="#DejaVuSans-61" x="163.228516"/>
      <use xlink:href="#DejaVuSans-72" x="224.507812"/>
      <use xlink:href="#DejaVuSans-65" x="263.371094"/>
      <use xlink:href="#DejaVuSans-61" x="324.894531"/>
      <use xlink:href="#DejaVuSans-20" x="386.173828"/>
      <use xlink:href="#DejaVuSans-76" x="417.960938"/>
      <use xlink:href="#DejaVuSans-69" x="477.140625"/>
      <use xlink:href="#DejaVuSans-74" x="504.923828"/>
      <use xlink:href="#DejaVuSans-65" x="544.132812"/>
      <use xlink:href="#DejaVuSans-7a" x="605.65625"/>
      <use xlink:href="#DejaVuSans-65" x="658.146484"/>
      <use xlink:href="#DejaVuSans-69" x="719.669922"/>
      <use xlink:href="#DejaVuSans-20" x="747.453125"/>
      <use xlink:href="#DejaVuSans-58" x="779.240234"/>
     </g>
    </g>
    <g id="line2d_36">
     <path d="M 161.742727 153.33375 
L 169.742727 153.33375 
L 177.742727 153.33375 
" style="fill: none; stroke: #d62728; stroke-width: 1.5; stroke-linecap: square"/>
    </g>
    <g id="text_18">
     <!-- Eroarea vitezei Y -->
     <g transform="translate(184.142727 156.13375)scale(0.08 -0.08)">
      <use xlink:href="#DejaVuSans-45"/>
      <use xlink:href="#DejaVuSans-72" x="63.183594"/>
      <use xlink:href="#DejaVuSans-6f" x="102.046875"/>
      <use xlink:href="#DejaVuSans-61" x="163.228516"/>
      <use xlink:href="#DejaVuSans-72" x="224.507812"/>
      <use xlink:href="#DejaVuSans-65" x="263.371094"/>
      <use xlink:href="#DejaVuSans-61" x="324.894531"/>
      <use xlink:href="#DejaVuSans-20" x="386.173828"/>
      <use xlink:href="#DejaVuSans-76" x="417.960938"/>
      <use xlink:href="#DejaVuSans-69" x="477.140625"/>
      <use xlink:href="#DejaVuSans-74" x="504.923828"/>
      <use xlink:href="#DejaVuSans-65" x="544.132812"/>
      <use xlink:href="#DejaVuSans-7a" x="605.65625"/>
      <use xlink:href="#DejaVuSans-65" x="658.146484"/>
      <use xlink:href="#DejaVuSans-69" x="719.669922"/>
      <use xlink:href="#DejaVuSans-20" x="747.453125"/>
      <use xlink:href="#DejaVuSans-59" x="779.240234"/>
     </g>
    </g>
    <g id="line2d_37">
     <path d="M 161.742727 165.07625 
L 169.742727 165.07625 
L 177.742727 165.07625 
" style="fill: none; stroke: #9467bd; stroke-width: 1.5; stroke-linecap: square"/>
    </g>
    <g id="text_19">
     <!-- Eroarea perurbației sinusoide -->
     <g transform="translate(184.142727 167.87625)scale(0.08 -0.08)">
      <defs>
       <path id="DejaVuSans-75" d="M 544 1381 
L 544 3500 
L 1119 3500 
L 1119 1403 
Q 1119 906 1312 657 
Q 1506 409 1894 409 
Q 2359 409 2629 706 
Q 2900 1003 2900 1516 
L 2900 3500 
L 3475 3500 
L 3475 0 
L 2900 0 
L 2900 538 
Q 2691 219 2414 64 
Q 2138 -91 1772 -91 
Q 1169 -91 856 284 
Q 544 659 544 1381 
z
M 1991 3584 
L 1991 3584 
z
" transform="scale(0.015625)"/>
       <path id="DejaVuSans-62" d="M 3116 1747 
Q 3116 2381 2855 2742 
Q 2594 3103 2138 3103 
Q 1681 3103 1420 2742 
Q 1159 2381 1159 1747 
Q 1159 1113 1420 752 
Q 1681 391 2138 391 
Q 2594 391 2855 752 
Q 3116 1113 3116 1747 
z
M 1159 2969 
Q 1341 3281 1617 3432 
Q 1894 3584 2278 3584 
Q 2916 3584 3314 3078 
Q 3713 2572 3713 1747 
Q 3713 922 3314 415 
Q 2916 -91 2278 -91 
Q 1894 -91 1617 61 
Q 1341 213 1159 525 
L 1159 0 
L 581 0 
L 581 4863 
L 1159 4863 
L 1159 2969 
z
" transform="scale(0.015625)"/>
       <path id="DejaVuSans-6e" d="M 3513 2113 
L 3513 0 
L 2938 0 
L 2938 2094 
Q 2938 2591 2744 2837 
Q 2550 3084 2163 3084 
Q 1697 3084 1428 2787 
Q 1159 2491 1159 1978 
L 1159 0 
L 581 0 
L 581 3500 
L 1159 3500 
L 1159 2956 
Q 1366 3272 1645 3428 
Q 1925 3584 2291 3584 
Q 2894 3584 3203 3211 
Q 3513 2838 3513 2113 
z
" transform="scale(0.015625)"/>
       <path id="DejaVuSans-64" d="M 2906 2969 
L 2906 4863 
L 3481 4863 
L 3481 0 
L 2906 0 
L 2906 525 
Q 2725 213 2448 61 
Q 2172 -91 1784 -91 
Q 1150 -91 751 415 
Q 353 922 353 1747 
Q 353 2572 751 3078 
Q 1150 3584 1784 3584 
Q 2172 3584 2448 3432 
Q 2725 3281 2906 2969 
z
M 947 1747 
Q 947 1113 1208 752 
Q 1469 391 1925 391 
Q 2381 391 2643 752 
Q 2906 1113 2906 1747 
Q 2906 2381 2643 2742 
Q 2381 3103 1925 3103 
Q 1469 3103 1208 2742 
Q 947 2381 947 1747 
z
" transform="scale(0.015625)"/>
      </defs>
      <use xlink:href="#DejaVuSans-45"/>
      <use xlink:href="#DejaVuSans-72" x="63.183594"/>
      <use xlink:href="#DejaVuSans-6f" x="102.046875"/>
      <use xlink:href="#DejaVuSans-61" x="163.228516"/>
      <use xlink:href="#DejaVuSans-72" x="224.507812"/>
      <use xlink:href="#DejaVuSans-65" x="263.371094"/>
      <use xlink:href="#DejaVuSans-61" x="324.894531"/>
      <use xlink:href="#DejaVuSans-20" x="386.173828"/>
      <use xlink:href="#DejaVuSans-70" x="417.960938"/>
      <use xlink:href="#DejaVuSans-65" x="481.4375"/>
      <use xlink:href="#DejaVuSans-72" x="542.960938"/>
      <use xlink:href="#DejaVuSans-75" x="584.074219"/>
      <use xlink:href="#DejaVuSans-72" x="647.453125"/>
      <use xlink:href="#DejaVuSans-62" x="688.566406"/>
      <use xlink:href="#DejaVuSans-61" x="752.042969"/>
      <use xlink:href="#DejaVuSans-21b" x="813.322266"/>
      <use xlink:href="#DejaVuSans-69" x="852.53125"/>
      <use xlink:href="#DejaVuSans-65" x="880.314453"/>
      <use xlink:href="#DejaVuSans-69" x="941.837891"/>
      <use xlink:href="#DejaVuSans-20" x="969.621094"/>
      <use xlink:href="#DejaVuSans-73" x="1001.408203"/>
      <use xlink:href="#DejaVuSans-69" x="1053.507812"/>
      <use xlink:href="#DejaVuSans-6e" x="1081.291016"/>
      <use xlink:href="#DejaVuSans-75" x="1144.669922"/>
      <use xlink:href="#DejaVuSans-73" x="1208.048828"/>
      <use xlink:href="#DejaVuSans-6f" x="1260.148438"/>
      <use xlink:href="#DejaVuSans-69" x="1321.330078"/>
      <use xlink:href="#DejaVuSans-64" x="1349.113281"/>
      <use xlink:href="#DejaVuSans-65" x="1412.589844"/>
     </g>
    </g>
    <g id="line2d_38">
     <path d="M 161.742727 177.0775 
L 169.742727 177.0775 
L 177.742727 177.0775 
" style="fill: none; stroke: #8c564b; stroke-width: 1.5; stroke-linecap: square"/>
    </g>
    <g id="text_20">
     <!-- Eroarea perurbației liniare -->
     <g transform="translate(184.142727 179.8775)scale(0.08 -0.08)">
      <defs>
       <path id="DejaVuSans-6c" d="M 603 4863 
L 1178 4863 
L 1178 0 
L 603 0 
L 603 4863 
z
" transform="scale(0.015625)"/>
      </defs>
      <use xlink:href="#DejaVuSans-45"/>
      <use xlink:href="#DejaVuSans-72" x="63.183594"/>
      <use xlink:href="#DejaVuSans-6f" x="102.046875"/>
      <use xlink:href="#DejaVuSans-61" x="163.228516"/>
      <use xlink:href="#DejaVuSans-72" x="224.507812"/>
      <use xlink:href="#DejaVuSans-65" x="263.371094"/>
      <use xlink:href="#DejaVuSans-61" x="324.894531"/>
      <use xlink:href="#DejaVuSans-20" x="386.173828"/>
      <use xlink:href="#DejaVuSans-70" x="417.960938"/>
      <use xlink:href="#DejaVuSans-65" x="481.4375"/>
      <use xlink:href="#DejaVuSans-72" x="542.960938"/>
      <use xlink:href="#DejaVuSans-75" x="584.074219"/>
      <use xlink:href="#DejaVuSans-72" x="647.453125"/>
      <use xlink:href="#DejaVuSans-62" x="688.566406"/>
      <use xlink:href="#DejaVuSans-61" x="752.042969"/>
      <use xlink:href="#DejaVuSans-21b" x="813.322266"/>
      <use xlink:href="#DejaVuSans-69" x="852.53125"/>
      <use xlink:href="#DejaVuSans-65" x="880.314453"/>
      <use xlink:href="#DejaVuSans-69" x="941.837891"/>
      <use xlink:href="#DejaVuSans-20" x="969.621094"/>
      <use xlink:href="#DejaVuSans-6c" x="1001.408203"/>
      <use xlink:href="#DejaVuSans-69" x="1029.191406"/>
      <use xlink:href="#DejaVuSans-6e" x="1056.974609"/>
      <use xlink:href="#DejaVuSans-69" x="1120.353516"/>
      <use xlink:href="#DejaVuSans-61" x="1148.136719"/>
      <use xlink:href="#DejaVuSans-72" x="1209.416016"/>
      <use xlink:href="#DejaVuSans-65" x="1248.279297"/>
     </g>
    </g>
   </g>
  </g>
  <g id="axes_2">
   <g id="patch_8">
    <path d="M 354.927273 189 
L 583.2 189 
L 583.2 25.92 
L 354.927273 25.92 
z
" style="fill: #ffffff"/>
   </g>
   <g id="matplotlib.axis_3">
    <g id="xtick_8">
     <g id="line2d_39">
      <path d="M 365.303306 189 
L 365.303306 25.92 
" clip-path="url(#pccbe4c3d5d)" style="fill: none; stroke-dasharray: 2,3.3; stroke-dashoffset: 0; stroke: #b0b0b0; stroke-width: 2"/>
     </g>
     <g id="line2d_40">
      <g>
       <use xlink:href="#m69a3ca2238" x="365.303306" y="189" style="stroke: #000000; stroke-width: 0.8"/>
      </g>
     </g>
     <g id="text_21">
      <!-- 0 -->
      <g transform="translate(362.758306 202.07875)scale(0.08 -0.08)">
       <use xlink:href="#DejaVuSans-30"/>
      </g>
     </g>
    </g>
    <g id="xtick_9">
     <g id="line2d_41">
      <path d="M 406.807023 189 
L 406.807023 25.92 
" clip-path="url(#pccbe4c3d5d)" style="fill: none; stroke-dasharray: 2,3.3; stroke-dashoffset: 0; stroke: #b0b0b0; stroke-width: 2"/>
     </g>
     <g id="line2d_42">
      <g>
       <use xlink:href="#m69a3ca2238" x="406.807023" y="189" style="stroke: #000000; stroke-width: 0.8"/>
      </g>
     </g>
     <g id="text_22">
      <!-- 2 -->
      <g transform="translate(404.262023 202.07875)scale(0.08 -0.08)">
       <use xlink:href="#DejaVuSans-32"/>
      </g>
     </g>
    </g>
    <g id="xtick_10">
     <g id="line2d_43">
      <path d="M 448.31074 189 
L 448.31074 25.92 
" clip-path="url(#pccbe4c3d5d)" style="fill: none; stroke-dasharray: 2,3.3; stroke-dashoffset: 0; stroke: #b0b0b0; stroke-width: 2"/>
     </g>
     <g id="line2d_44">
      <g>
       <use xlink:href="#m69a3ca2238" x="448.31074" y="189" style="stroke: #000000; stroke-width: 0.8"/>
      </g>
     </g>
     <g id="text_23">
      <!-- 4 -->
      <g transform="translate(445.76574 202.07875)scale(0.08 -0.08)">
       <use xlink:href="#DejaVuSans-34"/>
      </g>
     </g>
    </g>
    <g id="xtick_11">
     <g id="line2d_45">
      <path d="M 489.814457 189 
L 489.814457 25.92 
" clip-path="url(#pccbe4c3d5d)" style="fill: none; stroke-dasharray: 2,3.3; stroke-dashoffset: 0; stroke: #b0b0b0; stroke-width: 2"/>
     </g>
     <g id="line2d_46">
      <g>
       <use xlink:href="#m69a3ca2238" x="489.814457" y="189" style="stroke: #000000; stroke-width: 0.8"/>
      </g>
     </g>
     <g id="text_24">
      <!-- 6 -->
      <g transform="translate(487.269457 202.07875)scale(0.08 -0.08)">
       <defs>
        <path id="DejaVuSans-36" d="M 2113 2584 
Q 1688 2584 1439 2293 
Q 1191 2003 1191 1497 
Q 1191 994 1439 701 
Q 1688 409 2113 409 
Q 2538 409 2786 701 
Q 3034 994 3034 1497 
Q 3034 2003 2786 2293 
Q 2538 2584 2113 2584 
z
M 3366 4563 
L 3366 3988 
Q 3128 4100 2886 4159 
Q 2644 4219 2406 4219 
Q 1781 4219 1451 3797 
Q 1122 3375 1075 2522 
Q 1259 2794 1537 2939 
Q 1816 3084 2150 3084 
Q 2853 3084 3261 2657 
Q 3669 2231 3669 1497 
Q 3669 778 3244 343 
Q 2819 -91 2113 -91 
Q 1303 -91 875 529 
Q 447 1150 447 2328 
Q 447 3434 972 4092 
Q 1497 4750 2381 4750 
Q 2619 4750 2861 4703 
Q 3103 4656 3366 4563 
z
" transform="scale(0.015625)"/>
       </defs>
       <use xlink:href="#DejaVuSans-36"/>
      </g>
     </g>
    </g>
    <g id="xtick_12">
     <g id="line2d_47">
      <path d="M 531.318175 189 
L 531.318175 25.92 
" clip-path="url(#pccbe4c3d5d)" style="fill: none; stroke-dasharray: 2,3.3; stroke-dashoffset: 0; stroke: #b0b0b0; stroke-width: 2"/>
     </g>
     <g id="line2d_48">
      <g>
       <use xlink:href="#m69a3ca2238" x="531.318175" y="189" style="stroke: #000000; stroke-width: 0.8"/>
      </g>
     </g>
     <g id="text_25">
      <!-- 8 -->
      <g transform="translate(528.773175 202.07875)scale(0.08 -0.08)">
       <defs>
        <path id="DejaVuSans-38" d="M 2034 2216 
Q 1584 2216 1326 1975 
Q 1069 1734 1069 1313 
Q 1069 891 1326 650 
Q 1584 409 2034 409 
Q 2484 409 2743 651 
Q 3003 894 3003 1313 
Q 3003 1734 2745 1975 
Q 2488 2216 2034 2216 
z
M 1403 2484 
Q 997 2584 770 2862 
Q 544 3141 544 3541 
Q 544 4100 942 4425 
Q 1341 4750 2034 4750 
Q 2731 4750 3128 4425 
Q 3525 4100 3525 3541 
Q 3525 3141 3298 2862 
Q 3072 2584 2669 2484 
Q 3125 2378 3379 2068 
Q 3634 1759 3634 1313 
Q 3634 634 3220 271 
Q 2806 -91 2034 -91 
Q 1263 -91 848 271 
Q 434 634 434 1313 
Q 434 1759 690 2068 
Q 947 2378 1403 2484 
z
M 1172 3481 
Q 1172 3119 1398 2916 
Q 1625 2713 2034 2713 
Q 2441 2713 2670 2916 
Q 2900 3119 2900 3481 
Q 2900 3844 2670 4047 
Q 2441 4250 2034 4250 
Q 1625 4250 1398 4047 
Q 1172 3844 1172 3481 
z
" transform="scale(0.015625)"/>
       </defs>
       <use xlink:href="#DejaVuSans-38"/>
      </g>
     </g>
    </g>
    <g id="xtick_13">
     <g id="line2d_49">
      <path d="M 572.821892 189 
L 572.821892 25.92 
" clip-path="url(#pccbe4c3d5d)" style="fill: none; stroke-dasharray: 2,3.3; stroke-dashoffset: 0; stroke: #b0b0b0; stroke-width: 2"/>
     </g>
     <g id="line2d_50">
      <g>
       <use xlink:href="#m69a3ca2238" x="572.821892" y="189" style="stroke: #000000; stroke-width: 0.8"/>
      </g>
     </g>
     <g id="text_26">
      <!-- 10 -->
      <g transform="translate(567.731892 202.07875)scale(0.08 -0.08)">
       <use xlink:href="#DejaVuSans-31"/>
       <use xlink:href="#DejaVuSans-30" x="63.623047"/>
      </g>
     </g>
    </g>
    <g id="text_27">
     <!-- Timp (s) -->
     <g transform="translate(452.722386 213.82125)scale(0.08 -0.08)">
      <use xlink:href="#DejaVuSans-54"/>
      <use xlink:href="#DejaVuSans-69" x="57.958984"/>
      <use xlink:href="#DejaVuSans-6d" x="85.742188"/>
      <use xlink:href="#DejaVuSans-70" x="183.154297"/>
      <use xlink:href="#DejaVuSans-20" x="246.630859"/>
      <use xlink:href="#DejaVuSans-28" x="278.417969"/>
      <use xlink:href="#DejaVuSans-73" x="317.431641"/>
      <use xlink:href="#DejaVuSans-29" x="369.53125"/>
     </g>
    </g>
   </g>
   <g id="matplotlib.axis_4">
    <g id="ytick_7">
     <g id="line2d_51">
      <path d="M 354.927273 181.279631 
L 583.2 181.279631 
" clip-path="url(#pccbe4c3d5d)" style="fill: none; stroke-dasharray: 2,3.3; stroke-dashoffset: 0; stroke: #b0b0b0; stroke-width: 2"/>
     </g>
     <g id="line2d_52">
      <g>
       <use xlink:href="#m452dd4743f" x="354.927273" y="181.279631" style="stroke: #000000; stroke-width: 0.8"/>
      </g>
     </g>
     <g id="text_28">
      <!-- −2 -->
      <g transform="translate(336.133523 184.319006)scale(0.08 -0.08)">
       <use xlink:href="#DejaVuSans-2212"/>
       <use xlink:href="#DejaVuSans-32" x="83.789062"/>
      </g>
     </g>
    </g>
    <g id="ytick_8">
     <g id="line2d_53">
      <path d="M 354.927273 156.621814 
L 583.2 156.621814 
" clip-path="url(#pccbe4c3d5d)" style="fill: none; stroke-dasharray: 2,3.3; stroke-dashoffset: 0; stroke: #b0b0b0; stroke-width: 2"/>
     </g>
     <g id="line2d_54">
      <g>
       <use xlink:href="#m452dd4743f" x="354.927273" y="156.621814" style="stroke: #000000; stroke-width: 0.8"/>
      </g>
     </g>
     <g id="text_29">
      <!-- 0 -->
      <g transform="translate(342.837273 159.661189)scale(0.08 -0.08)">
       <use xlink:href="#DejaVuSans-30"/>
      </g>
     </g>
    </g>
    <g id="ytick_9">
     <g id="line2d_55">
      <path d="M 354.927273 131.963996 
L 583.2 131.963996 
" clip-path="url(#pccbe4c3d5d)" style="fill: none; stroke-dasharray: 2,3.3; stroke-dashoffset: 0; stroke: #b0b0b0; stroke-width: 2"/>
     </g>
     <g id="line2d_56">
      <g>
       <use xlink:href="#m452dd4743f" x="354.927273" y="131.963996" style="stroke: #000000; stroke-width: 0.8"/>
      </g>
     </g>
     <g id="text_30">
      <!-- 2 -->
      <g transform="translate(342.837273 135.003371)scale(0.08 -0.08)">
       <use xlink:href="#DejaVuSans-32"/>
      </g>
     </g>
    </g>
    <g id="ytick_10">
     <g id="line2d_57">
      <path d="M 354.927273 107.306179 
L 583.2 107.306179 
" clip-path="url(#pccbe4c3d5d)" style="fill: none; stroke-dasharray: 2,3.3; stroke-dashoffset: 0; stroke: #b0b0b0; stroke-width: 2"/>
     </g>
     <g id="line2d_58">
      <g>
       <use xlink:href="#m452dd4743f" x="354.927273" y="107.306179" style="stroke: #000000; stroke-width: 0.8"/>
      </g>
     </g>
     <g id="text_31">
      <!-- 4 -->
      <g transform="translate(342.837273 110.345554)scale(0.08 -0.08)">
       <use xlink:href="#DejaVuSans-34"/>
      </g>
     </g>
    </g>
    <g id="ytick_11">
     <g id="line2d_59">
      <path d="M 354.927273 82.648362 
L 583.2 82.648362 
" clip-path="url(#pccbe4c3d5d)" style="fill: none; stroke-dasharray: 2,3.3; stroke-dashoffset: 0; stroke: #b0b0b0; stroke-width: 2"/>
     </g>
     <g id="line2d_60">
      <g>
       <use xlink:href="#m452dd4743f" x="354.927273" y="82.648362" style="stroke: #000000; stroke-width: 0.8"/>
      </g>
     </g>
     <g id="text_32">
      <!-- 6 -->
      <g transform="translate(342.837273 85.687737)scale(0.08 -0.08)">
       <use xlink:href="#DejaVuSans-36"/>
      </g>
     </g>
    </g>
    <g id="ytick_12">
     <g id="line2d_61">
      <path d="M 354.927273 57.990545 
L 583.2 57.990545 
" clip-path="url(#pccbe4c3d5d)" style="fill: none; stroke-dasharray: 2,3.3; stroke-dashoffset: 0; stroke: #b0b0b0; stroke-width: 2"/>
     </g>
     <g id="line2d_62">
      <g>
       <use xlink:href="#m452dd4743f" x="354.927273" y="57.990545" style="stroke: #000000; stroke-width: 0.8"/>
      </g>
     </g>
     <g id="text_33">
      <!-- 8 -->
      <g transform="translate(342.837273 61.02992)scale(0.08 -0.08)">
       <use xlink:href="#DejaVuSans-38"/>
      </g>
     </g>
    </g>
    <g id="ytick_13">
     <g id="line2d_63">
      <path d="M 354.927273 33.332727 
L 583.2 33.332727 
" clip-path="url(#pccbe4c3d5d)" style="fill: none; stroke-dasharray: 2,3.3; stroke-dashoffset: 0; stroke: #b0b0b0; stroke-width: 2"/>
     </g>
     <g id="line2d_64">
      <g>
       <use xlink:href="#m452dd4743f" x="354.927273" y="33.332727" style="stroke: #000000; stroke-width: 0.8"/>
      </g>
     </g>
     <g id="text_34">
      <!-- 10 -->
      <g transform="translate(337.747273 36.372102)scale(0.08 -0.08)">
       <use xlink:href="#DejaVuSans-31"/>
       <use xlink:href="#DejaVuSans-30" x="63.623047"/>
      </g>
     </g>
    </g>
   </g>
   <g id="line2d_65">
    <path d="M 365.305381 33.332727 
L 572.823967 33.332727 
L 572.823967 33.332727 
" clip-path="url(#pccbe4c3d5d)" style="fill: none; stroke: #1f77b4; stroke-width: 2.5; stroke-linecap: square"/>
   </g>
   <g id="line2d_66">
    <path d="M 365.305381 156.361311 
L 365.832478 104.173261 
L 366.326372 75.229839 
L 366.776688 60.488696 
L 367.168898 53.970552 
L 367.484326 51.774478 
L 367.69392 51.437099 
L 367.816356 51.571735 
L 368.013499 52.212342 
L 368.337228 54.146425 
L 368.891302 59.023591 
L 370.848202 77.206122 
L 371.520563 81.097294 
L 372.076712 83.142776 
L 372.531178 84.06989 
L 372.89226 84.369989 
L 373.191087 84.352517 
L 373.510666 84.092372 
L 373.915327 83.444307 
L 374.44865 82.127814 
L 375.168739 79.699501 
L 376.212558 75.309003 
L 381.058117 53.886339 
L 382.406988 49.410704 
L 383.677001 45.939182 
L 384.907587 43.201287 
L 386.12157 41.026405 
L 387.339704 39.288402 
L 388.584816 37.891816 
L 389.883882 36.765204 
L 391.272182 35.854895 
L 392.801594 35.120148 
L 394.546825 34.53315 
L 396.628236 34.07507 
L 399.259572 33.734198 
L 402.899448 33.502658 
L 408.853156 33.373751 
L 424.219908 33.333739 
L 572.823967 33.332727 
L 572.823967 33.332727 
" clip-path="url(#pccbe4c3d5d)" style="fill: none; stroke-dasharray: 7.4,3.2; stroke-dashoffset: 0; stroke: #ff7f0e; stroke-width: 2"/>
   </g>
   <g id="line2d_67">
    <path d="M 365.303306 156.621814 
L 373.577072 151.835477 
L 378.001368 149.539796 
L 381.726327 147.851793 
L 385.079827 146.571819 
L 388.200907 145.615249 
L 391.168422 144.93594 
L 394.036329 144.506004 
L 396.846131 144.308807 
L 399.633105 144.335864 
L 402.432531 144.585783 
L 405.279686 145.064245 
L 408.216074 145.785104 
L 411.289424 146.771295 
L 414.570293 148.061445 
L 418.170741 149.721641 
L 422.319037 151.887876 
L 427.737348 154.986989 
L 439.87511 162.005629 
L 444.087737 164.131176 
L 447.711011 165.715602 
L 451.002256 166.91628 
L 454.081832 167.806223 
L 457.02237 168.426748 
L 459.873676 168.802558 
L 462.675177 168.94821 
L 465.462151 168.87054 
L 468.269878 168.569241 
L 471.133634 168.03703 
L 474.097 167.257968 
L 477.211854 166.206025 
L 480.552903 164.838859 
L 484.250884 163.079481 
L 488.588023 160.759897 
L 494.653791 157.237821 
L 504.106262 151.758161 
L 508.501506 149.485255 
L 512.214014 147.810174 
L 515.559213 146.54039 
L 518.674067 145.592485 
L 521.637433 144.920646 
L 524.503264 144.497386 
L 527.310991 144.306567 
L 530.097965 144.339769 
L 532.899466 144.596061 
L 535.748696 145.081137 
L 538.68716 145.808796 
L 541.766735 146.803377 
L 545.055905 148.103372 
L 548.668804 149.776039 
L 552.839927 151.960996 
L 558.324643 155.104554 
L 570.101323 161.919117 
L 572.823967 163.330035 
L 572.823967 163.330035 
" clip-path="url(#pccbe4c3d5d)" style="fill: none; stroke: #2ca02c; stroke-width: 2.5; stroke-linecap: square"/>
   </g>
   <g id="line2d_68">
    <path d="M 365.303306 156.621814 
L 365.7972 108.475928 
L 366.243365 84.222059 
L 366.625199 73.870802 
L 366.919876 70.733134 
L 367.065139 70.413308 
L 367.096266 70.43612 
L 367.204176 70.743716 
L 367.399244 72.109653 
L 367.718822 76.180998 
L 368.231393 85.978812 
L 369.302189 111.79333 
L 370.619932 141.599094 
L 371.524713 157.249294 
L 372.313284 167.300153 
L 373.022997 173.715202 
L 373.66423 177.649547 
L 374.234906 179.891174 
L 374.7288 181.025472 
L 375.145912 181.491523 
L 375.500769 181.585154 
L 375.851476 181.442386 
L 376.272738 181.007875 
L 376.822662 180.088751 
L 377.571805 178.359645 
L 378.69033 175.151693 
L 383.183107 161.716389 
L 384.671015 158.228163 
L 386.086292 155.460674 
L 387.480817 153.209884 
L 388.887793 151.35257 
L 390.336273 149.8038 
L 391.851158 148.50699 
L 393.461503 147.420196 
L 395.200508 146.515697 
L 397.093078 145.783586 
L 399.159963 145.224337 
L 401.407389 144.848656 
L 403.820831 144.672489 
L 406.37746 144.710305 
L 409.060675 144.973958 
L 411.866326 145.475042 
L 414.80894 146.228937 
L 417.925869 147.260179 
L 421.28767 148.610991 
L 425.020929 150.356829 
L 429.418248 152.668786 
L 435.681159 156.24043 
L 444.708218 161.364348 
L 449.144965 163.613846 
L 452.886525 165.267175 
L 456.258702 166.518471 
L 459.400533 167.450218 
L 462.388801 168.106817 
L 465.279535 168.51586 
L 468.114239 168.693235 
L 470.930266 168.646761 
L 473.762895 168.376969 
L 476.647403 167.877557 
L 479.625295 167.134342 
L 482.750525 166.122279 
L 486.097799 164.800481 
L 489.79163 163.096943 
L 494.099716 160.855778 
L 499.993244 157.515853 
L 510.165805 151.738481 
L 514.548598 149.530567 
L 518.265256 147.901635 
L 521.622906 146.668627 
L 524.754362 145.752447 
L 527.736404 145.109369 
L 530.622987 144.712824 
L 533.455616 144.547309 
L 536.271643 144.605419 
L 539.104272 144.886757 
L 541.992931 145.398435 
L 544.977048 146.154872 
L 548.110579 147.181406 
L 551.47238 148.520875 
L 555.189038 150.247019 
L 559.540702 152.522873 
L 565.604395 155.970187 
L 572.823967 160.12188 
L 572.823967 160.12188 
" clip-path="url(#pccbe4c3d5d)" style="fill: none; stroke-dasharray: 7.4,3.2; stroke-dashoffset: 0; stroke: #d62728; stroke-width: 2"/>
   </g>
   <g id="patch_9">
    <path d="M 354.927273 189 
L 354.927273 25.92 
" style="fill: none; stroke: #000000; stroke-width: 0.8; stroke-linejoin: miter; stroke-linecap: square"/>
   </g>
   <g id="patch_10">
    <path d="M 583.2 189 
L 583.2 25.92 
" style="fill: none; stroke: #000000; stroke-width: 0.8; stroke-linejoin: miter; stroke-linecap: square"/>
   </g>
   <g id="patch_11">
    <path d="M 354.927273 189 
L 583.2 189 
" style="fill: none; stroke: #000000; stroke-width: 0.8; stroke-linejoin: miter; stroke-linecap: square"/>
   </g>
   <g id="patch_12">
    <path d="M 354.927273 25.92 
L 583.2 25.92 
" style="fill: none; stroke: #000000; stroke-width: 0.8; stroke-linejoin: miter; stroke-linecap: square"/>
   </g>
   <g id="legend_2">
    <g id="patch_13">
     <path d="M 421.61875 132.705 
L 577.6 132.705 
Q 579.2 132.705 579.2 131.105 
L 579.2 83.815 
Q 579.2 82.215 577.6 82.215 
L 421.61875 82.215 
Q 420.01875 82.215 420.01875 83.815 
L 420.01875 131.105 
Q 420.01875 132.705 421.61875 132.705 
z
" style="fill: #ffffff; opacity: 0.8; stroke: #cccccc; stroke-linejoin: miter"/>
    </g>
    <g id="line2d_69">
     <path d="M 423.21875 88.73625 
L 431.21875 88.73625 
L 439.21875 88.73625 
" style="fill: none; stroke: #1f77b4; stroke-width: 2.5; stroke-linecap: square"/>
    </g>
    <g id="text_35">
     <!-- Perturbație liniară -->
     <g transform="translate(445.61875 91.53625)scale(0.08 -0.08)">
      <defs>
       <path id="DejaVuSans-50" d="M 1259 4147 
L 1259 2394 
L 2053 2394 
Q 2494 2394 2734 2622 
Q 2975 2850 2975 3272 
Q 2975 3691 2734 3919 
Q 2494 4147 2053 4147 
L 1259 4147 
z
M 628 4666 
L 2053 4666 
Q 2838 4666 3239 4311 
Q 3641 3956 3641 3272 
Q 3641 2581 3239 2228 
Q 2838 1875 2053 1875 
L 1259 1875 
L 1259 0 
L 628 0 
L 628 4666 
z
" transform="scale(0.015625)"/>
       <path id="DejaVuSans-103" d="M 870 4897 
L 1239 4897 
Q 1273 4663 1424 4545 
Q 1576 4428 1848 4428 
Q 2117 4428 2267 4544 
Q 2417 4660 2457 4897 
L 2826 4897 
Q 2795 4450 2548 4225 
Q 2301 4000 1848 4000 
Q 1395 4000 1148 4225 
Q 901 4450 870 4897 
z
M 2194 1759 
Q 1497 1759 1228 1600 
Q 959 1441 959 1056 
Q 959 750 1161 570 
Q 1363 391 1709 391 
Q 2188 391 2477 730 
Q 2766 1069 2766 1631 
L 2766 1759 
L 2194 1759 
z
M 3341 1997 
L 3341 0 
L 2766 0 
L 2766 531 
Q 2569 213 2275 61 
Q 1981 -91 1556 -91 
Q 1019 -91 701 211 
Q 384 513 384 1019 
Q 384 1609 779 1909 
Q 1175 2209 1959 2209 
L 2766 2209 
L 2766 2266 
Q 2766 2663 2505 2880 
Q 2244 3097 1772 3097 
Q 1472 3097 1187 3025 
Q 903 2953 641 2809 
L 641 3341 
Q 956 3463 1253 3523 
Q 1550 3584 1831 3584 
Q 2591 3584 2966 3190 
Q 3341 2797 3341 1997 
z
" transform="scale(0.015625)"/>
      </defs>
      <use xlink:href="#DejaVuSans-50"/>
      <use xlink:href="#DejaVuSans-65" x="56.677734"/>
      <use xlink:href="#DejaVuSans-72" x="118.201172"/>
      <use xlink:href="#DejaVuSans-74" x="159.314453"/>
      <use xlink:href="#DejaVuSans-75" x="198.523438"/>
      <use xlink:href="#DejaVuSans-72" x="261.902344"/>
      <use xlink:href="#DejaVuSans-62" x="303.015625"/>
      <use xlink:href="#DejaVuSans-61" x="366.492188"/>
      <use xlink:href="#DejaVuSans-21b" x="427.771484"/>
      <use xlink:href="#DejaVuSans-69" x="466.980469"/>
      <use xlink:href="#DejaVuSans-65" x="494.763672"/>
      <use xlink:href="#DejaVuSans-20" x="556.287109"/>
      <use xlink:href="#DejaVuSans-6c" x="588.074219"/>
      <use xlink:href="#DejaVuSans-69" x="615.857422"/>
      <use xlink:href="#DejaVuSans-6e" x="643.640625"/>
      <use xlink:href="#DejaVuSans-69" x="707.019531"/>
      <use xlink:href="#DejaVuSans-61" x="734.802734"/>
      <use xlink:href="#DejaVuSans-72" x="796.082031"/>
      <use xlink:href="#DejaVuSans-103" x="837.195312"/>
     </g>
    </g>
    <g id="line2d_70">
     <path d="M 423.21875 100.7375 
L 431.21875 100.7375 
L 439.21875 100.7375 
" style="fill: none; stroke-dasharray: 7.4,3.2; stroke-dashoffset: 0; stroke: #ff7f0e; stroke-width: 2"/>
    </g>
    <g id="text_36">
     <!-- Estimarea perturbației liniare -->
     <g transform="translate(445.61875 103.5375)scale(0.08 -0.08)">
      <use xlink:href="#DejaVuSans-45"/>
      <use xlink:href="#DejaVuSans-73" x="63.183594"/>
      <use xlink:href="#DejaVuSans-74" x="115.283203"/>
      <use xlink:href="#DejaVuSans-69" x="154.492188"/>
      <use xlink:href="#DejaVuSans-6d" x="182.275391"/>
      <use xlink:href="#DejaVuSans-61" x="279.6875"/>
      <use xlink:href="#DejaVuSans-72" x="340.966797"/>
      <use xlink:href="#DejaVuSans-65" x="379.830078"/>
      <use xlink:href="#DejaVuSans-61" x="441.353516"/>
      <use xlink:href="#DejaVuSans-20" x="502.632812"/>
      <use xlink:href="#DejaVuSans-70" x="534.419922"/>
      <use xlink:href="#DejaVuSans-65" x="597.896484"/>
      <use xlink:href="#DejaVuSans-72" x="659.419922"/>
      <use xlink:href="#DejaVuSans-74" x="700.533203"/>
      <use xlink:href="#DejaVuSans-75" x="739.742188"/>
      <use xlink:href="#DejaVuSans-72" x="803.121094"/>
      <use xlink:href="#DejaVuSans-62" x="844.234375"/>
      <use xlink:href="#DejaVuSans-61" x="907.710938"/>
      <use xlink:href="#DejaVuSans-21b" x="968.990234"/>
      <use xlink:href="#DejaVuSans-69" x="1008.199219"/>
      <use xlink:href="#DejaVuSans-65" x="1035.982422"/>
      <use xlink:href="#DejaVuSans-69" x="1097.505859"/>
      <use xlink:href="#DejaVuSans-20" x="1125.289062"/>
      <use xlink:href="#DejaVuSans-6c" x="1157.076172"/>
      <use xlink:href="#DejaVuSans-69" x="1184.859375"/>
      <use xlink:href="#DejaVuSans-6e" x="1212.642578"/>
      <use xlink:href="#DejaVuSans-69" x="1276.021484"/>
      <use xlink:href="#DejaVuSans-61" x="1303.804688"/>
      <use xlink:href="#DejaVuSans-72" x="1365.083984"/>
      <use xlink:href="#DejaVuSans-65" x="1403.947266"/>
     </g>
    </g>
    <g id="line2d_71">
     <path d="M 423.21875 112.78125 
L 431.21875 112.78125 
L 439.21875 112.78125 
" style="fill: none; stroke: #2ca02c; stroke-width: 2.5; stroke-linecap: square"/>
    </g>
    <g id="text_37">
     <!-- Perturbație sinusoidă -->
     <g transform="translate(445.61875 115.58125)scale(0.08 -0.08)">
      <use xlink:href="#DejaVuSans-50"/>
      <use xlink:href="#DejaVuSans-65" x="56.677734"/>
      <use xlink:href="#DejaVuSans-72" x="118.201172"/>
      <use xlink:href="#DejaVuSans-74" x="159.314453"/>
      <use xlink:href="#DejaVuSans-75" x="198.523438"/>
      <use xlink:href="#DejaVuSans-72" x="261.902344"/>
      <use xlink:href="#DejaVuSans-62" x="303.015625"/>
      <use xlink:href="#DejaVuSans-61" x="366.492188"/>
      <use xlink:href="#DejaVuSans-21b" x="427.771484"/>
      <use xlink:href="#DejaVuSans-69" x="466.980469"/>
      <use xlink:href="#DejaVuSans-65" x="494.763672"/>
      <use xlink:href="#DejaVuSans-20" x="556.287109"/>
      <use xlink:href="#DejaVuSans-73" x="588.074219"/>
      <use xlink:href="#DejaVuSans-69" x="640.173828"/>
      <use xlink:href="#DejaVuSans-6e" x="667.957031"/>
      <use xlink:href="#DejaVuSans-75" x="731.335938"/>
      <use xlink:href="#DejaVuSans-73" x="794.714844"/>
      <use xlink:href="#DejaVuSans-6f" x="846.814453"/>
      <use xlink:href="#DejaVuSans-69" x="907.996094"/>
      <use xlink:href="#DejaVuSans-64" x="935.779297"/>
      <use xlink:href="#DejaVuSans-103" x="999.255859"/>
     </g>
    </g>
    <g id="line2d_72">
     <path d="M 423.21875 124.7825 
L 431.21875 124.7825 
L 439.21875 124.7825 
" style="fill: none; stroke-dasharray: 7.4,3.2; stroke-dashoffset: 0; stroke: #d62728; stroke-width: 2"/>
    </g>
    <g id="text_38">
     <!-- Estimarea perturbației sinusoide -->
     <g transform="translate(445.61875 127.5825)scale(0.08 -0.08)">
      <use xlink:href="#DejaVuSans-45"/>
      <use xlink:href="#DejaVuSans-73" x="63.183594"/>
      <use xlink:href="#DejaVuSans-74" x="115.283203"/>
      <use xlink:href="#DejaVuSans-69" x="154.492188"/>
      <use xlink:href="#DejaVuSans-6d" x="182.275391"/>
      <use xlink:href="#DejaVuSans-61" x="279.6875"/>
      <use xlink:href="#DejaVuSans-72" x="340.966797"/>
      <use xlink:href="#DejaVuSans-65" x="379.830078"/>
      <use xlink:href="#DejaVuSans-61" x="441.353516"/>
      <use xlink:href="#DejaVuSans-20" x="502.632812"/>
      <use xlink:href="#DejaVuSans-70" x="534.419922"/>
      <use xlink:href="#DejaVuSans-65" x="597.896484"/>
      <use xlink:href="#DejaVuSans-72" x="659.419922"/>
      <use xlink:href="#DejaVuSans-74" x="700.533203"/>
      <use xlink:href="#DejaVuSans-75" x="739.742188"/>
      <use xlink:href="#DejaVuSans-72" x="803.121094"/>
      <use xlink:href="#DejaVuSans-62" x="844.234375"/>
      <use xlink:href="#DejaVuSans-61" x="907.710938"/>
      <use xlink:href="#DejaVuSans-21b" x="968.990234"/>
      <use xlink:href="#DejaVuSans-69" x="1008.199219"/>
      <use xlink:href="#DejaVuSans-65" x="1035.982422"/>
      <use xlink:href="#DejaVuSans-69" x="1097.505859"/>
      <use xlink:href="#DejaVuSans-20" x="1125.289062"/>
      <use xlink:href="#DejaVuSans-73" x="1157.076172"/>
      <use xlink:href="#DejaVuSans-69" x="1209.175781"/>
      <use xlink:href="#DejaVuSans-6e" x="1236.958984"/>
      <use xlink:href="#DejaVuSans-75" x="1300.337891"/>
      <use xlink:href="#DejaVuSans-73" x="1363.716797"/>
      <use xlink:href="#DejaVuSans-6f" x="1415.816406"/>
      <use xlink:href="#DejaVuSans-69" x="1476.998047"/>
      <use xlink:href="#DejaVuSans-64" x="1504.78125"/>
      <use xlink:href="#DejaVuSans-65" x="1568.257812"/>
     </g>
    </g>
   </g>
  </g>
 </g>
 <defs>
  <clipPath id="p023af0ee13">
   <rect x="81" y="25.92" width="228.272727" height="163.08"/>
  </clipPath>
  <clipPath id="pccbe4c3d5d">
   <rect x="354.927273" y="25.92" width="228.272727" height="163.08"/>
  </clipPath>
 </defs>
</svg>
