<?xml version="1.0" encoding="utf-8" standalone="no"?>
<!DOCTYPE svg PUBLIC "-//W3C//DTD SVG 1.1//EN"
  "http://www.w3.org/Graphics/SVG/1.1/DTD/svg11.dtd">
<svg xmlns:xlink="http://www.w3.org/1999/xlink" width="360pt" height="216pt" viewBox="0 0 360 216" xmlns="http://www.w3.org/2000/svg" version="1.1">
 <metadata>
  <rdf:RDF xmlns:dc="http://purl.org/dc/elements/1.1/" xmlns:cc="http://creativecommons.org/ns#" xmlns:rdf="http://www.w3.org/1999/02/22-rdf-syntax-ns#">
   <cc:Work>
    <dc:type rdf:resource="http://purl.org/dc/dcmitype/StillImage"/>
    <dc:date>2022-06-11T23:48:08.847255</dc:date>
    <dc:format>image/svg+xml</dc:format>
    <dc:creator>
     <cc:Agent>
      <dc:title>Matplotlib v3.5.1, https://matplotlib.org/</dc:title>
     </cc:Agent>
    </dc:creator>
   </cc:Work>
  </rdf:RDF>
 </metadata>
 <defs>
  <style type="text/css">*{stroke-linejoin: round; stroke-linecap: butt}</style>
 </defs>
 <g id="figure_1">
  <g id="patch_1">
   <path d="M 0 216 
L 360 216 
L 360 0 
L 0 0 
L 0 216 
z
" style="fill: none"/>
  </g>
  <g id="axes_1">
   <g id="patch_2">
    <path d="M 45 189 
L 324 189 
L 324 25.92 
L 45 25.92 
z
" style="fill: #ffffff"/>
   </g>
   <g id="matplotlib.axis_1">
    <g id="xtick_1">
     <g id="line2d_1">
      <path d="M 57.681818 189 
L 57.681818 25.92 
" clip-path="url(#p48d14805fe)" style="fill: none; stroke-dasharray: 2,3.3; stroke-dashoffset: 0; stroke: #b0b0b0; stroke-width: 2"/>
     </g>
     <g id="line2d_2">
      <defs>
       <path id="mbb785f9cea" d="M 0 0 
L 0 3.5 
" style="stroke: #000000; stroke-width: 0.8"/>
      </defs>
      <g>
       <use xlink:href="#mbb785f9cea" x="57.681818" y="189" style="stroke: #000000; stroke-width: 0.8"/>
      </g>
     </g>
     <g id="text_1">
      <!-- 0 -->
      <g transform="translate(55.136818 202.07875)scale(0.08 -0.08)">
       <defs>
        <path id="DejaVuSans-30" d="M 2034 4250 
Q 1547 4250 1301 3770 
Q 1056 3291 1056 2328 
Q 1056 1369 1301 889 
Q 1547 409 2034 409 
Q 2525 409 2770 889 
Q 3016 1369 3016 2328 
Q 3016 3291 2770 3770 
Q 2525 4250 2034 4250 
z
M 2034 4750 
Q 2819 4750 3233 4129 
Q 3647 3509 3647 2328 
Q 3647 1150 3233 529 
Q 2819 -91 2034 -91 
Q 1250 -91 836 529 
Q 422 1150 422 2328 
Q 422 3509 836 4129 
Q 1250 4750 2034 4750 
z
" transform="scale(0.015625)"/>
       </defs>
       <use xlink:href="#DejaVuSans-30"/>
      </g>
     </g>
    </g>
    <g id="xtick_2">
     <g id="line2d_3">
      <path d="M 108.409091 189 
L 108.409091 25.92 
" clip-path="url(#p48d14805fe)" style="fill: none; stroke-dasharray: 2,3.3; stroke-dashoffset: 0; stroke: #b0b0b0; stroke-width: 2"/>
     </g>
     <g id="line2d_4">
      <g>
       <use xlink:href="#mbb785f9cea" x="108.409091" y="189" style="stroke: #000000; stroke-width: 0.8"/>
      </g>
     </g>
     <g id="text_2">
      <!-- 1 -->
      <g transform="translate(105.864091 202.07875)scale(0.08 -0.08)">
       <defs>
        <path id="DejaVuSans-31" d="M 794 531 
L 1825 531 
L 1825 4091 
L 703 3866 
L 703 4441 
L 1819 4666 
L 2450 4666 
L 2450 531 
L 3481 531 
L 3481 0 
L 794 0 
L 794 531 
z
" transform="scale(0.015625)"/>
       </defs>
       <use xlink:href="#DejaVuSans-31"/>
      </g>
     </g>
    </g>
    <g id="xtick_3">
     <g id="line2d_5">
      <path d="M 159.136364 189 
L 159.136364 25.92 
" clip-path="url(#p48d14805fe)" style="fill: none; stroke-dasharray: 2,3.3; stroke-dashoffset: 0; stroke: #b0b0b0; stroke-width: 2"/>
     </g>
     <g id="line2d_6">
      <g>
       <use xlink:href="#mbb785f9cea" x="159.136364" y="189" style="stroke: #000000; stroke-width: 0.8"/>
      </g>
     </g>
     <g id="text_3">
      <!-- 2 -->
      <g transform="translate(156.591364 202.07875)scale(0.08 -0.08)">
       <defs>
        <path id="DejaVuSans-32" d="M 1228 531 
L 3431 531 
L 3431 0 
L 469 0 
L 469 531 
Q 828 903 1448 1529 
Q 2069 2156 2228 2338 
Q 2531 2678 2651 2914 
Q 2772 3150 2772 3378 
Q 2772 3750 2511 3984 
Q 2250 4219 1831 4219 
Q 1534 4219 1204 4116 
Q 875 4013 500 3803 
L 500 4441 
Q 881 4594 1212 4672 
Q 1544 4750 1819 4750 
Q 2544 4750 2975 4387 
Q 3406 4025 3406 3419 
Q 3406 3131 3298 2873 
Q 3191 2616 2906 2266 
Q 2828 2175 2409 1742 
Q 1991 1309 1228 531 
z
" transform="scale(0.015625)"/>
       </defs>
       <use xlink:href="#DejaVuSans-32"/>
      </g>
     </g>
    </g>
    <g id="xtick_4">
     <g id="line2d_7">
      <path d="M 209.863636 189 
L 209.863636 25.92 
" clip-path="url(#p48d14805fe)" style="fill: none; stroke-dasharray: 2,3.3; stroke-dashoffset: 0; stroke: #b0b0b0; stroke-width: 2"/>
     </g>
     <g id="line2d_8">
      <g>
       <use xlink:href="#mbb785f9cea" x="209.863636" y="189" style="stroke: #000000; stroke-width: 0.8"/>
      </g>
     </g>
     <g id="text_4">
      <!-- 3 -->
      <g transform="translate(207.318636 202.07875)scale(0.08 -0.08)">
       <defs>
        <path id="DejaVuSans-33" d="M 2597 2516 
Q 3050 2419 3304 2112 
Q 3559 1806 3559 1356 
Q 3559 666 3084 287 
Q 2609 -91 1734 -91 
Q 1441 -91 1130 -33 
Q 819 25 488 141 
L 488 750 
Q 750 597 1062 519 
Q 1375 441 1716 441 
Q 2309 441 2620 675 
Q 2931 909 2931 1356 
Q 2931 1769 2642 2001 
Q 2353 2234 1838 2234 
L 1294 2234 
L 1294 2753 
L 1863 2753 
Q 2328 2753 2575 2939 
Q 2822 3125 2822 3475 
Q 2822 3834 2567 4026 
Q 2313 4219 1838 4219 
Q 1578 4219 1281 4162 
Q 984 4106 628 3988 
L 628 4550 
Q 988 4650 1302 4700 
Q 1616 4750 1894 4750 
Q 2613 4750 3031 4423 
Q 3450 4097 3450 3541 
Q 3450 3153 3228 2886 
Q 3006 2619 2597 2516 
z
" transform="scale(0.015625)"/>
       </defs>
       <use xlink:href="#DejaVuSans-33"/>
      </g>
     </g>
    </g>
    <g id="xtick_5">
     <g id="line2d_9">
      <path d="M 260.590909 189 
L 260.590909 25.92 
" clip-path="url(#p48d14805fe)" style="fill: none; stroke-dasharray: 2,3.3; stroke-dashoffset: 0; stroke: #b0b0b0; stroke-width: 2"/>
     </g>
     <g id="line2d_10">
      <g>
       <use xlink:href="#mbb785f9cea" x="260.590909" y="189" style="stroke: #000000; stroke-width: 0.8"/>
      </g>
     </g>
     <g id="text_5">
      <!-- 4 -->
      <g transform="translate(258.045909 202.07875)scale(0.08 -0.08)">
       <defs>
        <path id="DejaVuSans-34" d="M 2419 4116 
L 825 1625 
L 2419 1625 
L 2419 4116 
z
M 2253 4666 
L 3047 4666 
L 3047 1625 
L 3713 1625 
L 3713 1100 
L 3047 1100 
L 3047 0 
L 2419 0 
L 2419 1100 
L 313 1100 
L 313 1709 
L 2253 4666 
z
" transform="scale(0.015625)"/>
       </defs>
       <use xlink:href="#DejaVuSans-34"/>
      </g>
     </g>
    </g>
    <g id="xtick_6">
     <g id="line2d_11">
      <path d="M 311.318182 189 
L 311.318182 25.92 
" clip-path="url(#p48d14805fe)" style="fill: none; stroke-dasharray: 2,3.3; stroke-dashoffset: 0; stroke: #b0b0b0; stroke-width: 2"/>
     </g>
     <g id="line2d_12">
      <g>
       <use xlink:href="#mbb785f9cea" x="311.318182" y="189" style="stroke: #000000; stroke-width: 0.8"/>
      </g>
     </g>
     <g id="text_6">
      <!-- 5 -->
      <g transform="translate(308.773182 202.07875)scale(0.08 -0.08)">
       <defs>
        <path id="DejaVuSans-35" d="M 691 4666 
L 3169 4666 
L 3169 4134 
L 1269 4134 
L 1269 2991 
Q 1406 3038 1543 3061 
Q 1681 3084 1819 3084 
Q 2600 3084 3056 2656 
Q 3513 2228 3513 1497 
Q 3513 744 3044 326 
Q 2575 -91 1722 -91 
Q 1428 -91 1123 -41 
Q 819 9 494 109 
L 494 744 
Q 775 591 1075 516 
Q 1375 441 1709 441 
Q 2250 441 2565 725 
Q 2881 1009 2881 1497 
Q 2881 1984 2565 2268 
Q 2250 2553 1709 2553 
Q 1456 2553 1204 2497 
Q 953 2441 691 2322 
L 691 4666 
z
" transform="scale(0.015625)"/>
       </defs>
       <use xlink:href="#DejaVuSans-35"/>
      </g>
     </g>
    </g>
    <g id="text_7">
     <!-- Timp (s) -->
     <g transform="translate(168.15875 213.82125)scale(0.08 -0.08)">
      <defs>
       <path id="DejaVuSans-54" d="M -19 4666 
L 3928 4666 
L 3928 4134 
L 2272 4134 
L 2272 0 
L 1638 0 
L 1638 4134 
L -19 4134 
L -19 4666 
z
" transform="scale(0.015625)"/>
       <path id="DejaVuSans-69" d="M 603 3500 
L 1178 3500 
L 1178 0 
L 603 0 
L 603 3500 
z
M 603 4863 
L 1178 4863 
L 1178 4134 
L 603 4134 
L 603 4863 
z
" transform="scale(0.015625)"/>
       <path id="DejaVuSans-6d" d="M 3328 2828 
Q 3544 3216 3844 3400 
Q 4144 3584 4550 3584 
Q 5097 3584 5394 3201 
Q 5691 2819 5691 2113 
L 5691 0 
L 5113 0 
L 5113 2094 
Q 5113 2597 4934 2840 
Q 4756 3084 4391 3084 
Q 3944 3084 3684 2787 
Q 3425 2491 3425 1978 
L 3425 0 
L 2847 0 
L 2847 2094 
Q 2847 2600 2669 2842 
Q 2491 3084 2119 3084 
Q 1678 3084 1418 2786 
Q 1159 2488 1159 1978 
L 1159 0 
L 581 0 
L 581 3500 
L 1159 3500 
L 1159 2956 
Q 1356 3278 1631 3431 
Q 1906 3584 2284 3584 
Q 2666 3584 2933 3390 
Q 3200 3197 3328 2828 
z
" transform="scale(0.015625)"/>
       <path id="DejaVuSans-70" d="M 1159 525 
L 1159 -1331 
L 581 -1331 
L 581 3500 
L 1159 3500 
L 1159 2969 
Q 1341 3281 1617 3432 
Q 1894 3584 2278 3584 
Q 2916 3584 3314 3078 
Q 3713 2572 3713 1747 
Q 3713 922 3314 415 
Q 2916 -91 2278 -91 
Q 1894 -91 1617 61 
Q 1341 213 1159 525 
z
M 3116 1747 
Q 3116 2381 2855 2742 
Q 2594 3103 2138 3103 
Q 1681 3103 1420 2742 
Q 1159 2381 1159 1747 
Q 1159 1113 1420 752 
Q 1681 391 2138 391 
Q 2594 391 2855 752 
Q 3116 1113 3116 1747 
z
" transform="scale(0.015625)"/>
       <path id="DejaVuSans-20" transform="scale(0.015625)"/>
       <path id="DejaVuSans-28" d="M 1984 4856 
Q 1566 4138 1362 3434 
Q 1159 2731 1159 2009 
Q 1159 1288 1364 580 
Q 1569 -128 1984 -844 
L 1484 -844 
Q 1016 -109 783 600 
Q 550 1309 550 2009 
Q 550 2706 781 3412 
Q 1013 4119 1484 4856 
L 1984 4856 
z
" transform="scale(0.015625)"/>
       <path id="DejaVuSans-73" d="M 2834 3397 
L 2834 2853 
Q 2591 2978 2328 3040 
Q 2066 3103 1784 3103 
Q 1356 3103 1142 2972 
Q 928 2841 928 2578 
Q 928 2378 1081 2264 
Q 1234 2150 1697 2047 
L 1894 2003 
Q 2506 1872 2764 1633 
Q 3022 1394 3022 966 
Q 3022 478 2636 193 
Q 2250 -91 1575 -91 
Q 1294 -91 989 -36 
Q 684 19 347 128 
L 347 722 
Q 666 556 975 473 
Q 1284 391 1588 391 
Q 1994 391 2212 530 
Q 2431 669 2431 922 
Q 2431 1156 2273 1281 
Q 2116 1406 1581 1522 
L 1381 1569 
Q 847 1681 609 1914 
Q 372 2147 372 2553 
Q 372 3047 722 3315 
Q 1072 3584 1716 3584 
Q 2034 3584 2315 3537 
Q 2597 3491 2834 3397 
z
" transform="scale(0.015625)"/>
       <path id="DejaVuSans-29" d="M 513 4856 
L 1013 4856 
Q 1481 4119 1714 3412 
Q 1947 2706 1947 2009 
Q 1947 1309 1714 600 
Q 1481 -109 1013 -844 
L 513 -844 
Q 928 -128 1133 580 
Q 1338 1288 1338 2009 
Q 1338 2731 1133 3434 
Q 928 4138 513 4856 
z
" transform="scale(0.015625)"/>
      </defs>
      <use xlink:href="#DejaVuSans-54"/>
      <use xlink:href="#DejaVuSans-69" x="57.958984"/>
      <use xlink:href="#DejaVuSans-6d" x="85.742188"/>
      <use xlink:href="#DejaVuSans-70" x="183.154297"/>
      <use xlink:href="#DejaVuSans-20" x="246.630859"/>
      <use xlink:href="#DejaVuSans-28" x="278.417969"/>
      <use xlink:href="#DejaVuSans-73" x="317.431641"/>
      <use xlink:href="#DejaVuSans-29" x="369.53125"/>
     </g>
    </g>
   </g>
   <g id="matplotlib.axis_2">
    <g id="ytick_1">
     <g id="line2d_13">
      <path d="M 45 175.549143 
L 324 175.549143 
" clip-path="url(#p48d14805fe)" style="fill: none; stroke-dasharray: 2,3.3; stroke-dashoffset: 0; stroke: #b0b0b0; stroke-width: 2"/>
     </g>
     <g id="line2d_14">
      <defs>
       <path id="m867a32930e" d="M 0 0 
L -3.5 0 
" style="stroke: #000000; stroke-width: 0.8"/>
      </defs>
      <g>
       <use xlink:href="#m867a32930e" x="45" y="175.549143" style="stroke: #000000; stroke-width: 0.8"/>
      </g>
     </g>
     <g id="text_8">
      <!-- −50 -->
      <g transform="translate(21.11625 178.588518)scale(0.08 -0.08)">
       <defs>
        <path id="DejaVuSans-2212" d="M 678 2272 
L 4684 2272 
L 4684 1741 
L 678 1741 
L 678 2272 
z
" transform="scale(0.015625)"/>
       </defs>
       <use xlink:href="#DejaVuSans-2212"/>
       <use xlink:href="#DejaVuSans-35" x="83.789062"/>
       <use xlink:href="#DejaVuSans-30" x="147.412109"/>
      </g>
     </g>
    </g>
    <g id="ytick_2">
     <g id="line2d_15">
      <path d="M 45 155.796863 
L 324 155.796863 
" clip-path="url(#p48d14805fe)" style="fill: none; stroke-dasharray: 2,3.3; stroke-dashoffset: 0; stroke: #b0b0b0; stroke-width: 2"/>
     </g>
     <g id="line2d_16">
      <g>
       <use xlink:href="#m867a32930e" x="45" y="155.796863" style="stroke: #000000; stroke-width: 0.8"/>
      </g>
     </g>
     <g id="text_9">
      <!-- −25 -->
      <g transform="translate(21.11625 158.836238)scale(0.08 -0.08)">
       <use xlink:href="#DejaVuSans-2212"/>
       <use xlink:href="#DejaVuSans-32" x="83.789062"/>
       <use xlink:href="#DejaVuSans-35" x="147.412109"/>
      </g>
     </g>
    </g>
    <g id="ytick_3">
     <g id="line2d_17">
      <path d="M 45 136.044583 
L 324 136.044583 
" clip-path="url(#p48d14805fe)" style="fill: none; stroke-dasharray: 2,3.3; stroke-dashoffset: 0; stroke: #b0b0b0; stroke-width: 2"/>
     </g>
     <g id="line2d_18">
      <g>
       <use xlink:href="#m867a32930e" x="45" y="136.044583" style="stroke: #000000; stroke-width: 0.8"/>
      </g>
     </g>
     <g id="text_10">
      <!-- 0 -->
      <g transform="translate(32.91 139.083958)scale(0.08 -0.08)">
       <use xlink:href="#DejaVuSans-30"/>
      </g>
     </g>
    </g>
    <g id="ytick_4">
     <g id="line2d_19">
      <path d="M 45 116.292303 
L 324 116.292303 
" clip-path="url(#p48d14805fe)" style="fill: none; stroke-dasharray: 2,3.3; stroke-dashoffset: 0; stroke: #b0b0b0; stroke-width: 2"/>
     </g>
     <g id="line2d_20">
      <g>
       <use xlink:href="#m867a32930e" x="45" y="116.292303" style="stroke: #000000; stroke-width: 0.8"/>
      </g>
     </g>
     <g id="text_11">
      <!-- 25 -->
      <g transform="translate(27.82 119.331678)scale(0.08 -0.08)">
       <use xlink:href="#DejaVuSans-32"/>
       <use xlink:href="#DejaVuSans-35" x="63.623047"/>
      </g>
     </g>
    </g>
    <g id="ytick_5">
     <g id="line2d_21">
      <path d="M 45 96.540023 
L 324 96.540023 
" clip-path="url(#p48d14805fe)" style="fill: none; stroke-dasharray: 2,3.3; stroke-dashoffset: 0; stroke: #b0b0b0; stroke-width: 2"/>
     </g>
     <g id="line2d_22">
      <g>
       <use xlink:href="#m867a32930e" x="45" y="96.540023" style="stroke: #000000; stroke-width: 0.8"/>
      </g>
     </g>
     <g id="text_12">
      <!-- 50 -->
      <g transform="translate(27.82 99.579398)scale(0.08 -0.08)">
       <use xlink:href="#DejaVuSans-35"/>
       <use xlink:href="#DejaVuSans-30" x="63.623047"/>
      </g>
     </g>
    </g>
    <g id="ytick_6">
     <g id="line2d_23">
      <path d="M 45 76.787743 
L 324 76.787743 
" clip-path="url(#p48d14805fe)" style="fill: none; stroke-dasharray: 2,3.3; stroke-dashoffset: 0; stroke: #b0b0b0; stroke-width: 2"/>
     </g>
     <g id="line2d_24">
      <g>
       <use xlink:href="#m867a32930e" x="45" y="76.787743" style="stroke: #000000; stroke-width: 0.8"/>
      </g>
     </g>
     <g id="text_13">
      <!-- 75 -->
      <g transform="translate(27.82 79.827118)scale(0.08 -0.08)">
       <defs>
        <path id="DejaVuSans-37" d="M 525 4666 
L 3525 4666 
L 3525 4397 
L 1831 0 
L 1172 0 
L 2766 4134 
L 525 4134 
L 525 4666 
z
" transform="scale(0.015625)"/>
       </defs>
       <use xlink:href="#DejaVuSans-37"/>
       <use xlink:href="#DejaVuSans-35" x="63.623047"/>
      </g>
     </g>
    </g>
    <g id="ytick_7">
     <g id="line2d_25">
      <path d="M 45 57.035463 
L 324 57.035463 
" clip-path="url(#p48d14805fe)" style="fill: none; stroke-dasharray: 2,3.3; stroke-dashoffset: 0; stroke: #b0b0b0; stroke-width: 2"/>
     </g>
     <g id="line2d_26">
      <g>
       <use xlink:href="#m867a32930e" x="45" y="57.035463" style="stroke: #000000; stroke-width: 0.8"/>
      </g>
     </g>
     <g id="text_14">
      <!-- 100 -->
      <g transform="translate(22.73 60.074838)scale(0.08 -0.08)">
       <use xlink:href="#DejaVuSans-31"/>
       <use xlink:href="#DejaVuSans-30" x="63.623047"/>
       <use xlink:href="#DejaVuSans-30" x="127.246094"/>
      </g>
     </g>
    </g>
    <g id="ytick_8">
     <g id="line2d_27">
      <path d="M 45 37.283183 
L 324 37.283183 
" clip-path="url(#p48d14805fe)" style="fill: none; stroke-dasharray: 2,3.3; stroke-dashoffset: 0; stroke: #b0b0b0; stroke-width: 2"/>
     </g>
     <g id="line2d_28">
      <g>
       <use xlink:href="#m867a32930e" x="45" y="37.283183" style="stroke: #000000; stroke-width: 0.8"/>
      </g>
     </g>
     <g id="text_15">
      <!-- 125 -->
      <g transform="translate(22.73 40.322558)scale(0.08 -0.08)">
       <use xlink:href="#DejaVuSans-31"/>
       <use xlink:href="#DejaVuSans-32" x="63.623047"/>
       <use xlink:href="#DejaVuSans-35" x="127.246094"/>
      </g>
     </g>
    </g>
   </g>
   <g id="line2d_29">
    <path d="M 57.681818 33.332727 
L 57.732545 33.332727 
L 59.964545 45.90458 
L 62.196545 57.247932 
L 64.428545 67.473624 
L 66.660545 76.68284 
L 68.892545 84.967932 
L 71.124545 92.413178 
L 73.356545 99.095477 
L 75.588545 105.084983 
L 77.820545 110.445681 
L 80.052545 115.235923 
L 82.284545 119.508911 
L 84.516545 123.313141 
L 86.799273 126.765009 
L 89.082 129.815816 
L 91.364727 132.504679 
L 93.698182 134.916187 
L 96.082364 137.063664 
L 98.517273 138.961 
L 101.053636 140.653714 
L 103.640727 142.115329 
L 106.38 143.40539 
L 109.220727 144.497773 
L 112.264364 145.427149 
L 115.510909 146.182186 
L 119.011091 146.764599 
L 122.815636 147.170574 
L 127.076727 147.396775 
L 131.895818 147.423478 
L 137.475818 147.226211 
L 144.273273 146.755544 
L 153.404182 145.884609 
L 172.376182 143.785852 
L 189.623455 141.993388 
L 203.979273 140.728051 
L 218.335091 139.687548 
L 233.553273 138.810053 
L 250.344 138.06922 
L 269.417455 137.455701 
L 291.991091 136.959371 
L 311.318182 136.67356 
L 311.318182 136.67356 
" clip-path="url(#p48d14805fe)" style="fill: none; stroke: #1f77b4; stroke-width: 1.5; stroke-linecap: square"/>
   </g>
   <g id="line2d_30">
    <path d="M 57.681818 88.639111 
L 57.732545 88.639111 
L 60.066 94.440496 
L 62.399455 99.658132 
L 64.732909 104.346677 
L 67.117091 108.642355 
L 69.501273 112.485703 
L 71.936182 115.989336 
L 74.371091 119.108885 
L 76.856727 121.936855 
L 79.393091 124.488963 
L 81.980182 126.78116 
L 84.668727 128.866228 
L 87.458727 130.745521 
L 90.350182 132.422896 
L 93.393818 133.927475 
L 96.589636 135.255916 
L 99.988364 136.424481 
L 103.640727 137.440341 
L 107.597455 138.304379 
L 111.909273 139.013875 
L 116.677636 139.569921 
L 122.105455 139.972821 
L 128.344909 140.207247 
L 135.852545 140.258971 
L 145.44 140.090914 
L 159.643636 139.597167 
L 208.291091 137.767077 
L 232.183636 137.172437 
L 259.373455 136.725507 
L 293.360727 136.400366 
L 311.318182 136.295889 
L 311.318182 136.295889 
" clip-path="url(#p48d14805fe)" style="fill: none; stroke: #ff7f0e; stroke-width: 1.5; stroke-linecap: square"/>
   </g>
   <g id="line2d_31">
    <path d="M 57.681818 128.143671 
L 59.710909 135.905725 
L 61.74 142.789779 
L 63.718364 148.731448 
L 65.696727 153.980087 
L 67.624364 158.48622 
L 69.552 162.445143 
L 71.479636 165.90504 
L 73.407273 168.910265 
L 75.334909 171.501631 
L 77.211818 173.662915 
L 79.139455 175.544751 
L 81.067091 177.115729 
L 82.994727 178.405074 
L 84.973091 179.463646 
L 87.002182 180.298433 
L 89.082 180.917602 
L 91.263273 181.337657 
L 93.596727 181.55717 
L 96.082364 181.562401 
L 98.770909 181.339083 
L 101.713091 180.863667 
L 104.959636 180.107276 
L 108.612 179.023674 
L 112.923818 177.503372 
L 118.199455 175.396343 
L 125.656364 172.156484 
L 145.998 163.213006 
L 154.012909 159.996704 
L 161.469818 157.24202 
L 168.774545 154.779991 
L 176.079273 152.552597 
L 183.485455 150.52609 
L 191.145273 148.661856 
L 199.109455 146.95445 
L 207.479455 145.390304 
L 216.306 143.968927 
L 225.741273 142.676597 
L 235.937455 141.507227 
L 247.046727 140.459874 
L 259.322727 139.529368 
L 273.069818 138.714302 
L 288.795273 138.010239 
L 307.158545 137.417559 
L 311.318182 137.310175 
L 311.318182 137.310175 
" clip-path="url(#p48d14805fe)" style="fill: none; stroke: #2ca02c; stroke-width: 1.5; stroke-linecap: square"/>
   </g>
   <g id="line2d_32">
    <path d="M 57.681818 126.563489 
L 59.863091 130.407971 
L 62.044364 133.806385 
L 64.225636 136.800956 
L 66.457636 139.487281 
L 68.689636 141.828657 
L 70.972364 143.902058 
L 73.305818 145.720128 
L 75.69 147.29616 
L 78.175636 148.669418 
L 80.762727 149.83967 
L 83.451273 150.809588 
L 86.292 151.596564 
L 89.335636 152.205668 
L 92.632909 152.632963 
L 96.234545 152.868745 
L 100.191273 152.90086 
L 104.706 152.708309 
L 109.930909 152.255948 
L 116.322545 151.470139 
L 124.996909 150.163116 
L 161.926364 144.355958 
L 173.644364 142.86944 
L 185.463818 141.595031 
L 197.841273 140.486294 
L 211.131818 139.522082 
L 225.741273 138.689066 
L 242.176909 137.97941 
L 261.199636 137.386755 
L 283.976182 136.907461 
L 311.318182 136.550536 
L 311.318182 136.550536 
" clip-path="url(#p48d14805fe)" style="fill: none; stroke: #d62728; stroke-width: 1.5; stroke-linecap: square"/>
   </g>
   <g id="patch_3">
    <path d="M 45 189 
L 45 25.92 
" style="fill: none; stroke: #000000; stroke-width: 0.8; stroke-linejoin: miter; stroke-linecap: square"/>
   </g>
   <g id="patch_4">
    <path d="M 324 189 
L 324 25.92 
" style="fill: none; stroke: #000000; stroke-width: 0.8; stroke-linejoin: miter; stroke-linecap: square"/>
   </g>
   <g id="patch_5">
    <path d="M 45 189 
L 324 189 
" style="fill: none; stroke: #000000; stroke-width: 0.8; stroke-linejoin: miter; stroke-linecap: square"/>
   </g>
   <g id="patch_6">
    <path d="M 45 25.92 
L 324 25.92 
" style="fill: none; stroke: #000000; stroke-width: 0.8; stroke-linejoin: miter; stroke-linecap: square"/>
   </g>
   <g id="legend_1">
    <g id="patch_7">
     <path d="M 222.44125 79.8075 
L 318.4 79.8075 
Q 320 79.8075 320 78.2075 
L 320 31.52 
Q 320 29.92 318.4 29.92 
L 222.44125 29.92 
Q 220.84125 29.92 220.84125 31.52 
L 220.84125 78.2075 
Q 220.84125 79.8075 222.44125 79.8075 
z
" style="fill: #ffffff; opacity: 0.8; stroke: #cccccc; stroke-linejoin: miter"/>
    </g>
    <g id="line2d_33">
     <path d="M 224.04125 36.39875 
L 232.04125 36.39875 
L 240.04125 36.39875 
" style="fill: none; stroke: #1f77b4; stroke-width: 1.5; stroke-linecap: square"/>
    </g>
    <g id="text_16">
     <!-- Eroarea poziției X -->
     <g transform="translate(246.44125 39.19875)scale(0.08 -0.08)">
      <defs>
       <path id="DejaVuSans-45" d="M 628 4666 
L 3578 4666 
L 3578 4134 
L 1259 4134 
L 1259 2753 
L 3481 2753 
L 3481 2222 
L 1259 2222 
L 1259 531 
L 3634 531 
L 3634 0 
L 628 0 
L 628 4666 
z
" transform="scale(0.015625)"/>
       <path id="DejaVuSans-72" d="M 2631 2963 
Q 2534 3019 2420 3045 
Q 2306 3072 2169 3072 
Q 1681 3072 1420 2755 
Q 1159 2438 1159 1844 
L 1159 0 
L 581 0 
L 581 3500 
L 1159 3500 
L 1159 2956 
Q 1341 3275 1631 3429 
Q 1922 3584 2338 3584 
Q 2397 3584 2469 3576 
Q 2541 3569 2628 3553 
L 2631 2963 
z
" transform="scale(0.015625)"/>
       <path id="DejaVuSans-6f" d="M 1959 3097 
Q 1497 3097 1228 2736 
Q 959 2375 959 1747 
Q 959 1119 1226 758 
Q 1494 397 1959 397 
Q 2419 397 2687 759 
Q 2956 1122 2956 1747 
Q 2956 2369 2687 2733 
Q 2419 3097 1959 3097 
z
M 1959 3584 
Q 2709 3584 3137 3096 
Q 3566 2609 3566 1747 
Q 3566 888 3137 398 
Q 2709 -91 1959 -91 
Q 1206 -91 779 398 
Q 353 888 353 1747 
Q 353 2609 779 3096 
Q 1206 3584 1959 3584 
z
" transform="scale(0.015625)"/>
       <path id="DejaVuSans-61" d="M 2194 1759 
Q 1497 1759 1228 1600 
Q 959 1441 959 1056 
Q 959 750 1161 570 
Q 1363 391 1709 391 
Q 2188 391 2477 730 
Q 2766 1069 2766 1631 
L 2766 1759 
L 2194 1759 
z
M 3341 1997 
L 3341 0 
L 2766 0 
L 2766 531 
Q 2569 213 2275 61 
Q 1981 -91 1556 -91 
Q 1019 -91 701 211 
Q 384 513 384 1019 
Q 384 1609 779 1909 
Q 1175 2209 1959 2209 
L 2766 2209 
L 2766 2266 
Q 2766 2663 2505 2880 
Q 2244 3097 1772 3097 
Q 1472 3097 1187 3025 
Q 903 2953 641 2809 
L 641 3341 
Q 956 3463 1253 3523 
Q 1550 3584 1831 3584 
Q 2591 3584 2966 3190 
Q 3341 2797 3341 1997 
z
" transform="scale(0.015625)"/>
       <path id="DejaVuSans-65" d="M 3597 1894 
L 3597 1613 
L 953 1613 
Q 991 1019 1311 708 
Q 1631 397 2203 397 
Q 2534 397 2845 478 
Q 3156 559 3463 722 
L 3463 178 
Q 3153 47 2828 -22 
Q 2503 -91 2169 -91 
Q 1331 -91 842 396 
Q 353 884 353 1716 
Q 353 2575 817 3079 
Q 1281 3584 2069 3584 
Q 2775 3584 3186 3129 
Q 3597 2675 3597 1894 
z
M 3022 2063 
Q 3016 2534 2758 2815 
Q 2500 3097 2075 3097 
Q 1594 3097 1305 2825 
Q 1016 2553 972 2059 
L 3022 2063 
z
" transform="scale(0.015625)"/>
       <path id="DejaVuSans-7a" d="M 353 3500 
L 3084 3500 
L 3084 2975 
L 922 459 
L 3084 459 
L 3084 0 
L 275 0 
L 275 525 
L 2438 3041 
L 353 3041 
L 353 3500 
z
" transform="scale(0.015625)"/>
       <path id="DejaVuSans-21b" d="M 1388 -538 
L 2047 -538 
L 1534 -1538 
L 1131 -1538 
L 1388 -538 
z
M 1172 4494 
L 1172 3500 
L 2356 3500 
L 2356 3053 
L 1172 3053 
L 1172 1153 
Q 1172 725 1289 603 
Q 1406 481 1766 481 
L 2356 481 
L 2356 0 
L 1766 0 
Q 1100 0 847 248 
Q 594 497 594 1153 
L 594 3053 
L 172 3053 
L 172 3500 
L 594 3500 
L 594 4494 
L 1172 4494 
z
" transform="scale(0.015625)"/>
       <path id="DejaVuSans-58" d="M 403 4666 
L 1081 4666 
L 2241 2931 
L 3406 4666 
L 4084 4666 
L 2584 2425 
L 4184 0 
L 3506 0 
L 2194 1984 
L 872 0 
L 191 0 
L 1856 2491 
L 403 4666 
z
" transform="scale(0.015625)"/>
      </defs>
      <use xlink:href="#DejaVuSans-45"/>
      <use xlink:href="#DejaVuSans-72" x="63.183594"/>
      <use xlink:href="#DejaVuSans-6f" x="102.046875"/>
      <use xlink:href="#DejaVuSans-61" x="163.228516"/>
      <use xlink:href="#DejaVuSans-72" x="224.507812"/>
      <use xlink:href="#DejaVuSans-65" x="263.371094"/>
      <use xlink:href="#DejaVuSans-61" x="324.894531"/>
      <use xlink:href="#DejaVuSans-20" x="386.173828"/>
      <use xlink:href="#DejaVuSans-70" x="417.960938"/>
      <use xlink:href="#DejaVuSans-6f" x="481.4375"/>
      <use xlink:href="#DejaVuSans-7a" x="542.619141"/>
      <use xlink:href="#DejaVuSans-69" x="595.109375"/>
      <use xlink:href="#DejaVuSans-21b" x="622.892578"/>
      <use xlink:href="#DejaVuSans-69" x="662.101562"/>
      <use xlink:href="#DejaVuSans-65" x="689.884766"/>
      <use xlink:href="#DejaVuSans-69" x="751.408203"/>
      <use xlink:href="#DejaVuSans-20" x="779.191406"/>
      <use xlink:href="#DejaVuSans-58" x="810.978516"/>
     </g>
    </g>
    <g id="line2d_34">
     <path d="M 224.04125 48.4 
L 232.04125 48.4 
L 240.04125 48.4 
" style="fill: none; stroke: #ff7f0e; stroke-width: 1.5; stroke-linecap: square"/>
    </g>
    <g id="text_17">
     <!-- Eroarea poziției Y -->
     <g transform="translate(246.44125 51.2)scale(0.08 -0.08)">
      <defs>
       <path id="DejaVuSans-59" d="M -13 4666 
L 666 4666 
L 1959 2747 
L 3244 4666 
L 3922 4666 
L 2272 2222 
L 2272 0 
L 1638 0 
L 1638 2222 
L -13 4666 
z
" transform="scale(0.015625)"/>
      </defs>
      <use xlink:href="#DejaVuSans-45"/>
      <use xlink:href="#DejaVuSans-72" x="63.183594"/>
      <use xlink:href="#DejaVuSans-6f" x="102.046875"/>
      <use xlink:href="#DejaVuSans-61" x="163.228516"/>
      <use xlink:href="#DejaVuSans-72" x="224.507812"/>
      <use xlink:href="#DejaVuSans-65" x="263.371094"/>
      <use xlink:href="#DejaVuSans-61" x="324.894531"/>
      <use xlink:href="#DejaVuSans-20" x="386.173828"/>
      <use xlink:href="#DejaVuSans-70" x="417.960938"/>
      <use xlink:href="#DejaVuSans-6f" x="481.4375"/>
      <use xlink:href="#DejaVuSans-7a" x="542.619141"/>
      <use xlink:href="#DejaVuSans-69" x="595.109375"/>
      <use xlink:href="#DejaVuSans-21b" x="622.892578"/>
      <use xlink:href="#DejaVuSans-69" x="662.101562"/>
      <use xlink:href="#DejaVuSans-65" x="689.884766"/>
      <use xlink:href="#DejaVuSans-69" x="751.408203"/>
      <use xlink:href="#DejaVuSans-20" x="779.191406"/>
      <use xlink:href="#DejaVuSans-59" x="810.978516"/>
     </g>
    </g>
    <g id="line2d_35">
     <path d="M 224.04125 60.40125 
L 232.04125 60.40125 
L 240.04125 60.40125 
" style="fill: none; stroke: #2ca02c; stroke-width: 1.5; stroke-linecap: square"/>
    </g>
    <g id="text_18">
     <!-- Eroarea vitezei X -->
     <g transform="translate(246.44125 63.20125)scale(0.08 -0.08)">
      <defs>
       <path id="DejaVuSans-76" d="M 191 3500 
L 800 3500 
L 1894 563 
L 2988 3500 
L 3597 3500 
L 2284 0 
L 1503 0 
L 191 3500 
z
" transform="scale(0.015625)"/>
       <path id="DejaVuSans-74" d="M 1172 4494 
L 1172 3500 
L 2356 3500 
L 2356 3053 
L 1172 3053 
L 1172 1153 
Q 1172 725 1289 603 
Q 1406 481 1766 481 
L 2356 481 
L 2356 0 
L 1766 0 
Q 1100 0 847 248 
Q 594 497 594 1153 
L 594 3053 
L 172 3053 
L 172 3500 
L 594 3500 
L 594 4494 
L 1172 4494 
z
" transform="scale(0.015625)"/>
      </defs>
      <use xlink:href="#DejaVuSans-45"/>
      <use xlink:href="#DejaVuSans-72" x="63.183594"/>
      <use xlink:href="#DejaVuSans-6f" x="102.046875"/>
      <use xlink:href="#DejaVuSans-61" x="163.228516"/>
      <use xlink:href="#DejaVuSans-72" x="224.507812"/>
      <use xlink:href="#DejaVuSans-65" x="263.371094"/>
      <use xlink:href="#DejaVuSans-61" x="324.894531"/>
      <use xlink:href="#DejaVuSans-20" x="386.173828"/>
      <use xlink:href="#DejaVuSans-76" x="417.960938"/>
      <use xlink:href="#DejaVuSans-69" x="477.140625"/>
      <use xlink:href="#DejaVuSans-74" x="504.923828"/>
      <use xlink:href="#DejaVuSans-65" x="544.132812"/>
      <use xlink:href="#DejaVuSans-7a" x="605.65625"/>
      <use xlink:href="#DejaVuSans-65" x="658.146484"/>
      <use xlink:href="#DejaVuSans-69" x="719.669922"/>
      <use xlink:href="#DejaVuSans-20" x="747.453125"/>
      <use xlink:href="#DejaVuSans-58" x="779.240234"/>
     </g>
    </g>
    <g id="line2d_36">
     <path d="M 224.04125 72.14375 
L 232.04125 72.14375 
L 240.04125 72.14375 
" style="fill: none; stroke: #d62728; stroke-width: 1.5; stroke-linecap: square"/>
    </g>
    <g id="text_19">
     <!-- Eroarea vitezei Y -->
     <g transform="translate(246.44125 74.94375)scale(0.08 -0.08)">
      <use xlink:href="#DejaVuSans-45"/>
      <use xlink:href="#DejaVuSans-72" x="63.183594"/>
      <use xlink:href="#DejaVuSans-6f" x="102.046875"/>
      <use xlink:href="#DejaVuSans-61" x="163.228516"/>
      <use xlink:href="#DejaVuSans-72" x="224.507812"/>
      <use xlink:href="#DejaVuSans-65" x="263.371094"/>
      <use xlink:href="#DejaVuSans-61" x="324.894531"/>
      <use xlink:href="#DejaVuSans-20" x="386.173828"/>
      <use xlink:href="#DejaVuSans-76" x="417.960938"/>
      <use xlink:href="#DejaVuSans-69" x="477.140625"/>
      <use xlink:href="#DejaVuSans-74" x="504.923828"/>
      <use xlink:href="#DejaVuSans-65" x="544.132812"/>
      <use xlink:href="#DejaVuSans-7a" x="605.65625"/>
      <use xlink:href="#DejaVuSans-65" x="658.146484"/>
      <use xlink:href="#DejaVuSans-69" x="719.669922"/>
      <use xlink:href="#DejaVuSans-20" x="747.453125"/>
      <use xlink:href="#DejaVuSans-59" x="779.240234"/>
     </g>
    </g>
   </g>
  </g>
 </g>
 <defs>
  <clipPath id="p48d14805fe">
   <rect x="45" y="25.92" width="279" height="163.08"/>
  </clipPath>
 </defs>
</svg>
