<?xml version="1.0" encoding="utf-8" standalone="no"?>
<!DOCTYPE svg PUBLIC "-//W3C//DTD SVG 1.1//EN"
  "http://www.w3.org/Graphics/SVG/1.1/DTD/svg11.dtd">
<svg xmlns:xlink="http://www.w3.org/1999/xlink" width="648pt" height="216pt" viewBox="0 0 648 216" xmlns="http://www.w3.org/2000/svg" version="1.1">
 <metadata>
  <rdf:RDF xmlns:dc="http://purl.org/dc/elements/1.1/" xmlns:cc="http://creativecommons.org/ns#" xmlns:rdf="http://www.w3.org/1999/02/22-rdf-syntax-ns#">
   <cc:Work>
    <dc:type rdf:resource="http://purl.org/dc/dcmitype/StillImage"/>
    <dc:date>2022-06-19T19:24:03.135926</dc:date>
    <dc:format>image/svg+xml</dc:format>
    <dc:creator>
     <cc:Agent>
      <dc:title>Matplotlib v3.5.1, https://matplotlib.org/</dc:title>
     </cc:Agent>
    </dc:creator>
   </cc:Work>
  </rdf:RDF>
 </metadata>
 <defs>
  <style type="text/css">*{stroke-linejoin: round; stroke-linecap: butt}</style>
 </defs>
 <g id="figure_1">
  <g id="patch_1">
   <path d="M 0 216 
L 648 216 
L 648 0 
L 0 0 
L 0 216 
z
" style="fill: none"/>
  </g>
  <g id="axes_1">
   <g id="patch_2">
    <path d="M 81 189 
L 309.272727 189 
L 309.272727 25.92 
L 81 25.92 
z
" style="fill: #ffffff"/>
   </g>
   <g id="matplotlib.axis_1">
    <g id="xtick_1">
     <g id="line2d_1">
      <path d="M 91.376033 189 
L 91.376033 25.92 
" clip-path="url(#pfc67269138)" style="fill: none; stroke-dasharray: 2,3.3; stroke-dashoffset: 0; stroke: #b0b0b0; stroke-width: 2"/>
     </g>
     <g id="line2d_2">
      <defs>
       <path id="m7ecf78c712" d="M 0 0 
L 0 3.5 
" style="stroke: #000000; stroke-width: 0.8"/>
      </defs>
      <g>
       <use xlink:href="#m7ecf78c712" x="91.376033" y="189" style="stroke: #000000; stroke-width: 0.8"/>
      </g>
     </g>
     <g id="text_1">
      <!-- 0.0 -->
      <g transform="translate(85.014783 202.07875)scale(0.08 -0.08)">
       <defs>
        <path id="DejaVuSans-30" d="M 2034 4250 
Q 1547 4250 1301 3770 
Q 1056 3291 1056 2328 
Q 1056 1369 1301 889 
Q 1547 409 2034 409 
Q 2525 409 2770 889 
Q 3016 1369 3016 2328 
Q 3016 3291 2770 3770 
Q 2525 4250 2034 4250 
z
M 2034 4750 
Q 2819 4750 3233 4129 
Q 3647 3509 3647 2328 
Q 3647 1150 3233 529 
Q 2819 -91 2034 -91 
Q 1250 -91 836 529 
Q 422 1150 422 2328 
Q 422 3509 836 4129 
Q 1250 4750 2034 4750 
z
" transform="scale(0.015625)"/>
        <path id="DejaVuSans-2e" d="M 684 794 
L 1344 794 
L 1344 0 
L 684 0 
L 684 794 
z
" transform="scale(0.015625)"/>
       </defs>
       <use xlink:href="#DejaVuSans-30"/>
       <use xlink:href="#DejaVuSans-2e" x="63.623047"/>
       <use xlink:href="#DejaVuSans-30" x="95.410156"/>
      </g>
     </g>
    </g>
    <g id="xtick_2">
     <g id="line2d_3">
      <path d="M 117.316116 189 
L 117.316116 25.92 
" clip-path="url(#pfc67269138)" style="fill: none; stroke-dasharray: 2,3.3; stroke-dashoffset: 0; stroke: #b0b0b0; stroke-width: 2"/>
     </g>
     <g id="line2d_4">
      <g>
       <use xlink:href="#m7ecf78c712" x="117.316116" y="189" style="stroke: #000000; stroke-width: 0.8"/>
      </g>
     </g>
     <g id="text_2">
      <!-- 2.5 -->
      <g transform="translate(110.954866 202.07875)scale(0.08 -0.08)">
       <defs>
        <path id="DejaVuSans-32" d="M 1228 531 
L 3431 531 
L 3431 0 
L 469 0 
L 469 531 
Q 828 903 1448 1529 
Q 2069 2156 2228 2338 
Q 2531 2678 2651 2914 
Q 2772 3150 2772 3378 
Q 2772 3750 2511 3984 
Q 2250 4219 1831 4219 
Q 1534 4219 1204 4116 
Q 875 4013 500 3803 
L 500 4441 
Q 881 4594 1212 4672 
Q 1544 4750 1819 4750 
Q 2544 4750 2975 4387 
Q 3406 4025 3406 3419 
Q 3406 3131 3298 2873 
Q 3191 2616 2906 2266 
Q 2828 2175 2409 1742 
Q 1991 1309 1228 531 
z
" transform="scale(0.015625)"/>
        <path id="DejaVuSans-35" d="M 691 4666 
L 3169 4666 
L 3169 4134 
L 1269 4134 
L 1269 2991 
Q 1406 3038 1543 3061 
Q 1681 3084 1819 3084 
Q 2600 3084 3056 2656 
Q 3513 2228 3513 1497 
Q 3513 744 3044 326 
Q 2575 -91 1722 -91 
Q 1428 -91 1123 -41 
Q 819 9 494 109 
L 494 744 
Q 775 591 1075 516 
Q 1375 441 1709 441 
Q 2250 441 2565 725 
Q 2881 1009 2881 1497 
Q 2881 1984 2565 2268 
Q 2250 2553 1709 2553 
Q 1456 2553 1204 2497 
Q 953 2441 691 2322 
L 691 4666 
z
" transform="scale(0.015625)"/>
       </defs>
       <use xlink:href="#DejaVuSans-32"/>
       <use xlink:href="#DejaVuSans-2e" x="63.623047"/>
       <use xlink:href="#DejaVuSans-35" x="95.410156"/>
      </g>
     </g>
    </g>
    <g id="xtick_3">
     <g id="line2d_5">
      <path d="M 143.256198 189 
L 143.256198 25.92 
" clip-path="url(#pfc67269138)" style="fill: none; stroke-dasharray: 2,3.3; stroke-dashoffset: 0; stroke: #b0b0b0; stroke-width: 2"/>
     </g>
     <g id="line2d_6">
      <g>
       <use xlink:href="#m7ecf78c712" x="143.256198" y="189" style="stroke: #000000; stroke-width: 0.8"/>
      </g>
     </g>
     <g id="text_3">
      <!-- 5.0 -->
      <g transform="translate(136.894948 202.07875)scale(0.08 -0.08)">
       <use xlink:href="#DejaVuSans-35"/>
       <use xlink:href="#DejaVuSans-2e" x="63.623047"/>
       <use xlink:href="#DejaVuSans-30" x="95.410156"/>
      </g>
     </g>
    </g>
    <g id="xtick_4">
     <g id="line2d_7">
      <path d="M 169.196281 189 
L 169.196281 25.92 
" clip-path="url(#pfc67269138)" style="fill: none; stroke-dasharray: 2,3.3; stroke-dashoffset: 0; stroke: #b0b0b0; stroke-width: 2"/>
     </g>
     <g id="line2d_8">
      <g>
       <use xlink:href="#m7ecf78c712" x="169.196281" y="189" style="stroke: #000000; stroke-width: 0.8"/>
      </g>
     </g>
     <g id="text_4">
      <!-- 7.5 -->
      <g transform="translate(162.835031 202.07875)scale(0.08 -0.08)">
       <defs>
        <path id="DejaVuSans-37" d="M 525 4666 
L 3525 4666 
L 3525 4397 
L 1831 0 
L 1172 0 
L 2766 4134 
L 525 4134 
L 525 4666 
z
" transform="scale(0.015625)"/>
       </defs>
       <use xlink:href="#DejaVuSans-37"/>
       <use xlink:href="#DejaVuSans-2e" x="63.623047"/>
       <use xlink:href="#DejaVuSans-35" x="95.410156"/>
      </g>
     </g>
    </g>
    <g id="xtick_5">
     <g id="line2d_9">
      <path d="M 195.136364 189 
L 195.136364 25.92 
" clip-path="url(#pfc67269138)" style="fill: none; stroke-dasharray: 2,3.3; stroke-dashoffset: 0; stroke: #b0b0b0; stroke-width: 2"/>
     </g>
     <g id="line2d_10">
      <g>
       <use xlink:href="#m7ecf78c712" x="195.136364" y="189" style="stroke: #000000; stroke-width: 0.8"/>
      </g>
     </g>
     <g id="text_5">
      <!-- 10.0 -->
      <g transform="translate(186.230114 202.07875)scale(0.08 -0.08)">
       <defs>
        <path id="DejaVuSans-31" d="M 794 531 
L 1825 531 
L 1825 4091 
L 703 3866 
L 703 4441 
L 1819 4666 
L 2450 4666 
L 2450 531 
L 3481 531 
L 3481 0 
L 794 0 
L 794 531 
z
" transform="scale(0.015625)"/>
       </defs>
       <use xlink:href="#DejaVuSans-31"/>
       <use xlink:href="#DejaVuSans-30" x="63.623047"/>
       <use xlink:href="#DejaVuSans-2e" x="127.246094"/>
       <use xlink:href="#DejaVuSans-30" x="159.033203"/>
      </g>
     </g>
    </g>
    <g id="xtick_6">
     <g id="line2d_11">
      <path d="M 221.076446 189 
L 221.076446 25.92 
" clip-path="url(#pfc67269138)" style="fill: none; stroke-dasharray: 2,3.3; stroke-dashoffset: 0; stroke: #b0b0b0; stroke-width: 2"/>
     </g>
     <g id="line2d_12">
      <g>
       <use xlink:href="#m7ecf78c712" x="221.076446" y="189" style="stroke: #000000; stroke-width: 0.8"/>
      </g>
     </g>
     <g id="text_6">
      <!-- 12.5 -->
      <g transform="translate(212.170196 202.07875)scale(0.08 -0.08)">
       <use xlink:href="#DejaVuSans-31"/>
       <use xlink:href="#DejaVuSans-32" x="63.623047"/>
       <use xlink:href="#DejaVuSans-2e" x="127.246094"/>
       <use xlink:href="#DejaVuSans-35" x="159.033203"/>
      </g>
     </g>
    </g>
    <g id="xtick_7">
     <g id="line2d_13">
      <path d="M 247.016529 189 
L 247.016529 25.92 
" clip-path="url(#pfc67269138)" style="fill: none; stroke-dasharray: 2,3.3; stroke-dashoffset: 0; stroke: #b0b0b0; stroke-width: 2"/>
     </g>
     <g id="line2d_14">
      <g>
       <use xlink:href="#m7ecf78c712" x="247.016529" y="189" style="stroke: #000000; stroke-width: 0.8"/>
      </g>
     </g>
     <g id="text_7">
      <!-- 15.0 -->
      <g transform="translate(238.110279 202.07875)scale(0.08 -0.08)">
       <use xlink:href="#DejaVuSans-31"/>
       <use xlink:href="#DejaVuSans-35" x="63.623047"/>
       <use xlink:href="#DejaVuSans-2e" x="127.246094"/>
       <use xlink:href="#DejaVuSans-30" x="159.033203"/>
      </g>
     </g>
    </g>
    <g id="xtick_8">
     <g id="line2d_15">
      <path d="M 272.956612 189 
L 272.956612 25.92 
" clip-path="url(#pfc67269138)" style="fill: none; stroke-dasharray: 2,3.3; stroke-dashoffset: 0; stroke: #b0b0b0; stroke-width: 2"/>
     </g>
     <g id="line2d_16">
      <g>
       <use xlink:href="#m7ecf78c712" x="272.956612" y="189" style="stroke: #000000; stroke-width: 0.8"/>
      </g>
     </g>
     <g id="text_8">
      <!-- 17.5 -->
      <g transform="translate(264.050362 202.07875)scale(0.08 -0.08)">
       <use xlink:href="#DejaVuSans-31"/>
       <use xlink:href="#DejaVuSans-37" x="63.623047"/>
       <use xlink:href="#DejaVuSans-2e" x="127.246094"/>
       <use xlink:href="#DejaVuSans-35" x="159.033203"/>
      </g>
     </g>
    </g>
    <g id="xtick_9">
     <g id="line2d_17">
      <path d="M 298.896694 189 
L 298.896694 25.92 
" clip-path="url(#pfc67269138)" style="fill: none; stroke-dasharray: 2,3.3; stroke-dashoffset: 0; stroke: #b0b0b0; stroke-width: 2"/>
     </g>
     <g id="line2d_18">
      <g>
       <use xlink:href="#m7ecf78c712" x="298.896694" y="189" style="stroke: #000000; stroke-width: 0.8"/>
      </g>
     </g>
     <g id="text_9">
      <!-- 20.0 -->
      <g transform="translate(289.990444 202.07875)scale(0.08 -0.08)">
       <use xlink:href="#DejaVuSans-32"/>
       <use xlink:href="#DejaVuSans-30" x="63.623047"/>
       <use xlink:href="#DejaVuSans-2e" x="127.246094"/>
       <use xlink:href="#DejaVuSans-30" x="159.033203"/>
      </g>
     </g>
    </g>
    <g id="text_10">
     <!-- Timp (s) -->
     <g transform="translate(178.795114 213.82125)scale(0.08 -0.08)">
      <defs>
       <path id="DejaVuSans-54" d="M -19 4666 
L 3928 4666 
L 3928 4134 
L 2272 4134 
L 2272 0 
L 1638 0 
L 1638 4134 
L -19 4134 
L -19 4666 
z
" transform="scale(0.015625)"/>
       <path id="DejaVuSans-69" d="M 603 3500 
L 1178 3500 
L 1178 0 
L 603 0 
L 603 3500 
z
M 603 4863 
L 1178 4863 
L 1178 4134 
L 603 4134 
L 603 4863 
z
" transform="scale(0.015625)"/>
       <path id="DejaVuSans-6d" d="M 3328 2828 
Q 3544 3216 3844 3400 
Q 4144 3584 4550 3584 
Q 5097 3584 5394 3201 
Q 5691 2819 5691 2113 
L 5691 0 
L 5113 0 
L 5113 2094 
Q 5113 2597 4934 2840 
Q 4756 3084 4391 3084 
Q 3944 3084 3684 2787 
Q 3425 2491 3425 1978 
L 3425 0 
L 2847 0 
L 2847 2094 
Q 2847 2600 2669 2842 
Q 2491 3084 2119 3084 
Q 1678 3084 1418 2786 
Q 1159 2488 1159 1978 
L 1159 0 
L 581 0 
L 581 3500 
L 1159 3500 
L 1159 2956 
Q 1356 3278 1631 3431 
Q 1906 3584 2284 3584 
Q 2666 3584 2933 3390 
Q 3200 3197 3328 2828 
z
" transform="scale(0.015625)"/>
       <path id="DejaVuSans-70" d="M 1159 525 
L 1159 -1331 
L 581 -1331 
L 581 3500 
L 1159 3500 
L 1159 2969 
Q 1341 3281 1617 3432 
Q 1894 3584 2278 3584 
Q 2916 3584 3314 3078 
Q 3713 2572 3713 1747 
Q 3713 922 3314 415 
Q 2916 -91 2278 -91 
Q 1894 -91 1617 61 
Q 1341 213 1159 525 
z
M 3116 1747 
Q 3116 2381 2855 2742 
Q 2594 3103 2138 3103 
Q 1681 3103 1420 2742 
Q 1159 2381 1159 1747 
Q 1159 1113 1420 752 
Q 1681 391 2138 391 
Q 2594 391 2855 752 
Q 3116 1113 3116 1747 
z
" transform="scale(0.015625)"/>
       <path id="DejaVuSans-20" transform="scale(0.015625)"/>
       <path id="DejaVuSans-28" d="M 1984 4856 
Q 1566 4138 1362 3434 
Q 1159 2731 1159 2009 
Q 1159 1288 1364 580 
Q 1569 -128 1984 -844 
L 1484 -844 
Q 1016 -109 783 600 
Q 550 1309 550 2009 
Q 550 2706 781 3412 
Q 1013 4119 1484 4856 
L 1984 4856 
z
" transform="scale(0.015625)"/>
       <path id="DejaVuSans-73" d="M 2834 3397 
L 2834 2853 
Q 2591 2978 2328 3040 
Q 2066 3103 1784 3103 
Q 1356 3103 1142 2972 
Q 928 2841 928 2578 
Q 928 2378 1081 2264 
Q 1234 2150 1697 2047 
L 1894 2003 
Q 2506 1872 2764 1633 
Q 3022 1394 3022 966 
Q 3022 478 2636 193 
Q 2250 -91 1575 -91 
Q 1294 -91 989 -36 
Q 684 19 347 128 
L 347 722 
Q 666 556 975 473 
Q 1284 391 1588 391 
Q 1994 391 2212 530 
Q 2431 669 2431 922 
Q 2431 1156 2273 1281 
Q 2116 1406 1581 1522 
L 1381 1569 
Q 847 1681 609 1914 
Q 372 2147 372 2553 
Q 372 3047 722 3315 
Q 1072 3584 1716 3584 
Q 2034 3584 2315 3537 
Q 2597 3491 2834 3397 
z
" transform="scale(0.015625)"/>
       <path id="DejaVuSans-29" d="M 513 4856 
L 1013 4856 
Q 1481 4119 1714 3412 
Q 1947 2706 1947 2009 
Q 1947 1309 1714 600 
Q 1481 -109 1013 -844 
L 513 -844 
Q 928 -128 1133 580 
Q 1338 1288 1338 2009 
Q 1338 2731 1133 3434 
Q 928 4138 513 4856 
z
" transform="scale(0.015625)"/>
      </defs>
      <use xlink:href="#DejaVuSans-54"/>
      <use xlink:href="#DejaVuSans-69" x="57.958984"/>
      <use xlink:href="#DejaVuSans-6d" x="85.742188"/>
      <use xlink:href="#DejaVuSans-70" x="183.154297"/>
      <use xlink:href="#DejaVuSans-20" x="246.630859"/>
      <use xlink:href="#DejaVuSans-28" x="278.417969"/>
      <use xlink:href="#DejaVuSans-73" x="317.431641"/>
      <use xlink:href="#DejaVuSans-29" x="369.53125"/>
     </g>
    </g>
   </g>
   <g id="matplotlib.axis_2">
    <g id="ytick_1">
     <g id="line2d_19">
      <path d="M 81 188.490585 
L 309.272727 188.490585 
" clip-path="url(#pfc67269138)" style="fill: none; stroke-dasharray: 2,3.3; stroke-dashoffset: 0; stroke: #b0b0b0; stroke-width: 2"/>
     </g>
     <g id="line2d_20">
      <defs>
       <path id="m7adf8f8435" d="M 0 0 
L -3.5 0 
" style="stroke: #000000; stroke-width: 0.8"/>
      </defs>
      <g>
       <use xlink:href="#m7adf8f8435" x="81" y="188.490585" style="stroke: #000000; stroke-width: 0.8"/>
      </g>
     </g>
     <g id="text_11">
      <!-- −300 -->
      <g transform="translate(52.02625 191.52996)scale(0.08 -0.08)">
       <defs>
        <path id="DejaVuSans-2212" d="M 678 2272 
L 4684 2272 
L 4684 1741 
L 678 1741 
L 678 2272 
z
" transform="scale(0.015625)"/>
        <path id="DejaVuSans-33" d="M 2597 2516 
Q 3050 2419 3304 2112 
Q 3559 1806 3559 1356 
Q 3559 666 3084 287 
Q 2609 -91 1734 -91 
Q 1441 -91 1130 -33 
Q 819 25 488 141 
L 488 750 
Q 750 597 1062 519 
Q 1375 441 1716 441 
Q 2309 441 2620 675 
Q 2931 909 2931 1356 
Q 2931 1769 2642 2001 
Q 2353 2234 1838 2234 
L 1294 2234 
L 1294 2753 
L 1863 2753 
Q 2328 2753 2575 2939 
Q 2822 3125 2822 3475 
Q 2822 3834 2567 4026 
Q 2313 4219 1838 4219 
Q 1578 4219 1281 4162 
Q 984 4106 628 3988 
L 628 4550 
Q 988 4650 1302 4700 
Q 1616 4750 1894 4750 
Q 2613 4750 3031 4423 
Q 3450 4097 3450 3541 
Q 3450 3153 3228 2886 
Q 3006 2619 2597 2516 
z
" transform="scale(0.015625)"/>
       </defs>
       <use xlink:href="#DejaVuSans-2212"/>
       <use xlink:href="#DejaVuSans-33" x="83.789062"/>
       <use xlink:href="#DejaVuSans-30" x="147.412109"/>
       <use xlink:href="#DejaVuSans-30" x="211.035156"/>
      </g>
     </g>
    </g>
    <g id="ytick_2">
     <g id="line2d_21">
      <path d="M 81 160.983902 
L 309.272727 160.983902 
" clip-path="url(#pfc67269138)" style="fill: none; stroke-dasharray: 2,3.3; stroke-dashoffset: 0; stroke: #b0b0b0; stroke-width: 2"/>
     </g>
     <g id="line2d_22">
      <g>
       <use xlink:href="#m7adf8f8435" x="81" y="160.983902" style="stroke: #000000; stroke-width: 0.8"/>
      </g>
     </g>
     <g id="text_12">
      <!-- −200 -->
      <g transform="translate(52.02625 164.023277)scale(0.08 -0.08)">
       <use xlink:href="#DejaVuSans-2212"/>
       <use xlink:href="#DejaVuSans-32" x="83.789062"/>
       <use xlink:href="#DejaVuSans-30" x="147.412109"/>
       <use xlink:href="#DejaVuSans-30" x="211.035156"/>
      </g>
     </g>
    </g>
    <g id="ytick_3">
     <g id="line2d_23">
      <path d="M 81 133.477219 
L 309.272727 133.477219 
" clip-path="url(#pfc67269138)" style="fill: none; stroke-dasharray: 2,3.3; stroke-dashoffset: 0; stroke: #b0b0b0; stroke-width: 2"/>
     </g>
     <g id="line2d_24">
      <g>
       <use xlink:href="#m7adf8f8435" x="81" y="133.477219" style="stroke: #000000; stroke-width: 0.8"/>
      </g>
     </g>
     <g id="text_13">
      <!-- −100 -->
      <g transform="translate(52.02625 136.516594)scale(0.08 -0.08)">
       <use xlink:href="#DejaVuSans-2212"/>
       <use xlink:href="#DejaVuSans-31" x="83.789062"/>
       <use xlink:href="#DejaVuSans-30" x="147.412109"/>
       <use xlink:href="#DejaVuSans-30" x="211.035156"/>
      </g>
     </g>
    </g>
    <g id="ytick_4">
     <g id="line2d_25">
      <path d="M 81 105.970536 
L 309.272727 105.970536 
" clip-path="url(#pfc67269138)" style="fill: none; stroke-dasharray: 2,3.3; stroke-dashoffset: 0; stroke: #b0b0b0; stroke-width: 2"/>
     </g>
     <g id="line2d_26">
      <g>
       <use xlink:href="#m7adf8f8435" x="81" y="105.970536" style="stroke: #000000; stroke-width: 0.8"/>
      </g>
     </g>
     <g id="text_14">
      <!-- 0 -->
      <g transform="translate(68.91 109.009911)scale(0.08 -0.08)">
       <use xlink:href="#DejaVuSans-30"/>
      </g>
     </g>
    </g>
    <g id="ytick_5">
     <g id="line2d_27">
      <path d="M 81 78.463853 
L 309.272727 78.463853 
" clip-path="url(#pfc67269138)" style="fill: none; stroke-dasharray: 2,3.3; stroke-dashoffset: 0; stroke: #b0b0b0; stroke-width: 2"/>
     </g>
     <g id="line2d_28">
      <g>
       <use xlink:href="#m7adf8f8435" x="81" y="78.463853" style="stroke: #000000; stroke-width: 0.8"/>
      </g>
     </g>
     <g id="text_15">
      <!-- 100 -->
      <g transform="translate(58.73 81.503228)scale(0.08 -0.08)">
       <use xlink:href="#DejaVuSans-31"/>
       <use xlink:href="#DejaVuSans-30" x="63.623047"/>
       <use xlink:href="#DejaVuSans-30" x="127.246094"/>
      </g>
     </g>
    </g>
    <g id="ytick_6">
     <g id="line2d_29">
      <path d="M 81 50.95717 
L 309.272727 50.95717 
" clip-path="url(#pfc67269138)" style="fill: none; stroke-dasharray: 2,3.3; stroke-dashoffset: 0; stroke: #b0b0b0; stroke-width: 2"/>
     </g>
     <g id="line2d_30">
      <g>
       <use xlink:href="#m7adf8f8435" x="81" y="50.95717" style="stroke: #000000; stroke-width: 0.8"/>
      </g>
     </g>
     <g id="text_16">
      <!-- 200 -->
      <g transform="translate(58.73 53.996545)scale(0.08 -0.08)">
       <use xlink:href="#DejaVuSans-32"/>
       <use xlink:href="#DejaVuSans-30" x="63.623047"/>
       <use xlink:href="#DejaVuSans-30" x="127.246094"/>
      </g>
     </g>
    </g>
    <g id="text_17">
     <!-- unghi (grade)  -->
     <g transform="translate(46.3625 136.015)rotate(-90)scale(0.08 -0.08)">
      <defs>
       <path id="DejaVuSans-75" d="M 544 1381 
L 544 3500 
L 1119 3500 
L 1119 1403 
Q 1119 906 1312 657 
Q 1506 409 1894 409 
Q 2359 409 2629 706 
Q 2900 1003 2900 1516 
L 2900 3500 
L 3475 3500 
L 3475 0 
L 2900 0 
L 2900 538 
Q 2691 219 2414 64 
Q 2138 -91 1772 -91 
Q 1169 -91 856 284 
Q 544 659 544 1381 
z
M 1991 3584 
L 1991 3584 
z
" transform="scale(0.015625)"/>
       <path id="DejaVuSans-6e" d="M 3513 2113 
L 3513 0 
L 2938 0 
L 2938 2094 
Q 2938 2591 2744 2837 
Q 2550 3084 2163 3084 
Q 1697 3084 1428 2787 
Q 1159 2491 1159 1978 
L 1159 0 
L 581 0 
L 581 3500 
L 1159 3500 
L 1159 2956 
Q 1366 3272 1645 3428 
Q 1925 3584 2291 3584 
Q 2894 3584 3203 3211 
Q 3513 2838 3513 2113 
z
" transform="scale(0.015625)"/>
       <path id="DejaVuSans-67" d="M 2906 1791 
Q 2906 2416 2648 2759 
Q 2391 3103 1925 3103 
Q 1463 3103 1205 2759 
Q 947 2416 947 1791 
Q 947 1169 1205 825 
Q 1463 481 1925 481 
Q 2391 481 2648 825 
Q 2906 1169 2906 1791 
z
M 3481 434 
Q 3481 -459 3084 -895 
Q 2688 -1331 1869 -1331 
Q 1566 -1331 1297 -1286 
Q 1028 -1241 775 -1147 
L 775 -588 
Q 1028 -725 1275 -790 
Q 1522 -856 1778 -856 
Q 2344 -856 2625 -561 
Q 2906 -266 2906 331 
L 2906 616 
Q 2728 306 2450 153 
Q 2172 0 1784 0 
Q 1141 0 747 490 
Q 353 981 353 1791 
Q 353 2603 747 3093 
Q 1141 3584 1784 3584 
Q 2172 3584 2450 3431 
Q 2728 3278 2906 2969 
L 2906 3500 
L 3481 3500 
L 3481 434 
z
" transform="scale(0.015625)"/>
       <path id="DejaVuSans-68" d="M 3513 2113 
L 3513 0 
L 2938 0 
L 2938 2094 
Q 2938 2591 2744 2837 
Q 2550 3084 2163 3084 
Q 1697 3084 1428 2787 
Q 1159 2491 1159 1978 
L 1159 0 
L 581 0 
L 581 4863 
L 1159 4863 
L 1159 2956 
Q 1366 3272 1645 3428 
Q 1925 3584 2291 3584 
Q 2894 3584 3203 3211 
Q 3513 2838 3513 2113 
z
" transform="scale(0.015625)"/>
       <path id="DejaVuSans-72" d="M 2631 2963 
Q 2534 3019 2420 3045 
Q 2306 3072 2169 3072 
Q 1681 3072 1420 2755 
Q 1159 2438 1159 1844 
L 1159 0 
L 581 0 
L 581 3500 
L 1159 3500 
L 1159 2956 
Q 1341 3275 1631 3429 
Q 1922 3584 2338 3584 
Q 2397 3584 2469 3576 
Q 2541 3569 2628 3553 
L 2631 2963 
z
" transform="scale(0.015625)"/>
       <path id="DejaVuSans-61" d="M 2194 1759 
Q 1497 1759 1228 1600 
Q 959 1441 959 1056 
Q 959 750 1161 570 
Q 1363 391 1709 391 
Q 2188 391 2477 730 
Q 2766 1069 2766 1631 
L 2766 1759 
L 2194 1759 
z
M 3341 1997 
L 3341 0 
L 2766 0 
L 2766 531 
Q 2569 213 2275 61 
Q 1981 -91 1556 -91 
Q 1019 -91 701 211 
Q 384 513 384 1019 
Q 384 1609 779 1909 
Q 1175 2209 1959 2209 
L 2766 2209 
L 2766 2266 
Q 2766 2663 2505 2880 
Q 2244 3097 1772 3097 
Q 1472 3097 1187 3025 
Q 903 2953 641 2809 
L 641 3341 
Q 956 3463 1253 3523 
Q 1550 3584 1831 3584 
Q 2591 3584 2966 3190 
Q 3341 2797 3341 1997 
z
" transform="scale(0.015625)"/>
       <path id="DejaVuSans-64" d="M 2906 2969 
L 2906 4863 
L 3481 4863 
L 3481 0 
L 2906 0 
L 2906 525 
Q 2725 213 2448 61 
Q 2172 -91 1784 -91 
Q 1150 -91 751 415 
Q 353 922 353 1747 
Q 353 2572 751 3078 
Q 1150 3584 1784 3584 
Q 2172 3584 2448 3432 
Q 2725 3281 2906 2969 
z
M 947 1747 
Q 947 1113 1208 752 
Q 1469 391 1925 391 
Q 2381 391 2643 752 
Q 2906 1113 2906 1747 
Q 2906 2381 2643 2742 
Q 2381 3103 1925 3103 
Q 1469 3103 1208 2742 
Q 947 2381 947 1747 
z
" transform="scale(0.015625)"/>
       <path id="DejaVuSans-65" d="M 3597 1894 
L 3597 1613 
L 953 1613 
Q 991 1019 1311 708 
Q 1631 397 2203 397 
Q 2534 397 2845 478 
Q 3156 559 3463 722 
L 3463 178 
Q 3153 47 2828 -22 
Q 2503 -91 2169 -91 
Q 1331 -91 842 396 
Q 353 884 353 1716 
Q 353 2575 817 3079 
Q 1281 3584 2069 3584 
Q 2775 3584 3186 3129 
Q 3597 2675 3597 1894 
z
M 3022 2063 
Q 3016 2534 2758 2815 
Q 2500 3097 2075 3097 
Q 1594 3097 1305 2825 
Q 1016 2553 972 2059 
L 3022 2063 
z
" transform="scale(0.015625)"/>
      </defs>
      <use xlink:href="#DejaVuSans-75"/>
      <use xlink:href="#DejaVuSans-6e" x="63.378906"/>
      <use xlink:href="#DejaVuSans-67" x="126.757812"/>
      <use xlink:href="#DejaVuSans-68" x="190.234375"/>
      <use xlink:href="#DejaVuSans-69" x="253.613281"/>
      <use xlink:href="#DejaVuSans-20" x="281.396484"/>
      <use xlink:href="#DejaVuSans-28" x="313.183594"/>
      <use xlink:href="#DejaVuSans-67" x="352.197266"/>
      <use xlink:href="#DejaVuSans-72" x="415.673828"/>
      <use xlink:href="#DejaVuSans-61" x="456.787109"/>
      <use xlink:href="#DejaVuSans-64" x="518.066406"/>
      <use xlink:href="#DejaVuSans-65" x="581.542969"/>
      <use xlink:href="#DejaVuSans-29" x="643.066406"/>
      <use xlink:href="#DejaVuSans-20" x="682.080078"/>
     </g>
    </g>
   </g>
   <g id="line2d_31">
    <path d="M 91.376033 111.47017 
L 97.186612 111.487833 
L 102.685909 111.722619 
L 107.666405 112.154792 
L 112.024339 112.75376 
L 115.759711 113.484184 
L 119.080041 114.355452 
L 121.985331 115.340347 
L 124.683099 116.492042 
L 127.069587 117.747809 
L 129.352314 119.202251 
L 131.531281 120.864123 
L 133.606488 122.732012 
L 135.681694 124.90633 
L 137.860661 127.531462 
L 140.247149 130.781877 
L 143.359959 135.439067 
L 148.029174 142.419912 
L 150.311901 145.404884 
L 152.283347 147.618803 
L 154.151033 149.377554 
L 155.914959 150.741766 
L 157.678884 151.839944 
L 159.54657 152.747446 
L 161.621777 153.497449 
L 163.904504 154.073478 
L 166.498512 154.494562 
L 169.818843 154.794321 
L 174.488058 154.971273 
L 183.826488 155.051691 
L 236.951777 155.110201 
L 297.962851 155.208346 
L 298.066612 154.932858 
L 298.170372 155.511988 
L 298.274132 154.2846 
L 298.377893 156.901042 
L 298.481653 151.274532 
L 298.585413 163.284398 
L 298.689174 138.090552 
L 298.792934 181.587273 
L 298.792934 181.587273 
" clip-path="url(#pfc67269138)" style="fill: none; stroke: #1f77b4; stroke-width: 1.5; stroke-linecap: square"/>
   </g>
   <g id="line2d_32">
    <path d="M 91.376033 106.851107 
L 100.818223 111.765113 
L 106.836322 114.64832 
L 112.23186 116.992405 
L 117.419876 119.006989 
L 122.607893 120.783999 
L 127.899669 122.36309 
L 133.502727 123.800391 
L 139.417066 125.084284 
L 145.538926 126.184758 
L 151.868306 127.09651 
L 158.924008 127.884831 
L 167.328595 128.5927 
L 177.393347 129.209298 
L 189.533306 129.721655 
L 204.578554 130.124878 
L 224.500537 130.423386 
L 253.65719 130.618403 
L 298.792934 130.710153 
L 298.792934 130.710153 
" clip-path="url(#pfc67269138)" style="fill: none; stroke: #ff7f0e; stroke-width: 1.5; stroke-linecap: square"/>
   </g>
   <g id="line2d_33">
    <path d="M 91.376033 115.577843 
L 103.204711 113.183779 
L 108.911529 111.800191 
L 113.373223 110.500365 
L 117.108595 109.189107 
L 120.325165 107.832639 
L 123.230455 106.366738 
L 125.824463 104.810093 
L 128.21095 103.121096 
L 130.493678 101.227528 
L 132.672645 99.12378 
L 134.851612 96.694986 
L 137.030579 93.921239 
L 139.417066 90.501075 
L 142.322355 85.918075 
L 148.132934 76.657417 
L 150.311901 73.663112 
L 152.283347 71.332467 
L 154.151033 69.479376 
L 155.914959 68.037659 
L 157.678884 66.870683 
L 159.54657 65.897438 
L 161.518017 65.115615 
L 163.800744 64.460354 
L 166.394752 63.956704 
L 169.611322 63.568266 
L 174.176777 63.26174 
L 182.892645 62.945335 
L 229.065992 61.661531 
L 297.962851 59.733677 
L 298.066612 60.006415 
L 298.170372 59.424533 
L 298.274132 60.649171 
L 298.377893 58.029977 
L 298.481653 63.65374 
L 298.585413 51.641116 
L 298.689174 76.832226 
L 298.792934 33.332727 
L 298.792934 33.332727 
" clip-path="url(#pfc67269138)" style="fill: none; stroke: #2ca02c; stroke-width: 1.5; stroke-linecap: square"/>
   </g>
   <g id="line2d_34">
    <path d="M 91.376033 130.726551 
L 298.896694 130.726551 
" clip-path="url(#pfc67269138)" style="fill: none; stroke-dasharray: 5.55,2.4; stroke-dashoffset: 0; stroke: #ff0000; stroke-width: 1.5"/>
   </g>
   <g id="patch_3">
    <path d="M 81 189 
L 81 25.92 
" style="fill: none; stroke: #000000; stroke-width: 0.8; stroke-linejoin: miter; stroke-linecap: square"/>
   </g>
   <g id="patch_4">
    <path d="M 309.272727 189 
L 309.272727 25.92 
" style="fill: none; stroke: #000000; stroke-width: 0.8; stroke-linejoin: miter; stroke-linecap: square"/>
   </g>
   <g id="patch_5">
    <path d="M 81 189 
L 309.272727 189 
" style="fill: none; stroke: #000000; stroke-width: 0.8; stroke-linejoin: miter; stroke-linecap: square"/>
   </g>
   <g id="patch_6">
    <path d="M 81 25.92 
L 309.272727 25.92 
" style="fill: none; stroke: #000000; stroke-width: 0.8; stroke-linejoin: miter; stroke-linecap: square"/>
   </g>
   <g id="text_18">
    <!-- Unghiuri Euler -->
    <g transform="translate(160.949114 19.92)scale(0.096 -0.096)">
     <defs>
      <path id="DejaVuSans-55" d="M 556 4666 
L 1191 4666 
L 1191 1831 
Q 1191 1081 1462 751 
Q 1734 422 2344 422 
Q 2950 422 3222 751 
Q 3494 1081 3494 1831 
L 3494 4666 
L 4128 4666 
L 4128 1753 
Q 4128 841 3676 375 
Q 3225 -91 2344 -91 
Q 1459 -91 1007 375 
Q 556 841 556 1753 
L 556 4666 
z
" transform="scale(0.015625)"/>
      <path id="DejaVuSans-45" d="M 628 4666 
L 3578 4666 
L 3578 4134 
L 1259 4134 
L 1259 2753 
L 3481 2753 
L 3481 2222 
L 1259 2222 
L 1259 531 
L 3634 531 
L 3634 0 
L 628 0 
L 628 4666 
z
" transform="scale(0.015625)"/>
      <path id="DejaVuSans-6c" d="M 603 4863 
L 1178 4863 
L 1178 0 
L 603 0 
L 603 4863 
z
" transform="scale(0.015625)"/>
     </defs>
     <use xlink:href="#DejaVuSans-55"/>
     <use xlink:href="#DejaVuSans-6e" x="73.193359"/>
     <use xlink:href="#DejaVuSans-67" x="136.572266"/>
     <use xlink:href="#DejaVuSans-68" x="200.048828"/>
     <use xlink:href="#DejaVuSans-69" x="263.427734"/>
     <use xlink:href="#DejaVuSans-75" x="291.210938"/>
     <use xlink:href="#DejaVuSans-72" x="354.589844"/>
     <use xlink:href="#DejaVuSans-69" x="395.703125"/>
     <use xlink:href="#DejaVuSans-20" x="423.486328"/>
     <use xlink:href="#DejaVuSans-45" x="455.273438"/>
     <use xlink:href="#DejaVuSans-75" x="518.457031"/>
     <use xlink:href="#DejaVuSans-6c" x="581.835938"/>
     <use xlink:href="#DejaVuSans-65" x="609.619141"/>
     <use xlink:href="#DejaVuSans-72" x="671.142578"/>
    </g>
   </g>
   <g id="legend_1">
    <g id="patch_7">
     <path d="M 86.6 79.32375 
L 126.2 79.32375 
Q 127.8 79.32375 127.8 77.72375 
L 127.8 31.52 
Q 127.8 29.92 126.2 29.92 
L 86.6 29.92 
Q 85 29.92 85 31.52 
L 85 77.72375 
Q 85 79.32375 86.6 79.32375 
z
" style="fill: #ffffff; opacity: 0.8; stroke: #cccccc; stroke-linejoin: miter"/>
    </g>
    <g id="line2d_35">
     <path d="M 88.2 36.4 
L 96.2 36.4 
L 104.2 36.4 
" style="fill: none; stroke: #1f77b4; stroke-width: 1.5; stroke-linecap: square"/>
    </g>
    <g id="text_19">
     <!-- $\phi$ -->
     <g transform="translate(110.6 39.2)scale(0.08 -0.08)">
      <defs>
       <path id="DejaVuSans-Oblique-3d5" d="M 2991 4863 
L 2738 3572 
Q 3363 3572 3684 3094 
Q 4016 2606 3850 1747 
Q 3681 888 3159 400 
Q 2653 -78 2028 -78 
L 1784 -1331 
L 1213 -1331 
L 1456 -78 
Q 834 -78 509 400 
Q 178 888 347 1747 
Q 513 2606 1034 3094 
Q 1544 3572 2166 3572 
L 2419 4863 
L 2991 4863 
z
M 2128 434 
Q 2481 434 2784 756 
Q 3116 1116 3244 1747 
Q 3369 2372 3169 2738 
Q 2991 3059 2638 3059 
L 2128 434 
z
M 1556 434 
L 2066 3059 
Q 1716 3059 1413 2738 
Q 1072 2372 953 1747 
Q 834 1116 1028 756 
Q 1203 434 1556 434 
z
" transform="scale(0.015625)"/>
      </defs>
      <use xlink:href="#DejaVuSans-Oblique-3d5" transform="translate(0 0.015625)"/>
     </g>
    </g>
    <g id="line2d_36">
     <path d="M 88.2 48.15875 
L 96.2 48.15875 
L 104.2 48.15875 
" style="fill: none; stroke: #ff7f0e; stroke-width: 1.5; stroke-linecap: square"/>
    </g>
    <g id="text_20">
     <!-- $\theta $ -->
     <g transform="translate(110.6 50.95875)scale(0.08 -0.08)">
      <defs>
       <path id="DejaVuSans-Oblique-3b8" d="M 2913 2219 
L 925 2219 
Q 791 1284 928 888 
Q 1100 400 1566 400 
Q 2034 400 2391 891 
Q 2703 1322 2913 2219 
z
M 3009 2750 
Q 3094 3638 2984 3950 
Q 2813 4444 2353 4444 
Q 1875 4444 1525 3956 
Q 1250 3563 1034 2750 
L 3009 2750 
z
M 2444 4913 
Q 3194 4913 3494 4250 
Q 3794 3591 3566 2422 
Q 3341 1256 2781 594 
Q 2225 -72 1475 -72 
Q 722 -72 425 594 
Q 128 1256 353 2422 
Q 581 3591 1134 4250 
Q 1691 4913 2444 4913 
z
" transform="scale(0.015625)"/>
      </defs>
      <use xlink:href="#DejaVuSans-Oblique-3b8" transform="translate(0 0.234375)"/>
     </g>
    </g>
    <g id="line2d_37">
     <path d="M 88.2 59.90125 
L 96.2 59.90125 
L 104.2 59.90125 
" style="fill: none; stroke: #2ca02c; stroke-width: 1.5; stroke-linecap: square"/>
    </g>
    <g id="text_21">
     <!-- $\psi$ -->
     <g transform="translate(110.6 62.70125)scale(0.08 -0.08)">
      <defs>
       <path id="DejaVuSans-Oblique-3c8" d="M 1591 -78 
Q 891 38 616 341 
Q 278 713 425 1472 
L 819 3500 
L 1400 3500 
L 1009 1494 
Q 900 922 1119 684 
Q 1313 478 1691 434 
L 2284 3500 
L 2856 3500 
L 2263 438 
Q 2681 481 2928 688 
Q 3247 950 3353 1497 
L 3741 3500 
L 4322 3500 
L 3928 1475 
Q 3775 688 3300 344 
Q 2872 34 2163 -75 
L 1919 -1331 
L 1347 -1331 
L 1591 -78 
z
" transform="scale(0.015625)"/>
      </defs>
      <use xlink:href="#DejaVuSans-Oblique-3c8" transform="translate(0 0.3125)"/>
     </g>
    </g>
    <g id="line2d_38">
     <path d="M 88.2 71.66 
L 96.2 71.66 
L 104.2 71.66 
" style="fill: none; stroke-dasharray: 5.55,2.4; stroke-dashoffset: 0; stroke: #ff0000; stroke-width: 1.5"/>
    </g>
    <g id="text_22">
     <!-- $ 90 ^{\circ}$ -->
     <g transform="translate(110.6 74.46)scale(0.08 -0.08)">
      <defs>
       <path id="DejaVuSans-39" d="M 703 97 
L 703 672 
Q 941 559 1184 500 
Q 1428 441 1663 441 
Q 2288 441 2617 861 
Q 2947 1281 2994 2138 
Q 2813 1869 2534 1725 
Q 2256 1581 1919 1581 
Q 1219 1581 811 2004 
Q 403 2428 403 3163 
Q 403 3881 828 4315 
Q 1253 4750 1959 4750 
Q 2769 4750 3195 4129 
Q 3622 3509 3622 2328 
Q 3622 1225 3098 567 
Q 2575 -91 1691 -91 
Q 1453 -91 1209 -44 
Q 966 3 703 97 
z
M 1959 2075 
Q 2384 2075 2632 2365 
Q 2881 2656 2881 3163 
Q 2881 3666 2632 3958 
Q 2384 4250 1959 4250 
Q 1534 4250 1286 3958 
Q 1038 3666 1038 3163 
Q 1038 2656 1286 2365 
Q 1534 2075 1959 2075 
z
" transform="scale(0.015625)"/>
       <path id="DejaVuSans-2218" d="M 2000 2619 
Q 1750 2619 1578 2445 
Q 1406 2272 1406 2022 
Q 1406 1775 1578 1605 
Q 1750 1435 2000 1435 
Q 2250 1435 2422 1605 
Q 2594 1775 2594 2022 
Q 2594 2269 2420 2444 
Q 2247 2619 2000 2619 
z
M 2000 3022 
Q 2200 3022 2384 2945 
Q 2569 2869 2703 2725 
Q 2847 2585 2919 2406 
Q 2991 2228 2991 2022 
Q 2991 1610 2702 1324 
Q 2413 1038 1994 1038 
Q 1572 1038 1290 1319 
Q 1009 1600 1009 2022 
Q 1009 2441 1296 2731 
Q 1584 3022 2000 3022 
z
" transform="scale(0.015625)"/>
      </defs>
      <use xlink:href="#DejaVuSans-39" transform="translate(0 0.78125)"/>
      <use xlink:href="#DejaVuSans-30" transform="translate(63.623047 0.78125)"/>
      <use xlink:href="#DejaVuSans-2218" transform="translate(128.203125 39.0625)scale(0.7)"/>
     </g>
    </g>
   </g>
  </g>
  <g id="axes_2">
   <g id="patch_8">
    <path d="M 354.927273 189 
L 583.2 189 
L 583.2 25.92 
L 354.927273 25.92 
z
" style="fill: #ffffff"/>
   </g>
   <g id="matplotlib.axis_3">
    <g id="xtick_10">
     <g id="line2d_39">
      <path d="M 365.303306 189 
L 365.303306 25.92 
" clip-path="url(#p07070ac11a)" style="fill: none; stroke-dasharray: 2,3.3; stroke-dashoffset: 0; stroke: #b0b0b0; stroke-width: 2"/>
     </g>
     <g id="line2d_40">
      <g>
       <use xlink:href="#m7ecf78c712" x="365.303306" y="189" style="stroke: #000000; stroke-width: 0.8"/>
      </g>
     </g>
     <g id="text_23">
      <!-- 0.0 -->
      <g transform="translate(358.942056 202.07875)scale(0.08 -0.08)">
       <use xlink:href="#DejaVuSans-30"/>
       <use xlink:href="#DejaVuSans-2e" x="63.623047"/>
       <use xlink:href="#DejaVuSans-30" x="95.410156"/>
      </g>
     </g>
    </g>
    <g id="xtick_11">
     <g id="line2d_41">
      <path d="M 391.243388 189 
L 391.243388 25.92 
" clip-path="url(#p07070ac11a)" style="fill: none; stroke-dasharray: 2,3.3; stroke-dashoffset: 0; stroke: #b0b0b0; stroke-width: 2"/>
     </g>
     <g id="line2d_42">
      <g>
       <use xlink:href="#m7ecf78c712" x="391.243388" y="189" style="stroke: #000000; stroke-width: 0.8"/>
      </g>
     </g>
     <g id="text_24">
      <!-- 2.5 -->
      <g transform="translate(384.882138 202.07875)scale(0.08 -0.08)">
       <use xlink:href="#DejaVuSans-32"/>
       <use xlink:href="#DejaVuSans-2e" x="63.623047"/>
       <use xlink:href="#DejaVuSans-35" x="95.410156"/>
      </g>
     </g>
    </g>
    <g id="xtick_12">
     <g id="line2d_43">
      <path d="M 417.183471 189 
L 417.183471 25.92 
" clip-path="url(#p07070ac11a)" style="fill: none; stroke-dasharray: 2,3.3; stroke-dashoffset: 0; stroke: #b0b0b0; stroke-width: 2"/>
     </g>
     <g id="line2d_44">
      <g>
       <use xlink:href="#m7ecf78c712" x="417.183471" y="189" style="stroke: #000000; stroke-width: 0.8"/>
      </g>
     </g>
     <g id="text_25">
      <!-- 5.0 -->
      <g transform="translate(410.822221 202.07875)scale(0.08 -0.08)">
       <use xlink:href="#DejaVuSans-35"/>
       <use xlink:href="#DejaVuSans-2e" x="63.623047"/>
       <use xlink:href="#DejaVuSans-30" x="95.410156"/>
      </g>
     </g>
    </g>
    <g id="xtick_13">
     <g id="line2d_45">
      <path d="M 443.123554 189 
L 443.123554 25.92 
" clip-path="url(#p07070ac11a)" style="fill: none; stroke-dasharray: 2,3.3; stroke-dashoffset: 0; stroke: #b0b0b0; stroke-width: 2"/>
     </g>
     <g id="line2d_46">
      <g>
       <use xlink:href="#m7ecf78c712" x="443.123554" y="189" style="stroke: #000000; stroke-width: 0.8"/>
      </g>
     </g>
     <g id="text_26">
      <!-- 7.5 -->
      <g transform="translate(436.762304 202.07875)scale(0.08 -0.08)">
       <use xlink:href="#DejaVuSans-37"/>
       <use xlink:href="#DejaVuSans-2e" x="63.623047"/>
       <use xlink:href="#DejaVuSans-35" x="95.410156"/>
      </g>
     </g>
    </g>
    <g id="xtick_14">
     <g id="line2d_47">
      <path d="M 469.063636 189 
L 469.063636 25.92 
" clip-path="url(#p07070ac11a)" style="fill: none; stroke-dasharray: 2,3.3; stroke-dashoffset: 0; stroke: #b0b0b0; stroke-width: 2"/>
     </g>
     <g id="line2d_48">
      <g>
       <use xlink:href="#m7ecf78c712" x="469.063636" y="189" style="stroke: #000000; stroke-width: 0.8"/>
      </g>
     </g>
     <g id="text_27">
      <!-- 10.0 -->
      <g transform="translate(460.157386 202.07875)scale(0.08 -0.08)">
       <use xlink:href="#DejaVuSans-31"/>
       <use xlink:href="#DejaVuSans-30" x="63.623047"/>
       <use xlink:href="#DejaVuSans-2e" x="127.246094"/>
       <use xlink:href="#DejaVuSans-30" x="159.033203"/>
      </g>
     </g>
    </g>
    <g id="xtick_15">
     <g id="line2d_49">
      <path d="M 495.003719 189 
L 495.003719 25.92 
" clip-path="url(#p07070ac11a)" style="fill: none; stroke-dasharray: 2,3.3; stroke-dashoffset: 0; stroke: #b0b0b0; stroke-width: 2"/>
     </g>
     <g id="line2d_50">
      <g>
       <use xlink:href="#m7ecf78c712" x="495.003719" y="189" style="stroke: #000000; stroke-width: 0.8"/>
      </g>
     </g>
     <g id="text_28">
      <!-- 12.5 -->
      <g transform="translate(486.097469 202.07875)scale(0.08 -0.08)">
       <use xlink:href="#DejaVuSans-31"/>
       <use xlink:href="#DejaVuSans-32" x="63.623047"/>
       <use xlink:href="#DejaVuSans-2e" x="127.246094"/>
       <use xlink:href="#DejaVuSans-35" x="159.033203"/>
      </g>
     </g>
    </g>
    <g id="xtick_16">
     <g id="line2d_51">
      <path d="M 520.943802 189 
L 520.943802 25.92 
" clip-path="url(#p07070ac11a)" style="fill: none; stroke-dasharray: 2,3.3; stroke-dashoffset: 0; stroke: #b0b0b0; stroke-width: 2"/>
     </g>
     <g id="line2d_52">
      <g>
       <use xlink:href="#m7ecf78c712" x="520.943802" y="189" style="stroke: #000000; stroke-width: 0.8"/>
      </g>
     </g>
     <g id="text_29">
      <!-- 15.0 -->
      <g transform="translate(512.037552 202.07875)scale(0.08 -0.08)">
       <use xlink:href="#DejaVuSans-31"/>
       <use xlink:href="#DejaVuSans-35" x="63.623047"/>
       <use xlink:href="#DejaVuSans-2e" x="127.246094"/>
       <use xlink:href="#DejaVuSans-30" x="159.033203"/>
      </g>
     </g>
    </g>
    <g id="xtick_17">
     <g id="line2d_53">
      <path d="M 546.883884 189 
L 546.883884 25.92 
" clip-path="url(#p07070ac11a)" style="fill: none; stroke-dasharray: 2,3.3; stroke-dashoffset: 0; stroke: #b0b0b0; stroke-width: 2"/>
     </g>
     <g id="line2d_54">
      <g>
       <use xlink:href="#m7ecf78c712" x="546.883884" y="189" style="stroke: #000000; stroke-width: 0.8"/>
      </g>
     </g>
     <g id="text_30">
      <!-- 17.5 -->
      <g transform="translate(537.977634 202.07875)scale(0.08 -0.08)">
       <use xlink:href="#DejaVuSans-31"/>
       <use xlink:href="#DejaVuSans-37" x="63.623047"/>
       <use xlink:href="#DejaVuSans-2e" x="127.246094"/>
       <use xlink:href="#DejaVuSans-35" x="159.033203"/>
      </g>
     </g>
    </g>
    <g id="xtick_18">
     <g id="line2d_55">
      <path d="M 572.823967 189 
L 572.823967 25.92 
" clip-path="url(#p07070ac11a)" style="fill: none; stroke-dasharray: 2,3.3; stroke-dashoffset: 0; stroke: #b0b0b0; stroke-width: 2"/>
     </g>
     <g id="line2d_56">
      <g>
       <use xlink:href="#m7ecf78c712" x="572.823967" y="189" style="stroke: #000000; stroke-width: 0.8"/>
      </g>
     </g>
     <g id="text_31">
      <!-- 20.0 -->
      <g transform="translate(563.917717 202.07875)scale(0.08 -0.08)">
       <use xlink:href="#DejaVuSans-32"/>
       <use xlink:href="#DejaVuSans-30" x="63.623047"/>
       <use xlink:href="#DejaVuSans-2e" x="127.246094"/>
       <use xlink:href="#DejaVuSans-30" x="159.033203"/>
      </g>
     </g>
    </g>
    <g id="text_32">
     <!-- Timp (s) -->
     <g transform="translate(452.722386 213.82125)scale(0.08 -0.08)">
      <use xlink:href="#DejaVuSans-54"/>
      <use xlink:href="#DejaVuSans-69" x="57.958984"/>
      <use xlink:href="#DejaVuSans-6d" x="85.742188"/>
      <use xlink:href="#DejaVuSans-70" x="183.154297"/>
      <use xlink:href="#DejaVuSans-20" x="246.630859"/>
      <use xlink:href="#DejaVuSans-28" x="278.417969"/>
      <use xlink:href="#DejaVuSans-73" x="317.431641"/>
      <use xlink:href="#DejaVuSans-29" x="369.53125"/>
     </g>
    </g>
   </g>
   <g id="matplotlib.axis_4">
    <g id="ytick_7">
     <g id="line2d_57">
      <path d="M 354.927273 169.232727 
L 583.2 169.232727 
" clip-path="url(#p07070ac11a)" style="fill: none; stroke-dasharray: 2,3.3; stroke-dashoffset: 0; stroke: #b0b0b0; stroke-width: 2"/>
     </g>
     <g id="line2d_58">
      <g>
       <use xlink:href="#m7adf8f8435" x="354.927273" y="169.232727" style="stroke: #000000; stroke-width: 0.8"/>
      </g>
     </g>
     <g id="text_33">
      <!-- −150 -->
      <g transform="translate(325.953523 172.272102)scale(0.08 -0.08)">
       <use xlink:href="#DejaVuSans-2212"/>
       <use xlink:href="#DejaVuSans-31" x="83.789062"/>
       <use xlink:href="#DejaVuSans-35" x="147.412109"/>
       <use xlink:href="#DejaVuSans-30" x="211.035156"/>
      </g>
     </g>
    </g>
    <g id="ytick_8">
     <g id="line2d_59">
      <path d="M 354.927273 148.641818 
L 583.2 148.641818 
" clip-path="url(#p07070ac11a)" style="fill: none; stroke-dasharray: 2,3.3; stroke-dashoffset: 0; stroke: #b0b0b0; stroke-width: 2"/>
     </g>
     <g id="line2d_60">
      <g>
       <use xlink:href="#m7adf8f8435" x="354.927273" y="148.641818" style="stroke: #000000; stroke-width: 0.8"/>
      </g>
     </g>
     <g id="text_34">
      <!-- −100 -->
      <g transform="translate(325.953523 151.681193)scale(0.08 -0.08)">
       <use xlink:href="#DejaVuSans-2212"/>
       <use xlink:href="#DejaVuSans-31" x="83.789062"/>
       <use xlink:href="#DejaVuSans-30" x="147.412109"/>
       <use xlink:href="#DejaVuSans-30" x="211.035156"/>
      </g>
     </g>
    </g>
    <g id="ytick_9">
     <g id="line2d_61">
      <path d="M 354.927273 128.050909 
L 583.2 128.050909 
" clip-path="url(#p07070ac11a)" style="fill: none; stroke-dasharray: 2,3.3; stroke-dashoffset: 0; stroke: #b0b0b0; stroke-width: 2"/>
     </g>
     <g id="line2d_62">
      <g>
       <use xlink:href="#m7adf8f8435" x="354.927273" y="128.050909" style="stroke: #000000; stroke-width: 0.8"/>
      </g>
     </g>
     <g id="text_35">
      <!-- −50 -->
      <g transform="translate(331.043523 131.090284)scale(0.08 -0.08)">
       <use xlink:href="#DejaVuSans-2212"/>
       <use xlink:href="#DejaVuSans-35" x="83.789062"/>
       <use xlink:href="#DejaVuSans-30" x="147.412109"/>
      </g>
     </g>
    </g>
    <g id="ytick_10">
     <g id="line2d_63">
      <path d="M 354.927273 107.46 
L 583.2 107.46 
" clip-path="url(#p07070ac11a)" style="fill: none; stroke-dasharray: 2,3.3; stroke-dashoffset: 0; stroke: #b0b0b0; stroke-width: 2"/>
     </g>
     <g id="line2d_64">
      <g>
       <use xlink:href="#m7adf8f8435" x="354.927273" y="107.46" style="stroke: #000000; stroke-width: 0.8"/>
      </g>
     </g>
     <g id="text_36">
      <!-- 0 -->
      <g transform="translate(342.837273 110.499375)scale(0.08 -0.08)">
       <use xlink:href="#DejaVuSans-30"/>
      </g>
     </g>
    </g>
    <g id="ytick_11">
     <g id="line2d_65">
      <path d="M 354.927273 86.869091 
L 583.2 86.869091 
" clip-path="url(#p07070ac11a)" style="fill: none; stroke-dasharray: 2,3.3; stroke-dashoffset: 0; stroke: #b0b0b0; stroke-width: 2"/>
     </g>
     <g id="line2d_66">
      <g>
       <use xlink:href="#m7adf8f8435" x="354.927273" y="86.869091" style="stroke: #000000; stroke-width: 0.8"/>
      </g>
     </g>
     <g id="text_37">
      <!-- 50 -->
      <g transform="translate(337.747273 89.908466)scale(0.08 -0.08)">
       <use xlink:href="#DejaVuSans-35"/>
       <use xlink:href="#DejaVuSans-30" x="63.623047"/>
      </g>
     </g>
    </g>
    <g id="ytick_12">
     <g id="line2d_67">
      <path d="M 354.927273 66.278182 
L 583.2 66.278182 
" clip-path="url(#p07070ac11a)" style="fill: none; stroke-dasharray: 2,3.3; stroke-dashoffset: 0; stroke: #b0b0b0; stroke-width: 2"/>
     </g>
     <g id="line2d_68">
      <g>
       <use xlink:href="#m7adf8f8435" x="354.927273" y="66.278182" style="stroke: #000000; stroke-width: 0.8"/>
      </g>
     </g>
     <g id="text_38">
      <!-- 100 -->
      <g transform="translate(332.657273 69.317557)scale(0.08 -0.08)">
       <use xlink:href="#DejaVuSans-31"/>
       <use xlink:href="#DejaVuSans-30" x="63.623047"/>
       <use xlink:href="#DejaVuSans-30" x="127.246094"/>
      </g>
     </g>
    </g>
    <g id="ytick_13">
     <g id="line2d_69">
      <path d="M 354.927273 45.687273 
L 583.2 45.687273 
" clip-path="url(#p07070ac11a)" style="fill: none; stroke-dasharray: 2,3.3; stroke-dashoffset: 0; stroke: #b0b0b0; stroke-width: 2"/>
     </g>
     <g id="line2d_70">
      <g>
       <use xlink:href="#m7adf8f8435" x="354.927273" y="45.687273" style="stroke: #000000; stroke-width: 0.8"/>
      </g>
     </g>
     <g id="text_39">
      <!-- 150 -->
      <g transform="translate(332.657273 48.726648)scale(0.08 -0.08)">
       <use xlink:href="#DejaVuSans-31"/>
       <use xlink:href="#DejaVuSans-35" x="63.623047"/>
       <use xlink:href="#DejaVuSans-30" x="127.246094"/>
      </g>
     </g>
    </g>
    <g id="text_40">
     <!-- unghi (grade)  -->
     <g transform="translate(320.289773 136.015)rotate(-90)scale(0.08 -0.08)">
      <use xlink:href="#DejaVuSans-75"/>
      <use xlink:href="#DejaVuSans-6e" x="63.378906"/>
      <use xlink:href="#DejaVuSans-67" x="126.757812"/>
      <use xlink:href="#DejaVuSans-68" x="190.234375"/>
      <use xlink:href="#DejaVuSans-69" x="253.613281"/>
      <use xlink:href="#DejaVuSans-20" x="281.396484"/>
      <use xlink:href="#DejaVuSans-28" x="313.183594"/>
      <use xlink:href="#DejaVuSans-67" x="352.197266"/>
      <use xlink:href="#DejaVuSans-72" x="415.673828"/>
      <use xlink:href="#DejaVuSans-61" x="456.787109"/>
      <use xlink:href="#DejaVuSans-64" x="518.066406"/>
      <use xlink:href="#DejaVuSans-65" x="581.542969"/>
      <use xlink:href="#DejaVuSans-29" x="643.066406"/>
      <use xlink:href="#DejaVuSans-20" x="682.080078"/>
     </g>
    </g>
   </g>
   <g id="line2d_71">
    <path d="M 365.303306 115.645674 
L 374.226694 111.163175 
L 379.414711 108.309162 
L 383.668884 105.719694 
L 387.404256 103.185585 
L 390.724587 100.669456 
L 393.837397 98.036407 
L 396.846446 95.199682 
L 399.855496 92.050336 
L 402.968306 88.461505 
L 406.496157 84.041102 
L 413.033058 75.387145 
L 417.287231 69.970171 
L 420.607562 66.097605 
L 423.720372 62.812239 
L 426.729421 59.955532 
L 429.842231 57.304079 
L 433.162562 54.771353 
L 436.794174 52.289397 
L 440.840826 49.801483 
L 445.613802 47.140891 
L 451.735661 44.001686 
L 469.997479 34.806643 
L 472.591488 33.342561 
L 472.695248 181.53692 
L 472.799008 181.476599 
L 477.053182 178.873412 
L 480.788554 176.334082 
L 484.212645 173.742971 
L 487.429215 171.035072 
L 490.542025 168.129159 
L 493.758595 164.814149 
L 497.182686 160.950891 
L 501.333099 155.909113 
L 510.98281 144.055794 
L 514.406901 140.280509 
L 517.623471 137.056009 
L 520.840041 134.14597 
L 524.160372 131.446316 
L 527.688223 128.871708 
L 531.527355 126.352872 
L 535.885289 123.770842 
L 541.073306 120.969859 
L 548.232769 117.382773 
L 560.995289 111.014494 
L 566.079545 108.205844 
L 570.333719 105.60488 
L 572.720207 104.010352 
L 572.720207 104.010352 
" clip-path="url(#p07070ac11a)" style="fill: none; stroke: #1f77b4; stroke-width: 1.5; stroke-linecap: square"/>
   </g>
   <g id="line2d_72">
    <path d="M 365.303306 108.76056 
L 378.584628 116.965488 
L 385.32905 120.874617 
L 390.517066 123.631868 
L 394.667479 125.59679 
L 398.195331 127.033621 
L 401.30814 128.072359 
L 404.109669 128.784871 
L 406.807438 129.24214 
L 409.401446 129.450115 
L 411.891694 129.426826 
L 414.381942 129.186072 
L 416.97595 128.715084 
L 419.777479 127.976691 
L 422.786529 126.952672 
L 426.21062 125.546828 
L 430.153512 123.679286 
L 434.822727 121.214224 
L 440.633306 117.885915 
L 448.622851 113.032707 
L 474.666694 97.017121 
L 480.477273 93.805259 
L 485.146488 91.470937 
L 489.08938 89.743481 
L 492.513471 88.481717 
L 495.626281 87.572834 
L 498.42781 86.98224 
L 501.125579 86.640863 
L 503.719587 86.536812 
L 506.313595 86.657025 
L 508.907603 86.996525 
L 511.709132 87.593981 
L 514.718182 88.475134 
L 517.934752 89.652172 
L 521.566364 91.220093 
L 525.820537 93.307438 
L 530.904793 96.060828 
L 537.337934 99.813834 
L 546.365083 105.361302 
L 566.805868 117.996712 
L 572.720207 121.374445 
L 572.720207 121.374445 
" clip-path="url(#p07070ac11a)" style="fill: none; stroke: #ff7f0e; stroke-width: 1.5; stroke-linecap: square"/>
   </g>
   <g id="line2d_73">
    <path d="M 365.303306 121.874465 
L 369.453719 122.023878 
L 373.396612 122.384418 
L 377.235744 122.959718 
L 380.763595 123.70903 
L 384.083926 124.636761 
L 387.196736 125.733501 
L 390.102025 126.98568 
L 392.903554 128.431061 
L 395.601322 130.068911 
L 398.299091 131.96745 
L 401.10062 134.22307 
L 404.005909 136.852663 
L 407.53376 140.364843 
L 417.806033 150.816324 
L 420.815083 153.427861 
L 423.616612 155.564771 
L 426.31438 157.350335 
L 429.115909 158.936524 
L 432.021198 160.318845 
L 435.030248 161.50077 
L 438.246818 162.519383 
L 441.670909 163.363528 
L 445.302521 164.024854 
L 449.141653 164.494846 
L 453.188306 164.76171 
L 457.338719 164.808587 
L 461.489132 164.631005 
L 465.535785 164.235398 
L 469.374917 163.641193 
L 473.006529 162.860335 
L 476.43062 161.902436 
L 479.64719 160.777943 
L 482.76 159.452776 
L 485.665289 157.97861 
L 488.570579 156.251244 
L 491.372107 154.329603 
L 494.277397 152.06763 
L 497.493967 149.266672 
L 501.43686 145.51055 
L 510.567769 136.690959 
L 513.784339 133.964283 
L 516.793388 131.705031 
L 519.698678 129.80328 
L 522.603967 128.167015 
L 525.613017 126.730707 
L 528.725826 125.493063 
L 532.046157 124.417868 
L 535.574008 123.517195 
L 539.30938 122.800426 
L 543.252273 122.277346 
L 547.298926 121.966614 
L 551.449339 121.872271 
L 555.599752 122.00295 
L 559.542645 122.344432 
L 563.381777 122.899051 
L 567.013388 123.6515 
L 570.333719 124.56275 
L 572.720207 125.36869 
L 572.720207 125.36869 
" clip-path="url(#p07070ac11a)" style="fill: none; stroke: #2ca02c; stroke-width: 1.5; stroke-linecap: square"/>
   </g>
   <g id="line2d_74">
    <path d="M 365.303306 181.587273 
L 572.823967 181.587273 
" clip-path="url(#p07070ac11a)" style="fill: none; stroke-dasharray: 5.55,2.4; stroke-dashoffset: 0; stroke: #ff0000; stroke-width: 1.5"/>
   </g>
   <g id="line2d_75">
    <path d="M 365.303306 33.332727 
L 572.823967 33.332727 
" clip-path="url(#p07070ac11a)" style="fill: none; stroke-dasharray: 5.55,2.4; stroke-dashoffset: 0; stroke: #ff0000; stroke-width: 1.5"/>
   </g>
   <g id="patch_9">
    <path d="M 354.927273 189 
L 354.927273 25.92 
" style="fill: none; stroke: #000000; stroke-width: 0.8; stroke-linejoin: miter; stroke-linecap: square"/>
   </g>
   <g id="patch_10">
    <path d="M 583.2 189 
L 583.2 25.92 
" style="fill: none; stroke: #000000; stroke-width: 0.8; stroke-linejoin: miter; stroke-linecap: square"/>
   </g>
   <g id="patch_11">
    <path d="M 354.927273 189 
L 583.2 189 
" style="fill: none; stroke: #000000; stroke-width: 0.8; stroke-linejoin: miter; stroke-linecap: square"/>
   </g>
   <g id="patch_12">
    <path d="M 354.927273 25.92 
L 583.2 25.92 
" style="fill: none; stroke: #000000; stroke-width: 0.8; stroke-linejoin: miter; stroke-linecap: square"/>
   </g>
   <g id="text_41">
    <!-- Cuaternioni -->
    <g transform="translate(441.315886 19.92)scale(0.096 -0.096)">
     <defs>
      <path id="DejaVuSans-43" d="M 4122 4306 
L 4122 3641 
Q 3803 3938 3442 4084 
Q 3081 4231 2675 4231 
Q 1875 4231 1450 3742 
Q 1025 3253 1025 2328 
Q 1025 1406 1450 917 
Q 1875 428 2675 428 
Q 3081 428 3442 575 
Q 3803 722 4122 1019 
L 4122 359 
Q 3791 134 3420 21 
Q 3050 -91 2638 -91 
Q 1578 -91 968 557 
Q 359 1206 359 2328 
Q 359 3453 968 4101 
Q 1578 4750 2638 4750 
Q 3056 4750 3426 4639 
Q 3797 4528 4122 4306 
z
" transform="scale(0.015625)"/>
      <path id="DejaVuSans-74" d="M 1172 4494 
L 1172 3500 
L 2356 3500 
L 2356 3053 
L 1172 3053 
L 1172 1153 
Q 1172 725 1289 603 
Q 1406 481 1766 481 
L 2356 481 
L 2356 0 
L 1766 0 
Q 1100 0 847 248 
Q 594 497 594 1153 
L 594 3053 
L 172 3053 
L 172 3500 
L 594 3500 
L 594 4494 
L 1172 4494 
z
" transform="scale(0.015625)"/>
      <path id="DejaVuSans-6f" d="M 1959 3097 
Q 1497 3097 1228 2736 
Q 959 2375 959 1747 
Q 959 1119 1226 758 
Q 1494 397 1959 397 
Q 2419 397 2687 759 
Q 2956 1122 2956 1747 
Q 2956 2369 2687 2733 
Q 2419 3097 1959 3097 
z
M 1959 3584 
Q 2709 3584 3137 3096 
Q 3566 2609 3566 1747 
Q 3566 888 3137 398 
Q 2709 -91 1959 -91 
Q 1206 -91 779 398 
Q 353 888 353 1747 
Q 353 2609 779 3096 
Q 1206 3584 1959 3584 
z
" transform="scale(0.015625)"/>
     </defs>
     <use xlink:href="#DejaVuSans-43"/>
     <use xlink:href="#DejaVuSans-75" x="69.824219"/>
     <use xlink:href="#DejaVuSans-61" x="133.203125"/>
     <use xlink:href="#DejaVuSans-74" x="194.482422"/>
     <use xlink:href="#DejaVuSans-65" x="233.691406"/>
     <use xlink:href="#DejaVuSans-72" x="295.214844"/>
     <use xlink:href="#DejaVuSans-6e" x="334.578125"/>
     <use xlink:href="#DejaVuSans-69" x="397.957031"/>
     <use xlink:href="#DejaVuSans-6f" x="425.740234"/>
     <use xlink:href="#DejaVuSans-6e" x="486.921875"/>
     <use xlink:href="#DejaVuSans-69" x="550.300781"/>
    </g>
   </g>
   <g id="legend_2">
    <g id="patch_13">
     <path d="M 526.16 79.32375 
L 577.6 79.32375 
Q 579.2 79.32375 579.2 77.72375 
L 579.2 31.52 
Q 579.2 29.92 577.6 29.92 
L 526.16 29.92 
Q 524.56 29.92 524.56 31.52 
L 524.56 77.72375 
Q 524.56 79.32375 526.16 79.32375 
z
" style="fill: #ffffff; opacity: 0.8; stroke: #cccccc; stroke-linejoin: miter"/>
    </g>
    <g id="line2d_76">
     <path d="M 527.76 36.4 
L 535.76 36.4 
L 543.76 36.4 
" style="fill: none; stroke: #1f77b4; stroke-width: 1.5; stroke-linecap: square"/>
    </g>
    <g id="text_42">
     <!-- $\phi$ -->
     <g transform="translate(550.16 39.2)scale(0.08 -0.08)">
      <use xlink:href="#DejaVuSans-Oblique-3d5" transform="translate(0 0.015625)"/>
     </g>
    </g>
    <g id="line2d_77">
     <path d="M 527.76 48.15875 
L 535.76 48.15875 
L 543.76 48.15875 
" style="fill: none; stroke: #ff7f0e; stroke-width: 1.5; stroke-linecap: square"/>
    </g>
    <g id="text_43">
     <!-- $\theta $ -->
     <g transform="translate(550.16 50.95875)scale(0.08 -0.08)">
      <use xlink:href="#DejaVuSans-Oblique-3b8" transform="translate(0 0.234375)"/>
     </g>
    </g>
    <g id="line2d_78">
     <path d="M 527.76 59.90125 
L 535.76 59.90125 
L 543.76 59.90125 
" style="fill: none; stroke: #2ca02c; stroke-width: 1.5; stroke-linecap: square"/>
    </g>
    <g id="text_44">
     <!-- $\psi$ -->
     <g transform="translate(550.16 62.70125)scale(0.08 -0.08)">
      <use xlink:href="#DejaVuSans-Oblique-3c8" transform="translate(0 0.3125)"/>
     </g>
    </g>
    <g id="line2d_79">
     <path d="M 527.76 71.66 
L 535.76 71.66 
L 543.76 71.66 
" style="fill: none; stroke-dasharray: 5.55,2.4; stroke-dashoffset: 0; stroke: #ff0000; stroke-width: 1.5"/>
    </g>
    <g id="text_45">
     <!-- $ \pm 180 ^{\circ}$ -->
     <g transform="translate(550.16 74.46)scale(0.08 -0.08)">
      <defs>
       <path id="DejaVuSans-b1" d="M 2944 4013 
L 2944 2803 
L 4684 2803 
L 4684 2272 
L 2944 2272 
L 2944 1063 
L 2419 1063 
L 2419 2272 
L 678 2272 
L 678 2803 
L 2419 2803 
L 2419 4013 
L 2944 4013 
z
M 678 531 
L 4684 531 
L 4684 0 
L 678 0 
L 678 531 
z
" transform="scale(0.015625)"/>
       <path id="DejaVuSans-38" d="M 2034 2216 
Q 1584 2216 1326 1975 
Q 1069 1734 1069 1313 
Q 1069 891 1326 650 
Q 1584 409 2034 409 
Q 2484 409 2743 651 
Q 3003 894 3003 1313 
Q 3003 1734 2745 1975 
Q 2488 2216 2034 2216 
z
M 1403 2484 
Q 997 2584 770 2862 
Q 544 3141 544 3541 
Q 544 4100 942 4425 
Q 1341 4750 2034 4750 
Q 2731 4750 3128 4425 
Q 3525 4100 3525 3541 
Q 3525 3141 3298 2862 
Q 3072 2584 2669 2484 
Q 3125 2378 3379 2068 
Q 3634 1759 3634 1313 
Q 3634 634 3220 271 
Q 2806 -91 2034 -91 
Q 1263 -91 848 271 
Q 434 634 434 1313 
Q 434 1759 690 2068 
Q 947 2378 1403 2484 
z
M 1172 3481 
Q 1172 3119 1398 2916 
Q 1625 2713 2034 2713 
Q 2441 2713 2670 2916 
Q 2900 3119 2900 3481 
Q 2900 3844 2670 4047 
Q 2441 4250 2034 4250 
Q 1625 4250 1398 4047 
Q 1172 3844 1172 3481 
z
" transform="scale(0.015625)"/>
      </defs>
      <use xlink:href="#DejaVuSans-b1" transform="translate(0 0.78125)"/>
      <use xlink:href="#DejaVuSans-31" transform="translate(83.789062 0.78125)"/>
      <use xlink:href="#DejaVuSans-38" transform="translate(147.412109 0.78125)"/>
      <use xlink:href="#DejaVuSans-30" transform="translate(211.035156 0.78125)"/>
      <use xlink:href="#DejaVuSans-2218" transform="translate(275.615234 39.0625)scale(0.7)"/>
     </g>
    </g>
   </g>
  </g>
 </g>
 <defs>
  <clipPath id="pfc67269138">
   <rect x="81" y="25.92" width="228.272727" height="163.08"/>
  </clipPath>
  <clipPath id="p07070ac11a">
   <rect x="354.927273" y="25.92" width="228.272727" height="163.08"/>
  </clipPath>
 </defs>
</svg>
