<?xml version="1.0" encoding="utf-8" standalone="no"?>
<!DOCTYPE svg PUBLIC "-//W3C//DTD SVG 1.1//EN"
  "http://www.w3.org/Graphics/SVG/1.1/DTD/svg11.dtd">
<svg xmlns:xlink="http://www.w3.org/1999/xlink" width="648pt" height="216pt" viewBox="0 0 648 216" xmlns="http://www.w3.org/2000/svg" version="1.1">
 <metadata>
  <rdf:RDF xmlns:dc="http://purl.org/dc/elements/1.1/" xmlns:cc="http://creativecommons.org/ns#" xmlns:rdf="http://www.w3.org/1999/02/22-rdf-syntax-ns#">
   <cc:Work>
    <dc:type rdf:resource="http://purl.org/dc/dcmitype/StillImage"/>
    <dc:date>2022-06-12T00:47:57.104577</dc:date>
    <dc:format>image/svg+xml</dc:format>
    <dc:creator>
     <cc:Agent>
      <dc:title>Matplotlib v3.5.1, https://matplotlib.org/</dc:title>
     </cc:Agent>
    </dc:creator>
   </cc:Work>
  </rdf:RDF>
 </metadata>
 <defs>
  <style type="text/css">*{stroke-linejoin: round; stroke-linecap: butt}</style>
 </defs>
 <g id="figure_1">
  <g id="patch_1">
   <path d="M 0 216 
L 648 216 
L 648 0 
L 0 0 
L 0 216 
z
" style="fill: none"/>
  </g>
  <g id="axes_1">
   <g id="patch_2">
    <path d="M 81 189 
L 309.272727 189 
L 309.272727 25.92 
L 81 25.92 
z
" style="fill: #ffffff"/>
   </g>
   <g id="matplotlib.axis_1">
    <g id="xtick_1">
     <g id="line2d_1">
      <path d="M 91.376033 189 
L 91.376033 25.92 
" clip-path="url(#pa74f0b0dc5)" style="fill: none; stroke-dasharray: 2,3.3; stroke-dashoffset: 0; stroke: #b0b0b0; stroke-width: 2"/>
     </g>
     <g id="line2d_2">
      <defs>
       <path id="m2e497553aa" d="M 0 0 
L 0 3.5 
" style="stroke: #000000; stroke-width: 0.8"/>
      </defs>
      <g>
       <use xlink:href="#m2e497553aa" x="91.376033" y="189" style="stroke: #000000; stroke-width: 0.8"/>
      </g>
     </g>
     <g id="text_1">
      <!-- 0 -->
      <g transform="translate(88.831033 202.07875)scale(0.08 -0.08)">
       <defs>
        <path id="DejaVuSans-30" d="M 2034 4250 
Q 1547 4250 1301 3770 
Q 1056 3291 1056 2328 
Q 1056 1369 1301 889 
Q 1547 409 2034 409 
Q 2525 409 2770 889 
Q 3016 1369 3016 2328 
Q 3016 3291 2770 3770 
Q 2525 4250 2034 4250 
z
M 2034 4750 
Q 2819 4750 3233 4129 
Q 3647 3509 3647 2328 
Q 3647 1150 3233 529 
Q 2819 -91 2034 -91 
Q 1250 -91 836 529 
Q 422 1150 422 2328 
Q 422 3509 836 4129 
Q 1250 4750 2034 4750 
z
" transform="scale(0.015625)"/>
       </defs>
       <use xlink:href="#DejaVuSans-30"/>
      </g>
     </g>
    </g>
    <g id="xtick_2">
     <g id="line2d_3">
      <path d="M 132.880165 189 
L 132.880165 25.92 
" clip-path="url(#pa74f0b0dc5)" style="fill: none; stroke-dasharray: 2,3.3; stroke-dashoffset: 0; stroke: #b0b0b0; stroke-width: 2"/>
     </g>
     <g id="line2d_4">
      <g>
       <use xlink:href="#m2e497553aa" x="132.880165" y="189" style="stroke: #000000; stroke-width: 0.8"/>
      </g>
     </g>
     <g id="text_2">
      <!-- 1 -->
      <g transform="translate(130.335165 202.07875)scale(0.08 -0.08)">
       <defs>
        <path id="DejaVuSans-31" d="M 794 531 
L 1825 531 
L 1825 4091 
L 703 3866 
L 703 4441 
L 1819 4666 
L 2450 4666 
L 2450 531 
L 3481 531 
L 3481 0 
L 794 0 
L 794 531 
z
" transform="scale(0.015625)"/>
       </defs>
       <use xlink:href="#DejaVuSans-31"/>
      </g>
     </g>
    </g>
    <g id="xtick_3">
     <g id="line2d_5">
      <path d="M 174.384298 189 
L 174.384298 25.92 
" clip-path="url(#pa74f0b0dc5)" style="fill: none; stroke-dasharray: 2,3.3; stroke-dashoffset: 0; stroke: #b0b0b0; stroke-width: 2"/>
     </g>
     <g id="line2d_6">
      <g>
       <use xlink:href="#m2e497553aa" x="174.384298" y="189" style="stroke: #000000; stroke-width: 0.8"/>
      </g>
     </g>
     <g id="text_3">
      <!-- 2 -->
      <g transform="translate(171.839298 202.07875)scale(0.08 -0.08)">
       <defs>
        <path id="DejaVuSans-32" d="M 1228 531 
L 3431 531 
L 3431 0 
L 469 0 
L 469 531 
Q 828 903 1448 1529 
Q 2069 2156 2228 2338 
Q 2531 2678 2651 2914 
Q 2772 3150 2772 3378 
Q 2772 3750 2511 3984 
Q 2250 4219 1831 4219 
Q 1534 4219 1204 4116 
Q 875 4013 500 3803 
L 500 4441 
Q 881 4594 1212 4672 
Q 1544 4750 1819 4750 
Q 2544 4750 2975 4387 
Q 3406 4025 3406 3419 
Q 3406 3131 3298 2873 
Q 3191 2616 2906 2266 
Q 2828 2175 2409 1742 
Q 1991 1309 1228 531 
z
" transform="scale(0.015625)"/>
       </defs>
       <use xlink:href="#DejaVuSans-32"/>
      </g>
     </g>
    </g>
    <g id="xtick_4">
     <g id="line2d_7">
      <path d="M 215.88843 189 
L 215.88843 25.92 
" clip-path="url(#pa74f0b0dc5)" style="fill: none; stroke-dasharray: 2,3.3; stroke-dashoffset: 0; stroke: #b0b0b0; stroke-width: 2"/>
     </g>
     <g id="line2d_8">
      <g>
       <use xlink:href="#m2e497553aa" x="215.88843" y="189" style="stroke: #000000; stroke-width: 0.8"/>
      </g>
     </g>
     <g id="text_4">
      <!-- 3 -->
      <g transform="translate(213.34343 202.07875)scale(0.08 -0.08)">
       <defs>
        <path id="DejaVuSans-33" d="M 2597 2516 
Q 3050 2419 3304 2112 
Q 3559 1806 3559 1356 
Q 3559 666 3084 287 
Q 2609 -91 1734 -91 
Q 1441 -91 1130 -33 
Q 819 25 488 141 
L 488 750 
Q 750 597 1062 519 
Q 1375 441 1716 441 
Q 2309 441 2620 675 
Q 2931 909 2931 1356 
Q 2931 1769 2642 2001 
Q 2353 2234 1838 2234 
L 1294 2234 
L 1294 2753 
L 1863 2753 
Q 2328 2753 2575 2939 
Q 2822 3125 2822 3475 
Q 2822 3834 2567 4026 
Q 2313 4219 1838 4219 
Q 1578 4219 1281 4162 
Q 984 4106 628 3988 
L 628 4550 
Q 988 4650 1302 4700 
Q 1616 4750 1894 4750 
Q 2613 4750 3031 4423 
Q 3450 4097 3450 3541 
Q 3450 3153 3228 2886 
Q 3006 2619 2597 2516 
z
" transform="scale(0.015625)"/>
       </defs>
       <use xlink:href="#DejaVuSans-33"/>
      </g>
     </g>
    </g>
    <g id="xtick_5">
     <g id="line2d_9">
      <path d="M 257.392562 189 
L 257.392562 25.92 
" clip-path="url(#pa74f0b0dc5)" style="fill: none; stroke-dasharray: 2,3.3; stroke-dashoffset: 0; stroke: #b0b0b0; stroke-width: 2"/>
     </g>
     <g id="line2d_10">
      <g>
       <use xlink:href="#m2e497553aa" x="257.392562" y="189" style="stroke: #000000; stroke-width: 0.8"/>
      </g>
     </g>
     <g id="text_5">
      <!-- 4 -->
      <g transform="translate(254.847562 202.07875)scale(0.08 -0.08)">
       <defs>
        <path id="DejaVuSans-34" d="M 2419 4116 
L 825 1625 
L 2419 1625 
L 2419 4116 
z
M 2253 4666 
L 3047 4666 
L 3047 1625 
L 3713 1625 
L 3713 1100 
L 3047 1100 
L 3047 0 
L 2419 0 
L 2419 1100 
L 313 1100 
L 313 1709 
L 2253 4666 
z
" transform="scale(0.015625)"/>
       </defs>
       <use xlink:href="#DejaVuSans-34"/>
      </g>
     </g>
    </g>
    <g id="xtick_6">
     <g id="line2d_11">
      <path d="M 298.896694 189 
L 298.896694 25.92 
" clip-path="url(#pa74f0b0dc5)" style="fill: none; stroke-dasharray: 2,3.3; stroke-dashoffset: 0; stroke: #b0b0b0; stroke-width: 2"/>
     </g>
     <g id="line2d_12">
      <g>
       <use xlink:href="#m2e497553aa" x="298.896694" y="189" style="stroke: #000000; stroke-width: 0.8"/>
      </g>
     </g>
     <g id="text_6">
      <!-- 5 -->
      <g transform="translate(296.351694 202.07875)scale(0.08 -0.08)">
       <defs>
        <path id="DejaVuSans-35" d="M 691 4666 
L 3169 4666 
L 3169 4134 
L 1269 4134 
L 1269 2991 
Q 1406 3038 1543 3061 
Q 1681 3084 1819 3084 
Q 2600 3084 3056 2656 
Q 3513 2228 3513 1497 
Q 3513 744 3044 326 
Q 2575 -91 1722 -91 
Q 1428 -91 1123 -41 
Q 819 9 494 109 
L 494 744 
Q 775 591 1075 516 
Q 1375 441 1709 441 
Q 2250 441 2565 725 
Q 2881 1009 2881 1497 
Q 2881 1984 2565 2268 
Q 2250 2553 1709 2553 
Q 1456 2553 1204 2497 
Q 953 2441 691 2322 
L 691 4666 
z
" transform="scale(0.015625)"/>
       </defs>
       <use xlink:href="#DejaVuSans-35"/>
      </g>
     </g>
    </g>
    <g id="text_7">
     <!-- Timp (s) -->
     <g transform="translate(178.795114 213.82125)scale(0.08 -0.08)">
      <defs>
       <path id="DejaVuSans-54" d="M -19 4666 
L 3928 4666 
L 3928 4134 
L 2272 4134 
L 2272 0 
L 1638 0 
L 1638 4134 
L -19 4134 
L -19 4666 
z
" transform="scale(0.015625)"/>
       <path id="DejaVuSans-69" d="M 603 3500 
L 1178 3500 
L 1178 0 
L 603 0 
L 603 3500 
z
M 603 4863 
L 1178 4863 
L 1178 4134 
L 603 4134 
L 603 4863 
z
" transform="scale(0.015625)"/>
       <path id="DejaVuSans-6d" d="M 3328 2828 
Q 3544 3216 3844 3400 
Q 4144 3584 4550 3584 
Q 5097 3584 5394 3201 
Q 5691 2819 5691 2113 
L 5691 0 
L 5113 0 
L 5113 2094 
Q 5113 2597 4934 2840 
Q 4756 3084 4391 3084 
Q 3944 3084 3684 2787 
Q 3425 2491 3425 1978 
L 3425 0 
L 2847 0 
L 2847 2094 
Q 2847 2600 2669 2842 
Q 2491 3084 2119 3084 
Q 1678 3084 1418 2786 
Q 1159 2488 1159 1978 
L 1159 0 
L 581 0 
L 581 3500 
L 1159 3500 
L 1159 2956 
Q 1356 3278 1631 3431 
Q 1906 3584 2284 3584 
Q 2666 3584 2933 3390 
Q 3200 3197 3328 2828 
z
" transform="scale(0.015625)"/>
       <path id="DejaVuSans-70" d="M 1159 525 
L 1159 -1331 
L 581 -1331 
L 581 3500 
L 1159 3500 
L 1159 2969 
Q 1341 3281 1617 3432 
Q 1894 3584 2278 3584 
Q 2916 3584 3314 3078 
Q 3713 2572 3713 1747 
Q 3713 922 3314 415 
Q 2916 -91 2278 -91 
Q 1894 -91 1617 61 
Q 1341 213 1159 525 
z
M 3116 1747 
Q 3116 2381 2855 2742 
Q 2594 3103 2138 3103 
Q 1681 3103 1420 2742 
Q 1159 2381 1159 1747 
Q 1159 1113 1420 752 
Q 1681 391 2138 391 
Q 2594 391 2855 752 
Q 3116 1113 3116 1747 
z
" transform="scale(0.015625)"/>
       <path id="DejaVuSans-20" transform="scale(0.015625)"/>
       <path id="DejaVuSans-28" d="M 1984 4856 
Q 1566 4138 1362 3434 
Q 1159 2731 1159 2009 
Q 1159 1288 1364 580 
Q 1569 -128 1984 -844 
L 1484 -844 
Q 1016 -109 783 600 
Q 550 1309 550 2009 
Q 550 2706 781 3412 
Q 1013 4119 1484 4856 
L 1984 4856 
z
" transform="scale(0.015625)"/>
       <path id="DejaVuSans-73" d="M 2834 3397 
L 2834 2853 
Q 2591 2978 2328 3040 
Q 2066 3103 1784 3103 
Q 1356 3103 1142 2972 
Q 928 2841 928 2578 
Q 928 2378 1081 2264 
Q 1234 2150 1697 2047 
L 1894 2003 
Q 2506 1872 2764 1633 
Q 3022 1394 3022 966 
Q 3022 478 2636 193 
Q 2250 -91 1575 -91 
Q 1294 -91 989 -36 
Q 684 19 347 128 
L 347 722 
Q 666 556 975 473 
Q 1284 391 1588 391 
Q 1994 391 2212 530 
Q 2431 669 2431 922 
Q 2431 1156 2273 1281 
Q 2116 1406 1581 1522 
L 1381 1569 
Q 847 1681 609 1914 
Q 372 2147 372 2553 
Q 372 3047 722 3315 
Q 1072 3584 1716 3584 
Q 2034 3584 2315 3537 
Q 2597 3491 2834 3397 
z
" transform="scale(0.015625)"/>
       <path id="DejaVuSans-29" d="M 513 4856 
L 1013 4856 
Q 1481 4119 1714 3412 
Q 1947 2706 1947 2009 
Q 1947 1309 1714 600 
Q 1481 -109 1013 -844 
L 513 -844 
Q 928 -128 1133 580 
Q 1338 1288 1338 2009 
Q 1338 2731 1133 3434 
Q 928 4138 513 4856 
z
" transform="scale(0.015625)"/>
      </defs>
      <use xlink:href="#DejaVuSans-54"/>
      <use xlink:href="#DejaVuSans-69" x="57.958984"/>
      <use xlink:href="#DejaVuSans-6d" x="85.742188"/>
      <use xlink:href="#DejaVuSans-70" x="183.154297"/>
      <use xlink:href="#DejaVuSans-20" x="246.630859"/>
      <use xlink:href="#DejaVuSans-28" x="278.417969"/>
      <use xlink:href="#DejaVuSans-73" x="317.431641"/>
      <use xlink:href="#DejaVuSans-29" x="369.53125"/>
     </g>
    </g>
   </g>
   <g id="matplotlib.axis_2">
    <g id="ytick_1">
     <g id="line2d_13">
      <path d="M 81 181.587273 
L 309.272727 181.587273 
" clip-path="url(#pa74f0b0dc5)" style="fill: none; stroke-dasharray: 2,3.3; stroke-dashoffset: 0; stroke: #b0b0b0; stroke-width: 2"/>
     </g>
     <g id="line2d_14">
      <defs>
       <path id="m4496ca9b4b" d="M 0 0 
L -3.5 0 
" style="stroke: #000000; stroke-width: 0.8"/>
      </defs>
      <g>
       <use xlink:href="#m4496ca9b4b" x="81" y="181.587273" style="stroke: #000000; stroke-width: 0.8"/>
      </g>
     </g>
     <g id="text_8">
      <!-- 0 -->
      <g transform="translate(68.91 184.626648)scale(0.08 -0.08)">
       <use xlink:href="#DejaVuSans-30"/>
      </g>
     </g>
    </g>
    <g id="ytick_2">
     <g id="line2d_15">
      <path d="M 81 160.02088 
L 309.272727 160.02088 
" clip-path="url(#pa74f0b0dc5)" style="fill: none; stroke-dasharray: 2,3.3; stroke-dashoffset: 0; stroke: #b0b0b0; stroke-width: 2"/>
     </g>
     <g id="line2d_16">
      <g>
       <use xlink:href="#m4496ca9b4b" x="81" y="160.02088" style="stroke: #000000; stroke-width: 0.8"/>
      </g>
     </g>
     <g id="text_9">
      <!-- 10 -->
      <g transform="translate(63.82 163.060255)scale(0.08 -0.08)">
       <use xlink:href="#DejaVuSans-31"/>
       <use xlink:href="#DejaVuSans-30" x="63.623047"/>
      </g>
     </g>
    </g>
    <g id="ytick_3">
     <g id="line2d_17">
      <path d="M 81 138.454488 
L 309.272727 138.454488 
" clip-path="url(#pa74f0b0dc5)" style="fill: none; stroke-dasharray: 2,3.3; stroke-dashoffset: 0; stroke: #b0b0b0; stroke-width: 2"/>
     </g>
     <g id="line2d_18">
      <g>
       <use xlink:href="#m4496ca9b4b" x="81" y="138.454488" style="stroke: #000000; stroke-width: 0.8"/>
      </g>
     </g>
     <g id="text_10">
      <!-- 20 -->
      <g transform="translate(63.82 141.493863)scale(0.08 -0.08)">
       <use xlink:href="#DejaVuSans-32"/>
       <use xlink:href="#DejaVuSans-30" x="63.623047"/>
      </g>
     </g>
    </g>
    <g id="ytick_4">
     <g id="line2d_19">
      <path d="M 81 116.888095 
L 309.272727 116.888095 
" clip-path="url(#pa74f0b0dc5)" style="fill: none; stroke-dasharray: 2,3.3; stroke-dashoffset: 0; stroke: #b0b0b0; stroke-width: 2"/>
     </g>
     <g id="line2d_20">
      <g>
       <use xlink:href="#m4496ca9b4b" x="81" y="116.888095" style="stroke: #000000; stroke-width: 0.8"/>
      </g>
     </g>
     <g id="text_11">
      <!-- 30 -->
      <g transform="translate(63.82 119.92747)scale(0.08 -0.08)">
       <use xlink:href="#DejaVuSans-33"/>
       <use xlink:href="#DejaVuSans-30" x="63.623047"/>
      </g>
     </g>
    </g>
    <g id="ytick_5">
     <g id="line2d_21">
      <path d="M 81 95.321703 
L 309.272727 95.321703 
" clip-path="url(#pa74f0b0dc5)" style="fill: none; stroke-dasharray: 2,3.3; stroke-dashoffset: 0; stroke: #b0b0b0; stroke-width: 2"/>
     </g>
     <g id="line2d_22">
      <g>
       <use xlink:href="#m4496ca9b4b" x="81" y="95.321703" style="stroke: #000000; stroke-width: 0.8"/>
      </g>
     </g>
     <g id="text_12">
      <!-- 40 -->
      <g transform="translate(63.82 98.361078)scale(0.08 -0.08)">
       <use xlink:href="#DejaVuSans-34"/>
       <use xlink:href="#DejaVuSans-30" x="63.623047"/>
      </g>
     </g>
    </g>
    <g id="ytick_6">
     <g id="line2d_23">
      <path d="M 81 73.75531 
L 309.272727 73.75531 
" clip-path="url(#pa74f0b0dc5)" style="fill: none; stroke-dasharray: 2,3.3; stroke-dashoffset: 0; stroke: #b0b0b0; stroke-width: 2"/>
     </g>
     <g id="line2d_24">
      <g>
       <use xlink:href="#m4496ca9b4b" x="81" y="73.75531" style="stroke: #000000; stroke-width: 0.8"/>
      </g>
     </g>
     <g id="text_13">
      <!-- 50 -->
      <g transform="translate(63.82 76.794685)scale(0.08 -0.08)">
       <use xlink:href="#DejaVuSans-35"/>
       <use xlink:href="#DejaVuSans-30" x="63.623047"/>
      </g>
     </g>
    </g>
    <g id="ytick_7">
     <g id="line2d_25">
      <path d="M 81 52.188918 
L 309.272727 52.188918 
" clip-path="url(#pa74f0b0dc5)" style="fill: none; stroke-dasharray: 2,3.3; stroke-dashoffset: 0; stroke: #b0b0b0; stroke-width: 2"/>
     </g>
     <g id="line2d_26">
      <g>
       <use xlink:href="#m4496ca9b4b" x="81" y="52.188918" style="stroke: #000000; stroke-width: 0.8"/>
      </g>
     </g>
     <g id="text_14">
      <!-- 60 -->
      <g transform="translate(63.82 55.228293)scale(0.08 -0.08)">
       <defs>
        <path id="DejaVuSans-36" d="M 2113 2584 
Q 1688 2584 1439 2293 
Q 1191 2003 1191 1497 
Q 1191 994 1439 701 
Q 1688 409 2113 409 
Q 2538 409 2786 701 
Q 3034 994 3034 1497 
Q 3034 2003 2786 2293 
Q 2538 2584 2113 2584 
z
M 3366 4563 
L 3366 3988 
Q 3128 4100 2886 4159 
Q 2644 4219 2406 4219 
Q 1781 4219 1451 3797 
Q 1122 3375 1075 2522 
Q 1259 2794 1537 2939 
Q 1816 3084 2150 3084 
Q 2853 3084 3261 2657 
Q 3669 2231 3669 1497 
Q 3669 778 3244 343 
Q 2819 -91 2113 -91 
Q 1303 -91 875 529 
Q 447 1150 447 2328 
Q 447 3434 972 4092 
Q 1497 4750 2381 4750 
Q 2619 4750 2861 4703 
Q 3103 4656 3366 4563 
z
" transform="scale(0.015625)"/>
       </defs>
       <use xlink:href="#DejaVuSans-36"/>
       <use xlink:href="#DejaVuSans-30" x="63.623047"/>
      </g>
     </g>
    </g>
    <g id="ytick_8">
     <g id="line2d_27">
      <path d="M 81 30.622526 
L 309.272727 30.622526 
" clip-path="url(#pa74f0b0dc5)" style="fill: none; stroke-dasharray: 2,3.3; stroke-dashoffset: 0; stroke: #b0b0b0; stroke-width: 2"/>
     </g>
     <g id="line2d_28">
      <g>
       <use xlink:href="#m4496ca9b4b" x="81" y="30.622526" style="stroke: #000000; stroke-width: 0.8"/>
      </g>
     </g>
     <g id="text_15">
      <!-- 70 -->
      <g transform="translate(63.82 33.661901)scale(0.08 -0.08)">
       <defs>
        <path id="DejaVuSans-37" d="M 525 4666 
L 3525 4666 
L 3525 4397 
L 1831 0 
L 1172 0 
L 2766 4134 
L 525 4134 
L 525 4666 
z
" transform="scale(0.015625)"/>
       </defs>
       <use xlink:href="#DejaVuSans-37"/>
       <use xlink:href="#DejaVuSans-30" x="63.623047"/>
      </g>
     </g>
    </g>
   </g>
   <g id="line2d_29">
    <path d="M 91.376033 160.02088 
L 298.896694 143.974899 
L 298.896694 143.974899 
" clip-path="url(#pa74f0b0dc5)" style="fill: none; stroke: #1f77b4; stroke-width: 1.5; stroke-linecap: square"/>
   </g>
   <g id="line2d_30">
    <path d="M 91.376033 155.707602 
L 298.896694 123.615639 
L 298.896694 123.615639 
" clip-path="url(#pa74f0b0dc5)" style="fill: none; stroke: #ff7f0e; stroke-width: 1.5; stroke-linecap: square"/>
   </g>
   <g id="line2d_31">
    <path d="M 91.376033 181.587273 
L 93.202215 158.275465 
L 94.986893 138.271688 
L 96.730066 121.129816 
L 98.47324 106.130598 
L 100.174909 93.359423 
L 101.835074 82.513286 
L 103.49524 73.111618 
L 105.113901 65.206327 
L 106.691058 58.590749 
L 108.226711 53.086061 
L 109.72086 48.537445 
L 111.173504 44.810786 
L 112.584645 41.789845 
L 113.954281 39.373828 
L 115.282413 37.475297 
L 116.569041 36.018373 
L 117.814165 34.937184 
L 119.017785 34.174529 
L 120.221405 33.667259 
L 121.425025 33.394745 
L 122.670149 33.339356 
L 123.956777 33.503211 
L 125.326413 33.901862 
L 126.820562 34.574164 
L 128.439223 35.551238 
L 130.223901 36.891301 
L 132.257603 38.706728 
L 134.581835 41.095082 
L 137.279603 44.202435 
L 140.516926 48.286811 
L 144.708843 53.955409 
L 152.179587 64.507791 
L 160.065372 75.506444 
L 165.419405 82.592339 
L 170.19238 88.546716 
L 174.674826 93.788523 
L 178.991256 98.49891 
L 183.224678 102.792367 
L 187.416595 106.727676 
L 191.567008 110.321369 
L 195.717421 113.624421 
L 199.909339 116.678512 
L 204.14276 119.490153 
L 208.45919 122.091368 
L 212.858628 124.484624 
L 217.382579 126.693297 
L 222.072545 128.733712 
L 226.928529 130.601119 
L 231.950529 132.293307 
L 237.221554 133.832889 
L 242.741603 135.212033 
L 248.593686 136.442174 
L 254.777802 137.513175 
L 261.418463 138.434497 
L 268.557174 139.196871 
L 276.276942 139.794858 
L 284.743785 140.223937 
L 294.082215 140.470826 
L 298.896694 140.520329 
L 298.896694 140.520329 
" clip-path="url(#pa74f0b0dc5)" style="fill: none; stroke: #2ca02c; stroke-width: 1.5; stroke-linecap: square"/>
   </g>
   <g id="line2d_32">
    <path d="M 91.376033 181.587273 
L 93.243719 170.34699 
L 95.111405 160.434162 
L 96.937587 151.899103 
L 98.763769 144.396062 
L 100.58995 137.823542 
L 102.374628 132.210874 
L 104.159306 127.320293 
L 105.902479 123.172078 
L 107.645653 119.583915 
L 109.388826 116.500462 
L 111.090496 113.928942 
L 112.792165 111.747457 
L 114.493835 109.916906 
L 116.195504 108.401607 
L 117.938678 107.142222 
L 119.723355 106.126949 
L 121.549537 105.343028 
L 123.458727 104.766819 
L 125.450926 104.39775 
L 127.567636 104.230647 
L 129.891868 104.274969 
L 132.42362 104.549979 
L 135.287405 105.092131 
L 138.566231 105.946825 
L 142.509124 107.213759 
L 147.69714 109.12979 
L 170.980959 118.019432 
L 177.12357 119.967476 
L 183.017157 121.60511 
L 188.86924 123.002002 
L 194.804331 124.189905 
L 200.863934 125.175974 
L 207.172562 125.975338 
L 213.730215 126.581064 
L 220.661405 126.996474 
L 228.04914 127.213867 
L 235.97643 127.221938 
L 244.567785 127.005764 
L 254.030727 126.541176 
L 264.531273 125.798854 
L 276.401455 124.732103 
L 290.097818 123.272034 
L 298.896694 122.234587 
L 298.896694 122.234587 
" clip-path="url(#pa74f0b0dc5)" style="fill: none; stroke: #d62728; stroke-width: 1.5; stroke-linecap: square"/>
   </g>
   <g id="patch_3">
    <path d="M 81 189 
L 81 25.92 
" style="fill: none; stroke: #000000; stroke-width: 0.8; stroke-linejoin: miter; stroke-linecap: square"/>
   </g>
   <g id="patch_4">
    <path d="M 309.272727 189 
L 309.272727 25.92 
" style="fill: none; stroke: #000000; stroke-width: 0.8; stroke-linejoin: miter; stroke-linecap: square"/>
   </g>
   <g id="patch_5">
    <path d="M 81 189 
L 309.272727 189 
" style="fill: none; stroke: #000000; stroke-width: 0.8; stroke-linejoin: miter; stroke-linecap: square"/>
   </g>
   <g id="patch_6">
    <path d="M 81 25.92 
L 309.272727 25.92 
" style="fill: none; stroke: #000000; stroke-width: 0.8; stroke-linejoin: miter; stroke-linecap: square"/>
   </g>
   <g id="legend_1">
    <g id="patch_7">
     <path d="M 184.210227 79.29 
L 303.672727 79.29 
Q 305.272727 79.29 305.272727 77.69 
L 305.272727 31.52 
Q 305.272727 29.92 303.672727 29.92 
L 184.210227 29.92 
Q 182.610227 29.92 182.610227 31.52 
L 182.610227 77.69 
Q 182.610227 79.29 184.210227 79.29 
z
" style="fill: #ffffff; opacity: 0.8; stroke: #cccccc; stroke-linejoin: miter"/>
    </g>
    <g id="line2d_33">
     <path d="M 185.810227 36.39875 
L 193.810227 36.39875 
L 201.810227 36.39875 
" style="fill: none; stroke: #1f77b4; stroke-width: 1.5; stroke-linecap: square"/>
    </g>
    <g id="text_16">
     <!-- Viteză X (m/s) -->
     <g transform="translate(208.210227 39.19875)scale(0.08 -0.08)">
      <defs>
       <path id="DejaVuSans-56" d="M 1831 0 
L 50 4666 
L 709 4666 
L 2188 738 
L 3669 4666 
L 4325 4666 
L 2547 0 
L 1831 0 
z
" transform="scale(0.015625)"/>
       <path id="DejaVuSans-74" d="M 1172 4494 
L 1172 3500 
L 2356 3500 
L 2356 3053 
L 1172 3053 
L 1172 1153 
Q 1172 725 1289 603 
Q 1406 481 1766 481 
L 2356 481 
L 2356 0 
L 1766 0 
Q 1100 0 847 248 
Q 594 497 594 1153 
L 594 3053 
L 172 3053 
L 172 3500 
L 594 3500 
L 594 4494 
L 1172 4494 
z
" transform="scale(0.015625)"/>
       <path id="DejaVuSans-65" d="M 3597 1894 
L 3597 1613 
L 953 1613 
Q 991 1019 1311 708 
Q 1631 397 2203 397 
Q 2534 397 2845 478 
Q 3156 559 3463 722 
L 3463 178 
Q 3153 47 2828 -22 
Q 2503 -91 2169 -91 
Q 1331 -91 842 396 
Q 353 884 353 1716 
Q 353 2575 817 3079 
Q 1281 3584 2069 3584 
Q 2775 3584 3186 3129 
Q 3597 2675 3597 1894 
z
M 3022 2063 
Q 3016 2534 2758 2815 
Q 2500 3097 2075 3097 
Q 1594 3097 1305 2825 
Q 1016 2553 972 2059 
L 3022 2063 
z
" transform="scale(0.015625)"/>
       <path id="DejaVuSans-7a" d="M 353 3500 
L 3084 3500 
L 3084 2975 
L 922 459 
L 3084 459 
L 3084 0 
L 275 0 
L 275 525 
L 2438 3041 
L 353 3041 
L 353 3500 
z
" transform="scale(0.015625)"/>
       <path id="DejaVuSans-103" d="M 870 4897 
L 1239 4897 
Q 1273 4663 1424 4545 
Q 1576 4428 1848 4428 
Q 2117 4428 2267 4544 
Q 2417 4660 2457 4897 
L 2826 4897 
Q 2795 4450 2548 4225 
Q 2301 4000 1848 4000 
Q 1395 4000 1148 4225 
Q 901 4450 870 4897 
z
M 2194 1759 
Q 1497 1759 1228 1600 
Q 959 1441 959 1056 
Q 959 750 1161 570 
Q 1363 391 1709 391 
Q 2188 391 2477 730 
Q 2766 1069 2766 1631 
L 2766 1759 
L 2194 1759 
z
M 3341 1997 
L 3341 0 
L 2766 0 
L 2766 531 
Q 2569 213 2275 61 
Q 1981 -91 1556 -91 
Q 1019 -91 701 211 
Q 384 513 384 1019 
Q 384 1609 779 1909 
Q 1175 2209 1959 2209 
L 2766 2209 
L 2766 2266 
Q 2766 2663 2505 2880 
Q 2244 3097 1772 3097 
Q 1472 3097 1187 3025 
Q 903 2953 641 2809 
L 641 3341 
Q 956 3463 1253 3523 
Q 1550 3584 1831 3584 
Q 2591 3584 2966 3190 
Q 3341 2797 3341 1997 
z
" transform="scale(0.015625)"/>
       <path id="DejaVuSans-58" d="M 403 4666 
L 1081 4666 
L 2241 2931 
L 3406 4666 
L 4084 4666 
L 2584 2425 
L 4184 0 
L 3506 0 
L 2194 1984 
L 872 0 
L 191 0 
L 1856 2491 
L 403 4666 
z
" transform="scale(0.015625)"/>
       <path id="DejaVuSans-2f" d="M 1625 4666 
L 2156 4666 
L 531 -594 
L 0 -594 
L 1625 4666 
z
" transform="scale(0.015625)"/>
      </defs>
      <use xlink:href="#DejaVuSans-56"/>
      <use xlink:href="#DejaVuSans-69" x="66.158203"/>
      <use xlink:href="#DejaVuSans-74" x="93.941406"/>
      <use xlink:href="#DejaVuSans-65" x="133.150391"/>
      <use xlink:href="#DejaVuSans-7a" x="194.673828"/>
      <use xlink:href="#DejaVuSans-103" x="247.164062"/>
      <use xlink:href="#DejaVuSans-20" x="308.443359"/>
      <use xlink:href="#DejaVuSans-58" x="340.230469"/>
      <use xlink:href="#DejaVuSans-20" x="408.736328"/>
      <use xlink:href="#DejaVuSans-28" x="440.523438"/>
      <use xlink:href="#DejaVuSans-6d" x="479.537109"/>
      <use xlink:href="#DejaVuSans-2f" x="576.949219"/>
      <use xlink:href="#DejaVuSans-73" x="610.640625"/>
      <use xlink:href="#DejaVuSans-29" x="662.740234"/>
     </g>
    </g>
    <g id="line2d_34">
     <path d="M 185.810227 48.14125 
L 193.810227 48.14125 
L 201.810227 48.14125 
" style="fill: none; stroke: #ff7f0e; stroke-width: 1.5; stroke-linecap: square"/>
    </g>
    <g id="text_17">
     <!-- Viteză Y (m/s) -->
     <g transform="translate(208.210227 50.94125)scale(0.08 -0.08)">
      <defs>
       <path id="DejaVuSans-59" d="M -13 4666 
L 666 4666 
L 1959 2747 
L 3244 4666 
L 3922 4666 
L 2272 2222 
L 2272 0 
L 1638 0 
L 1638 2222 
L -13 4666 
z
" transform="scale(0.015625)"/>
      </defs>
      <use xlink:href="#DejaVuSans-56"/>
      <use xlink:href="#DejaVuSans-69" x="66.158203"/>
      <use xlink:href="#DejaVuSans-74" x="93.941406"/>
      <use xlink:href="#DejaVuSans-65" x="133.150391"/>
      <use xlink:href="#DejaVuSans-7a" x="194.673828"/>
      <use xlink:href="#DejaVuSans-103" x="247.164062"/>
      <use xlink:href="#DejaVuSans-20" x="308.443359"/>
      <use xlink:href="#DejaVuSans-59" x="340.230469"/>
      <use xlink:href="#DejaVuSans-20" x="401.314453"/>
      <use xlink:href="#DejaVuSans-28" x="433.101562"/>
      <use xlink:href="#DejaVuSans-6d" x="472.115234"/>
      <use xlink:href="#DejaVuSans-2f" x="569.527344"/>
      <use xlink:href="#DejaVuSans-73" x="603.21875"/>
      <use xlink:href="#DejaVuSans-29" x="655.318359"/>
     </g>
    </g>
    <g id="line2d_35">
     <path d="M 185.810227 59.88375 
L 193.810227 59.88375 
L 201.810227 59.88375 
" style="fill: none; stroke: #2ca02c; stroke-width: 1.5; stroke-linecap: square"/>
    </g>
    <g id="text_18">
     <!-- Viteză X estimată (m/s) -->
     <g transform="translate(208.210227 62.68375)scale(0.08 -0.08)">
      <defs>
       <path id="DejaVuSans-61" d="M 2194 1759 
Q 1497 1759 1228 1600 
Q 959 1441 959 1056 
Q 959 750 1161 570 
Q 1363 391 1709 391 
Q 2188 391 2477 730 
Q 2766 1069 2766 1631 
L 2766 1759 
L 2194 1759 
z
M 3341 1997 
L 3341 0 
L 2766 0 
L 2766 531 
Q 2569 213 2275 61 
Q 1981 -91 1556 -91 
Q 1019 -91 701 211 
Q 384 513 384 1019 
Q 384 1609 779 1909 
Q 1175 2209 1959 2209 
L 2766 2209 
L 2766 2266 
Q 2766 2663 2505 2880 
Q 2244 3097 1772 3097 
Q 1472 3097 1187 3025 
Q 903 2953 641 2809 
L 641 3341 
Q 956 3463 1253 3523 
Q 1550 3584 1831 3584 
Q 2591 3584 2966 3190 
Q 3341 2797 3341 1997 
z
" transform="scale(0.015625)"/>
      </defs>
      <use xlink:href="#DejaVuSans-56"/>
      <use xlink:href="#DejaVuSans-69" x="66.158203"/>
      <use xlink:href="#DejaVuSans-74" x="93.941406"/>
      <use xlink:href="#DejaVuSans-65" x="133.150391"/>
      <use xlink:href="#DejaVuSans-7a" x="194.673828"/>
      <use xlink:href="#DejaVuSans-103" x="247.164062"/>
      <use xlink:href="#DejaVuSans-20" x="308.443359"/>
      <use xlink:href="#DejaVuSans-58" x="340.230469"/>
      <use xlink:href="#DejaVuSans-20" x="408.736328"/>
      <use xlink:href="#DejaVuSans-65" x="440.523438"/>
      <use xlink:href="#DejaVuSans-73" x="502.046875"/>
      <use xlink:href="#DejaVuSans-74" x="554.146484"/>
      <use xlink:href="#DejaVuSans-69" x="593.355469"/>
      <use xlink:href="#DejaVuSans-6d" x="621.138672"/>
      <use xlink:href="#DejaVuSans-61" x="718.550781"/>
      <use xlink:href="#DejaVuSans-74" x="779.830078"/>
      <use xlink:href="#DejaVuSans-103" x="819.039062"/>
      <use xlink:href="#DejaVuSans-20" x="880.318359"/>
      <use xlink:href="#DejaVuSans-28" x="912.105469"/>
      <use xlink:href="#DejaVuSans-6d" x="951.119141"/>
      <use xlink:href="#DejaVuSans-2f" x="1048.53125"/>
      <use xlink:href="#DejaVuSans-73" x="1082.222656"/>
      <use xlink:href="#DejaVuSans-29" x="1134.322266"/>
     </g>
    </g>
    <g id="line2d_36">
     <path d="M 185.810227 71.62625 
L 193.810227 71.62625 
L 201.810227 71.62625 
" style="fill: none; stroke: #d62728; stroke-width: 1.5; stroke-linecap: square"/>
    </g>
    <g id="text_19">
     <!-- Viteză Y estimată (m/s) -->
     <g transform="translate(208.210227 74.42625)scale(0.08 -0.08)">
      <use xlink:href="#DejaVuSans-56"/>
      <use xlink:href="#DejaVuSans-69" x="66.158203"/>
      <use xlink:href="#DejaVuSans-74" x="93.941406"/>
      <use xlink:href="#DejaVuSans-65" x="133.150391"/>
      <use xlink:href="#DejaVuSans-7a" x="194.673828"/>
      <use xlink:href="#DejaVuSans-103" x="247.164062"/>
      <use xlink:href="#DejaVuSans-20" x="308.443359"/>
      <use xlink:href="#DejaVuSans-59" x="340.230469"/>
      <use xlink:href="#DejaVuSans-20" x="401.314453"/>
      <use xlink:href="#DejaVuSans-65" x="433.101562"/>
      <use xlink:href="#DejaVuSans-73" x="494.625"/>
      <use xlink:href="#DejaVuSans-74" x="546.724609"/>
      <use xlink:href="#DejaVuSans-69" x="585.933594"/>
      <use xlink:href="#DejaVuSans-6d" x="613.716797"/>
      <use xlink:href="#DejaVuSans-61" x="711.128906"/>
      <use xlink:href="#DejaVuSans-74" x="772.408203"/>
      <use xlink:href="#DejaVuSans-103" x="811.617188"/>
      <use xlink:href="#DejaVuSans-20" x="872.896484"/>
      <use xlink:href="#DejaVuSans-28" x="904.683594"/>
      <use xlink:href="#DejaVuSans-6d" x="943.697266"/>
      <use xlink:href="#DejaVuSans-2f" x="1041.109375"/>
      <use xlink:href="#DejaVuSans-73" x="1074.800781"/>
      <use xlink:href="#DejaVuSans-29" x="1126.900391"/>
     </g>
    </g>
   </g>
  </g>
  <g id="axes_2">
   <g id="patch_8">
    <path d="M 354.927273 189 
L 583.2 189 
L 583.2 25.92 
L 354.927273 25.92 
z
" style="fill: #ffffff"/>
   </g>
   <g id="matplotlib.axis_3">
    <g id="xtick_7">
     <g id="line2d_37">
      <path d="M 365.303306 189 
L 365.303306 25.92 
" clip-path="url(#pf6e096132f)" style="fill: none; stroke-dasharray: 2,3.3; stroke-dashoffset: 0; stroke: #b0b0b0; stroke-width: 2"/>
     </g>
     <g id="line2d_38">
      <g>
       <use xlink:href="#m2e497553aa" x="365.303306" y="189" style="stroke: #000000; stroke-width: 0.8"/>
      </g>
     </g>
     <g id="text_20">
      <!-- 0 -->
      <g transform="translate(362.758306 202.07875)scale(0.08 -0.08)">
       <use xlink:href="#DejaVuSans-30"/>
      </g>
     </g>
    </g>
    <g id="xtick_8">
     <g id="line2d_39">
      <path d="M 406.807438 189 
L 406.807438 25.92 
" clip-path="url(#pf6e096132f)" style="fill: none; stroke-dasharray: 2,3.3; stroke-dashoffset: 0; stroke: #b0b0b0; stroke-width: 2"/>
     </g>
     <g id="line2d_40">
      <g>
       <use xlink:href="#m2e497553aa" x="406.807438" y="189" style="stroke: #000000; stroke-width: 0.8"/>
      </g>
     </g>
     <g id="text_21">
      <!-- 1 -->
      <g transform="translate(404.262438 202.07875)scale(0.08 -0.08)">
       <use xlink:href="#DejaVuSans-31"/>
      </g>
     </g>
    </g>
    <g id="xtick_9">
     <g id="line2d_41">
      <path d="M 448.31157 189 
L 448.31157 25.92 
" clip-path="url(#pf6e096132f)" style="fill: none; stroke-dasharray: 2,3.3; stroke-dashoffset: 0; stroke: #b0b0b0; stroke-width: 2"/>
     </g>
     <g id="line2d_42">
      <g>
       <use xlink:href="#m2e497553aa" x="448.31157" y="189" style="stroke: #000000; stroke-width: 0.8"/>
      </g>
     </g>
     <g id="text_22">
      <!-- 2 -->
      <g transform="translate(445.76657 202.07875)scale(0.08 -0.08)">
       <use xlink:href="#DejaVuSans-32"/>
      </g>
     </g>
    </g>
    <g id="xtick_10">
     <g id="line2d_43">
      <path d="M 489.815702 189 
L 489.815702 25.92 
" clip-path="url(#pf6e096132f)" style="fill: none; stroke-dasharray: 2,3.3; stroke-dashoffset: 0; stroke: #b0b0b0; stroke-width: 2"/>
     </g>
     <g id="line2d_44">
      <g>
       <use xlink:href="#m2e497553aa" x="489.815702" y="189" style="stroke: #000000; stroke-width: 0.8"/>
      </g>
     </g>
     <g id="text_23">
      <!-- 3 -->
      <g transform="translate(487.270702 202.07875)scale(0.08 -0.08)">
       <use xlink:href="#DejaVuSans-33"/>
      </g>
     </g>
    </g>
    <g id="xtick_11">
     <g id="line2d_45">
      <path d="M 531.319835 189 
L 531.319835 25.92 
" clip-path="url(#pf6e096132f)" style="fill: none; stroke-dasharray: 2,3.3; stroke-dashoffset: 0; stroke: #b0b0b0; stroke-width: 2"/>
     </g>
     <g id="line2d_46">
      <g>
       <use xlink:href="#m2e497553aa" x="531.319835" y="189" style="stroke: #000000; stroke-width: 0.8"/>
      </g>
     </g>
     <g id="text_24">
      <!-- 4 -->
      <g transform="translate(528.774835 202.07875)scale(0.08 -0.08)">
       <use xlink:href="#DejaVuSans-34"/>
      </g>
     </g>
    </g>
    <g id="xtick_12">
     <g id="line2d_47">
      <path d="M 572.823967 189 
L 572.823967 25.92 
" clip-path="url(#pf6e096132f)" style="fill: none; stroke-dasharray: 2,3.3; stroke-dashoffset: 0; stroke: #b0b0b0; stroke-width: 2"/>
     </g>
     <g id="line2d_48">
      <g>
       <use xlink:href="#m2e497553aa" x="572.823967" y="189" style="stroke: #000000; stroke-width: 0.8"/>
      </g>
     </g>
     <g id="text_25">
      <!-- 5 -->
      <g transform="translate(570.278967 202.07875)scale(0.08 -0.08)">
       <use xlink:href="#DejaVuSans-35"/>
      </g>
     </g>
    </g>
    <g id="text_26">
     <!-- Timp (s) -->
     <g transform="translate(452.722386 213.82125)scale(0.08 -0.08)">
      <use xlink:href="#DejaVuSans-54"/>
      <use xlink:href="#DejaVuSans-69" x="57.958984"/>
      <use xlink:href="#DejaVuSans-6d" x="85.742188"/>
      <use xlink:href="#DejaVuSans-70" x="183.154297"/>
      <use xlink:href="#DejaVuSans-20" x="246.630859"/>
      <use xlink:href="#DejaVuSans-28" x="278.417969"/>
      <use xlink:href="#DejaVuSans-73" x="317.431641"/>
      <use xlink:href="#DejaVuSans-29" x="369.53125"/>
     </g>
    </g>
   </g>
   <g id="matplotlib.axis_4">
    <g id="ytick_9">
     <g id="line2d_49">
      <path d="M 354.927273 181.587273 
L 583.2 181.587273 
" clip-path="url(#pf6e096132f)" style="fill: none; stroke-dasharray: 2,3.3; stroke-dashoffset: 0; stroke: #b0b0b0; stroke-width: 2"/>
     </g>
     <g id="line2d_50">
      <g>
       <use xlink:href="#m4496ca9b4b" x="354.927273" y="181.587273" style="stroke: #000000; stroke-width: 0.8"/>
      </g>
     </g>
     <g id="text_27">
      <!-- 0 -->
      <g transform="translate(342.837273 184.626648)scale(0.08 -0.08)">
       <use xlink:href="#DejaVuSans-30"/>
      </g>
     </g>
    </g>
    <g id="ytick_10">
     <g id="line2d_51">
      <path d="M 354.927273 162.99897 
L 583.2 162.99897 
" clip-path="url(#pf6e096132f)" style="fill: none; stroke-dasharray: 2,3.3; stroke-dashoffset: 0; stroke: #b0b0b0; stroke-width: 2"/>
     </g>
     <g id="line2d_52">
      <g>
       <use xlink:href="#m4496ca9b4b" x="354.927273" y="162.99897" style="stroke: #000000; stroke-width: 0.8"/>
      </g>
     </g>
     <g id="text_28">
      <!-- 25 -->
      <g transform="translate(337.747273 166.038345)scale(0.08 -0.08)">
       <use xlink:href="#DejaVuSans-32"/>
       <use xlink:href="#DejaVuSans-35" x="63.623047"/>
      </g>
     </g>
    </g>
    <g id="ytick_11">
     <g id="line2d_53">
      <path d="M 354.927273 144.410667 
L 583.2 144.410667 
" clip-path="url(#pf6e096132f)" style="fill: none; stroke-dasharray: 2,3.3; stroke-dashoffset: 0; stroke: #b0b0b0; stroke-width: 2"/>
     </g>
     <g id="line2d_54">
      <g>
       <use xlink:href="#m4496ca9b4b" x="354.927273" y="144.410667" style="stroke: #000000; stroke-width: 0.8"/>
      </g>
     </g>
     <g id="text_29">
      <!-- 50 -->
      <g transform="translate(337.747273 147.450042)scale(0.08 -0.08)">
       <use xlink:href="#DejaVuSans-35"/>
       <use xlink:href="#DejaVuSans-30" x="63.623047"/>
      </g>
     </g>
    </g>
    <g id="ytick_12">
     <g id="line2d_55">
      <path d="M 354.927273 125.822364 
L 583.2 125.822364 
" clip-path="url(#pf6e096132f)" style="fill: none; stroke-dasharray: 2,3.3; stroke-dashoffset: 0; stroke: #b0b0b0; stroke-width: 2"/>
     </g>
     <g id="line2d_56">
      <g>
       <use xlink:href="#m4496ca9b4b" x="354.927273" y="125.822364" style="stroke: #000000; stroke-width: 0.8"/>
      </g>
     </g>
     <g id="text_30">
      <!-- 75 -->
      <g transform="translate(337.747273 128.861739)scale(0.08 -0.08)">
       <use xlink:href="#DejaVuSans-37"/>
       <use xlink:href="#DejaVuSans-35" x="63.623047"/>
      </g>
     </g>
    </g>
    <g id="ytick_13">
     <g id="line2d_57">
      <path d="M 354.927273 107.234061 
L 583.2 107.234061 
" clip-path="url(#pf6e096132f)" style="fill: none; stroke-dasharray: 2,3.3; stroke-dashoffset: 0; stroke: #b0b0b0; stroke-width: 2"/>
     </g>
     <g id="line2d_58">
      <g>
       <use xlink:href="#m4496ca9b4b" x="354.927273" y="107.234061" style="stroke: #000000; stroke-width: 0.8"/>
      </g>
     </g>
     <g id="text_31">
      <!-- 100 -->
      <g transform="translate(332.657273 110.273436)scale(0.08 -0.08)">
       <use xlink:href="#DejaVuSans-31"/>
       <use xlink:href="#DejaVuSans-30" x="63.623047"/>
       <use xlink:href="#DejaVuSans-30" x="127.246094"/>
      </g>
     </g>
    </g>
    <g id="ytick_14">
     <g id="line2d_59">
      <path d="M 354.927273 88.645758 
L 583.2 88.645758 
" clip-path="url(#pf6e096132f)" style="fill: none; stroke-dasharray: 2,3.3; stroke-dashoffset: 0; stroke: #b0b0b0; stroke-width: 2"/>
     </g>
     <g id="line2d_60">
      <g>
       <use xlink:href="#m4496ca9b4b" x="354.927273" y="88.645758" style="stroke: #000000; stroke-width: 0.8"/>
      </g>
     </g>
     <g id="text_32">
      <!-- 125 -->
      <g transform="translate(332.657273 91.685133)scale(0.08 -0.08)">
       <use xlink:href="#DejaVuSans-31"/>
       <use xlink:href="#DejaVuSans-32" x="63.623047"/>
       <use xlink:href="#DejaVuSans-35" x="127.246094"/>
      </g>
     </g>
    </g>
    <g id="ytick_15">
     <g id="line2d_61">
      <path d="M 354.927273 70.057455 
L 583.2 70.057455 
" clip-path="url(#pf6e096132f)" style="fill: none; stroke-dasharray: 2,3.3; stroke-dashoffset: 0; stroke: #b0b0b0; stroke-width: 2"/>
     </g>
     <g id="line2d_62">
      <g>
       <use xlink:href="#m4496ca9b4b" x="354.927273" y="70.057455" style="stroke: #000000; stroke-width: 0.8"/>
      </g>
     </g>
     <g id="text_33">
      <!-- 150 -->
      <g transform="translate(332.657273 73.09683)scale(0.08 -0.08)">
       <use xlink:href="#DejaVuSans-31"/>
       <use xlink:href="#DejaVuSans-35" x="63.623047"/>
       <use xlink:href="#DejaVuSans-30" x="127.246094"/>
      </g>
     </g>
    </g>
    <g id="ytick_16">
     <g id="line2d_63">
      <path d="M 354.927273 51.469152 
L 583.2 51.469152 
" clip-path="url(#pf6e096132f)" style="fill: none; stroke-dasharray: 2,3.3; stroke-dashoffset: 0; stroke: #b0b0b0; stroke-width: 2"/>
     </g>
     <g id="line2d_64">
      <g>
       <use xlink:href="#m4496ca9b4b" x="354.927273" y="51.469152" style="stroke: #000000; stroke-width: 0.8"/>
      </g>
     </g>
     <g id="text_34">
      <!-- 175 -->
      <g transform="translate(332.657273 54.508527)scale(0.08 -0.08)">
       <use xlink:href="#DejaVuSans-31"/>
       <use xlink:href="#DejaVuSans-37" x="63.623047"/>
       <use xlink:href="#DejaVuSans-35" x="127.246094"/>
      </g>
     </g>
    </g>
    <g id="ytick_17">
     <g id="line2d_65">
      <path d="M 354.927273 32.880849 
L 583.2 32.880849 
" clip-path="url(#pf6e096132f)" style="fill: none; stroke-dasharray: 2,3.3; stroke-dashoffset: 0; stroke: #b0b0b0; stroke-width: 2"/>
     </g>
     <g id="line2d_66">
      <g>
       <use xlink:href="#m4496ca9b4b" x="354.927273" y="32.880849" style="stroke: #000000; stroke-width: 0.8"/>
      </g>
     </g>
     <g id="text_35">
      <!-- 200 -->
      <g transform="translate(332.657273 35.920224)scale(0.08 -0.08)">
       <use xlink:href="#DejaVuSans-32"/>
       <use xlink:href="#DejaVuSans-30" x="63.623047"/>
       <use xlink:href="#DejaVuSans-30" x="127.246094"/>
      </g>
     </g>
    </g>
   </g>
   <g id="line2d_67">
    <path d="M 365.303306 84.928098 
L 384.063174 81.45456 
L 402.823041 77.754977 
L 421.624413 73.820413 
L 440.425785 69.658803 
L 459.268661 65.260207 
L 478.111537 60.63356 
L 496.995917 55.767919 
L 515.921802 50.661773 
L 534.847686 45.325563 
L 553.815074 39.746829 
L 572.823967 33.924056 
L 572.823967 33.924056 
" clip-path="url(#pf6e096132f)" style="fill: none; stroke: #1f77b4; stroke-width: 1.5; stroke-linecap: square"/>
   </g>
   <g id="line2d_68">
    <path d="M 365.303306 136.975346 
L 378.584628 134.007239 
L 391.907455 130.802201 
L 405.271785 127.358098 
L 418.636116 123.68456 
L 432.04195 119.769109 
L 445.489289 115.609599 
L 458.978132 111.203881 
L 472.466975 106.564432 
L 485.997322 101.675898 
L 499.569174 96.536114 
L 513.182529 91.14291 
L 526.837388 85.494108 
L 540.533752 79.587524 
L 554.27162 73.420967 
L 568.050992 66.99224 
L 572.823967 64.708547 
L 572.823967 64.708547 
" clip-path="url(#pf6e096132f)" style="fill: none; stroke: #ff7f0e; stroke-width: 1.5; stroke-linecap: square"/>
   </g>
   <g id="line2d_69">
    <path d="M 365.303306 181.587273 
L 367.378512 167.861823 
L 369.453719 155.607723 
L 371.528926 144.67469 
L 373.604132 134.927236 
L 375.679339 126.243237 
L 377.754545 118.51264 
L 379.829752 111.636285 
L 381.904959 105.524856 
L 383.980165 100.097917 
L 386.055372 95.28305 
L 388.130579 91.015077 
L 390.247289 87.164363 
L 392.364 83.765712 
L 394.522215 80.713886 
L 396.721934 77.983974 
L 398.963157 75.551384 
L 401.287388 73.355461 
L 403.694628 71.387535 
L 406.184876 69.636422 
L 408.84114 68.042919 
L 411.663421 66.613572 
L 414.693223 65.33232 
L 417.97205 64.188474 
L 421.624413 63.152193 
L 425.774826 62.209441 
L 430.672314 61.330972 
L 436.85643 60.459264 
L 446.070347 59.410467 
L 467.19595 57.053602 
L 477.696496 55.619185 
L 487.823504 54.010292 
L 498.116529 52.147729 
L 508.824595 49.981581 
L 520.155223 47.459513 
L 532.232926 44.540275 
L 545.182215 41.17866 
L 559.086099 37.336567 
L 572.823967 33.332727 
L 572.823967 33.332727 
" clip-path="url(#pf6e096132f)" style="fill: none; stroke: #2ca02c; stroke-width: 1.5; stroke-linecap: square"/>
   </g>
   <g id="line2d_70">
    <path d="M 365.303306 181.587273 
L 367.461521 174.990396 
L 369.66124 168.973351 
L 371.860959 163.593087 
L 374.102182 158.694683 
L 376.343405 154.320063 
L 378.626132 150.342342 
L 380.950364 146.731147 
L 383.316099 143.45693 
L 385.764843 140.44294 
L 388.296595 137.677836 
L 390.911355 135.147942 
L 393.650628 132.804316 
L 396.555917 130.612217 
L 399.627223 128.572945 
L 402.947554 126.636475 
L 406.558413 124.789467 
L 410.584314 122.983899 
L 415.149769 121.18547 
L 420.503802 119.322116 
L 427.185967 117.243104 
L 436.773421 114.515272 
L 464.539686 106.725921 
L 476.160843 103.169653 
L 487.408463 99.49451 
L 498.656083 95.584813 
L 510.111223 91.367048 
L 521.856893 86.804866 
L 533.934595 81.874543 
L 546.344331 76.567693 
L 559.086099 70.875464 
L 572.076893 64.827436 
L 572.823967 64.472283 
L 572.823967 64.472283 
" clip-path="url(#pf6e096132f)" style="fill: none; stroke: #d62728; stroke-width: 1.5; stroke-linecap: square"/>
   </g>
   <g id="patch_9">
    <path d="M 354.927273 189 
L 354.927273 25.92 
" style="fill: none; stroke: #000000; stroke-width: 0.8; stroke-linejoin: miter; stroke-linecap: square"/>
   </g>
   <g id="patch_10">
    <path d="M 583.2 189 
L 583.2 25.92 
" style="fill: none; stroke: #000000; stroke-width: 0.8; stroke-linejoin: miter; stroke-linecap: square"/>
   </g>
   <g id="patch_11">
    <path d="M 354.927273 189 
L 583.2 189 
" style="fill: none; stroke: #000000; stroke-width: 0.8; stroke-linejoin: miter; stroke-linecap: square"/>
   </g>
   <g id="patch_12">
    <path d="M 354.927273 25.92 
L 583.2 25.92 
" style="fill: none; stroke: #000000; stroke-width: 0.8; stroke-linejoin: miter; stroke-linecap: square"/>
   </g>
   <g id="legend_2">
    <g id="patch_13">
     <path d="M 466.08625 185 
L 577.6 185 
Q 579.2 185 579.2 183.4 
L 579.2 136.11 
Q 579.2 134.51 577.6 134.51 
L 466.08625 134.51 
Q 464.48625 134.51 464.48625 136.11 
L 464.48625 183.4 
Q 464.48625 185 466.08625 185 
z
" style="fill: #ffffff; opacity: 0.8; stroke: #cccccc; stroke-linejoin: miter"/>
    </g>
    <g id="line2d_71">
     <path d="M 467.68625 140.98875 
L 475.68625 140.98875 
L 483.68625 140.98875 
" style="fill: none; stroke: #1f77b4; stroke-width: 1.5; stroke-linecap: square"/>
    </g>
    <g id="text_36">
     <!-- Poziție X (m) -->
     <g transform="translate(490.08625 143.78875)scale(0.08 -0.08)">
      <defs>
       <path id="DejaVuSans-50" d="M 1259 4147 
L 1259 2394 
L 2053 2394 
Q 2494 2394 2734 2622 
Q 2975 2850 2975 3272 
Q 2975 3691 2734 3919 
Q 2494 4147 2053 4147 
L 1259 4147 
z
M 628 4666 
L 2053 4666 
Q 2838 4666 3239 4311 
Q 3641 3956 3641 3272 
Q 3641 2581 3239 2228 
Q 2838 1875 2053 1875 
L 1259 1875 
L 1259 0 
L 628 0 
L 628 4666 
z
" transform="scale(0.015625)"/>
       <path id="DejaVuSans-6f" d="M 1959 3097 
Q 1497 3097 1228 2736 
Q 959 2375 959 1747 
Q 959 1119 1226 758 
Q 1494 397 1959 397 
Q 2419 397 2687 759 
Q 2956 1122 2956 1747 
Q 2956 2369 2687 2733 
Q 2419 3097 1959 3097 
z
M 1959 3584 
Q 2709 3584 3137 3096 
Q 3566 2609 3566 1747 
Q 3566 888 3137 398 
Q 2709 -91 1959 -91 
Q 1206 -91 779 398 
Q 353 888 353 1747 
Q 353 2609 779 3096 
Q 1206 3584 1959 3584 
z
" transform="scale(0.015625)"/>
       <path id="DejaVuSans-21b" d="M 1388 -538 
L 2047 -538 
L 1534 -1538 
L 1131 -1538 
L 1388 -538 
z
M 1172 4494 
L 1172 3500 
L 2356 3500 
L 2356 3053 
L 1172 3053 
L 1172 1153 
Q 1172 725 1289 603 
Q 1406 481 1766 481 
L 2356 481 
L 2356 0 
L 1766 0 
Q 1100 0 847 248 
Q 594 497 594 1153 
L 594 3053 
L 172 3053 
L 172 3500 
L 594 3500 
L 594 4494 
L 1172 4494 
z
" transform="scale(0.015625)"/>
      </defs>
      <use xlink:href="#DejaVuSans-50"/>
      <use xlink:href="#DejaVuSans-6f" x="56.677734"/>
      <use xlink:href="#DejaVuSans-7a" x="117.859375"/>
      <use xlink:href="#DejaVuSans-69" x="170.349609"/>
      <use xlink:href="#DejaVuSans-21b" x="198.132812"/>
      <use xlink:href="#DejaVuSans-69" x="237.341797"/>
      <use xlink:href="#DejaVuSans-65" x="265.125"/>
      <use xlink:href="#DejaVuSans-20" x="326.648438"/>
      <use xlink:href="#DejaVuSans-58" x="358.435547"/>
      <use xlink:href="#DejaVuSans-20" x="426.941406"/>
      <use xlink:href="#DejaVuSans-28" x="458.728516"/>
      <use xlink:href="#DejaVuSans-6d" x="497.742188"/>
      <use xlink:href="#DejaVuSans-29" x="595.154297"/>
     </g>
    </g>
    <g id="line2d_72">
     <path d="M 467.68625 152.99 
L 475.68625 152.99 
L 483.68625 152.99 
" style="fill: none; stroke: #ff7f0e; stroke-width: 1.5; stroke-linecap: square"/>
    </g>
    <g id="text_37">
     <!-- Poziție Y (m) -->
     <g transform="translate(490.08625 155.79)scale(0.08 -0.08)">
      <use xlink:href="#DejaVuSans-50"/>
      <use xlink:href="#DejaVuSans-6f" x="56.677734"/>
      <use xlink:href="#DejaVuSans-7a" x="117.859375"/>
      <use xlink:href="#DejaVuSans-69" x="170.349609"/>
      <use xlink:href="#DejaVuSans-21b" x="198.132812"/>
      <use xlink:href="#DejaVuSans-69" x="237.341797"/>
      <use xlink:href="#DejaVuSans-65" x="265.125"/>
      <use xlink:href="#DejaVuSans-20" x="326.648438"/>
      <use xlink:href="#DejaVuSans-59" x="358.435547"/>
      <use xlink:href="#DejaVuSans-20" x="419.519531"/>
      <use xlink:href="#DejaVuSans-28" x="451.306641"/>
      <use xlink:href="#DejaVuSans-6d" x="490.320312"/>
      <use xlink:href="#DejaVuSans-29" x="587.732422"/>
     </g>
    </g>
    <g id="line2d_73">
     <path d="M 467.68625 165.03375 
L 475.68625 165.03375 
L 483.68625 165.03375 
" style="fill: none; stroke: #2ca02c; stroke-width: 1.5; stroke-linecap: square"/>
    </g>
    <g id="text_38">
     <!-- Poziție estimată X(m) -->
     <g transform="translate(490.08625 167.83375)scale(0.08 -0.08)">
      <use xlink:href="#DejaVuSans-50"/>
      <use xlink:href="#DejaVuSans-6f" x="56.677734"/>
      <use xlink:href="#DejaVuSans-7a" x="117.859375"/>
      <use xlink:href="#DejaVuSans-69" x="170.349609"/>
      <use xlink:href="#DejaVuSans-21b" x="198.132812"/>
      <use xlink:href="#DejaVuSans-69" x="237.341797"/>
      <use xlink:href="#DejaVuSans-65" x="265.125"/>
      <use xlink:href="#DejaVuSans-20" x="326.648438"/>
      <use xlink:href="#DejaVuSans-65" x="358.435547"/>
      <use xlink:href="#DejaVuSans-73" x="419.958984"/>
      <use xlink:href="#DejaVuSans-74" x="472.058594"/>
      <use xlink:href="#DejaVuSans-69" x="511.267578"/>
      <use xlink:href="#DejaVuSans-6d" x="539.050781"/>
      <use xlink:href="#DejaVuSans-61" x="636.462891"/>
      <use xlink:href="#DejaVuSans-74" x="697.742188"/>
      <use xlink:href="#DejaVuSans-103" x="736.951172"/>
      <use xlink:href="#DejaVuSans-20" x="798.230469"/>
      <use xlink:href="#DejaVuSans-58" x="830.017578"/>
      <use xlink:href="#DejaVuSans-28" x="898.523438"/>
      <use xlink:href="#DejaVuSans-6d" x="937.537109"/>
      <use xlink:href="#DejaVuSans-29" x="1034.949219"/>
     </g>
    </g>
    <g id="line2d_74">
     <path d="M 467.68625 177.0775 
L 475.68625 177.0775 
L 483.68625 177.0775 
" style="fill: none; stroke: #d62728; stroke-width: 1.5; stroke-linecap: square"/>
    </g>
    <g id="text_39">
     <!-- Poziție estimată Y(m) -->
     <g transform="translate(490.08625 179.8775)scale(0.08 -0.08)">
      <use xlink:href="#DejaVuSans-50"/>
      <use xlink:href="#DejaVuSans-6f" x="56.677734"/>
      <use xlink:href="#DejaVuSans-7a" x="117.859375"/>
      <use xlink:href="#DejaVuSans-69" x="170.349609"/>
      <use xlink:href="#DejaVuSans-21b" x="198.132812"/>
      <use xlink:href="#DejaVuSans-69" x="237.341797"/>
      <use xlink:href="#DejaVuSans-65" x="265.125"/>
      <use xlink:href="#DejaVuSans-20" x="326.648438"/>
      <use xlink:href="#DejaVuSans-65" x="358.435547"/>
      <use xlink:href="#DejaVuSans-73" x="419.958984"/>
      <use xlink:href="#DejaVuSans-74" x="472.058594"/>
      <use xlink:href="#DejaVuSans-69" x="511.267578"/>
      <use xlink:href="#DejaVuSans-6d" x="539.050781"/>
      <use xlink:href="#DejaVuSans-61" x="636.462891"/>
      <use xlink:href="#DejaVuSans-74" x="697.742188"/>
      <use xlink:href="#DejaVuSans-103" x="736.951172"/>
      <use xlink:href="#DejaVuSans-20" x="798.230469"/>
      <use xlink:href="#DejaVuSans-59" x="830.017578"/>
      <use xlink:href="#DejaVuSans-28" x="891.101562"/>
      <use xlink:href="#DejaVuSans-6d" x="930.115234"/>
      <use xlink:href="#DejaVuSans-29" x="1027.527344"/>
     </g>
    </g>
   </g>
  </g>
 </g>
 <defs>
  <clipPath id="pa74f0b0dc5">
   <rect x="81" y="25.92" width="228.272727" height="163.08"/>
  </clipPath>
  <clipPath id="pf6e096132f">
   <rect x="354.927273" y="25.92" width="228.272727" height="163.08"/>
  </clipPath>
 </defs>
</svg>
