<?xml version="1.0" encoding="utf-8" standalone="no"?>
<!DOCTYPE svg PUBLIC "-//W3C//DTD SVG 1.1//EN"
  "http://www.w3.org/Graphics/SVG/1.1/DTD/svg11.dtd">
<svg xmlns:xlink="http://www.w3.org/1999/xlink" width="360pt" height="216pt" viewBox="0 0 360 216" xmlns="http://www.w3.org/2000/svg" version="1.1">
 <metadata>
  <rdf:RDF xmlns:dc="http://purl.org/dc/elements/1.1/" xmlns:cc="http://creativecommons.org/ns#" xmlns:rdf="http://www.w3.org/1999/02/22-rdf-syntax-ns#">
   <cc:Work>
    <dc:type rdf:resource="http://purl.org/dc/dcmitype/StillImage"/>
    <dc:date>2022-06-13T19:13:10.448811</dc:date>
    <dc:format>image/svg+xml</dc:format>
    <dc:creator>
     <cc:Agent>
      <dc:title>Matplotlib v3.5.1, https://matplotlib.org/</dc:title>
     </cc:Agent>
    </dc:creator>
   </cc:Work>
  </rdf:RDF>
 </metadata>
 <defs>
  <style type="text/css">*{stroke-linejoin: round; stroke-linecap: butt}</style>
 </defs>
 <g id="figure_1">
  <g id="patch_1">
   <path d="M 0 216 
L 360 216 
L 360 0 
L 0 0 
L 0 216 
z
" style="fill: none"/>
  </g>
  <g id="axes_1">
   <g id="PolyCollection_1">
    <defs>
     <path id="m50c94bf3df" d="M 148.279176 -34.412727 
L 148.279176 -124.095877 
L 148.641566 -124.992678 
L 149.003955 -125.889299 
L 149.366345 -126.785558 
L 149.728734 -127.681271 
L 150.091123 -128.576252 
L 150.453513 -129.470315 
L 150.815902 -130.363272 
L 151.178292 -131.254932 
L 151.540681 -132.145104 
L 151.903071 -133.033597 
L 152.26546 -133.920215 
L 152.627849 -134.804765 
L 152.990239 -135.68705 
L 153.352628 -136.566872 
L 153.715018 -137.444035 
L 154.077407 -138.318338 
L 154.439797 -139.189582 
L 154.802186 -140.057567 
L 155.164575 -140.92209 
L 155.526965 -141.782951 
L 155.889354 -142.639946 
L 156.251744 -143.492873 
L 156.614133 -144.341529 
L 156.976523 -145.185709 
L 157.338912 -146.02521 
L 157.701301 -146.859828 
L 158.063691 -147.689359 
L 158.42608 -148.513599 
L 158.78847 -149.332344 
L 159.150859 -150.14539 
L 159.513249 -150.952533 
L 159.875638 -151.753571 
L 160.238028 -152.548301 
L 160.600417 -153.336521 
L 160.962806 -154.118028 
L 161.325196 -154.892623 
L 161.687585 -155.660104 
L 162.049975 -156.420273 
L 162.412364 -157.172932 
L 162.774754 -157.917882 
L 163.137143 -158.654929 
L 163.499532 -159.383876 
L 163.861922 -160.10453 
L 164.224311 -160.816698 
L 164.586701 -161.520191 
L 164.94909 -162.214817 
L 165.31148 -162.900391 
L 165.673869 -163.576725 
L 166.036258 -164.243635 
L 166.398648 -164.90094 
L 166.761037 -165.548458 
L 167.123427 -166.186011 
L 167.485816 -166.813423 
L 167.848206 -167.43052 
L 168.210595 -168.03713 
L 168.572984 -168.633083 
L 168.935374 -169.218214 
L 169.297763 -169.792356 
L 169.660153 -170.355349 
L 170.022542 -170.907033 
L 170.384932 -171.447252 
L 170.747321 -171.975851 
L 171.10971 -172.492682 
L 171.4721 -172.997594 
L 171.834489 -173.490445 
L 172.196879 -173.971092 
L 172.559268 -174.439396 
L 172.921658 -174.895223 
L 173.284047 -175.338441 
L 173.646437 -175.76892 
L 174.008826 -176.186537 
L 174.371215 -176.591168 
L 174.733605 -176.982697 
L 175.095994 -177.361009 
L 175.458384 -177.725992 
L 175.820773 -178.07754 
L 176.183163 -178.415549 
L 176.545552 -178.73992 
L 176.907941 -179.050558 
L 177.270331 -179.347369 
L 177.63272 -179.630268 
L 177.99511 -179.899169 
L 178.357499 -180.153993 
L 178.719889 -180.394665 
L 179.082278 -180.621112 
L 179.444667 -180.833268 
L 179.807057 -181.031069 
L 180.169446 -181.214457 
L 180.531836 -181.383376 
L 180.894225 -181.537776 
L 181.256615 -181.677611 
L 181.619004 -181.80284 
L 181.981393 -181.913424 
L 182.343783 -182.00933 
L 182.706172 -182.090531 
L 183.068562 -182.157001 
L 183.430951 -182.20872 
L 183.793341 -182.245674 
L 184.15573 -182.26785 
L 184.518119 -182.275243 
L 184.880509 -182.26785 
L 185.242898 -182.245674 
L 185.605288 -182.20872 
L 185.967677 -182.157001 
L 186.330067 -182.090531 
L 186.692456 -182.00933 
L 187.054845 -181.913424 
L 187.417235 -181.80284 
L 187.779624 -181.677611 
L 188.142014 -181.537776 
L 188.504403 -181.383376 
L 188.866793 -181.214457 
L 189.229182 -181.031069 
L 189.591572 -180.833268 
L 189.953961 -180.621112 
L 190.31635 -180.394665 
L 190.67874 -180.153993 
L 191.041129 -179.899169 
L 191.403519 -179.630268 
L 191.765908 -179.347369 
L 192.128298 -179.050558 
L 192.490687 -178.73992 
L 192.853076 -178.415549 
L 193.215466 -178.07754 
L 193.577855 -177.725992 
L 193.940245 -177.361009 
L 194.302634 -176.982697 
L 194.665024 -176.591168 
L 195.027413 -176.186537 
L 195.389802 -175.76892 
L 195.752192 -175.338441 
L 196.114581 -174.895223 
L 196.476971 -174.439396 
L 196.83936 -173.971092 
L 197.20175 -173.490445 
L 197.564139 -172.997594 
L 197.926528 -172.492682 
L 198.288918 -171.975851 
L 198.651307 -171.447252 
L 199.013697 -170.907033 
L 199.376086 -170.355349 
L 199.738476 -169.792356 
L 200.100865 -169.218214 
L 200.463254 -168.633083 
L 200.825644 -168.03713 
L 201.188033 -167.43052 
L 201.550423 -166.813423 
L 201.912812 -166.186011 
L 202.275202 -165.548458 
L 202.637591 -164.90094 
L 202.999981 -164.243635 
L 203.36237 -163.576725 
L 203.724759 -162.900391 
L 204.087149 -162.214817 
L 204.449538 -161.520191 
L 204.811928 -160.816698 
L 205.174317 -160.10453 
L 205.536707 -159.383876 
L 205.899096 -158.654929 
L 206.261485 -157.917882 
L 206.623875 -157.172932 
L 206.986264 -156.420273 
L 207.348654 -155.660104 
L 207.711043 -154.892623 
L 208.073433 -154.118028 
L 208.435822 -153.336521 
L 208.798211 -152.548301 
L 209.160601 -151.753571 
L 209.52299 -150.952533 
L 209.88538 -150.14539 
L 210.247769 -149.332344 
L 210.610159 -148.513599 
L 210.972548 -147.689359 
L 211.334937 -146.859828 
L 211.697327 -146.02521 
L 212.059716 -145.185709 
L 212.422106 -144.341529 
L 212.784495 -143.492873 
L 213.146885 -142.639946 
L 213.509274 -141.782951 
L 213.871663 -140.92209 
L 214.234053 -140.057567 
L 214.596442 -139.189582 
L 214.958832 -138.318338 
L 215.321221 -137.444035 
L 215.683611 -136.566872 
L 216.046 -135.68705 
L 216.40839 -134.804765 
L 216.770779 -133.920215 
L 217.133168 -133.033597 
L 217.495558 -132.145104 
L 217.857947 -131.254932 
L 218.220337 -130.363272 
L 218.582726 -129.470315 
L 218.945116 -128.576252 
L 219.307505 -127.681271 
L 219.669894 -126.785558 
L 220.032284 -125.889299 
L 220.394673 -124.992678 
L 220.394673 -34.412727 
L 220.394673 -34.412727 
L 220.032284 -34.412727 
L 219.669894 -34.412727 
L 219.307505 -34.412727 
L 218.945116 -34.412727 
L 218.582726 -34.412727 
L 218.220337 -34.412727 
L 217.857947 -34.412727 
L 217.495558 -34.412727 
L 217.133168 -34.412727 
L 216.770779 -34.412727 
L 216.40839 -34.412727 
L 216.046 -34.412727 
L 215.683611 -34.412727 
L 215.321221 -34.412727 
L 214.958832 -34.412727 
L 214.596442 -34.412727 
L 214.234053 -34.412727 
L 213.871663 -34.412727 
L 213.509274 -34.412727 
L 213.146885 -34.412727 
L 212.784495 -34.412727 
L 212.422106 -34.412727 
L 212.059716 -34.412727 
L 211.697327 -34.412727 
L 211.334937 -34.412727 
L 210.972548 -34.412727 
L 210.610159 -34.412727 
L 210.247769 -34.412727 
L 209.88538 -34.412727 
L 209.52299 -34.412727 
L 209.160601 -34.412727 
L 208.798211 -34.412727 
L 208.435822 -34.412727 
L 208.073433 -34.412727 
L 207.711043 -34.412727 
L 207.348654 -34.412727 
L 206.986264 -34.412727 
L 206.623875 -34.412727 
L 206.261485 -34.412727 
L 205.899096 -34.412727 
L 205.536707 -34.412727 
L 205.174317 -34.412727 
L 204.811928 -34.412727 
L 204.449538 -34.412727 
L 204.087149 -34.412727 
L 203.724759 -34.412727 
L 203.36237 -34.412727 
L 202.999981 -34.412727 
L 202.637591 -34.412727 
L 202.275202 -34.412727 
L 201.912812 -34.412727 
L 201.550423 -34.412727 
L 201.188033 -34.412727 
L 200.825644 -34.412727 
L 200.463254 -34.412727 
L 200.100865 -34.412727 
L 199.738476 -34.412727 
L 199.376086 -34.412727 
L 199.013697 -34.412727 
L 198.651307 -34.412727 
L 198.288918 -34.412727 
L 197.926528 -34.412727 
L 197.564139 -34.412727 
L 197.20175 -34.412727 
L 196.83936 -34.412727 
L 196.476971 -34.412727 
L 196.114581 -34.412727 
L 195.752192 -34.412727 
L 195.389802 -34.412727 
L 195.027413 -34.412727 
L 194.665024 -34.412727 
L 194.302634 -34.412727 
L 193.940245 -34.412727 
L 193.577855 -34.412727 
L 193.215466 -34.412727 
L 192.853076 -34.412727 
L 192.490687 -34.412727 
L 192.128298 -34.412727 
L 191.765908 -34.412727 
L 191.403519 -34.412727 
L 191.041129 -34.412727 
L 190.67874 -34.412727 
L 190.31635 -34.412727 
L 189.953961 -34.412727 
L 189.591572 -34.412727 
L 189.229182 -34.412727 
L 188.866793 -34.412727 
L 188.504403 -34.412727 
L 188.142014 -34.412727 
L 187.779624 -34.412727 
L 187.417235 -34.412727 
L 187.054845 -34.412727 
L 186.692456 -34.412727 
L 186.330067 -34.412727 
L 185.967677 -34.412727 
L 185.605288 -34.412727 
L 185.242898 -34.412727 
L 184.880509 -34.412727 
L 184.518119 -34.412727 
L 184.15573 -34.412727 
L 183.793341 -34.412727 
L 183.430951 -34.412727 
L 183.068562 -34.412727 
L 182.706172 -34.412727 
L 182.343783 -34.412727 
L 181.981393 -34.412727 
L 181.619004 -34.412727 
L 181.256615 -34.412727 
L 180.894225 -34.412727 
L 180.531836 -34.412727 
L 180.169446 -34.412727 
L 179.807057 -34.412727 
L 179.444667 -34.412727 
L 179.082278 -34.412727 
L 178.719889 -34.412727 
L 178.357499 -34.412727 
L 177.99511 -34.412727 
L 177.63272 -34.412727 
L 177.270331 -34.412727 
L 176.907941 -34.412727 
L 176.545552 -34.412727 
L 176.183163 -34.412727 
L 175.820773 -34.412727 
L 175.458384 -34.412727 
L 175.095994 -34.412727 
L 174.733605 -34.412727 
L 174.371215 -34.412727 
L 174.008826 -34.412727 
L 173.646437 -34.412727 
L 173.284047 -34.412727 
L 172.921658 -34.412727 
L 172.559268 -34.412727 
L 172.196879 -34.412727 
L 171.834489 -34.412727 
L 171.4721 -34.412727 
L 171.10971 -34.412727 
L 170.747321 -34.412727 
L 170.384932 -34.412727 
L 170.022542 -34.412727 
L 169.660153 -34.412727 
L 169.297763 -34.412727 
L 168.935374 -34.412727 
L 168.572984 -34.412727 
L 168.210595 -34.412727 
L 167.848206 -34.412727 
L 167.485816 -34.412727 
L 167.123427 -34.412727 
L 166.761037 -34.412727 
L 166.398648 -34.412727 
L 166.036258 -34.412727 
L 165.673869 -34.412727 
L 165.31148 -34.412727 
L 164.94909 -34.412727 
L 164.586701 -34.412727 
L 164.224311 -34.412727 
L 163.861922 -34.412727 
L 163.499532 -34.412727 
L 163.137143 -34.412727 
L 162.774754 -34.412727 
L 162.412364 -34.412727 
L 162.049975 -34.412727 
L 161.687585 -34.412727 
L 161.325196 -34.412727 
L 160.962806 -34.412727 
L 160.600417 -34.412727 
L 160.238028 -34.412727 
L 159.875638 -34.412727 
L 159.513249 -34.412727 
L 159.150859 -34.412727 
L 158.78847 -34.412727 
L 158.42608 -34.412727 
L 158.063691 -34.412727 
L 157.701301 -34.412727 
L 157.338912 -34.412727 
L 156.976523 -34.412727 
L 156.614133 -34.412727 
L 156.251744 -34.412727 
L 155.889354 -34.412727 
L 155.526965 -34.412727 
L 155.164575 -34.412727 
L 154.802186 -34.412727 
L 154.439797 -34.412727 
L 154.077407 -34.412727 
L 153.715018 -34.412727 
L 153.352628 -34.412727 
L 152.990239 -34.412727 
L 152.627849 -34.412727 
L 152.26546 -34.412727 
L 151.903071 -34.412727 
L 151.540681 -34.412727 
L 151.178292 -34.412727 
L 150.815902 -34.412727 
L 150.453513 -34.412727 
L 150.091123 -34.412727 
L 149.728734 -34.412727 
L 149.366345 -34.412727 
L 149.003955 -34.412727 
L 148.641566 -34.412727 
L 148.279176 -34.412727 
z
" style="stroke: #4169e1; stroke-opacity: 0.3"/>
    </defs>
    <g clip-path="url(#pacb101c2ea)">
     <use xlink:href="#m50c94bf3df" x="0" y="216" style="fill: #4169e1; fill-opacity: 0.3; stroke: #4169e1; stroke-opacity: 0.3"/>
    </g>
   </g>
   <g id="PolyCollection_2">
    <defs>
     <path id="mb60ae2a181" d="M 112.040233 -34.412727 
L 112.040233 -54.423743 
L 112.402622 -54.826971 
L 112.765012 -55.236243 
L 113.127401 -55.651595 
L 113.489791 -56.073066 
L 113.85218 -56.500692 
L 114.21457 -56.934509 
L 114.576959 -57.374549 
L 114.939348 -57.820846 
L 115.301738 -58.273431 
L 115.664127 -58.732334 
L 116.026517 -59.197585 
L 116.388906 -59.669211 
L 116.751296 -60.147237 
L 117.113685 -60.631689 
L 117.476075 -61.12259 
L 117.838464 -61.619961 
L 118.200853 -62.123823 
L 118.563243 -62.634193 
L 118.925632 -63.15109 
L 119.288022 -63.674527 
L 119.650411 -64.204519 
L 120.012801 -64.741077 
L 120.37519 -65.284211 
L 120.737579 -65.83393 
L 121.099969 -66.390239 
L 121.462358 -66.953144 
L 121.824748 -67.522646 
L 122.187137 -68.098747 
L 122.549527 -68.681444 
L 122.911916 -69.270735 
L 123.274305 -69.866614 
L 123.636695 -70.469074 
L 123.999084 -71.078104 
L 124.361474 -71.693693 
L 124.723863 -72.315827 
L 125.086253 -72.94449 
L 125.448642 -73.579662 
L 125.811031 -74.221324 
L 126.173421 -74.869453 
L 126.53581 -75.524022 
L 126.8982 -76.185005 
L 127.260589 -76.85237 
L 127.622979 -77.526086 
L 127.985368 -78.206117 
L 128.347757 -78.892427 
L 128.710147 -79.584974 
L 129.072536 -80.283718 
L 129.434926 -80.988611 
L 129.797315 -81.699608 
L 130.159705 -82.416658 
L 130.522094 -83.139708 
L 130.884483 -83.868703 
L 131.246873 -84.603585 
L 131.609262 -85.344294 
L 131.971652 -86.090765 
L 132.334041 -86.842934 
L 132.696431 -87.600732 
L 133.05882 -88.364087 
L 133.42121 -89.132926 
L 133.783599 -89.907171 
L 134.145988 -90.686743 
L 134.508378 -91.47156 
L 134.870767 -92.261538 
L 135.233157 -93.056588 
L 135.595546 -93.856621 
L 135.957936 -94.661542 
L 136.320325 -95.471256 
L 136.682714 -96.285665 
L 137.045104 -97.104668 
L 137.407493 -97.928159 
L 137.769883 -98.756033 
L 138.132272 -99.588179 
L 138.494662 -100.424487 
L 138.857051 -101.264839 
L 139.21944 -102.10912 
L 139.58183 -102.957209 
L 139.944219 -103.808982 
L 140.306609 -104.664314 
L 140.668998 -105.523077 
L 141.031388 -106.385141 
L 141.393777 -107.25037 
L 141.756166 -108.118631 
L 142.118556 -108.989783 
L 142.480945 -109.863686 
L 142.843335 -110.740197 
L 143.205724 -111.619169 
L 143.568114 -112.500454 
L 143.930503 -113.383901 
L 144.292892 -114.269357 
L 144.655282 -115.156666 
L 145.017671 -116.045671 
L 145.380061 -116.93621 
L 145.74245 -117.828123 
L 146.10484 -118.721245 
L 146.467229 -119.615408 
L 146.829619 -120.510444 
L 147.192008 -121.406183 
L 147.554397 -122.302452 
L 147.916787 -123.199075 
L 148.279176 -124.095877 
L 148.641566 -124.992678 
L 149.003955 -125.889299 
L 149.366345 -126.785558 
L 149.728734 -127.681271 
L 150.091123 -128.576252 
L 150.453513 -129.470315 
L 150.815902 -130.363272 
L 151.178292 -131.254932 
L 151.540681 -132.145104 
L 151.903071 -133.033597 
L 152.26546 -133.920215 
L 152.627849 -134.804765 
L 152.990239 -135.68705 
L 153.352628 -136.566872 
L 153.715018 -137.444035 
L 154.077407 -138.318338 
L 154.439797 -139.189582 
L 154.802186 -140.057567 
L 155.164575 -140.92209 
L 155.526965 -141.782951 
L 155.889354 -142.639946 
L 156.251744 -143.492873 
L 156.614133 -144.341529 
L 156.976523 -145.185709 
L 157.338912 -146.02521 
L 157.701301 -146.859828 
L 158.063691 -147.689359 
L 158.42608 -148.513599 
L 158.78847 -149.332344 
L 159.150859 -150.14539 
L 159.513249 -150.952533 
L 159.875638 -151.753571 
L 160.238028 -152.548301 
L 160.600417 -153.336521 
L 160.962806 -154.118028 
L 161.325196 -154.892623 
L 161.687585 -155.660104 
L 162.049975 -156.420273 
L 162.412364 -157.172932 
L 162.774754 -157.917882 
L 163.137143 -158.654929 
L 163.499532 -159.383876 
L 163.861922 -160.10453 
L 164.224311 -160.816698 
L 164.586701 -161.520191 
L 164.94909 -162.214817 
L 165.31148 -162.900391 
L 165.673869 -163.576725 
L 166.036258 -164.243635 
L 166.398648 -164.90094 
L 166.761037 -165.548458 
L 167.123427 -166.186011 
L 167.485816 -166.813423 
L 167.848206 -167.43052 
L 168.210595 -168.03713 
L 168.572984 -168.633083 
L 168.935374 -169.218214 
L 169.297763 -169.792356 
L 169.660153 -170.355349 
L 170.022542 -170.907033 
L 170.384932 -171.447252 
L 170.747321 -171.975851 
L 171.10971 -172.492682 
L 171.4721 -172.997594 
L 171.834489 -173.490445 
L 172.196879 -173.971092 
L 172.559268 -174.439396 
L 172.921658 -174.895223 
L 173.284047 -175.338441 
L 173.646437 -175.76892 
L 174.008826 -176.186537 
L 174.371215 -176.591168 
L 174.733605 -176.982697 
L 175.095994 -177.361009 
L 175.458384 -177.725992 
L 175.820773 -178.07754 
L 176.183163 -178.415549 
L 176.545552 -178.73992 
L 176.907941 -179.050558 
L 177.270331 -179.347369 
L 177.63272 -179.630268 
L 177.99511 -179.899169 
L 178.357499 -180.153993 
L 178.719889 -180.394665 
L 179.082278 -180.621112 
L 179.444667 -180.833268 
L 179.807057 -181.031069 
L 180.169446 -181.214457 
L 180.531836 -181.383376 
L 180.894225 -181.537776 
L 181.256615 -181.677611 
L 181.619004 -181.80284 
L 181.981393 -181.913424 
L 182.343783 -182.00933 
L 182.706172 -182.090531 
L 183.068562 -182.157001 
L 183.430951 -182.20872 
L 183.793341 -182.245674 
L 184.15573 -182.26785 
L 184.518119 -182.275243 
L 184.880509 -182.26785 
L 185.242898 -182.245674 
L 185.605288 -182.20872 
L 185.967677 -182.157001 
L 186.330067 -182.090531 
L 186.692456 -182.00933 
L 187.054845 -181.913424 
L 187.417235 -181.80284 
L 187.779624 -181.677611 
L 188.142014 -181.537776 
L 188.504403 -181.383376 
L 188.866793 -181.214457 
L 189.229182 -181.031069 
L 189.591572 -180.833268 
L 189.953961 -180.621112 
L 190.31635 -180.394665 
L 190.67874 -180.153993 
L 191.041129 -179.899169 
L 191.403519 -179.630268 
L 191.765908 -179.347369 
L 192.128298 -179.050558 
L 192.490687 -178.73992 
L 192.853076 -178.415549 
L 193.215466 -178.07754 
L 193.577855 -177.725992 
L 193.940245 -177.361009 
L 194.302634 -176.982697 
L 194.665024 -176.591168 
L 195.027413 -176.186537 
L 195.389802 -175.76892 
L 195.752192 -175.338441 
L 196.114581 -174.895223 
L 196.476971 -174.439396 
L 196.83936 -173.971092 
L 197.20175 -173.490445 
L 197.564139 -172.997594 
L 197.926528 -172.492682 
L 198.288918 -171.975851 
L 198.651307 -171.447252 
L 199.013697 -170.907033 
L 199.376086 -170.355349 
L 199.738476 -169.792356 
L 200.100865 -169.218214 
L 200.463254 -168.633083 
L 200.825644 -168.03713 
L 201.188033 -167.43052 
L 201.550423 -166.813423 
L 201.912812 -166.186011 
L 202.275202 -165.548458 
L 202.637591 -164.90094 
L 202.999981 -164.243635 
L 203.36237 -163.576725 
L 203.724759 -162.900391 
L 204.087149 -162.214817 
L 204.449538 -161.520191 
L 204.811928 -160.816698 
L 205.174317 -160.10453 
L 205.536707 -159.383876 
L 205.899096 -158.654929 
L 206.261485 -157.917882 
L 206.623875 -157.172932 
L 206.986264 -156.420273 
L 207.348654 -155.660104 
L 207.711043 -154.892623 
L 208.073433 -154.118028 
L 208.435822 -153.336521 
L 208.798211 -152.548301 
L 209.160601 -151.753571 
L 209.52299 -150.952533 
L 209.88538 -150.14539 
L 210.247769 -149.332344 
L 210.610159 -148.513599 
L 210.972548 -147.689359 
L 211.334937 -146.859828 
L 211.697327 -146.02521 
L 212.059716 -145.185709 
L 212.422106 -144.341529 
L 212.784495 -143.492873 
L 213.146885 -142.639946 
L 213.509274 -141.782951 
L 213.871663 -140.92209 
L 214.234053 -140.057567 
L 214.596442 -139.189582 
L 214.958832 -138.318338 
L 215.321221 -137.444035 
L 215.683611 -136.566872 
L 216.046 -135.68705 
L 216.40839 -134.804765 
L 216.770779 -133.920215 
L 217.133168 -133.033597 
L 217.495558 -132.145104 
L 217.857947 -131.254932 
L 218.220337 -130.363272 
L 218.582726 -129.470315 
L 218.945116 -128.576252 
L 219.307505 -127.681271 
L 219.669894 -126.785558 
L 220.032284 -125.889299 
L 220.394673 -124.992678 
L 220.757063 -124.095877 
L 221.119452 -123.199075 
L 221.481842 -122.302452 
L 221.844231 -121.406183 
L 222.20662 -120.510444 
L 222.56901 -119.615408 
L 222.931399 -118.721245 
L 223.293789 -117.828123 
L 223.656178 -116.93621 
L 224.018568 -116.045671 
L 224.380957 -115.156666 
L 224.743346 -114.269357 
L 225.105736 -113.383901 
L 225.468125 -112.500454 
L 225.830515 -111.619169 
L 226.192904 -110.740197 
L 226.555294 -109.863686 
L 226.917683 -108.989783 
L 227.280072 -108.118631 
L 227.642462 -107.25037 
L 228.004851 -106.385141 
L 228.367241 -105.523077 
L 228.72963 -104.664314 
L 229.09202 -103.808982 
L 229.454409 -102.957209 
L 229.816799 -102.10912 
L 230.179188 -101.264839 
L 230.541577 -100.424487 
L 230.903967 -99.588179 
L 231.266356 -98.756033 
L 231.628746 -97.928159 
L 231.991135 -97.104668 
L 232.353525 -96.285665 
L 232.715914 -95.471256 
L 233.078303 -94.661542 
L 233.440693 -93.856621 
L 233.803082 -93.056588 
L 234.165472 -92.261538 
L 234.527861 -91.47156 
L 234.890251 -90.686743 
L 235.25264 -89.907171 
L 235.615029 -89.132926 
L 235.977419 -88.364087 
L 236.339808 -87.600732 
L 236.702198 -86.842934 
L 237.064587 -86.090765 
L 237.426977 -85.344294 
L 237.789366 -84.603585 
L 238.151755 -83.868703 
L 238.514145 -83.139708 
L 238.876534 -82.416658 
L 239.238924 -81.699608 
L 239.601313 -80.988611 
L 239.963703 -80.283718 
L 240.326092 -79.584974 
L 240.688481 -78.892427 
L 241.050871 -78.206117 
L 241.41326 -77.526086 
L 241.77565 -76.85237 
L 242.138039 -76.185005 
L 242.500429 -75.524022 
L 242.862818 -74.869453 
L 243.225207 -74.221324 
L 243.587597 -73.579662 
L 243.949986 -72.94449 
L 244.312376 -72.315827 
L 244.674765 -71.693693 
L 245.037155 -71.078104 
L 245.399544 -70.469074 
L 245.761934 -69.866614 
L 246.124323 -69.270735 
L 246.486712 -68.681444 
L 246.849102 -68.098747 
L 247.211491 -67.522646 
L 247.573881 -66.953144 
L 247.93627 -66.390239 
L 248.29866 -65.83393 
L 248.661049 -65.284211 
L 249.023438 -64.741077 
L 249.385828 -64.204519 
L 249.748217 -63.674527 
L 250.110607 -63.15109 
L 250.472996 -62.634193 
L 250.835386 -62.123823 
L 251.197775 -61.619961 
L 251.560164 -61.12259 
L 251.922554 -60.631689 
L 252.284943 -60.147237 
L 252.647333 -59.669211 
L 253.009722 -59.197585 
L 253.372112 -58.732334 
L 253.734501 -58.273431 
L 254.09689 -57.820846 
L 254.45928 -57.374549 
L 254.821669 -56.934509 
L 255.184059 -56.500692 
L 255.546448 -56.073066 
L 255.908838 -55.651595 
L 256.271227 -55.236243 
L 256.633616 -54.826971 
L 256.633616 -34.412727 
L 256.633616 -34.412727 
L 256.271227 -34.412727 
L 255.908838 -34.412727 
L 255.546448 -34.412727 
L 255.184059 -34.412727 
L 254.821669 -34.412727 
L 254.45928 -34.412727 
L 254.09689 -34.412727 
L 253.734501 -34.412727 
L 253.372112 -34.412727 
L 253.009722 -34.412727 
L 252.647333 -34.412727 
L 252.284943 -34.412727 
L 251.922554 -34.412727 
L 251.560164 -34.412727 
L 251.197775 -34.412727 
L 250.835386 -34.412727 
L 250.472996 -34.412727 
L 250.110607 -34.412727 
L 249.748217 -34.412727 
L 249.385828 -34.412727 
L 249.023438 -34.412727 
L 248.661049 -34.412727 
L 248.29866 -34.412727 
L 247.93627 -34.412727 
L 247.573881 -34.412727 
L 247.211491 -34.412727 
L 246.849102 -34.412727 
L 246.486712 -34.412727 
L 246.124323 -34.412727 
L 245.761934 -34.412727 
L 245.399544 -34.412727 
L 245.037155 -34.412727 
L 244.674765 -34.412727 
L 244.312376 -34.412727 
L 243.949986 -34.412727 
L 243.587597 -34.412727 
L 243.225207 -34.412727 
L 242.862818 -34.412727 
L 242.500429 -34.412727 
L 242.138039 -34.412727 
L 241.77565 -34.412727 
L 241.41326 -34.412727 
L 241.050871 -34.412727 
L 240.688481 -34.412727 
L 240.326092 -34.412727 
L 239.963703 -34.412727 
L 239.601313 -34.412727 
L 239.238924 -34.412727 
L 238.876534 -34.412727 
L 238.514145 -34.412727 
L 238.151755 -34.412727 
L 237.789366 -34.412727 
L 237.426977 -34.412727 
L 237.064587 -34.412727 
L 236.702198 -34.412727 
L 236.339808 -34.412727 
L 235.977419 -34.412727 
L 235.615029 -34.412727 
L 235.25264 -34.412727 
L 234.890251 -34.412727 
L 234.527861 -34.412727 
L 234.165472 -34.412727 
L 233.803082 -34.412727 
L 233.440693 -34.412727 
L 233.078303 -34.412727 
L 232.715914 -34.412727 
L 232.353525 -34.412727 
L 231.991135 -34.412727 
L 231.628746 -34.412727 
L 231.266356 -34.412727 
L 230.903967 -34.412727 
L 230.541577 -34.412727 
L 230.179188 -34.412727 
L 229.816799 -34.412727 
L 229.454409 -34.412727 
L 229.09202 -34.412727 
L 228.72963 -34.412727 
L 228.367241 -34.412727 
L 228.004851 -34.412727 
L 227.642462 -34.412727 
L 227.280072 -34.412727 
L 226.917683 -34.412727 
L 226.555294 -34.412727 
L 226.192904 -34.412727 
L 225.830515 -34.412727 
L 225.468125 -34.412727 
L 225.105736 -34.412727 
L 224.743346 -34.412727 
L 224.380957 -34.412727 
L 224.018568 -34.412727 
L 223.656178 -34.412727 
L 223.293789 -34.412727 
L 222.931399 -34.412727 
L 222.56901 -34.412727 
L 222.20662 -34.412727 
L 221.844231 -34.412727 
L 221.481842 -34.412727 
L 221.119452 -34.412727 
L 220.757063 -34.412727 
L 220.394673 -34.412727 
L 220.032284 -34.412727 
L 219.669894 -34.412727 
L 219.307505 -34.412727 
L 218.945116 -34.412727 
L 218.582726 -34.412727 
L 218.220337 -34.412727 
L 217.857947 -34.412727 
L 217.495558 -34.412727 
L 217.133168 -34.412727 
L 216.770779 -34.412727 
L 216.40839 -34.412727 
L 216.046 -34.412727 
L 215.683611 -34.412727 
L 215.321221 -34.412727 
L 214.958832 -34.412727 
L 214.596442 -34.412727 
L 214.234053 -34.412727 
L 213.871663 -34.412727 
L 213.509274 -34.412727 
L 213.146885 -34.412727 
L 212.784495 -34.412727 
L 212.422106 -34.412727 
L 212.059716 -34.412727 
L 211.697327 -34.412727 
L 211.334937 -34.412727 
L 210.972548 -34.412727 
L 210.610159 -34.412727 
L 210.247769 -34.412727 
L 209.88538 -34.412727 
L 209.52299 -34.412727 
L 209.160601 -34.412727 
L 208.798211 -34.412727 
L 208.435822 -34.412727 
L 208.073433 -34.412727 
L 207.711043 -34.412727 
L 207.348654 -34.412727 
L 206.986264 -34.412727 
L 206.623875 -34.412727 
L 206.261485 -34.412727 
L 205.899096 -34.412727 
L 205.536707 -34.412727 
L 205.174317 -34.412727 
L 204.811928 -34.412727 
L 204.449538 -34.412727 
L 204.087149 -34.412727 
L 203.724759 -34.412727 
L 203.36237 -34.412727 
L 202.999981 -34.412727 
L 202.637591 -34.412727 
L 202.275202 -34.412727 
L 201.912812 -34.412727 
L 201.550423 -34.412727 
L 201.188033 -34.412727 
L 200.825644 -34.412727 
L 200.463254 -34.412727 
L 200.100865 -34.412727 
L 199.738476 -34.412727 
L 199.376086 -34.412727 
L 199.013697 -34.412727 
L 198.651307 -34.412727 
L 198.288918 -34.412727 
L 197.926528 -34.412727 
L 197.564139 -34.412727 
L 197.20175 -34.412727 
L 196.83936 -34.412727 
L 196.476971 -34.412727 
L 196.114581 -34.412727 
L 195.752192 -34.412727 
L 195.389802 -34.412727 
L 195.027413 -34.412727 
L 194.665024 -34.412727 
L 194.302634 -34.412727 
L 193.940245 -34.412727 
L 193.577855 -34.412727 
L 193.215466 -34.412727 
L 192.853076 -34.412727 
L 192.490687 -34.412727 
L 192.128298 -34.412727 
L 191.765908 -34.412727 
L 191.403519 -34.412727 
L 191.041129 -34.412727 
L 190.67874 -34.412727 
L 190.31635 -34.412727 
L 189.953961 -34.412727 
L 189.591572 -34.412727 
L 189.229182 -34.412727 
L 188.866793 -34.412727 
L 188.504403 -34.412727 
L 188.142014 -34.412727 
L 187.779624 -34.412727 
L 187.417235 -34.412727 
L 187.054845 -34.412727 
L 186.692456 -34.412727 
L 186.330067 -34.412727 
L 185.967677 -34.412727 
L 185.605288 -34.412727 
L 185.242898 -34.412727 
L 184.880509 -34.412727 
L 184.518119 -34.412727 
L 184.15573 -34.412727 
L 183.793341 -34.412727 
L 183.430951 -34.412727 
L 183.068562 -34.412727 
L 182.706172 -34.412727 
L 182.343783 -34.412727 
L 181.981393 -34.412727 
L 181.619004 -34.412727 
L 181.256615 -34.412727 
L 180.894225 -34.412727 
L 180.531836 -34.412727 
L 180.169446 -34.412727 
L 179.807057 -34.412727 
L 179.444667 -34.412727 
L 179.082278 -34.412727 
L 178.719889 -34.412727 
L 178.357499 -34.412727 
L 177.99511 -34.412727 
L 177.63272 -34.412727 
L 177.270331 -34.412727 
L 176.907941 -34.412727 
L 176.545552 -34.412727 
L 176.183163 -34.412727 
L 175.820773 -34.412727 
L 175.458384 -34.412727 
L 175.095994 -34.412727 
L 174.733605 -34.412727 
L 174.371215 -34.412727 
L 174.008826 -34.412727 
L 173.646437 -34.412727 
L 173.284047 -34.412727 
L 172.921658 -34.412727 
L 172.559268 -34.412727 
L 172.196879 -34.412727 
L 171.834489 -34.412727 
L 171.4721 -34.412727 
L 171.10971 -34.412727 
L 170.747321 -34.412727 
L 170.384932 -34.412727 
L 170.022542 -34.412727 
L 169.660153 -34.412727 
L 169.297763 -34.412727 
L 168.935374 -34.412727 
L 168.572984 -34.412727 
L 168.210595 -34.412727 
L 167.848206 -34.412727 
L 167.485816 -34.412727 
L 167.123427 -34.412727 
L 166.761037 -34.412727 
L 166.398648 -34.412727 
L 166.036258 -34.412727 
L 165.673869 -34.412727 
L 165.31148 -34.412727 
L 164.94909 -34.412727 
L 164.586701 -34.412727 
L 164.224311 -34.412727 
L 163.861922 -34.412727 
L 163.499532 -34.412727 
L 163.137143 -34.412727 
L 162.774754 -34.412727 
L 162.412364 -34.412727 
L 162.049975 -34.412727 
L 161.687585 -34.412727 
L 161.325196 -34.412727 
L 160.962806 -34.412727 
L 160.600417 -34.412727 
L 160.238028 -34.412727 
L 159.875638 -34.412727 
L 159.513249 -34.412727 
L 159.150859 -34.412727 
L 158.78847 -34.412727 
L 158.42608 -34.412727 
L 158.063691 -34.412727 
L 157.701301 -34.412727 
L 157.338912 -34.412727 
L 156.976523 -34.412727 
L 156.614133 -34.412727 
L 156.251744 -34.412727 
L 155.889354 -34.412727 
L 155.526965 -34.412727 
L 155.164575 -34.412727 
L 154.802186 -34.412727 
L 154.439797 -34.412727 
L 154.077407 -34.412727 
L 153.715018 -34.412727 
L 153.352628 -34.412727 
L 152.990239 -34.412727 
L 152.627849 -34.412727 
L 152.26546 -34.412727 
L 151.903071 -34.412727 
L 151.540681 -34.412727 
L 151.178292 -34.412727 
L 150.815902 -34.412727 
L 150.453513 -34.412727 
L 150.091123 -34.412727 
L 149.728734 -34.412727 
L 149.366345 -34.412727 
L 149.003955 -34.412727 
L 148.641566 -34.412727 
L 148.279176 -34.412727 
L 147.916787 -34.412727 
L 147.554397 -34.412727 
L 147.192008 -34.412727 
L 146.829619 -34.412727 
L 146.467229 -34.412727 
L 146.10484 -34.412727 
L 145.74245 -34.412727 
L 145.380061 -34.412727 
L 145.017671 -34.412727 
L 144.655282 -34.412727 
L 144.292892 -34.412727 
L 143.930503 -34.412727 
L 143.568114 -34.412727 
L 143.205724 -34.412727 
L 142.843335 -34.412727 
L 142.480945 -34.412727 
L 142.118556 -34.412727 
L 141.756166 -34.412727 
L 141.393777 -34.412727 
L 141.031388 -34.412727 
L 140.668998 -34.412727 
L 140.306609 -34.412727 
L 139.944219 -34.412727 
L 139.58183 -34.412727 
L 139.21944 -34.412727 
L 138.857051 -34.412727 
L 138.494662 -34.412727 
L 138.132272 -34.412727 
L 137.769883 -34.412727 
L 137.407493 -34.412727 
L 137.045104 -34.412727 
L 136.682714 -34.412727 
L 136.320325 -34.412727 
L 135.957936 -34.412727 
L 135.595546 -34.412727 
L 135.233157 -34.412727 
L 134.870767 -34.412727 
L 134.508378 -34.412727 
L 134.145988 -34.412727 
L 133.783599 -34.412727 
L 133.42121 -34.412727 
L 133.05882 -34.412727 
L 132.696431 -34.412727 
L 132.334041 -34.412727 
L 131.971652 -34.412727 
L 131.609262 -34.412727 
L 131.246873 -34.412727 
L 130.884483 -34.412727 
L 130.522094 -34.412727 
L 130.159705 -34.412727 
L 129.797315 -34.412727 
L 129.434926 -34.412727 
L 129.072536 -34.412727 
L 128.710147 -34.412727 
L 128.347757 -34.412727 
L 127.985368 -34.412727 
L 127.622979 -34.412727 
L 127.260589 -34.412727 
L 126.8982 -34.412727 
L 126.53581 -34.412727 
L 126.173421 -34.412727 
L 125.811031 -34.412727 
L 125.448642 -34.412727 
L 125.086253 -34.412727 
L 124.723863 -34.412727 
L 124.361474 -34.412727 
L 123.999084 -34.412727 
L 123.636695 -34.412727 
L 123.274305 -34.412727 
L 122.911916 -34.412727 
L 122.549527 -34.412727 
L 122.187137 -34.412727 
L 121.824748 -34.412727 
L 121.462358 -34.412727 
L 121.099969 -34.412727 
L 120.737579 -34.412727 
L 120.37519 -34.412727 
L 120.012801 -34.412727 
L 119.650411 -34.412727 
L 119.288022 -34.412727 
L 118.925632 -34.412727 
L 118.563243 -34.412727 
L 118.200853 -34.412727 
L 117.838464 -34.412727 
L 117.476075 -34.412727 
L 117.113685 -34.412727 
L 116.751296 -34.412727 
L 116.388906 -34.412727 
L 116.026517 -34.412727 
L 115.664127 -34.412727 
L 115.301738 -34.412727 
L 114.939348 -34.412727 
L 114.576959 -34.412727 
L 114.21457 -34.412727 
L 113.85218 -34.412727 
L 113.489791 -34.412727 
L 113.127401 -34.412727 
L 112.765012 -34.412727 
L 112.402622 -34.412727 
L 112.040233 -34.412727 
z
" style="stroke: #6495ed; stroke-opacity: 0.3"/>
    </defs>
    <g clip-path="url(#pacb101c2ea)">
     <use xlink:href="#mb60ae2a181" x="0" y="216" style="fill: #6495ed; fill-opacity: 0.3; stroke: #6495ed; stroke-opacity: 0.3"/>
    </g>
   </g>
   <g id="PolyCollection_3">
    <defs>
     <path id="mffa2a6d744" d="M 75.80129 -34.412727 
L 75.80129 -36.055331 
L 76.163679 -36.105272 
L 76.526069 -36.156556 
L 76.888458 -36.209214 
L 77.250848 -36.263277 
L 77.613237 -36.318777 
L 77.975626 -36.375745 
L 78.338016 -36.434213 
L 78.700405 -36.494215 
L 79.062795 -36.555783 
L 79.425184 -36.618952 
L 79.787574 -36.683756 
L 80.149963 -36.750229 
L 80.512352 -36.818408 
L 80.874742 -36.888328 
L 81.237131 -36.960025 
L 81.599521 -37.033536 
L 81.96191 -37.108899 
L 82.3243 -37.186152 
L 82.686689 -37.265333 
L 83.049078 -37.346481 
L 83.411468 -37.429637 
L 83.773857 -37.514838 
L 84.136247 -37.602128 
L 84.498636 -37.691545 
L 84.861026 -37.783132 
L 85.223415 -37.876931 
L 85.585804 -37.972985 
L 85.948194 -38.071336 
L 86.310583 -38.172028 
L 86.672973 -38.275105 
L 87.035362 -38.380611 
L 87.397752 -38.488592 
L 87.760141 -38.599093 
L 88.12253 -38.712159 
L 88.48492 -38.827838 
L 88.847309 -38.946176 
L 89.209699 -39.06722 
L 89.572088 -39.191018 
L 89.934478 -39.317618 
L 90.296867 -39.44707 
L 90.659257 -39.579421 
L 91.021646 -39.714721 
L 91.384035 -39.85302 
L 91.746425 -39.994369 
L 92.108814 -40.138817 
L 92.471204 -40.286416 
L 92.833593 -40.437218 
L 93.195983 -40.591273 
L 93.558372 -40.748634 
L 93.920761 -40.909353 
L 94.283151 -41.073483 
L 94.64554 -41.241076 
L 95.00793 -41.412187 
L 95.370319 -41.586867 
L 95.732709 -41.765172 
L 96.095098 -41.947155 
L 96.457487 -42.13287 
L 96.819877 -42.322372 
L 97.182266 -42.515715 
L 97.544656 -42.712955 
L 97.907045 -42.914145 
L 98.269435 -43.119341 
L 98.631824 -43.328598 
L 98.994213 -43.541971 
L 99.356603 -43.759517 
L 99.718992 -43.981289 
L 100.081382 -44.207344 
L 100.443771 -44.437737 
L 100.806161 -44.672523 
L 101.16855 -44.911758 
L 101.530939 -45.155496 
L 101.893329 -45.403795 
L 102.255718 -45.656708 
L 102.618108 -45.91429 
L 102.980497 -46.176596 
L 103.342887 -46.443682 
L 103.705276 -46.715601 
L 104.067666 -46.992408 
L 104.430055 -47.274157 
L 104.792444 -47.560901 
L 105.154834 -47.852695 
L 105.517223 -48.14959 
L 105.879613 -48.451639 
L 106.242002 -48.758896 
L 106.604392 -49.071411 
L 106.966781 -49.389236 
L 107.32917 -49.712422 
L 107.69156 -50.04102 
L 108.053949 -50.375078 
L 108.416339 -50.714647 
L 108.778728 -51.059775 
L 109.141118 -51.41051 
L 109.503507 -51.766899 
L 109.865896 -52.128988 
L 110.228286 -52.496824 
L 110.590675 -52.870451 
L 110.953065 -53.249913 
L 111.315454 -53.635255 
L 111.677844 -54.026517 
L 112.040233 -54.423743 
L 112.402622 -54.826971 
L 112.765012 -55.236243 
L 113.127401 -55.651595 
L 113.489791 -56.073066 
L 113.85218 -56.500692 
L 114.21457 -56.934509 
L 114.576959 -57.374549 
L 114.939348 -57.820846 
L 115.301738 -58.273431 
L 115.664127 -58.732334 
L 116.026517 -59.197585 
L 116.388906 -59.669211 
L 116.751296 -60.147237 
L 117.113685 -60.631689 
L 117.476075 -61.12259 
L 117.838464 -61.619961 
L 118.200853 -62.123823 
L 118.563243 -62.634193 
L 118.925632 -63.15109 
L 119.288022 -63.674527 
L 119.650411 -64.204519 
L 120.012801 -64.741077 
L 120.37519 -65.284211 
L 120.737579 -65.83393 
L 121.099969 -66.390239 
L 121.462358 -66.953144 
L 121.824748 -67.522646 
L 122.187137 -68.098747 
L 122.549527 -68.681444 
L 122.911916 -69.270735 
L 123.274305 -69.866614 
L 123.636695 -70.469074 
L 123.999084 -71.078104 
L 124.361474 -71.693693 
L 124.723863 -72.315827 
L 125.086253 -72.94449 
L 125.448642 -73.579662 
L 125.811031 -74.221324 
L 126.173421 -74.869453 
L 126.53581 -75.524022 
L 126.8982 -76.185005 
L 127.260589 -76.85237 
L 127.622979 -77.526086 
L 127.985368 -78.206117 
L 128.347757 -78.892427 
L 128.710147 -79.584974 
L 129.072536 -80.283718 
L 129.434926 -80.988611 
L 129.797315 -81.699608 
L 130.159705 -82.416658 
L 130.522094 -83.139708 
L 130.884483 -83.868703 
L 131.246873 -84.603585 
L 131.609262 -85.344294 
L 131.971652 -86.090765 
L 132.334041 -86.842934 
L 132.696431 -87.600732 
L 133.05882 -88.364087 
L 133.42121 -89.132926 
L 133.783599 -89.907171 
L 134.145988 -90.686743 
L 134.508378 -91.47156 
L 134.870767 -92.261538 
L 135.233157 -93.056588 
L 135.595546 -93.856621 
L 135.957936 -94.661542 
L 136.320325 -95.471256 
L 136.682714 -96.285665 
L 137.045104 -97.104668 
L 137.407493 -97.928159 
L 137.769883 -98.756033 
L 138.132272 -99.588179 
L 138.494662 -100.424487 
L 138.857051 -101.264839 
L 139.21944 -102.10912 
L 139.58183 -102.957209 
L 139.944219 -103.808982 
L 140.306609 -104.664314 
L 140.668998 -105.523077 
L 141.031388 -106.385141 
L 141.393777 -107.25037 
L 141.756166 -108.118631 
L 142.118556 -108.989783 
L 142.480945 -109.863686 
L 142.843335 -110.740197 
L 143.205724 -111.619169 
L 143.568114 -112.500454 
L 143.930503 -113.383901 
L 144.292892 -114.269357 
L 144.655282 -115.156666 
L 145.017671 -116.045671 
L 145.380061 -116.93621 
L 145.74245 -117.828123 
L 146.10484 -118.721245 
L 146.467229 -119.615408 
L 146.829619 -120.510444 
L 147.192008 -121.406183 
L 147.554397 -122.302452 
L 147.916787 -123.199075 
L 148.279176 -124.095877 
L 148.641566 -124.992678 
L 149.003955 -125.889299 
L 149.366345 -126.785558 
L 149.728734 -127.681271 
L 150.091123 -128.576252 
L 150.453513 -129.470315 
L 150.815902 -130.363272 
L 151.178292 -131.254932 
L 151.540681 -132.145104 
L 151.903071 -133.033597 
L 152.26546 -133.920215 
L 152.627849 -134.804765 
L 152.990239 -135.68705 
L 153.352628 -136.566872 
L 153.715018 -137.444035 
L 154.077407 -138.318338 
L 154.439797 -139.189582 
L 154.802186 -140.057567 
L 155.164575 -140.92209 
L 155.526965 -141.782951 
L 155.889354 -142.639946 
L 156.251744 -143.492873 
L 156.614133 -144.341529 
L 156.976523 -145.185709 
L 157.338912 -146.02521 
L 157.701301 -146.859828 
L 158.063691 -147.689359 
L 158.42608 -148.513599 
L 158.78847 -149.332344 
L 159.150859 -150.14539 
L 159.513249 -150.952533 
L 159.875638 -151.753571 
L 160.238028 -152.548301 
L 160.600417 -153.336521 
L 160.962806 -154.118028 
L 161.325196 -154.892623 
L 161.687585 -155.660104 
L 162.049975 -156.420273 
L 162.412364 -157.172932 
L 162.774754 -157.917882 
L 163.137143 -158.654929 
L 163.499532 -159.383876 
L 163.861922 -160.10453 
L 164.224311 -160.816698 
L 164.586701 -161.520191 
L 164.94909 -162.214817 
L 165.31148 -162.900391 
L 165.673869 -163.576725 
L 166.036258 -164.243635 
L 166.398648 -164.90094 
L 166.761037 -165.548458 
L 167.123427 -166.186011 
L 167.485816 -166.813423 
L 167.848206 -167.43052 
L 168.210595 -168.03713 
L 168.572984 -168.633083 
L 168.935374 -169.218214 
L 169.297763 -169.792356 
L 169.660153 -170.355349 
L 170.022542 -170.907033 
L 170.384932 -171.447252 
L 170.747321 -171.975851 
L 171.10971 -172.492682 
L 171.4721 -172.997594 
L 171.834489 -173.490445 
L 172.196879 -173.971092 
L 172.559268 -174.439396 
L 172.921658 -174.895223 
L 173.284047 -175.338441 
L 173.646437 -175.76892 
L 174.008826 -176.186537 
L 174.371215 -176.591168 
L 174.733605 -176.982697 
L 175.095994 -177.361009 
L 175.458384 -177.725992 
L 175.820773 -178.07754 
L 176.183163 -178.415549 
L 176.545552 -178.73992 
L 176.907941 -179.050558 
L 177.270331 -179.347369 
L 177.63272 -179.630268 
L 177.99511 -179.899169 
L 178.357499 -180.153993 
L 178.719889 -180.394665 
L 179.082278 -180.621112 
L 179.444667 -180.833268 
L 179.807057 -181.031069 
L 180.169446 -181.214457 
L 180.531836 -181.383376 
L 180.894225 -181.537776 
L 181.256615 -181.677611 
L 181.619004 -181.80284 
L 181.981393 -181.913424 
L 182.343783 -182.00933 
L 182.706172 -182.090531 
L 183.068562 -182.157001 
L 183.430951 -182.20872 
L 183.793341 -182.245674 
L 184.15573 -182.26785 
L 184.518119 -182.275243 
L 184.880509 -182.26785 
L 185.242898 -182.245674 
L 185.605288 -182.20872 
L 185.967677 -182.157001 
L 186.330067 -182.090531 
L 186.692456 -182.00933 
L 187.054845 -181.913424 
L 187.417235 -181.80284 
L 187.779624 -181.677611 
L 188.142014 -181.537776 
L 188.504403 -181.383376 
L 188.866793 -181.214457 
L 189.229182 -181.031069 
L 189.591572 -180.833268 
L 189.953961 -180.621112 
L 190.31635 -180.394665 
L 190.67874 -180.153993 
L 191.041129 -179.899169 
L 191.403519 -179.630268 
L 191.765908 -179.347369 
L 192.128298 -179.050558 
L 192.490687 -178.73992 
L 192.853076 -178.415549 
L 193.215466 -178.07754 
L 193.577855 -177.725992 
L 193.940245 -177.361009 
L 194.302634 -176.982697 
L 194.665024 -176.591168 
L 195.027413 -176.186537 
L 195.389802 -175.76892 
L 195.752192 -175.338441 
L 196.114581 -174.895223 
L 196.476971 -174.439396 
L 196.83936 -173.971092 
L 197.20175 -173.490445 
L 197.564139 -172.997594 
L 197.926528 -172.492682 
L 198.288918 -171.975851 
L 198.651307 -171.447252 
L 199.013697 -170.907033 
L 199.376086 -170.355349 
L 199.738476 -169.792356 
L 200.100865 -169.218214 
L 200.463254 -168.633083 
L 200.825644 -168.03713 
L 201.188033 -167.43052 
L 201.550423 -166.813423 
L 201.912812 -166.186011 
L 202.275202 -165.548458 
L 202.637591 -164.90094 
L 202.999981 -164.243635 
L 203.36237 -163.576725 
L 203.724759 -162.900391 
L 204.087149 -162.214817 
L 204.449538 -161.520191 
L 204.811928 -160.816698 
L 205.174317 -160.10453 
L 205.536707 -159.383876 
L 205.899096 -158.654929 
L 206.261485 -157.917882 
L 206.623875 -157.172932 
L 206.986264 -156.420273 
L 207.348654 -155.660104 
L 207.711043 -154.892623 
L 208.073433 -154.118028 
L 208.435822 -153.336521 
L 208.798211 -152.548301 
L 209.160601 -151.753571 
L 209.52299 -150.952533 
L 209.88538 -150.14539 
L 210.247769 -149.332344 
L 210.610159 -148.513599 
L 210.972548 -147.689359 
L 211.334937 -146.859828 
L 211.697327 -146.02521 
L 212.059716 -145.185709 
L 212.422106 -144.341529 
L 212.784495 -143.492873 
L 213.146885 -142.639946 
L 213.509274 -141.782951 
L 213.871663 -140.92209 
L 214.234053 -140.057567 
L 214.596442 -139.189582 
L 214.958832 -138.318338 
L 215.321221 -137.444035 
L 215.683611 -136.566872 
L 216.046 -135.68705 
L 216.40839 -134.804765 
L 216.770779 -133.920215 
L 217.133168 -133.033597 
L 217.495558 -132.145104 
L 217.857947 -131.254932 
L 218.220337 -130.363272 
L 218.582726 -129.470315 
L 218.945116 -128.576252 
L 219.307505 -127.681271 
L 219.669894 -126.785558 
L 220.032284 -125.889299 
L 220.394673 -124.992678 
L 220.757063 -124.095877 
L 221.119452 -123.199075 
L 221.481842 -122.302452 
L 221.844231 -121.406183 
L 222.20662 -120.510444 
L 222.56901 -119.615408 
L 222.931399 -118.721245 
L 223.293789 -117.828123 
L 223.656178 -116.93621 
L 224.018568 -116.045671 
L 224.380957 -115.156666 
L 224.743346 -114.269357 
L 225.105736 -113.383901 
L 225.468125 -112.500454 
L 225.830515 -111.619169 
L 226.192904 -110.740197 
L 226.555294 -109.863686 
L 226.917683 -108.989783 
L 227.280072 -108.118631 
L 227.642462 -107.25037 
L 228.004851 -106.385141 
L 228.367241 -105.523077 
L 228.72963 -104.664314 
L 229.09202 -103.808982 
L 229.454409 -102.957209 
L 229.816799 -102.10912 
L 230.179188 -101.264839 
L 230.541577 -100.424487 
L 230.903967 -99.588179 
L 231.266356 -98.756033 
L 231.628746 -97.928159 
L 231.991135 -97.104668 
L 232.353525 -96.285665 
L 232.715914 -95.471256 
L 233.078303 -94.661542 
L 233.440693 -93.856621 
L 233.803082 -93.056588 
L 234.165472 -92.261538 
L 234.527861 -91.47156 
L 234.890251 -90.686743 
L 235.25264 -89.907171 
L 235.615029 -89.132926 
L 235.977419 -88.364087 
L 236.339808 -87.600732 
L 236.702198 -86.842934 
L 237.064587 -86.090765 
L 237.426977 -85.344294 
L 237.789366 -84.603585 
L 238.151755 -83.868703 
L 238.514145 -83.139708 
L 238.876534 -82.416658 
L 239.238924 -81.699608 
L 239.601313 -80.988611 
L 239.963703 -80.283718 
L 240.326092 -79.584974 
L 240.688481 -78.892427 
L 241.050871 -78.206117 
L 241.41326 -77.526086 
L 241.77565 -76.85237 
L 242.138039 -76.185005 
L 242.500429 -75.524022 
L 242.862818 -74.869453 
L 243.225207 -74.221324 
L 243.587597 -73.579662 
L 243.949986 -72.94449 
L 244.312376 -72.315827 
L 244.674765 -71.693693 
L 245.037155 -71.078104 
L 245.399544 -70.469074 
L 245.761934 -69.866614 
L 246.124323 -69.270735 
L 246.486712 -68.681444 
L 246.849102 -68.098747 
L 247.211491 -67.522646 
L 247.573881 -66.953144 
L 247.93627 -66.390239 
L 248.29866 -65.83393 
L 248.661049 -65.284211 
L 249.023438 -64.741077 
L 249.385828 -64.204519 
L 249.748217 -63.674527 
L 250.110607 -63.15109 
L 250.472996 -62.634193 
L 250.835386 -62.123823 
L 251.197775 -61.619961 
L 251.560164 -61.12259 
L 251.922554 -60.631689 
L 252.284943 -60.147237 
L 252.647333 -59.669211 
L 253.009722 -59.197585 
L 253.372112 -58.732334 
L 253.734501 -58.273431 
L 254.09689 -57.820846 
L 254.45928 -57.374549 
L 254.821669 -56.934509 
L 255.184059 -56.500692 
L 255.546448 -56.073066 
L 255.908838 -55.651595 
L 256.271227 -55.236243 
L 256.633616 -54.826971 
L 256.996006 -54.423743 
L 257.358395 -54.026517 
L 257.720785 -53.635255 
L 258.083174 -53.249913 
L 258.445564 -52.870451 
L 258.807953 -52.496824 
L 259.170343 -52.128988 
L 259.532732 -51.766899 
L 259.895121 -51.41051 
L 260.257511 -51.059775 
L 260.6199 -50.714647 
L 260.98229 -50.375078 
L 261.344679 -50.04102 
L 261.707069 -49.712422 
L 262.069458 -49.389236 
L 262.431847 -49.071411 
L 262.794237 -48.758896 
L 263.156626 -48.451639 
L 263.519016 -48.14959 
L 263.881405 -47.852695 
L 264.243795 -47.560901 
L 264.606184 -47.274157 
L 264.968573 -46.992408 
L 265.330963 -46.715601 
L 265.693352 -46.443682 
L 266.055742 -46.176596 
L 266.418131 -45.91429 
L 266.780521 -45.656708 
L 267.14291 -45.403795 
L 267.505299 -45.155496 
L 267.867689 -44.911758 
L 268.230078 -44.672523 
L 268.592468 -44.437737 
L 268.954857 -44.207344 
L 269.317247 -43.981289 
L 269.679636 -43.759517 
L 270.042025 -43.541971 
L 270.404415 -43.328598 
L 270.766804 -43.119341 
L 271.129194 -42.914145 
L 271.491583 -42.712955 
L 271.853973 -42.515715 
L 272.216362 -42.322372 
L 272.578752 -42.13287 
L 272.941141 -41.947155 
L 273.30353 -41.765172 
L 273.66592 -41.586867 
L 274.028309 -41.412187 
L 274.390699 -41.241076 
L 274.753088 -41.073483 
L 275.115478 -40.909353 
L 275.477867 -40.748634 
L 275.840256 -40.591273 
L 276.202646 -40.437218 
L 276.565035 -40.286416 
L 276.927425 -40.138817 
L 277.289814 -39.994369 
L 277.652204 -39.85302 
L 278.014593 -39.714721 
L 278.376982 -39.579421 
L 278.739372 -39.44707 
L 279.101761 -39.317618 
L 279.464151 -39.191018 
L 279.82654 -39.06722 
L 280.18893 -38.946176 
L 280.551319 -38.827838 
L 280.913708 -38.712159 
L 281.276098 -38.599093 
L 281.638487 -38.488592 
L 282.000877 -38.380611 
L 282.363266 -38.275105 
L 282.725656 -38.172028 
L 283.088045 -38.071336 
L 283.450434 -37.972985 
L 283.812824 -37.876931 
L 284.175213 -37.783132 
L 284.537603 -37.691545 
L 284.899992 -37.602128 
L 285.262382 -37.514838 
L 285.624771 -37.429637 
L 285.987161 -37.346481 
L 286.34955 -37.265333 
L 286.711939 -37.186152 
L 287.074329 -37.108899 
L 287.436718 -37.033536 
L 287.799108 -36.960025 
L 288.161497 -36.888328 
L 288.523887 -36.818408 
L 288.886276 -36.750229 
L 289.248665 -36.683756 
L 289.611055 -36.618952 
L 289.973444 -36.555783 
L 290.335834 -36.494215 
L 290.698223 -36.434213 
L 291.060613 -36.375745 
L 291.423002 -36.318777 
L 291.785391 -36.263277 
L 292.147781 -36.209214 
L 292.51017 -36.156556 
L 292.87256 -36.105272 
L 292.87256 -34.412727 
L 292.87256 -34.412727 
L 292.51017 -34.412727 
L 292.147781 -34.412727 
L 291.785391 -34.412727 
L 291.423002 -34.412727 
L 291.060613 -34.412727 
L 290.698223 -34.412727 
L 290.335834 -34.412727 
L 289.973444 -34.412727 
L 289.611055 -34.412727 
L 289.248665 -34.412727 
L 288.886276 -34.412727 
L 288.523887 -34.412727 
L 288.161497 -34.412727 
L 287.799108 -34.412727 
L 287.436718 -34.412727 
L 287.074329 -34.412727 
L 286.711939 -34.412727 
L 286.34955 -34.412727 
L 285.987161 -34.412727 
L 285.624771 -34.412727 
L 285.262382 -34.412727 
L 284.899992 -34.412727 
L 284.537603 -34.412727 
L 284.175213 -34.412727 
L 283.812824 -34.412727 
L 283.450434 -34.412727 
L 283.088045 -34.412727 
L 282.725656 -34.412727 
L 282.363266 -34.412727 
L 282.000877 -34.412727 
L 281.638487 -34.412727 
L 281.276098 -34.412727 
L 280.913708 -34.412727 
L 280.551319 -34.412727 
L 280.18893 -34.412727 
L 279.82654 -34.412727 
L 279.464151 -34.412727 
L 279.101761 -34.412727 
L 278.739372 -34.412727 
L 278.376982 -34.412727 
L 278.014593 -34.412727 
L 277.652204 -34.412727 
L 277.289814 -34.412727 
L 276.927425 -34.412727 
L 276.565035 -34.412727 
L 276.202646 -34.412727 
L 275.840256 -34.412727 
L 275.477867 -34.412727 
L 275.115478 -34.412727 
L 274.753088 -34.412727 
L 274.390699 -34.412727 
L 274.028309 -34.412727 
L 273.66592 -34.412727 
L 273.30353 -34.412727 
L 272.941141 -34.412727 
L 272.578752 -34.412727 
L 272.216362 -34.412727 
L 271.853973 -34.412727 
L 271.491583 -34.412727 
L 271.129194 -34.412727 
L 270.766804 -34.412727 
L 270.404415 -34.412727 
L 270.042025 -34.412727 
L 269.679636 -34.412727 
L 269.317247 -34.412727 
L 268.954857 -34.412727 
L 268.592468 -34.412727 
L 268.230078 -34.412727 
L 267.867689 -34.412727 
L 267.505299 -34.412727 
L 267.14291 -34.412727 
L 266.780521 -34.412727 
L 266.418131 -34.412727 
L 266.055742 -34.412727 
L 265.693352 -34.412727 
L 265.330963 -34.412727 
L 264.968573 -34.412727 
L 264.606184 -34.412727 
L 264.243795 -34.412727 
L 263.881405 -34.412727 
L 263.519016 -34.412727 
L 263.156626 -34.412727 
L 262.794237 -34.412727 
L 262.431847 -34.412727 
L 262.069458 -34.412727 
L 261.707069 -34.412727 
L 261.344679 -34.412727 
L 260.98229 -34.412727 
L 260.6199 -34.412727 
L 260.257511 -34.412727 
L 259.895121 -34.412727 
L 259.532732 -34.412727 
L 259.170343 -34.412727 
L 258.807953 -34.412727 
L 258.445564 -34.412727 
L 258.083174 -34.412727 
L 257.720785 -34.412727 
L 257.358395 -34.412727 
L 256.996006 -34.412727 
L 256.633616 -34.412727 
L 256.271227 -34.412727 
L 255.908838 -34.412727 
L 255.546448 -34.412727 
L 255.184059 -34.412727 
L 254.821669 -34.412727 
L 254.45928 -34.412727 
L 254.09689 -34.412727 
L 253.734501 -34.412727 
L 253.372112 -34.412727 
L 253.009722 -34.412727 
L 252.647333 -34.412727 
L 252.284943 -34.412727 
L 251.922554 -34.412727 
L 251.560164 -34.412727 
L 251.197775 -34.412727 
L 250.835386 -34.412727 
L 250.472996 -34.412727 
L 250.110607 -34.412727 
L 249.748217 -34.412727 
L 249.385828 -34.412727 
L 249.023438 -34.412727 
L 248.661049 -34.412727 
L 248.29866 -34.412727 
L 247.93627 -34.412727 
L 247.573881 -34.412727 
L 247.211491 -34.412727 
L 246.849102 -34.412727 
L 246.486712 -34.412727 
L 246.124323 -34.412727 
L 245.761934 -34.412727 
L 245.399544 -34.412727 
L 245.037155 -34.412727 
L 244.674765 -34.412727 
L 244.312376 -34.412727 
L 243.949986 -34.412727 
L 243.587597 -34.412727 
L 243.225207 -34.412727 
L 242.862818 -34.412727 
L 242.500429 -34.412727 
L 242.138039 -34.412727 
L 241.77565 -34.412727 
L 241.41326 -34.412727 
L 241.050871 -34.412727 
L 240.688481 -34.412727 
L 240.326092 -34.412727 
L 239.963703 -34.412727 
L 239.601313 -34.412727 
L 239.238924 -34.412727 
L 238.876534 -34.412727 
L 238.514145 -34.412727 
L 238.151755 -34.412727 
L 237.789366 -34.412727 
L 237.426977 -34.412727 
L 237.064587 -34.412727 
L 236.702198 -34.412727 
L 236.339808 -34.412727 
L 235.977419 -34.412727 
L 235.615029 -34.412727 
L 235.25264 -34.412727 
L 234.890251 -34.412727 
L 234.527861 -34.412727 
L 234.165472 -34.412727 
L 233.803082 -34.412727 
L 233.440693 -34.412727 
L 233.078303 -34.412727 
L 232.715914 -34.412727 
L 232.353525 -34.412727 
L 231.991135 -34.412727 
L 231.628746 -34.412727 
L 231.266356 -34.412727 
L 230.903967 -34.412727 
L 230.541577 -34.412727 
L 230.179188 -34.412727 
L 229.816799 -34.412727 
L 229.454409 -34.412727 
L 229.09202 -34.412727 
L 228.72963 -34.412727 
L 228.367241 -34.412727 
L 228.004851 -34.412727 
L 227.642462 -34.412727 
L 227.280072 -34.412727 
L 226.917683 -34.412727 
L 226.555294 -34.412727 
L 226.192904 -34.412727 
L 225.830515 -34.412727 
L 225.468125 -34.412727 
L 225.105736 -34.412727 
L 224.743346 -34.412727 
L 224.380957 -34.412727 
L 224.018568 -34.412727 
L 223.656178 -34.412727 
L 223.293789 -34.412727 
L 222.931399 -34.412727 
L 222.56901 -34.412727 
L 222.20662 -34.412727 
L 221.844231 -34.412727 
L 221.481842 -34.412727 
L 221.119452 -34.412727 
L 220.757063 -34.412727 
L 220.394673 -34.412727 
L 220.032284 -34.412727 
L 219.669894 -34.412727 
L 219.307505 -34.412727 
L 218.945116 -34.412727 
L 218.582726 -34.412727 
L 218.220337 -34.412727 
L 217.857947 -34.412727 
L 217.495558 -34.412727 
L 217.133168 -34.412727 
L 216.770779 -34.412727 
L 216.40839 -34.412727 
L 216.046 -34.412727 
L 215.683611 -34.412727 
L 215.321221 -34.412727 
L 214.958832 -34.412727 
L 214.596442 -34.412727 
L 214.234053 -34.412727 
L 213.871663 -34.412727 
L 213.509274 -34.412727 
L 213.146885 -34.412727 
L 212.784495 -34.412727 
L 212.422106 -34.412727 
L 212.059716 -34.412727 
L 211.697327 -34.412727 
L 211.334937 -34.412727 
L 210.972548 -34.412727 
L 210.610159 -34.412727 
L 210.247769 -34.412727 
L 209.88538 -34.412727 
L 209.52299 -34.412727 
L 209.160601 -34.412727 
L 208.798211 -34.412727 
L 208.435822 -34.412727 
L 208.073433 -34.412727 
L 207.711043 -34.412727 
L 207.348654 -34.412727 
L 206.986264 -34.412727 
L 206.623875 -34.412727 
L 206.261485 -34.412727 
L 205.899096 -34.412727 
L 205.536707 -34.412727 
L 205.174317 -34.412727 
L 204.811928 -34.412727 
L 204.449538 -34.412727 
L 204.087149 -34.412727 
L 203.724759 -34.412727 
L 203.36237 -34.412727 
L 202.999981 -34.412727 
L 202.637591 -34.412727 
L 202.275202 -34.412727 
L 201.912812 -34.412727 
L 201.550423 -34.412727 
L 201.188033 -34.412727 
L 200.825644 -34.412727 
L 200.463254 -34.412727 
L 200.100865 -34.412727 
L 199.738476 -34.412727 
L 199.376086 -34.412727 
L 199.013697 -34.412727 
L 198.651307 -34.412727 
L 198.288918 -34.412727 
L 197.926528 -34.412727 
L 197.564139 -34.412727 
L 197.20175 -34.412727 
L 196.83936 -34.412727 
L 196.476971 -34.412727 
L 196.114581 -34.412727 
L 195.752192 -34.412727 
L 195.389802 -34.412727 
L 195.027413 -34.412727 
L 194.665024 -34.412727 
L 194.302634 -34.412727 
L 193.940245 -34.412727 
L 193.577855 -34.412727 
L 193.215466 -34.412727 
L 192.853076 -34.412727 
L 192.490687 -34.412727 
L 192.128298 -34.412727 
L 191.765908 -34.412727 
L 191.403519 -34.412727 
L 191.041129 -34.412727 
L 190.67874 -34.412727 
L 190.31635 -34.412727 
L 189.953961 -34.412727 
L 189.591572 -34.412727 
L 189.229182 -34.412727 
L 188.866793 -34.412727 
L 188.504403 -34.412727 
L 188.142014 -34.412727 
L 187.779624 -34.412727 
L 187.417235 -34.412727 
L 187.054845 -34.412727 
L 186.692456 -34.412727 
L 186.330067 -34.412727 
L 185.967677 -34.412727 
L 185.605288 -34.412727 
L 185.242898 -34.412727 
L 184.880509 -34.412727 
L 184.518119 -34.412727 
L 184.15573 -34.412727 
L 183.793341 -34.412727 
L 183.430951 -34.412727 
L 183.068562 -34.412727 
L 182.706172 -34.412727 
L 182.343783 -34.412727 
L 181.981393 -34.412727 
L 181.619004 -34.412727 
L 181.256615 -34.412727 
L 180.894225 -34.412727 
L 180.531836 -34.412727 
L 180.169446 -34.412727 
L 179.807057 -34.412727 
L 179.444667 -34.412727 
L 179.082278 -34.412727 
L 178.719889 -34.412727 
L 178.357499 -34.412727 
L 177.99511 -34.412727 
L 177.63272 -34.412727 
L 177.270331 -34.412727 
L 176.907941 -34.412727 
L 176.545552 -34.412727 
L 176.183163 -34.412727 
L 175.820773 -34.412727 
L 175.458384 -34.412727 
L 175.095994 -34.412727 
L 174.733605 -34.412727 
L 174.371215 -34.412727 
L 174.008826 -34.412727 
L 173.646437 -34.412727 
L 173.284047 -34.412727 
L 172.921658 -34.412727 
L 172.559268 -34.412727 
L 172.196879 -34.412727 
L 171.834489 -34.412727 
L 171.4721 -34.412727 
L 171.10971 -34.412727 
L 170.747321 -34.412727 
L 170.384932 -34.412727 
L 170.022542 -34.412727 
L 169.660153 -34.412727 
L 169.297763 -34.412727 
L 168.935374 -34.412727 
L 168.572984 -34.412727 
L 168.210595 -34.412727 
L 167.848206 -34.412727 
L 167.485816 -34.412727 
L 167.123427 -34.412727 
L 166.761037 -34.412727 
L 166.398648 -34.412727 
L 166.036258 -34.412727 
L 165.673869 -34.412727 
L 165.31148 -34.412727 
L 164.94909 -34.412727 
L 164.586701 -34.412727 
L 164.224311 -34.412727 
L 163.861922 -34.412727 
L 163.499532 -34.412727 
L 163.137143 -34.412727 
L 162.774754 -34.412727 
L 162.412364 -34.412727 
L 162.049975 -34.412727 
L 161.687585 -34.412727 
L 161.325196 -34.412727 
L 160.962806 -34.412727 
L 160.600417 -34.412727 
L 160.238028 -34.412727 
L 159.875638 -34.412727 
L 159.513249 -34.412727 
L 159.150859 -34.412727 
L 158.78847 -34.412727 
L 158.42608 -34.412727 
L 158.063691 -34.412727 
L 157.701301 -34.412727 
L 157.338912 -34.412727 
L 156.976523 -34.412727 
L 156.614133 -34.412727 
L 156.251744 -34.412727 
L 155.889354 -34.412727 
L 155.526965 -34.412727 
L 155.164575 -34.412727 
L 154.802186 -34.412727 
L 154.439797 -34.412727 
L 154.077407 -34.412727 
L 153.715018 -34.412727 
L 153.352628 -34.412727 
L 152.990239 -34.412727 
L 152.627849 -34.412727 
L 152.26546 -34.412727 
L 151.903071 -34.412727 
L 151.540681 -34.412727 
L 151.178292 -34.412727 
L 150.815902 -34.412727 
L 150.453513 -34.412727 
L 150.091123 -34.412727 
L 149.728734 -34.412727 
L 149.366345 -34.412727 
L 149.003955 -34.412727 
L 148.641566 -34.412727 
L 148.279176 -34.412727 
L 147.916787 -34.412727 
L 147.554397 -34.412727 
L 147.192008 -34.412727 
L 146.829619 -34.412727 
L 146.467229 -34.412727 
L 146.10484 -34.412727 
L 145.74245 -34.412727 
L 145.380061 -34.412727 
L 145.017671 -34.412727 
L 144.655282 -34.412727 
L 144.292892 -34.412727 
L 143.930503 -34.412727 
L 143.568114 -34.412727 
L 143.205724 -34.412727 
L 142.843335 -34.412727 
L 142.480945 -34.412727 
L 142.118556 -34.412727 
L 141.756166 -34.412727 
L 141.393777 -34.412727 
L 141.031388 -34.412727 
L 140.668998 -34.412727 
L 140.306609 -34.412727 
L 139.944219 -34.412727 
L 139.58183 -34.412727 
L 139.21944 -34.412727 
L 138.857051 -34.412727 
L 138.494662 -34.412727 
L 138.132272 -34.412727 
L 137.769883 -34.412727 
L 137.407493 -34.412727 
L 137.045104 -34.412727 
L 136.682714 -34.412727 
L 136.320325 -34.412727 
L 135.957936 -34.412727 
L 135.595546 -34.412727 
L 135.233157 -34.412727 
L 134.870767 -34.412727 
L 134.508378 -34.412727 
L 134.145988 -34.412727 
L 133.783599 -34.412727 
L 133.42121 -34.412727 
L 133.05882 -34.412727 
L 132.696431 -34.412727 
L 132.334041 -34.412727 
L 131.971652 -34.412727 
L 131.609262 -34.412727 
L 131.246873 -34.412727 
L 130.884483 -34.412727 
L 130.522094 -34.412727 
L 130.159705 -34.412727 
L 129.797315 -34.412727 
L 129.434926 -34.412727 
L 129.072536 -34.412727 
L 128.710147 -34.412727 
L 128.347757 -34.412727 
L 127.985368 -34.412727 
L 127.622979 -34.412727 
L 127.260589 -34.412727 
L 126.8982 -34.412727 
L 126.53581 -34.412727 
L 126.173421 -34.412727 
L 125.811031 -34.412727 
L 125.448642 -34.412727 
L 125.086253 -34.412727 
L 124.723863 -34.412727 
L 124.361474 -34.412727 
L 123.999084 -34.412727 
L 123.636695 -34.412727 
L 123.274305 -34.412727 
L 122.911916 -34.412727 
L 122.549527 -34.412727 
L 122.187137 -34.412727 
L 121.824748 -34.412727 
L 121.462358 -34.412727 
L 121.099969 -34.412727 
L 120.737579 -34.412727 
L 120.37519 -34.412727 
L 120.012801 -34.412727 
L 119.650411 -34.412727 
L 119.288022 -34.412727 
L 118.925632 -34.412727 
L 118.563243 -34.412727 
L 118.200853 -34.412727 
L 117.838464 -34.412727 
L 117.476075 -34.412727 
L 117.113685 -34.412727 
L 116.751296 -34.412727 
L 116.388906 -34.412727 
L 116.026517 -34.412727 
L 115.664127 -34.412727 
L 115.301738 -34.412727 
L 114.939348 -34.412727 
L 114.576959 -34.412727 
L 114.21457 -34.412727 
L 113.85218 -34.412727 
L 113.489791 -34.412727 
L 113.127401 -34.412727 
L 112.765012 -34.412727 
L 112.402622 -34.412727 
L 112.040233 -34.412727 
L 111.677844 -34.412727 
L 111.315454 -34.412727 
L 110.953065 -34.412727 
L 110.590675 -34.412727 
L 110.228286 -34.412727 
L 109.865896 -34.412727 
L 109.503507 -34.412727 
L 109.141118 -34.412727 
L 108.778728 -34.412727 
L 108.416339 -34.412727 
L 108.053949 -34.412727 
L 107.69156 -34.412727 
L 107.32917 -34.412727 
L 106.966781 -34.412727 
L 106.604392 -34.412727 
L 106.242002 -34.412727 
L 105.879613 -34.412727 
L 105.517223 -34.412727 
L 105.154834 -34.412727 
L 104.792444 -34.412727 
L 104.430055 -34.412727 
L 104.067666 -34.412727 
L 103.705276 -34.412727 
L 103.342887 -34.412727 
L 102.980497 -34.412727 
L 102.618108 -34.412727 
L 102.255718 -34.412727 
L 101.893329 -34.412727 
L 101.530939 -34.412727 
L 101.16855 -34.412727 
L 100.806161 -34.412727 
L 100.443771 -34.412727 
L 100.081382 -34.412727 
L 99.718992 -34.412727 
L 99.356603 -34.412727 
L 98.994213 -34.412727 
L 98.631824 -34.412727 
L 98.269435 -34.412727 
L 97.907045 -34.412727 
L 97.544656 -34.412727 
L 97.182266 -34.412727 
L 96.819877 -34.412727 
L 96.457487 -34.412727 
L 96.095098 -34.412727 
L 95.732709 -34.412727 
L 95.370319 -34.412727 
L 95.00793 -34.412727 
L 94.64554 -34.412727 
L 94.283151 -34.412727 
L 93.920761 -34.412727 
L 93.558372 -34.412727 
L 93.195983 -34.412727 
L 92.833593 -34.412727 
L 92.471204 -34.412727 
L 92.108814 -34.412727 
L 91.746425 -34.412727 
L 91.384035 -34.412727 
L 91.021646 -34.412727 
L 90.659257 -34.412727 
L 90.296867 -34.412727 
L 89.934478 -34.412727 
L 89.572088 -34.412727 
L 89.209699 -34.412727 
L 88.847309 -34.412727 
L 88.48492 -34.412727 
L 88.12253 -34.412727 
L 87.760141 -34.412727 
L 87.397752 -34.412727 
L 87.035362 -34.412727 
L 86.672973 -34.412727 
L 86.310583 -34.412727 
L 85.948194 -34.412727 
L 85.585804 -34.412727 
L 85.223415 -34.412727 
L 84.861026 -34.412727 
L 84.498636 -34.412727 
L 84.136247 -34.412727 
L 83.773857 -34.412727 
L 83.411468 -34.412727 
L 83.049078 -34.412727 
L 82.686689 -34.412727 
L 82.3243 -34.412727 
L 81.96191 -34.412727 
L 81.599521 -34.412727 
L 81.237131 -34.412727 
L 80.874742 -34.412727 
L 80.512352 -34.412727 
L 80.149963 -34.412727 
L 79.787574 -34.412727 
L 79.425184 -34.412727 
L 79.062795 -34.412727 
L 78.700405 -34.412727 
L 78.338016 -34.412727 
L 77.975626 -34.412727 
L 77.613237 -34.412727 
L 77.250848 -34.412727 
L 76.888458 -34.412727 
L 76.526069 -34.412727 
L 76.163679 -34.412727 
L 75.80129 -34.412727 
z
" style="stroke: #b0c4de; stroke-opacity: 0.3"/>
    </defs>
    <g clip-path="url(#pacb101c2ea)">
     <use xlink:href="#mffa2a6d744" x="0" y="216" style="fill: #b0c4de; fill-opacity: 0.3; stroke: #b0c4de; stroke-opacity: 0.3"/>
    </g>
   </g>
   <g id="line2d_1">
    <path d="M 57.681818 181.263825 
L 65.690625 180.903163 
L 71.815006 180.413489 
L 76.888458 179.790786 
L 81.27337 179.032707 
L 85.187176 178.132549 
L 88.738593 177.089608 
L 92.036336 175.890323 
L 95.116647 174.535787 
L 98.052001 173.004261 
L 100.878639 171.279988 
L 103.632798 169.339172 
L 106.350719 167.147904 
L 109.032401 164.695302 
L 111.677844 161.973483 
L 114.359525 158.890224 
L 117.041207 155.465716 
L 119.795367 151.581647 
L 122.622004 147.201225 
L 125.52112 142.292524 
L 128.565191 136.692791 
L 131.790457 130.283187 
L 135.269396 122.863631 
L 139.183201 113.975481 
L 143.966742 102.527641 
L 158.571036 67.158232 
L 161.977497 59.731166 
L 164.876612 53.92339 
L 167.449577 49.248857 
L 169.76887 45.477951 
L 171.906967 42.412445 
L 173.86387 39.978958 
L 175.712056 38.026507 
L 177.415287 36.537797 
L 179.046039 35.400891 
L 180.604314 34.584581 
L 182.09011 34.056262 
L 183.539668 33.778643 
L 184.952987 33.735402 
L 186.366306 33.916927 
L 187.779624 34.322389 
L 189.229182 34.968931 
L 190.751218 35.895842 
L 192.345731 37.134171 
L 194.012723 38.713591 
L 195.788431 40.70531 
L 197.709095 43.202931 
L 199.774715 46.264559 
L 202.021529 50.004198 
L 204.485777 54.549763 
L 207.239937 60.111068 
L 210.392725 66.994482 
L 214.234053 75.942433 
L 219.81485 89.57289 
L 228.802108 111.507031 
L 233.150781 121.499829 
L 236.883392 129.533858 
L 240.253614 136.275771 
L 243.406402 142.100316 
L 246.414235 147.201225 
L 249.31335 151.688695 
L 252.139988 155.659754 
L 254.894147 159.152752 
L 257.612068 162.24799 
L 260.329989 165.009697 
L 263.047909 167.456733 
L 265.802069 169.636949 
L 268.592468 171.562263 
L 271.455344 173.267105 
L 274.426938 174.775841 
L 277.507248 176.090809 
L 280.768753 177.241885 
L 284.28393 178.244574 
L 288.125258 179.104583 
L 292.365215 179.822548 
L 297.221233 180.413489 
L 302.946986 180.878081 
L 310.049819 181.220629 
L 311.318182 181.262691 
L 311.318182 181.262691 
" clip-path="url(#pacb101c2ea)" style="fill: none; stroke: #1f77b4; stroke-width: 1.5; stroke-linecap: square"/>
   </g>
   <g id="line2d_2">
    <path d="M 184.518119 181.587273 
L 184.518119 33.332727 
" clip-path="url(#pacb101c2ea)" style="fill: none; stroke-dasharray: 7.4,3.2; stroke-dashoffset: 0; stroke: #ffa500; stroke-width: 2"/>
   </g>
   <g id="line2d_3">
    <path d="M 184.518119 144.523636 
L 220.757063 144.523636 
" clip-path="url(#pacb101c2ea)" style="fill: none; stroke: #228b22; stroke-width: 3; stroke-linecap: square"/>
   </g>
   <g id="line2d_4">
    <defs>
     <path id="m67c4281745" d="M 3 0 
L -3 -3 
L -3 3 
z
" style="stroke: #228b22; stroke-linejoin: miter"/>
    </defs>
    <g clip-path="url(#pacb101c2ea)">
     <use xlink:href="#m67c4281745" x="220.757063" y="144.523636" style="fill: #228b22; stroke: #228b22; stroke-linejoin: miter"/>
     <use xlink:href="#m67c4281745" x="220.757063" y="144.523636" style="fill: #228b22; stroke: #228b22; stroke-linejoin: miter"/>
    </g>
   </g>
   <g id="line2d_5">
    <defs>
     <path id="m2405301b8c" d="M -3 -0 
L 3 3 
L 3 -3 
z
" style="stroke: #228b22; stroke-linejoin: miter"/>
    </defs>
    <g clip-path="url(#pacb101c2ea)">
     <use xlink:href="#m2405301b8c" x="184.518119" y="144.523636" style="fill: #228b22; stroke: #228b22; stroke-linejoin: miter"/>
     <use xlink:href="#m2405301b8c" x="184.518119" y="144.523636" style="fill: #228b22; stroke: #228b22; stroke-linejoin: miter"/>
    </g>
   </g>
   <g id="line2d_6">
    <path d="M 184.518119 163.055455 
L 256.996006 163.055455 
" clip-path="url(#pacb101c2ea)" style="fill: none; stroke: #32cd32; stroke-width: 3; stroke-linecap: square"/>
   </g>
   <g id="line2d_7">
    <defs>
     <path id="m43cd010aa1" d="M 3 0 
L -3 -3 
L -3 3 
z
" style="stroke: #32cd32; stroke-linejoin: miter"/>
    </defs>
    <g clip-path="url(#pacb101c2ea)">
     <use xlink:href="#m43cd010aa1" x="256.996006" y="163.055455" style="fill: #32cd32; stroke: #32cd32; stroke-linejoin: miter"/>
     <use xlink:href="#m43cd010aa1" x="256.996006" y="163.055455" style="fill: #32cd32; stroke: #32cd32; stroke-linejoin: miter"/>
    </g>
   </g>
   <g id="line2d_8">
    <defs>
     <path id="m62e9858bb3" d="M -3 -0 
L 3 3 
L 3 -3 
z
" style="stroke: #32cd32; stroke-linejoin: miter"/>
    </defs>
    <g clip-path="url(#pacb101c2ea)">
     <use xlink:href="#m62e9858bb3" x="184.518119" y="163.055455" style="fill: #32cd32; stroke: #32cd32; stroke-linejoin: miter"/>
     <use xlink:href="#m62e9858bb3" x="184.518119" y="163.055455" style="fill: #32cd32; stroke: #32cd32; stroke-linejoin: miter"/>
    </g>
   </g>
   <g id="line2d_9">
    <path d="M 184.518119 179.734091 
L 293.234949 179.734091 
" clip-path="url(#pacb101c2ea)" style="fill: none; stroke: #00ff7f; stroke-width: 3; stroke-linecap: square"/>
   </g>
   <g id="line2d_10">
    <defs>
     <path id="mef4e2338ed" d="M 3 0 
L -3 -3 
L -3 3 
z
" style="stroke: #00ff7f; stroke-linejoin: miter"/>
    </defs>
    <g clip-path="url(#pacb101c2ea)">
     <use xlink:href="#mef4e2338ed" x="293.234949" y="179.734091" style="fill: #00ff7f; stroke: #00ff7f; stroke-linejoin: miter"/>
     <use xlink:href="#mef4e2338ed" x="293.234949" y="179.734091" style="fill: #00ff7f; stroke: #00ff7f; stroke-linejoin: miter"/>
    </g>
   </g>
   <g id="line2d_11">
    <defs>
     <path id="m33127691d0" d="M -3 -0 
L 3 3 
L 3 -3 
z
" style="stroke: #00ff7f; stroke-linejoin: miter"/>
    </defs>
    <g clip-path="url(#pacb101c2ea)">
     <use xlink:href="#m33127691d0" x="184.518119" y="179.734091" style="fill: #00ff7f; stroke: #00ff7f; stroke-linejoin: miter"/>
     <use xlink:href="#m33127691d0" x="184.518119" y="179.734091" style="fill: #00ff7f; stroke: #00ff7f; stroke-linejoin: miter"/>
    </g>
   </g>
   <g id="text_1">
    <!-- Distribuie normal $ \mathcal{N}(\mu = 0,\sigma = 1)$ -->
    <g transform="translate(101.796 19.92)scale(0.096 -0.096)">
     <defs>
      <path id="DejaVuSans-44" d="M 1259 4147 
L 1259 519 
L 2022 519 
Q 2988 519 3436 956 
Q 3884 1394 3884 2338 
Q 3884 3275 3436 3711 
Q 2988 4147 2022 4147 
L 1259 4147 
z
M 628 4666 
L 1925 4666 
Q 3281 4666 3915 4102 
Q 4550 3538 4550 2338 
Q 4550 1131 3912 565 
Q 3275 0 1925 0 
L 628 0 
L 628 4666 
z
" transform="scale(0.015625)"/>
      <path id="DejaVuSans-69" d="M 603 3500 
L 1178 3500 
L 1178 0 
L 603 0 
L 603 3500 
z
M 603 4863 
L 1178 4863 
L 1178 4134 
L 603 4134 
L 603 4863 
z
" transform="scale(0.015625)"/>
      <path id="DejaVuSans-73" d="M 2834 3397 
L 2834 2853 
Q 2591 2978 2328 3040 
Q 2066 3103 1784 3103 
Q 1356 3103 1142 2972 
Q 928 2841 928 2578 
Q 928 2378 1081 2264 
Q 1234 2150 1697 2047 
L 1894 2003 
Q 2506 1872 2764 1633 
Q 3022 1394 3022 966 
Q 3022 478 2636 193 
Q 2250 -91 1575 -91 
Q 1294 -91 989 -36 
Q 684 19 347 128 
L 347 722 
Q 666 556 975 473 
Q 1284 391 1588 391 
Q 1994 391 2212 530 
Q 2431 669 2431 922 
Q 2431 1156 2273 1281 
Q 2116 1406 1581 1522 
L 1381 1569 
Q 847 1681 609 1914 
Q 372 2147 372 2553 
Q 372 3047 722 3315 
Q 1072 3584 1716 3584 
Q 2034 3584 2315 3537 
Q 2597 3491 2834 3397 
z
" transform="scale(0.015625)"/>
      <path id="DejaVuSans-74" d="M 1172 4494 
L 1172 3500 
L 2356 3500 
L 2356 3053 
L 1172 3053 
L 1172 1153 
Q 1172 725 1289 603 
Q 1406 481 1766 481 
L 2356 481 
L 2356 0 
L 1766 0 
Q 1100 0 847 248 
Q 594 497 594 1153 
L 594 3053 
L 172 3053 
L 172 3500 
L 594 3500 
L 594 4494 
L 1172 4494 
z
" transform="scale(0.015625)"/>
      <path id="DejaVuSans-72" d="M 2631 2963 
Q 2534 3019 2420 3045 
Q 2306 3072 2169 3072 
Q 1681 3072 1420 2755 
Q 1159 2438 1159 1844 
L 1159 0 
L 581 0 
L 581 3500 
L 1159 3500 
L 1159 2956 
Q 1341 3275 1631 3429 
Q 1922 3584 2338 3584 
Q 2397 3584 2469 3576 
Q 2541 3569 2628 3553 
L 2631 2963 
z
" transform="scale(0.015625)"/>
      <path id="DejaVuSans-62" d="M 3116 1747 
Q 3116 2381 2855 2742 
Q 2594 3103 2138 3103 
Q 1681 3103 1420 2742 
Q 1159 2381 1159 1747 
Q 1159 1113 1420 752 
Q 1681 391 2138 391 
Q 2594 391 2855 752 
Q 3116 1113 3116 1747 
z
M 1159 2969 
Q 1341 3281 1617 3432 
Q 1894 3584 2278 3584 
Q 2916 3584 3314 3078 
Q 3713 2572 3713 1747 
Q 3713 922 3314 415 
Q 2916 -91 2278 -91 
Q 1894 -91 1617 61 
Q 1341 213 1159 525 
L 1159 0 
L 581 0 
L 581 4863 
L 1159 4863 
L 1159 2969 
z
" transform="scale(0.015625)"/>
      <path id="DejaVuSans-75" d="M 544 1381 
L 544 3500 
L 1119 3500 
L 1119 1403 
Q 1119 906 1312 657 
Q 1506 409 1894 409 
Q 2359 409 2629 706 
Q 2900 1003 2900 1516 
L 2900 3500 
L 3475 3500 
L 3475 0 
L 2900 0 
L 2900 538 
Q 2691 219 2414 64 
Q 2138 -91 1772 -91 
Q 1169 -91 856 284 
Q 544 659 544 1381 
z
M 1991 3584 
L 1991 3584 
z
" transform="scale(0.015625)"/>
      <path id="DejaVuSans-21b" d="M 1388 -538 
L 2047 -538 
L 1534 -1538 
L 1131 -1538 
L 1388 -538 
z
M 1172 4494 
L 1172 3500 
L 2356 3500 
L 2356 3053 
L 1172 3053 
L 1172 1153 
Q 1172 725 1289 603 
Q 1406 481 1766 481 
L 2356 481 
L 2356 0 
L 1766 0 
Q 1100 0 847 248 
Q 594 497 594 1153 
L 594 3053 
L 172 3053 
L 172 3500 
L 594 3500 
L 594 4494 
L 1172 4494 
z
" transform="scale(0.015625)"/>
      <path id="DejaVuSans-65" d="M 3597 1894 
L 3597 1613 
L 953 1613 
Q 991 1019 1311 708 
Q 1631 397 2203 397 
Q 2534 397 2845 478 
Q 3156 559 3463 722 
L 3463 178 
Q 3153 47 2828 -22 
Q 2503 -91 2169 -91 
Q 1331 -91 842 396 
Q 353 884 353 1716 
Q 353 2575 817 3079 
Q 1281 3584 2069 3584 
Q 2775 3584 3186 3129 
Q 3597 2675 3597 1894 
z
M 3022 2063 
Q 3016 2534 2758 2815 
Q 2500 3097 2075 3097 
Q 1594 3097 1305 2825 
Q 1016 2553 972 2059 
L 3022 2063 
z
" transform="scale(0.015625)"/>
      <path id="DejaVuSans-20" transform="scale(0.015625)"/>
      <path id="DejaVuSans-6e" d="M 3513 2113 
L 3513 0 
L 2938 0 
L 2938 2094 
Q 2938 2591 2744 2837 
Q 2550 3084 2163 3084 
Q 1697 3084 1428 2787 
Q 1159 2491 1159 1978 
L 1159 0 
L 581 0 
L 581 3500 
L 1159 3500 
L 1159 2956 
Q 1366 3272 1645 3428 
Q 1925 3584 2291 3584 
Q 2894 3584 3203 3211 
Q 3513 2838 3513 2113 
z
" transform="scale(0.015625)"/>
      <path id="DejaVuSans-6f" d="M 1959 3097 
Q 1497 3097 1228 2736 
Q 959 2375 959 1747 
Q 959 1119 1226 758 
Q 1494 397 1959 397 
Q 2419 397 2687 759 
Q 2956 1122 2956 1747 
Q 2956 2369 2687 2733 
Q 2419 3097 1959 3097 
z
M 1959 3584 
Q 2709 3584 3137 3096 
Q 3566 2609 3566 1747 
Q 3566 888 3137 398 
Q 2709 -91 1959 -91 
Q 1206 -91 779 398 
Q 353 888 353 1747 
Q 353 2609 779 3096 
Q 1206 3584 1959 3584 
z
" transform="scale(0.015625)"/>
      <path id="DejaVuSans-6d" d="M 3328 2828 
Q 3544 3216 3844 3400 
Q 4144 3584 4550 3584 
Q 5097 3584 5394 3201 
Q 5691 2819 5691 2113 
L 5691 0 
L 5113 0 
L 5113 2094 
Q 5113 2597 4934 2840 
Q 4756 3084 4391 3084 
Q 3944 3084 3684 2787 
Q 3425 2491 3425 1978 
L 3425 0 
L 2847 0 
L 2847 2094 
Q 2847 2600 2669 2842 
Q 2491 3084 2119 3084 
Q 1678 3084 1418 2786 
Q 1159 2488 1159 1978 
L 1159 0 
L 581 0 
L 581 3500 
L 1159 3500 
L 1159 2956 
Q 1356 3278 1631 3431 
Q 1906 3584 2284 3584 
Q 2666 3584 2933 3390 
Q 3200 3197 3328 2828 
z
" transform="scale(0.015625)"/>
      <path id="DejaVuSans-61" d="M 2194 1759 
Q 1497 1759 1228 1600 
Q 959 1441 959 1056 
Q 959 750 1161 570 
Q 1363 391 1709 391 
Q 2188 391 2477 730 
Q 2766 1069 2766 1631 
L 2766 1759 
L 2194 1759 
z
M 3341 1997 
L 3341 0 
L 2766 0 
L 2766 531 
Q 2569 213 2275 61 
Q 1981 -91 1556 -91 
Q 1019 -91 701 211 
Q 384 513 384 1019 
Q 384 1609 779 1909 
Q 1175 2209 1959 2209 
L 2766 2209 
L 2766 2266 
Q 2766 2663 2505 2880 
Q 2244 3097 1772 3097 
Q 1472 3097 1187 3025 
Q 903 2953 641 2809 
L 641 3341 
Q 956 3463 1253 3523 
Q 1550 3584 1831 3584 
Q 2591 3584 2966 3190 
Q 3341 2797 3341 1997 
z
" transform="scale(0.015625)"/>
      <path id="DejaVuSans-6c" d="M 603 4863 
L 1178 4863 
L 1178 0 
L 603 0 
L 603 4863 
z
" transform="scale(0.015625)"/>
      <path id="DejaVuSans-103" d="M 870 4897 
L 1239 4897 
Q 1273 4663 1424 4545 
Q 1576 4428 1848 4428 
Q 2117 4428 2267 4544 
Q 2417 4660 2457 4897 
L 2826 4897 
Q 2795 4450 2548 4225 
Q 2301 4000 1848 4000 
Q 1395 4000 1148 4225 
Q 901 4450 870 4897 
z
M 2194 1759 
Q 1497 1759 1228 1600 
Q 959 1441 959 1056 
Q 959 750 1161 570 
Q 1363 391 1709 391 
Q 2188 391 2477 730 
Q 2766 1069 2766 1631 
L 2766 1759 
L 2194 1759 
z
M 3341 1997 
L 3341 0 
L 2766 0 
L 2766 531 
Q 2569 213 2275 61 
Q 1981 -91 1556 -91 
Q 1019 -91 701 211 
Q 384 513 384 1019 
Q 384 1609 779 1909 
Q 1175 2209 1959 2209 
L 2766 2209 
L 2766 2266 
Q 2766 2663 2505 2880 
Q 2244 3097 1772 3097 
Q 1472 3097 1187 3025 
Q 903 2953 641 2809 
L 641 3341 
Q 956 3463 1253 3523 
Q 1550 3584 1831 3584 
Q 2591 3584 2966 3190 
Q 3341 2797 3341 1997 
z
" transform="scale(0.015625)"/>
      <path id="STIXNonUnicode-Italic-e23a" d="M 4294 800 
L 4301 800 
Q 5293 4070 5408 4378 
Q 5472 4538 5523 4614 
Q 5830 5088 6253 5088 
Q 6490 5088 6650 4931 
Q 6810 4774 6810 4550 
Q 6810 4378 6720 4272 
Q 6630 4166 6470 4166 
Q 6368 4166 6297 4224 
Q 6227 4282 6198 4349 
Q 6170 4416 6118 4473 
Q 6067 4531 6003 4531 
Q 5939 4531 5881 4508 
Q 5824 4486 5785 4457 
Q 5747 4429 5705 4371 
Q 5664 4314 5638 4275 
Q 5613 4237 5584 4163 
Q 5555 4090 5545 4058 
Q 5536 4026 5510 3952 
Q 5485 3878 5485 3866 
L 4262 -154 
L 4134 -154 
Q 3078 1280 2483 2893 
L 2470 2893 
Q 2406 2579 2358 2361 
Q 2310 2144 2214 1792 
Q 2118 1440 2028 1190 
Q 1939 941 1804 653 
Q 1670 365 1529 185 
Q 1389 6 1203 -115 
Q 1018 -237 813 -237 
Q 576 -237 416 -80 
Q 256 77 256 301 
Q 256 474 345 579 
Q 435 685 595 685 
Q 698 685 768 627 
Q 838 570 867 502 
Q 896 435 947 377 
Q 998 320 1062 320 
Q 1222 320 1369 480 
Q 1517 640 1638 928 
Q 1760 1216 1862 1542 
Q 1965 1869 2057 2288 
Q 2150 2707 2214 3033 
Q 2278 3360 2348 3741 
Q 2419 4122 2458 4294 
L 2630 4294 
Q 2682 4166 2874 3680 
Q 3066 3194 3142 3008 
Q 3219 2822 3392 2422 
Q 3565 2022 3683 1798 
Q 3802 1574 3968 1292 
Q 4134 1011 4294 800 
z
" transform="scale(0.015625)"/>
      <path id="DejaVuSans-28" d="M 1984 4856 
Q 1566 4138 1362 3434 
Q 1159 2731 1159 2009 
Q 1159 1288 1364 580 
Q 1569 -128 1984 -844 
L 1484 -844 
Q 1016 -109 783 600 
Q 550 1309 550 2009 
Q 550 2706 781 3412 
Q 1013 4119 1484 4856 
L 1984 4856 
z
" transform="scale(0.015625)"/>
      <path id="DejaVuSans-Oblique-3bc" d="M -84 -1331 
L 856 3500 
L 1434 3500 
L 1009 1322 
Q 997 1256 987 1175 
Q 978 1094 978 1013 
Q 978 722 1161 565 
Q 1344 409 1684 409 
Q 2147 409 2431 671 
Q 2716 934 2816 1459 
L 3213 3500 
L 3788 3500 
L 3266 809 
Q 3253 750 3248 706 
Q 3244 663 3244 628 
Q 3244 531 3283 486 
Q 3322 441 3406 441 
Q 3438 441 3492 456 
Q 3547 472 3647 513 
L 3559 50 
Q 3422 -19 3297 -55 
Q 3172 -91 3053 -91 
Q 2847 -91 2730 40 
Q 2613 172 2613 403 
Q 2438 153 2195 31 
Q 1953 -91 1625 -91 
Q 1334 -91 1117 43 
Q 900 178 831 397 
L 494 -1331 
L -84 -1331 
z
" transform="scale(0.015625)"/>
      <path id="DejaVuSans-3d" d="M 678 2906 
L 4684 2906 
L 4684 2381 
L 678 2381 
L 678 2906 
z
M 678 1631 
L 4684 1631 
L 4684 1100 
L 678 1100 
L 678 1631 
z
" transform="scale(0.015625)"/>
      <path id="DejaVuSans-30" d="M 2034 4250 
Q 1547 4250 1301 3770 
Q 1056 3291 1056 2328 
Q 1056 1369 1301 889 
Q 1547 409 2034 409 
Q 2525 409 2770 889 
Q 3016 1369 3016 2328 
Q 3016 3291 2770 3770 
Q 2525 4250 2034 4250 
z
M 2034 4750 
Q 2819 4750 3233 4129 
Q 3647 3509 3647 2328 
Q 3647 1150 3233 529 
Q 2819 -91 2034 -91 
Q 1250 -91 836 529 
Q 422 1150 422 2328 
Q 422 3509 836 4129 
Q 1250 4750 2034 4750 
z
" transform="scale(0.015625)"/>
      <path id="DejaVuSans-2c" d="M 750 794 
L 1409 794 
L 1409 256 
L 897 -744 
L 494 -744 
L 750 256 
L 750 794 
z
" transform="scale(0.015625)"/>
      <path id="DejaVuSans-Oblique-3c3" d="M 2219 3044 
Q 1744 3044 1422 2700 
Q 1081 2341 969 1747 
Q 844 1119 1044 756 
Q 1241 397 1706 397 
Q 2166 397 2503 759 
Q 2844 1122 2966 1747 
Q 3075 2319 2881 2700 
Q 2700 3044 2219 3044 
z
M 2309 3503 
L 4219 3500 
L 4106 2925 
L 3463 2925 
Q 3706 2438 3575 1747 
Q 3406 888 2884 400 
Q 2359 -91 1609 -91 
Q 856 -91 525 400 
Q 194 888 363 1747 
Q 528 2609 1050 3097 
Q 1484 3503 2309 3503 
z
" transform="scale(0.015625)"/>
      <path id="DejaVuSans-31" d="M 794 531 
L 1825 531 
L 1825 4091 
L 703 3866 
L 703 4441 
L 1819 4666 
L 2450 4666 
L 2450 531 
L 3481 531 
L 3481 0 
L 794 0 
L 794 531 
z
" transform="scale(0.015625)"/>
      <path id="DejaVuSans-29" d="M 513 4856 
L 1013 4856 
Q 1481 4119 1714 3412 
Q 1947 2706 1947 2009 
Q 1947 1309 1714 600 
Q 1481 -109 1013 -844 
L 513 -844 
Q 928 -128 1133 580 
Q 1338 1288 1338 2009 
Q 1338 2731 1133 3434 
Q 928 4138 513 4856 
z
" transform="scale(0.015625)"/>
     </defs>
     <use xlink:href="#DejaVuSans-44" transform="translate(0 0.5)"/>
     <use xlink:href="#DejaVuSans-69" transform="translate(77.001953 0.5)"/>
     <use xlink:href="#DejaVuSans-73" transform="translate(104.785156 0.5)"/>
     <use xlink:href="#DejaVuSans-74" transform="translate(156.884766 0.5)"/>
     <use xlink:href="#DejaVuSans-72" transform="translate(196.09375 0.5)"/>
     <use xlink:href="#DejaVuSans-69" transform="translate(237.207031 0.5)"/>
     <use xlink:href="#DejaVuSans-62" transform="translate(264.990234 0.5)"/>
     <use xlink:href="#DejaVuSans-75" transform="translate(328.466797 0.5)"/>
     <use xlink:href="#DejaVuSans-21b" transform="translate(391.845703 0.5)"/>
     <use xlink:href="#DejaVuSans-69" transform="translate(431.054688 0.5)"/>
     <use xlink:href="#DejaVuSans-65" transform="translate(458.837891 0.5)"/>
     <use xlink:href="#DejaVuSans-20" transform="translate(520.361328 0.5)"/>
     <use xlink:href="#DejaVuSans-6e" transform="translate(552.148438 0.5)"/>
     <use xlink:href="#DejaVuSans-6f" transform="translate(615.527344 0.5)"/>
     <use xlink:href="#DejaVuSans-72" transform="translate(676.708984 0.5)"/>
     <use xlink:href="#DejaVuSans-6d" transform="translate(717.822266 0.5)"/>
     <use xlink:href="#DejaVuSans-61" transform="translate(815.234375 0.5)"/>
     <use xlink:href="#DejaVuSans-6c" transform="translate(876.513672 0.5)"/>
     <use xlink:href="#DejaVuSans-103" transform="translate(904.296875 0.5)"/>
     <use xlink:href="#DejaVuSans-20" transform="translate(965.576172 0.5)"/>
     <use xlink:href="#STIXNonUnicode-Italic-e23a" transform="translate(997.363281 0.5)"/>
     <use xlink:href="#DejaVuSans-28" transform="translate(1093.063263 0.5)"/>
     <use xlink:href="#DejaVuSans-Oblique-3bc" transform="translate(1132.076935 0.5)"/>
     <use xlink:href="#DejaVuSans-3d" transform="translate(1215.182404 0.5)"/>
     <use xlink:href="#DejaVuSans-30" transform="translate(1318.453888 0.5)"/>
     <use xlink:href="#DejaVuSans-2c" transform="translate(1382.076935 0.5)"/>
     <use xlink:href="#DejaVuSans-Oblique-3c3" transform="translate(1433.346466 0.5)"/>
     <use xlink:href="#DejaVuSans-3d" transform="translate(1516.207794 0.5)"/>
     <use xlink:href="#DejaVuSans-31" transform="translate(1619.479279 0.5)"/>
     <use xlink:href="#DejaVuSans-29" transform="translate(1683.102325 0.5)"/>
    </g>
   </g>
   <g id="legend_1">
    <g id="patch_2">
     <path d="M 275.01875 114.53375 
L 318.4 114.53375 
Q 320 114.53375 320 112.93375 
L 320 31.52 
Q 320 29.92 318.4 29.92 
L 275.01875 29.92 
Q 273.41875 29.92 273.41875 31.52 
L 273.41875 112.93375 
Q 273.41875 114.53375 275.01875 114.53375 
z
" style="fill: #ffffff; opacity: 0.8; stroke: #cccccc; stroke-linejoin: miter"/>
    </g>
    <g id="patch_3">
     <path d="M 276.61875 39.19875 
L 292.61875 39.19875 
L 292.61875 33.59875 
L 276.61875 33.59875 
z
" style="fill: #4169e1; fill-opacity: 0.3; stroke: #4169e1; stroke-opacity: 0.3; stroke-linejoin: miter"/>
    </g>
    <g id="text_2">
     <!-- 68% -->
     <g transform="translate(299.01875 39.19875)scale(0.08 -0.08)">
      <defs>
       <path id="DejaVuSans-36" d="M 2113 2584 
Q 1688 2584 1439 2293 
Q 1191 2003 1191 1497 
Q 1191 994 1439 701 
Q 1688 409 2113 409 
Q 2538 409 2786 701 
Q 3034 994 3034 1497 
Q 3034 2003 2786 2293 
Q 2538 2584 2113 2584 
z
M 3366 4563 
L 3366 3988 
Q 3128 4100 2886 4159 
Q 2644 4219 2406 4219 
Q 1781 4219 1451 3797 
Q 1122 3375 1075 2522 
Q 1259 2794 1537 2939 
Q 1816 3084 2150 3084 
Q 2853 3084 3261 2657 
Q 3669 2231 3669 1497 
Q 3669 778 3244 343 
Q 2819 -91 2113 -91 
Q 1303 -91 875 529 
Q 447 1150 447 2328 
Q 447 3434 972 4092 
Q 1497 4750 2381 4750 
Q 2619 4750 2861 4703 
Q 3103 4656 3366 4563 
z
" transform="scale(0.015625)"/>
       <path id="DejaVuSans-38" d="M 2034 2216 
Q 1584 2216 1326 1975 
Q 1069 1734 1069 1313 
Q 1069 891 1326 650 
Q 1584 409 2034 409 
Q 2484 409 2743 651 
Q 3003 894 3003 1313 
Q 3003 1734 2745 1975 
Q 2488 2216 2034 2216 
z
M 1403 2484 
Q 997 2584 770 2862 
Q 544 3141 544 3541 
Q 544 4100 942 4425 
Q 1341 4750 2034 4750 
Q 2731 4750 3128 4425 
Q 3525 4100 3525 3541 
Q 3525 3141 3298 2862 
Q 3072 2584 2669 2484 
Q 3125 2378 3379 2068 
Q 3634 1759 3634 1313 
Q 3634 634 3220 271 
Q 2806 -91 2034 -91 
Q 1263 -91 848 271 
Q 434 634 434 1313 
Q 434 1759 690 2068 
Q 947 2378 1403 2484 
z
M 1172 3481 
Q 1172 3119 1398 2916 
Q 1625 2713 2034 2713 
Q 2441 2713 2670 2916 
Q 2900 3119 2900 3481 
Q 2900 3844 2670 4047 
Q 2441 4250 2034 4250 
Q 1625 4250 1398 4047 
Q 1172 3844 1172 3481 
z
" transform="scale(0.015625)"/>
       <path id="DejaVuSans-25" d="M 4653 2053 
Q 4381 2053 4226 1822 
Q 4072 1591 4072 1178 
Q 4072 772 4226 539 
Q 4381 306 4653 306 
Q 4919 306 5073 539 
Q 5228 772 5228 1178 
Q 5228 1588 5073 1820 
Q 4919 2053 4653 2053 
z
M 4653 2450 
Q 5147 2450 5437 2106 
Q 5728 1763 5728 1178 
Q 5728 594 5436 251 
Q 5144 -91 4653 -91 
Q 4153 -91 3862 251 
Q 3572 594 3572 1178 
Q 3572 1766 3864 2108 
Q 4156 2450 4653 2450 
z
M 1428 4353 
Q 1159 4353 1004 4120 
Q 850 3888 850 3481 
Q 850 3069 1003 2837 
Q 1156 2606 1428 2606 
Q 1700 2606 1854 2837 
Q 2009 3069 2009 3481 
Q 2009 3884 1853 4118 
Q 1697 4353 1428 4353 
z
M 4250 4750 
L 4750 4750 
L 1831 -91 
L 1331 -91 
L 4250 4750 
z
M 1428 4750 
Q 1922 4750 2215 4408 
Q 2509 4066 2509 3481 
Q 2509 2891 2217 2550 
Q 1925 2209 1428 2209 
Q 931 2209 642 2551 
Q 353 2894 353 3481 
Q 353 4063 643 4406 
Q 934 4750 1428 4750 
z
" transform="scale(0.015625)"/>
      </defs>
      <use xlink:href="#DejaVuSans-36"/>
      <use xlink:href="#DejaVuSans-38" x="63.623047"/>
      <use xlink:href="#DejaVuSans-25" x="127.246094"/>
     </g>
    </g>
    <g id="patch_4">
     <path d="M 276.61875 50.94125 
L 292.61875 50.94125 
L 292.61875 45.34125 
L 276.61875 45.34125 
z
" style="fill: #6495ed; fill-opacity: 0.3; stroke: #6495ed; stroke-opacity: 0.3; stroke-linejoin: miter"/>
    </g>
    <g id="text_3">
     <!-- 95% -->
     <g transform="translate(299.01875 50.94125)scale(0.08 -0.08)">
      <defs>
       <path id="DejaVuSans-39" d="M 703 97 
L 703 672 
Q 941 559 1184 500 
Q 1428 441 1663 441 
Q 2288 441 2617 861 
Q 2947 1281 2994 2138 
Q 2813 1869 2534 1725 
Q 2256 1581 1919 1581 
Q 1219 1581 811 2004 
Q 403 2428 403 3163 
Q 403 3881 828 4315 
Q 1253 4750 1959 4750 
Q 2769 4750 3195 4129 
Q 3622 3509 3622 2328 
Q 3622 1225 3098 567 
Q 2575 -91 1691 -91 
Q 1453 -91 1209 -44 
Q 966 3 703 97 
z
M 1959 2075 
Q 2384 2075 2632 2365 
Q 2881 2656 2881 3163 
Q 2881 3666 2632 3958 
Q 2384 4250 1959 4250 
Q 1534 4250 1286 3958 
Q 1038 3666 1038 3163 
Q 1038 2656 1286 2365 
Q 1534 2075 1959 2075 
z
" transform="scale(0.015625)"/>
       <path id="DejaVuSans-35" d="M 691 4666 
L 3169 4666 
L 3169 4134 
L 1269 4134 
L 1269 2991 
Q 1406 3038 1543 3061 
Q 1681 3084 1819 3084 
Q 2600 3084 3056 2656 
Q 3513 2228 3513 1497 
Q 3513 744 3044 326 
Q 2575 -91 1722 -91 
Q 1428 -91 1123 -41 
Q 819 9 494 109 
L 494 744 
Q 775 591 1075 516 
Q 1375 441 1709 441 
Q 2250 441 2565 725 
Q 2881 1009 2881 1497 
Q 2881 1984 2565 2268 
Q 2250 2553 1709 2553 
Q 1456 2553 1204 2497 
Q 953 2441 691 2322 
L 691 4666 
z
" transform="scale(0.015625)"/>
      </defs>
      <use xlink:href="#DejaVuSans-39"/>
      <use xlink:href="#DejaVuSans-35" x="63.623047"/>
      <use xlink:href="#DejaVuSans-25" x="127.246094"/>
     </g>
    </g>
    <g id="patch_5">
     <path d="M 276.61875 62.68375 
L 292.61875 62.68375 
L 292.61875 57.08375 
L 276.61875 57.08375 
z
" style="fill: #b0c4de; fill-opacity: 0.3; stroke: #b0c4de; stroke-opacity: 0.3; stroke-linejoin: miter"/>
    </g>
    <g id="text_4">
     <!-- 99% -->
     <g transform="translate(299.01875 62.68375)scale(0.08 -0.08)">
      <use xlink:href="#DejaVuSans-39"/>
      <use xlink:href="#DejaVuSans-39" x="63.623047"/>
      <use xlink:href="#DejaVuSans-25" x="127.246094"/>
     </g>
    </g>
    <g id="line2d_12">
     <path d="M 276.61875 71.62625 
L 284.61875 71.62625 
L 292.61875 71.62625 
" style="fill: none; stroke-dasharray: 7.4,3.2; stroke-dashoffset: 0; stroke: #ffa500; stroke-width: 2"/>
    </g>
    <g id="text_5">
     <!-- $\mu$ -->
     <g transform="translate(299.01875 74.42625)scale(0.08 -0.08)">
      <use xlink:href="#DejaVuSans-Oblique-3bc" transform="translate(0 0.3125)"/>
     </g>
    </g>
    <g id="line2d_13">
     <path d="M 276.61875 83.385 
L 284.61875 83.385 
L 292.61875 83.385 
" style="fill: none; stroke: #228b22; stroke-width: 3; stroke-linecap: square"/>
    </g>
    <g id="text_6">
     <!-- $ \sigma $ -->
     <g transform="translate(299.01875 86.185)scale(0.08 -0.08)">
      <use xlink:href="#DejaVuSans-Oblique-3c3" transform="translate(0 0.265625)"/>
     </g>
    </g>
    <g id="line2d_14">
     <path d="M 276.61875 95.1275 
L 284.61875 95.1275 
L 292.61875 95.1275 
" style="fill: none; stroke: #32cd32; stroke-width: 3; stroke-linecap: square"/>
    </g>
    <g id="text_7">
     <!-- $ 2\sigma $ -->
     <g transform="translate(299.01875 97.9275)scale(0.08 -0.08)">
      <defs>
       <path id="DejaVuSans-32" d="M 1228 531 
L 3431 531 
L 3431 0 
L 469 0 
L 469 531 
Q 828 903 1448 1529 
Q 2069 2156 2228 2338 
Q 2531 2678 2651 2914 
Q 2772 3150 2772 3378 
Q 2772 3750 2511 3984 
Q 2250 4219 1831 4219 
Q 1534 4219 1204 4116 
Q 875 4013 500 3803 
L 500 4441 
Q 881 4594 1212 4672 
Q 1544 4750 1819 4750 
Q 2544 4750 2975 4387 
Q 3406 4025 3406 3419 
Q 3406 3131 3298 2873 
Q 3191 2616 2906 2266 
Q 2828 2175 2409 1742 
Q 1991 1309 1228 531 
z
" transform="scale(0.015625)"/>
      </defs>
      <use xlink:href="#DejaVuSans-32" transform="translate(0 0.78125)"/>
      <use xlink:href="#DejaVuSans-Oblique-3c3" transform="translate(63.623047 0.78125)"/>
     </g>
    </g>
    <g id="line2d_15">
     <path d="M 276.61875 106.87 
L 284.61875 106.87 
L 292.61875 106.87 
" style="fill: none; stroke: #00ff7f; stroke-width: 3; stroke-linecap: square"/>
    </g>
    <g id="text_8">
     <!-- $ 3\sigma $ -->
     <g transform="translate(299.01875 109.67)scale(0.08 -0.08)">
      <defs>
       <path id="DejaVuSans-33" d="M 2597 2516 
Q 3050 2419 3304 2112 
Q 3559 1806 3559 1356 
Q 3559 666 3084 287 
Q 2609 -91 1734 -91 
Q 1441 -91 1130 -33 
Q 819 25 488 141 
L 488 750 
Q 750 597 1062 519 
Q 1375 441 1716 441 
Q 2309 441 2620 675 
Q 2931 909 2931 1356 
Q 2931 1769 2642 2001 
Q 2353 2234 1838 2234 
L 1294 2234 
L 1294 2753 
L 1863 2753 
Q 2328 2753 2575 2939 
Q 2822 3125 2822 3475 
Q 2822 3834 2567 4026 
Q 2313 4219 1838 4219 
Q 1578 4219 1281 4162 
Q 984 4106 628 3988 
L 628 4550 
Q 988 4650 1302 4700 
Q 1616 4750 1894 4750 
Q 2613 4750 3031 4423 
Q 3450 4097 3450 3541 
Q 3450 3153 3228 2886 
Q 3006 2619 2597 2516 
z
" transform="scale(0.015625)"/>
      </defs>
      <use xlink:href="#DejaVuSans-33" transform="translate(0 0.78125)"/>
      <use xlink:href="#DejaVuSans-Oblique-3c3" transform="translate(63.623047 0.78125)"/>
     </g>
    </g>
   </g>
  </g>
 </g>
 <defs>
  <clipPath id="pacb101c2ea">
   <rect x="45" y="25.92" width="279" height="163.08"/>
  </clipPath>
 </defs>
</svg>
