<?xml version="1.0" encoding="utf-8" standalone="no"?>
<!DOCTYPE svg PUBLIC "-//W3C//DTD SVG 1.1//EN"
  "http://www.w3.org/Graphics/SVG/1.1/DTD/svg11.dtd">
<svg xmlns:xlink="http://www.w3.org/1999/xlink" width="648pt" height="216pt" viewBox="0 0 648 216" xmlns="http://www.w3.org/2000/svg" version="1.1">
 <metadata>
  <rdf:RDF xmlns:dc="http://purl.org/dc/elements/1.1/" xmlns:cc="http://creativecommons.org/ns#" xmlns:rdf="http://www.w3.org/1999/02/22-rdf-syntax-ns#">
   <cc:Work>
    <dc:type rdf:resource="http://purl.org/dc/dcmitype/StillImage"/>
    <dc:date>2022-06-13T13:34:12.157353</dc:date>
    <dc:format>image/svg+xml</dc:format>
    <dc:creator>
     <cc:Agent>
      <dc:title>Matplotlib v3.5.1, https://matplotlib.org/</dc:title>
     </cc:Agent>
    </dc:creator>
   </cc:Work>
  </rdf:RDF>
 </metadata>
 <defs>
  <style type="text/css">*{stroke-linejoin: round; stroke-linecap: butt}</style>
 </defs>
 <g id="figure_1">
  <g id="patch_1">
   <path d="M 0 216 
L 648 216 
L 648 0 
L 0 0 
L 0 216 
z
" style="fill: none"/>
  </g>
  <g id="axes_1">
   <g id="patch_2">
    <path d="M 81 189 
L 309.272727 189 
L 309.272727 25.92 
L 81 25.92 
z
" style="fill: #ffffff"/>
   </g>
   <g id="matplotlib.axis_1">
    <g id="xtick_1">
     <g id="line2d_1">
      <path d="M 91.376033 189 
L 91.376033 25.92 
" clip-path="url(#p01bb305362)" style="fill: none; stroke-dasharray: 2,3.3; stroke-dashoffset: 0; stroke: #b0b0b0; stroke-width: 2"/>
     </g>
     <g id="line2d_2">
      <defs>
       <path id="m1d5082914f" d="M 0 0 
L 0 3.5 
" style="stroke: #000000; stroke-width: 0.8"/>
      </defs>
      <g>
       <use xlink:href="#m1d5082914f" x="91.376033" y="189" style="stroke: #000000; stroke-width: 0.8"/>
      </g>
     </g>
     <g id="text_1">
      <!-- 0 -->
      <g transform="translate(88.831033 202.07875)scale(0.08 -0.08)">
       <defs>
        <path id="DejaVuSans-30" d="M 2034 4250 
Q 1547 4250 1301 3770 
Q 1056 3291 1056 2328 
Q 1056 1369 1301 889 
Q 1547 409 2034 409 
Q 2525 409 2770 889 
Q 3016 1369 3016 2328 
Q 3016 3291 2770 3770 
Q 2525 4250 2034 4250 
z
M 2034 4750 
Q 2819 4750 3233 4129 
Q 3647 3509 3647 2328 
Q 3647 1150 3233 529 
Q 2819 -91 2034 -91 
Q 1250 -91 836 529 
Q 422 1150 422 2328 
Q 422 3509 836 4129 
Q 1250 4750 2034 4750 
z
" transform="scale(0.015625)"/>
       </defs>
       <use xlink:href="#DejaVuSans-30"/>
      </g>
     </g>
    </g>
    <g id="xtick_2">
     <g id="line2d_3">
      <path d="M 132.880165 189 
L 132.880165 25.92 
" clip-path="url(#p01bb305362)" style="fill: none; stroke-dasharray: 2,3.3; stroke-dashoffset: 0; stroke: #b0b0b0; stroke-width: 2"/>
     </g>
     <g id="line2d_4">
      <g>
       <use xlink:href="#m1d5082914f" x="132.880165" y="189" style="stroke: #000000; stroke-width: 0.8"/>
      </g>
     </g>
     <g id="text_2">
      <!-- 20 -->
      <g transform="translate(127.790165 202.07875)scale(0.08 -0.08)">
       <defs>
        <path id="DejaVuSans-32" d="M 1228 531 
L 3431 531 
L 3431 0 
L 469 0 
L 469 531 
Q 828 903 1448 1529 
Q 2069 2156 2228 2338 
Q 2531 2678 2651 2914 
Q 2772 3150 2772 3378 
Q 2772 3750 2511 3984 
Q 2250 4219 1831 4219 
Q 1534 4219 1204 4116 
Q 875 4013 500 3803 
L 500 4441 
Q 881 4594 1212 4672 
Q 1544 4750 1819 4750 
Q 2544 4750 2975 4387 
Q 3406 4025 3406 3419 
Q 3406 3131 3298 2873 
Q 3191 2616 2906 2266 
Q 2828 2175 2409 1742 
Q 1991 1309 1228 531 
z
" transform="scale(0.015625)"/>
       </defs>
       <use xlink:href="#DejaVuSans-32"/>
       <use xlink:href="#DejaVuSans-30" x="63.623047"/>
      </g>
     </g>
    </g>
    <g id="xtick_3">
     <g id="line2d_5">
      <path d="M 174.384298 189 
L 174.384298 25.92 
" clip-path="url(#p01bb305362)" style="fill: none; stroke-dasharray: 2,3.3; stroke-dashoffset: 0; stroke: #b0b0b0; stroke-width: 2"/>
     </g>
     <g id="line2d_6">
      <g>
       <use xlink:href="#m1d5082914f" x="174.384298" y="189" style="stroke: #000000; stroke-width: 0.8"/>
      </g>
     </g>
     <g id="text_3">
      <!-- 40 -->
      <g transform="translate(169.294298 202.07875)scale(0.08 -0.08)">
       <defs>
        <path id="DejaVuSans-34" d="M 2419 4116 
L 825 1625 
L 2419 1625 
L 2419 4116 
z
M 2253 4666 
L 3047 4666 
L 3047 1625 
L 3713 1625 
L 3713 1100 
L 3047 1100 
L 3047 0 
L 2419 0 
L 2419 1100 
L 313 1100 
L 313 1709 
L 2253 4666 
z
" transform="scale(0.015625)"/>
       </defs>
       <use xlink:href="#DejaVuSans-34"/>
       <use xlink:href="#DejaVuSans-30" x="63.623047"/>
      </g>
     </g>
    </g>
    <g id="xtick_4">
     <g id="line2d_7">
      <path d="M 215.88843 189 
L 215.88843 25.92 
" clip-path="url(#p01bb305362)" style="fill: none; stroke-dasharray: 2,3.3; stroke-dashoffset: 0; stroke: #b0b0b0; stroke-width: 2"/>
     </g>
     <g id="line2d_8">
      <g>
       <use xlink:href="#m1d5082914f" x="215.88843" y="189" style="stroke: #000000; stroke-width: 0.8"/>
      </g>
     </g>
     <g id="text_4">
      <!-- 60 -->
      <g transform="translate(210.79843 202.07875)scale(0.08 -0.08)">
       <defs>
        <path id="DejaVuSans-36" d="M 2113 2584 
Q 1688 2584 1439 2293 
Q 1191 2003 1191 1497 
Q 1191 994 1439 701 
Q 1688 409 2113 409 
Q 2538 409 2786 701 
Q 3034 994 3034 1497 
Q 3034 2003 2786 2293 
Q 2538 2584 2113 2584 
z
M 3366 4563 
L 3366 3988 
Q 3128 4100 2886 4159 
Q 2644 4219 2406 4219 
Q 1781 4219 1451 3797 
Q 1122 3375 1075 2522 
Q 1259 2794 1537 2939 
Q 1816 3084 2150 3084 
Q 2853 3084 3261 2657 
Q 3669 2231 3669 1497 
Q 3669 778 3244 343 
Q 2819 -91 2113 -91 
Q 1303 -91 875 529 
Q 447 1150 447 2328 
Q 447 3434 972 4092 
Q 1497 4750 2381 4750 
Q 2619 4750 2861 4703 
Q 3103 4656 3366 4563 
z
" transform="scale(0.015625)"/>
       </defs>
       <use xlink:href="#DejaVuSans-36"/>
       <use xlink:href="#DejaVuSans-30" x="63.623047"/>
      </g>
     </g>
    </g>
    <g id="xtick_5">
     <g id="line2d_9">
      <path d="M 257.392562 189 
L 257.392562 25.92 
" clip-path="url(#p01bb305362)" style="fill: none; stroke-dasharray: 2,3.3; stroke-dashoffset: 0; stroke: #b0b0b0; stroke-width: 2"/>
     </g>
     <g id="line2d_10">
      <g>
       <use xlink:href="#m1d5082914f" x="257.392562" y="189" style="stroke: #000000; stroke-width: 0.8"/>
      </g>
     </g>
     <g id="text_5">
      <!-- 80 -->
      <g transform="translate(252.302562 202.07875)scale(0.08 -0.08)">
       <defs>
        <path id="DejaVuSans-38" d="M 2034 2216 
Q 1584 2216 1326 1975 
Q 1069 1734 1069 1313 
Q 1069 891 1326 650 
Q 1584 409 2034 409 
Q 2484 409 2743 651 
Q 3003 894 3003 1313 
Q 3003 1734 2745 1975 
Q 2488 2216 2034 2216 
z
M 1403 2484 
Q 997 2584 770 2862 
Q 544 3141 544 3541 
Q 544 4100 942 4425 
Q 1341 4750 2034 4750 
Q 2731 4750 3128 4425 
Q 3525 4100 3525 3541 
Q 3525 3141 3298 2862 
Q 3072 2584 2669 2484 
Q 3125 2378 3379 2068 
Q 3634 1759 3634 1313 
Q 3634 634 3220 271 
Q 2806 -91 2034 -91 
Q 1263 -91 848 271 
Q 434 634 434 1313 
Q 434 1759 690 2068 
Q 947 2378 1403 2484 
z
M 1172 3481 
Q 1172 3119 1398 2916 
Q 1625 2713 2034 2713 
Q 2441 2713 2670 2916 
Q 2900 3119 2900 3481 
Q 2900 3844 2670 4047 
Q 2441 4250 2034 4250 
Q 1625 4250 1398 4047 
Q 1172 3844 1172 3481 
z
" transform="scale(0.015625)"/>
       </defs>
       <use xlink:href="#DejaVuSans-38"/>
       <use xlink:href="#DejaVuSans-30" x="63.623047"/>
      </g>
     </g>
    </g>
    <g id="xtick_6">
     <g id="line2d_11">
      <path d="M 298.896694 189 
L 298.896694 25.92 
" clip-path="url(#p01bb305362)" style="fill: none; stroke-dasharray: 2,3.3; stroke-dashoffset: 0; stroke: #b0b0b0; stroke-width: 2"/>
     </g>
     <g id="line2d_12">
      <g>
       <use xlink:href="#m1d5082914f" x="298.896694" y="189" style="stroke: #000000; stroke-width: 0.8"/>
      </g>
     </g>
     <g id="text_6">
      <!-- 100 -->
      <g transform="translate(291.261694 202.07875)scale(0.08 -0.08)">
       <defs>
        <path id="DejaVuSans-31" d="M 794 531 
L 1825 531 
L 1825 4091 
L 703 3866 
L 703 4441 
L 1819 4666 
L 2450 4666 
L 2450 531 
L 3481 531 
L 3481 0 
L 794 0 
L 794 531 
z
" transform="scale(0.015625)"/>
       </defs>
       <use xlink:href="#DejaVuSans-31"/>
       <use xlink:href="#DejaVuSans-30" x="63.623047"/>
       <use xlink:href="#DejaVuSans-30" x="127.246094"/>
      </g>
     </g>
    </g>
    <g id="text_7">
     <!-- eșantion -->
     <g transform="translate(177.943239 213.82125)scale(0.08 -0.08)">
      <defs>
       <path id="DejaVuSans-65" d="M 3597 1894 
L 3597 1613 
L 953 1613 
Q 991 1019 1311 708 
Q 1631 397 2203 397 
Q 2534 397 2845 478 
Q 3156 559 3463 722 
L 3463 178 
Q 3153 47 2828 -22 
Q 2503 -91 2169 -91 
Q 1331 -91 842 396 
Q 353 884 353 1716 
Q 353 2575 817 3079 
Q 1281 3584 2069 3584 
Q 2775 3584 3186 3129 
Q 3597 2675 3597 1894 
z
M 3022 2063 
Q 3016 2534 2758 2815 
Q 2500 3097 2075 3097 
Q 1594 3097 1305 2825 
Q 1016 2553 972 2059 
L 3022 2063 
z
" transform="scale(0.015625)"/>
       <path id="DejaVuSans-219" d="M 1524 -538 
L 2183 -538 
L 1670 -1538 
L 1267 -1538 
L 1524 -538 
z
M 2834 3397 
L 2834 2853 
Q 2591 2978 2328 3040 
Q 2066 3103 1784 3103 
Q 1356 3103 1142 2972 
Q 928 2841 928 2578 
Q 928 2378 1081 2264 
Q 1234 2150 1697 2047 
L 1894 2003 
Q 2506 1872 2764 1633 
Q 3022 1394 3022 966 
Q 3022 478 2636 193 
Q 2250 -91 1575 -91 
Q 1294 -91 989 -36 
Q 684 19 347 128 
L 347 722 
Q 666 556 975 473 
Q 1284 391 1588 391 
Q 1994 391 2212 530 
Q 2431 669 2431 922 
Q 2431 1156 2273 1281 
Q 2116 1406 1581 1522 
L 1381 1569 
Q 847 1681 609 1914 
Q 372 2147 372 2553 
Q 372 3047 722 3315 
Q 1072 3584 1716 3584 
Q 2034 3584 2315 3537 
Q 2597 3491 2834 3397 
z
" transform="scale(0.015625)"/>
       <path id="DejaVuSans-61" d="M 2194 1759 
Q 1497 1759 1228 1600 
Q 959 1441 959 1056 
Q 959 750 1161 570 
Q 1363 391 1709 391 
Q 2188 391 2477 730 
Q 2766 1069 2766 1631 
L 2766 1759 
L 2194 1759 
z
M 3341 1997 
L 3341 0 
L 2766 0 
L 2766 531 
Q 2569 213 2275 61 
Q 1981 -91 1556 -91 
Q 1019 -91 701 211 
Q 384 513 384 1019 
Q 384 1609 779 1909 
Q 1175 2209 1959 2209 
L 2766 2209 
L 2766 2266 
Q 2766 2663 2505 2880 
Q 2244 3097 1772 3097 
Q 1472 3097 1187 3025 
Q 903 2953 641 2809 
L 641 3341 
Q 956 3463 1253 3523 
Q 1550 3584 1831 3584 
Q 2591 3584 2966 3190 
Q 3341 2797 3341 1997 
z
" transform="scale(0.015625)"/>
       <path id="DejaVuSans-6e" d="M 3513 2113 
L 3513 0 
L 2938 0 
L 2938 2094 
Q 2938 2591 2744 2837 
Q 2550 3084 2163 3084 
Q 1697 3084 1428 2787 
Q 1159 2491 1159 1978 
L 1159 0 
L 581 0 
L 581 3500 
L 1159 3500 
L 1159 2956 
Q 1366 3272 1645 3428 
Q 1925 3584 2291 3584 
Q 2894 3584 3203 3211 
Q 3513 2838 3513 2113 
z
" transform="scale(0.015625)"/>
       <path id="DejaVuSans-74" d="M 1172 4494 
L 1172 3500 
L 2356 3500 
L 2356 3053 
L 1172 3053 
L 1172 1153 
Q 1172 725 1289 603 
Q 1406 481 1766 481 
L 2356 481 
L 2356 0 
L 1766 0 
Q 1100 0 847 248 
Q 594 497 594 1153 
L 594 3053 
L 172 3053 
L 172 3500 
L 594 3500 
L 594 4494 
L 1172 4494 
z
" transform="scale(0.015625)"/>
       <path id="DejaVuSans-69" d="M 603 3500 
L 1178 3500 
L 1178 0 
L 603 0 
L 603 3500 
z
M 603 4863 
L 1178 4863 
L 1178 4134 
L 603 4134 
L 603 4863 
z
" transform="scale(0.015625)"/>
       <path id="DejaVuSans-6f" d="M 1959 3097 
Q 1497 3097 1228 2736 
Q 959 2375 959 1747 
Q 959 1119 1226 758 
Q 1494 397 1959 397 
Q 2419 397 2687 759 
Q 2956 1122 2956 1747 
Q 2956 2369 2687 2733 
Q 2419 3097 1959 3097 
z
M 1959 3584 
Q 2709 3584 3137 3096 
Q 3566 2609 3566 1747 
Q 3566 888 3137 398 
Q 2709 -91 1959 -91 
Q 1206 -91 779 398 
Q 353 888 353 1747 
Q 353 2609 779 3096 
Q 1206 3584 1959 3584 
z
" transform="scale(0.015625)"/>
      </defs>
      <use xlink:href="#DejaVuSans-65"/>
      <use xlink:href="#DejaVuSans-219" x="61.523438"/>
      <use xlink:href="#DejaVuSans-61" x="113.623047"/>
      <use xlink:href="#DejaVuSans-6e" x="174.902344"/>
      <use xlink:href="#DejaVuSans-74" x="238.28125"/>
      <use xlink:href="#DejaVuSans-69" x="277.490234"/>
      <use xlink:href="#DejaVuSans-6f" x="305.273438"/>
      <use xlink:href="#DejaVuSans-6e" x="366.455078"/>
     </g>
    </g>
   </g>
   <g id="matplotlib.axis_2">
    <g id="ytick_1">
     <g id="line2d_13">
      <path d="M 81 168.335073 
L 309.272727 168.335073 
" clip-path="url(#p01bb305362)" style="fill: none; stroke-dasharray: 2,3.3; stroke-dashoffset: 0; stroke: #b0b0b0; stroke-width: 2"/>
     </g>
     <g id="line2d_14">
      <defs>
       <path id="me967855536" d="M 0 0 
L -3.5 0 
" style="stroke: #000000; stroke-width: 0.8"/>
      </defs>
      <g>
       <use xlink:href="#me967855536" x="81" y="168.335073" style="stroke: #000000; stroke-width: 0.8"/>
      </g>
     </g>
     <g id="text_8">
      <!-- 0.3 -->
      <g transform="translate(61.2775 171.374448)scale(0.08 -0.08)">
       <defs>
        <path id="DejaVuSans-2e" d="M 684 794 
L 1344 794 
L 1344 0 
L 684 0 
L 684 794 
z
" transform="scale(0.015625)"/>
        <path id="DejaVuSans-33" d="M 2597 2516 
Q 3050 2419 3304 2112 
Q 3559 1806 3559 1356 
Q 3559 666 3084 287 
Q 2609 -91 1734 -91 
Q 1441 -91 1130 -33 
Q 819 25 488 141 
L 488 750 
Q 750 597 1062 519 
Q 1375 441 1716 441 
Q 2309 441 2620 675 
Q 2931 909 2931 1356 
Q 2931 1769 2642 2001 
Q 2353 2234 1838 2234 
L 1294 2234 
L 1294 2753 
L 1863 2753 
Q 2328 2753 2575 2939 
Q 2822 3125 2822 3475 
Q 2822 3834 2567 4026 
Q 2313 4219 1838 4219 
Q 1578 4219 1281 4162 
Q 984 4106 628 3988 
L 628 4550 
Q 988 4650 1302 4700 
Q 1616 4750 1894 4750 
Q 2613 4750 3031 4423 
Q 3450 4097 3450 3541 
Q 3450 3153 3228 2886 
Q 3006 2619 2597 2516 
z
" transform="scale(0.015625)"/>
       </defs>
       <use xlink:href="#DejaVuSans-30"/>
       <use xlink:href="#DejaVuSans-2e" x="63.623047"/>
       <use xlink:href="#DejaVuSans-33" x="95.410156"/>
      </g>
     </g>
    </g>
    <g id="ytick_2">
     <g id="line2d_15">
      <path d="M 81 134.715238 
L 309.272727 134.715238 
" clip-path="url(#p01bb305362)" style="fill: none; stroke-dasharray: 2,3.3; stroke-dashoffset: 0; stroke: #b0b0b0; stroke-width: 2"/>
     </g>
     <g id="line2d_16">
      <g>
       <use xlink:href="#me967855536" x="81" y="134.715238" style="stroke: #000000; stroke-width: 0.8"/>
      </g>
     </g>
     <g id="text_9">
      <!-- 0.4 -->
      <g transform="translate(61.2775 137.754613)scale(0.08 -0.08)">
       <use xlink:href="#DejaVuSans-30"/>
       <use xlink:href="#DejaVuSans-2e" x="63.623047"/>
       <use xlink:href="#DejaVuSans-34" x="95.410156"/>
      </g>
     </g>
    </g>
    <g id="ytick_3">
     <g id="line2d_17">
      <path d="M 81 101.095402 
L 309.272727 101.095402 
" clip-path="url(#p01bb305362)" style="fill: none; stroke-dasharray: 2,3.3; stroke-dashoffset: 0; stroke: #b0b0b0; stroke-width: 2"/>
     </g>
     <g id="line2d_18">
      <g>
       <use xlink:href="#me967855536" x="81" y="101.095402" style="stroke: #000000; stroke-width: 0.8"/>
      </g>
     </g>
     <g id="text_10">
      <!-- 0.5 -->
      <g transform="translate(61.2775 104.134777)scale(0.08 -0.08)">
       <defs>
        <path id="DejaVuSans-35" d="M 691 4666 
L 3169 4666 
L 3169 4134 
L 1269 4134 
L 1269 2991 
Q 1406 3038 1543 3061 
Q 1681 3084 1819 3084 
Q 2600 3084 3056 2656 
Q 3513 2228 3513 1497 
Q 3513 744 3044 326 
Q 2575 -91 1722 -91 
Q 1428 -91 1123 -41 
Q 819 9 494 109 
L 494 744 
Q 775 591 1075 516 
Q 1375 441 1709 441 
Q 2250 441 2565 725 
Q 2881 1009 2881 1497 
Q 2881 1984 2565 2268 
Q 2250 2553 1709 2553 
Q 1456 2553 1204 2497 
Q 953 2441 691 2322 
L 691 4666 
z
" transform="scale(0.015625)"/>
       </defs>
       <use xlink:href="#DejaVuSans-30"/>
       <use xlink:href="#DejaVuSans-2e" x="63.623047"/>
       <use xlink:href="#DejaVuSans-35" x="95.410156"/>
      </g>
     </g>
    </g>
    <g id="ytick_4">
     <g id="line2d_19">
      <path d="M 81 67.475567 
L 309.272727 67.475567 
" clip-path="url(#p01bb305362)" style="fill: none; stroke-dasharray: 2,3.3; stroke-dashoffset: 0; stroke: #b0b0b0; stroke-width: 2"/>
     </g>
     <g id="line2d_20">
      <g>
       <use xlink:href="#me967855536" x="81" y="67.475567" style="stroke: #000000; stroke-width: 0.8"/>
      </g>
     </g>
     <g id="text_11">
      <!-- 0.6 -->
      <g transform="translate(61.2775 70.514942)scale(0.08 -0.08)">
       <use xlink:href="#DejaVuSans-30"/>
       <use xlink:href="#DejaVuSans-2e" x="63.623047"/>
       <use xlink:href="#DejaVuSans-36" x="95.410156"/>
      </g>
     </g>
    </g>
    <g id="ytick_5">
     <g id="line2d_21">
      <path d="M 81 33.855731 
L 309.272727 33.855731 
" clip-path="url(#p01bb305362)" style="fill: none; stroke-dasharray: 2,3.3; stroke-dashoffset: 0; stroke: #b0b0b0; stroke-width: 2"/>
     </g>
     <g id="line2d_22">
      <g>
       <use xlink:href="#me967855536" x="81" y="33.855731" style="stroke: #000000; stroke-width: 0.8"/>
      </g>
     </g>
     <g id="text_12">
      <!-- 0.7 -->
      <g transform="translate(61.2775 36.895106)scale(0.08 -0.08)">
       <defs>
        <path id="DejaVuSans-37" d="M 525 4666 
L 3525 4666 
L 3525 4397 
L 1831 0 
L 1172 0 
L 2766 4134 
L 525 4134 
L 525 4666 
z
" transform="scale(0.015625)"/>
       </defs>
       <use xlink:href="#DejaVuSans-30"/>
       <use xlink:href="#DejaVuSans-2e" x="63.623047"/>
       <use xlink:href="#DejaVuSans-37" x="95.410156"/>
      </g>
     </g>
    </g>
    <g id="text_13">
     <!-- medie -->
     <g transform="translate(55.61375 119.929375)rotate(-90)scale(0.08 -0.08)">
      <defs>
       <path id="DejaVuSans-6d" d="M 3328 2828 
Q 3544 3216 3844 3400 
Q 4144 3584 4550 3584 
Q 5097 3584 5394 3201 
Q 5691 2819 5691 2113 
L 5691 0 
L 5113 0 
L 5113 2094 
Q 5113 2597 4934 2840 
Q 4756 3084 4391 3084 
Q 3944 3084 3684 2787 
Q 3425 2491 3425 1978 
L 3425 0 
L 2847 0 
L 2847 2094 
Q 2847 2600 2669 2842 
Q 2491 3084 2119 3084 
Q 1678 3084 1418 2786 
Q 1159 2488 1159 1978 
L 1159 0 
L 581 0 
L 581 3500 
L 1159 3500 
L 1159 2956 
Q 1356 3278 1631 3431 
Q 1906 3584 2284 3584 
Q 2666 3584 2933 3390 
Q 3200 3197 3328 2828 
z
" transform="scale(0.015625)"/>
       <path id="DejaVuSans-64" d="M 2906 2969 
L 2906 4863 
L 3481 4863 
L 3481 0 
L 2906 0 
L 2906 525 
Q 2725 213 2448 61 
Q 2172 -91 1784 -91 
Q 1150 -91 751 415 
Q 353 922 353 1747 
Q 353 2572 751 3078 
Q 1150 3584 1784 3584 
Q 2172 3584 2448 3432 
Q 2725 3281 2906 2969 
z
M 947 1747 
Q 947 1113 1208 752 
Q 1469 391 1925 391 
Q 2381 391 2643 752 
Q 2906 1113 2906 1747 
Q 2906 2381 2643 2742 
Q 2381 3103 1925 3103 
Q 1469 3103 1208 2742 
Q 947 2381 947 1747 
z
" transform="scale(0.015625)"/>
      </defs>
      <use xlink:href="#DejaVuSans-6d"/>
      <use xlink:href="#DejaVuSans-65" x="97.412109"/>
      <use xlink:href="#DejaVuSans-64" x="158.935547"/>
      <use xlink:href="#DejaVuSans-69" x="222.412109"/>
      <use xlink:href="#DejaVuSans-65" x="250.195312"/>
     </g>
    </g>
   </g>
   <g id="line2d_23">
    <path d="M 91.376033 139.639937 
L 93.45124 87.387021 
L 95.526446 81.518994 
L 97.601653 120.593285 
L 99.67686 103.646358 
L 101.752066 62.993059 
L 103.827273 55.386987 
L 105.902479 111.087125 
L 107.977686 114.264275 
L 110.052893 95.892906 
L 112.128099 46.901856 
L 114.203306 85.92522 
L 116.278512 74.055828 
L 118.353719 58.27373 
L 120.428926 117.779557 
L 122.504132 102.516842 
L 124.579339 88.984771 
L 126.654545 160.57116 
L 128.729752 144.579857 
L 130.804959 79.1524 
L 132.880165 138.144082 
L 134.955372 107.349207 
L 137.030579 106.719874 
L 139.105785 69.876024 
L 141.180992 134.158558 
L 143.256198 109.483933 
L 145.331405 96.77637 
L 147.406612 93.695658 
L 149.481818 33.332727 
L 151.557025 115.633122 
L 153.632231 101.173206 
L 155.707438 87.957582 
L 157.782645 82.521441 
L 159.857851 92.748641 
L 161.933058 99.482858 
L 164.008264 34.584975 
L 166.083471 158.337766 
L 168.158678 135.76062 
L 170.233884 113.818774 
L 172.309091 120.245945 
L 174.384298 160.402372 
L 176.459504 97.237304 
L 178.534711 181.587273 
L 180.609917 129.240799 
L 182.685124 101.892762 
L 184.760331 36.266734 
L 186.835537 94.528969 
L 188.910744 145.399052 
L 190.98595 110.646055 
L 193.061157 90.810928 
L 195.136364 106.016893 
L 197.21157 62.97942 
L 199.286777 131.751762 
L 201.361983 93.750332 
L 203.43719 131.846785 
L 205.512397 86.320614 
L 207.587603 67.558752 
L 209.66281 165.874263 
L 211.738017 136.816634 
L 213.813223 143.154776 
L 215.88843 145.273519 
L 217.963636 93.506771 
L 220.038843 102.941482 
L 222.11405 41.0044 
L 224.189256 102.12019 
L 226.264463 137.106936 
L 228.339669 110.127019 
L 230.414876 65.495991 
L 232.490083 110.216124 
L 234.565289 86.264857 
L 236.640496 128.069505 
L 238.715702 80.354285 
L 240.790909 148.650757 
L 242.866116 114.892699 
L 244.941322 88.197215 
L 247.016529 140.581792 
L 249.091736 67.670862 
L 251.166942 94.778734 
L 253.242149 120.95761 
L 255.317355 114.139418 
L 257.392562 49.535623 
L 259.467769 94.181592 
L 261.542975 64.754148 
L 263.618182 96.39577 
L 265.693388 110.226335 
L 267.768595 84.946594 
L 269.843802 115.189338 
L 271.919008 129.133976 
L 273.994215 154.417691 
L 276.069421 57.823828 
L 278.144628 92.850655 
L 280.219835 86.83811 
L 282.295041 108.590393 
L 284.370248 76.586699 
L 286.445455 122.422535 
L 288.520661 90.510472 
L 290.595868 80.139311 
L 292.671074 54.516299 
L 294.746281 122.135688 
L 296.821488 95.01359 
" clip-path="url(#p01bb305362)" style="fill: none; stroke-dasharray: 1.85,0.8; stroke-dashoffset: 0; stroke: #1f77b4; stroke-width: 0.5"/>
    <defs>
     <path id="m610043a019" d="M 0 3 
C 0.795609 3 1.55874 2.683901 2.12132 2.12132 
C 2.683901 1.55874 3 0.795609 3 0 
C 3 -0.795609 2.683901 -1.55874 2.12132 -2.12132 
C 1.55874 -2.683901 0.795609 -3 0 -3 
C -0.795609 -3 -1.55874 -2.683901 -2.12132 -2.12132 
C -2.683901 -1.55874 -3 -0.795609 -3 0 
C -3 0.795609 -2.683901 1.55874 -2.12132 2.12132 
C -1.55874 2.683901 -0.795609 3 0 3 
z
" style="stroke: #1f77b4"/>
    </defs>
    <g clip-path="url(#p01bb305362)">
     <use xlink:href="#m610043a019" x="91.376033" y="139.639937" style="fill: #1f77b4; stroke: #1f77b4"/>
     <use xlink:href="#m610043a019" x="93.45124" y="87.387021" style="fill: #1f77b4; stroke: #1f77b4"/>
     <use xlink:href="#m610043a019" x="95.526446" y="81.518994" style="fill: #1f77b4; stroke: #1f77b4"/>
     <use xlink:href="#m610043a019" x="97.601653" y="120.593285" style="fill: #1f77b4; stroke: #1f77b4"/>
     <use xlink:href="#m610043a019" x="99.67686" y="103.646358" style="fill: #1f77b4; stroke: #1f77b4"/>
     <use xlink:href="#m610043a019" x="101.752066" y="62.993059" style="fill: #1f77b4; stroke: #1f77b4"/>
     <use xlink:href="#m610043a019" x="103.827273" y="55.386987" style="fill: #1f77b4; stroke: #1f77b4"/>
     <use xlink:href="#m610043a019" x="105.902479" y="111.087125" style="fill: #1f77b4; stroke: #1f77b4"/>
     <use xlink:href="#m610043a019" x="107.977686" y="114.264275" style="fill: #1f77b4; stroke: #1f77b4"/>
     <use xlink:href="#m610043a019" x="110.052893" y="95.892906" style="fill: #1f77b4; stroke: #1f77b4"/>
     <use xlink:href="#m610043a019" x="112.128099" y="46.901856" style="fill: #1f77b4; stroke: #1f77b4"/>
     <use xlink:href="#m610043a019" x="114.203306" y="85.92522" style="fill: #1f77b4; stroke: #1f77b4"/>
     <use xlink:href="#m610043a019" x="116.278512" y="74.055828" style="fill: #1f77b4; stroke: #1f77b4"/>
     <use xlink:href="#m610043a019" x="118.353719" y="58.27373" style="fill: #1f77b4; stroke: #1f77b4"/>
     <use xlink:href="#m610043a019" x="120.428926" y="117.779557" style="fill: #1f77b4; stroke: #1f77b4"/>
     <use xlink:href="#m610043a019" x="122.504132" y="102.516842" style="fill: #1f77b4; stroke: #1f77b4"/>
     <use xlink:href="#m610043a019" x="124.579339" y="88.984771" style="fill: #1f77b4; stroke: #1f77b4"/>
     <use xlink:href="#m610043a019" x="126.654545" y="160.57116" style="fill: #1f77b4; stroke: #1f77b4"/>
     <use xlink:href="#m610043a019" x="128.729752" y="144.579857" style="fill: #1f77b4; stroke: #1f77b4"/>
     <use xlink:href="#m610043a019" x="130.804959" y="79.1524" style="fill: #1f77b4; stroke: #1f77b4"/>
     <use xlink:href="#m610043a019" x="132.880165" y="138.144082" style="fill: #1f77b4; stroke: #1f77b4"/>
     <use xlink:href="#m610043a019" x="134.955372" y="107.349207" style="fill: #1f77b4; stroke: #1f77b4"/>
     <use xlink:href="#m610043a019" x="137.030579" y="106.719874" style="fill: #1f77b4; stroke: #1f77b4"/>
     <use xlink:href="#m610043a019" x="139.105785" y="69.876024" style="fill: #1f77b4; stroke: #1f77b4"/>
     <use xlink:href="#m610043a019" x="141.180992" y="134.158558" style="fill: #1f77b4; stroke: #1f77b4"/>
     <use xlink:href="#m610043a019" x="143.256198" y="109.483933" style="fill: #1f77b4; stroke: #1f77b4"/>
     <use xlink:href="#m610043a019" x="145.331405" y="96.77637" style="fill: #1f77b4; stroke: #1f77b4"/>
     <use xlink:href="#m610043a019" x="147.406612" y="93.695658" style="fill: #1f77b4; stroke: #1f77b4"/>
     <use xlink:href="#m610043a019" x="149.481818" y="33.332727" style="fill: #1f77b4; stroke: #1f77b4"/>
     <use xlink:href="#m610043a019" x="151.557025" y="115.633122" style="fill: #1f77b4; stroke: #1f77b4"/>
     <use xlink:href="#m610043a019" x="153.632231" y="101.173206" style="fill: #1f77b4; stroke: #1f77b4"/>
     <use xlink:href="#m610043a019" x="155.707438" y="87.957582" style="fill: #1f77b4; stroke: #1f77b4"/>
     <use xlink:href="#m610043a019" x="157.782645" y="82.521441" style="fill: #1f77b4; stroke: #1f77b4"/>
     <use xlink:href="#m610043a019" x="159.857851" y="92.748641" style="fill: #1f77b4; stroke: #1f77b4"/>
     <use xlink:href="#m610043a019" x="161.933058" y="99.482858" style="fill: #1f77b4; stroke: #1f77b4"/>
     <use xlink:href="#m610043a019" x="164.008264" y="34.584975" style="fill: #1f77b4; stroke: #1f77b4"/>
     <use xlink:href="#m610043a019" x="166.083471" y="158.337766" style="fill: #1f77b4; stroke: #1f77b4"/>
     <use xlink:href="#m610043a019" x="168.158678" y="135.76062" style="fill: #1f77b4; stroke: #1f77b4"/>
     <use xlink:href="#m610043a019" x="170.233884" y="113.818774" style="fill: #1f77b4; stroke: #1f77b4"/>
     <use xlink:href="#m610043a019" x="172.309091" y="120.245945" style="fill: #1f77b4; stroke: #1f77b4"/>
     <use xlink:href="#m610043a019" x="174.384298" y="160.402372" style="fill: #1f77b4; stroke: #1f77b4"/>
     <use xlink:href="#m610043a019" x="176.459504" y="97.237304" style="fill: #1f77b4; stroke: #1f77b4"/>
     <use xlink:href="#m610043a019" x="178.534711" y="181.587273" style="fill: #1f77b4; stroke: #1f77b4"/>
     <use xlink:href="#m610043a019" x="180.609917" y="129.240799" style="fill: #1f77b4; stroke: #1f77b4"/>
     <use xlink:href="#m610043a019" x="182.685124" y="101.892762" style="fill: #1f77b4; stroke: #1f77b4"/>
     <use xlink:href="#m610043a019" x="184.760331" y="36.266734" style="fill: #1f77b4; stroke: #1f77b4"/>
     <use xlink:href="#m610043a019" x="186.835537" y="94.528969" style="fill: #1f77b4; stroke: #1f77b4"/>
     <use xlink:href="#m610043a019" x="188.910744" y="145.399052" style="fill: #1f77b4; stroke: #1f77b4"/>
     <use xlink:href="#m610043a019" x="190.98595" y="110.646055" style="fill: #1f77b4; stroke: #1f77b4"/>
     <use xlink:href="#m610043a019" x="193.061157" y="90.810928" style="fill: #1f77b4; stroke: #1f77b4"/>
     <use xlink:href="#m610043a019" x="195.136364" y="106.016893" style="fill: #1f77b4; stroke: #1f77b4"/>
     <use xlink:href="#m610043a019" x="197.21157" y="62.97942" style="fill: #1f77b4; stroke: #1f77b4"/>
     <use xlink:href="#m610043a019" x="199.286777" y="131.751762" style="fill: #1f77b4; stroke: #1f77b4"/>
     <use xlink:href="#m610043a019" x="201.361983" y="93.750332" style="fill: #1f77b4; stroke: #1f77b4"/>
     <use xlink:href="#m610043a019" x="203.43719" y="131.846785" style="fill: #1f77b4; stroke: #1f77b4"/>
     <use xlink:href="#m610043a019" x="205.512397" y="86.320614" style="fill: #1f77b4; stroke: #1f77b4"/>
     <use xlink:href="#m610043a019" x="207.587603" y="67.558752" style="fill: #1f77b4; stroke: #1f77b4"/>
     <use xlink:href="#m610043a019" x="209.66281" y="165.874263" style="fill: #1f77b4; stroke: #1f77b4"/>
     <use xlink:href="#m610043a019" x="211.738017" y="136.816634" style="fill: #1f77b4; stroke: #1f77b4"/>
     <use xlink:href="#m610043a019" x="213.813223" y="143.154776" style="fill: #1f77b4; stroke: #1f77b4"/>
     <use xlink:href="#m610043a019" x="215.88843" y="145.273519" style="fill: #1f77b4; stroke: #1f77b4"/>
     <use xlink:href="#m610043a019" x="217.963636" y="93.506771" style="fill: #1f77b4; stroke: #1f77b4"/>
     <use xlink:href="#m610043a019" x="220.038843" y="102.941482" style="fill: #1f77b4; stroke: #1f77b4"/>
     <use xlink:href="#m610043a019" x="222.11405" y="41.0044" style="fill: #1f77b4; stroke: #1f77b4"/>
     <use xlink:href="#m610043a019" x="224.189256" y="102.12019" style="fill: #1f77b4; stroke: #1f77b4"/>
     <use xlink:href="#m610043a019" x="226.264463" y="137.106936" style="fill: #1f77b4; stroke: #1f77b4"/>
     <use xlink:href="#m610043a019" x="228.339669" y="110.127019" style="fill: #1f77b4; stroke: #1f77b4"/>
     <use xlink:href="#m610043a019" x="230.414876" y="65.495991" style="fill: #1f77b4; stroke: #1f77b4"/>
     <use xlink:href="#m610043a019" x="232.490083" y="110.216124" style="fill: #1f77b4; stroke: #1f77b4"/>
     <use xlink:href="#m610043a019" x="234.565289" y="86.264857" style="fill: #1f77b4; stroke: #1f77b4"/>
     <use xlink:href="#m610043a019" x="236.640496" y="128.069505" style="fill: #1f77b4; stroke: #1f77b4"/>
     <use xlink:href="#m610043a019" x="238.715702" y="80.354285" style="fill: #1f77b4; stroke: #1f77b4"/>
     <use xlink:href="#m610043a019" x="240.790909" y="148.650757" style="fill: #1f77b4; stroke: #1f77b4"/>
     <use xlink:href="#m610043a019" x="242.866116" y="114.892699" style="fill: #1f77b4; stroke: #1f77b4"/>
     <use xlink:href="#m610043a019" x="244.941322" y="88.197215" style="fill: #1f77b4; stroke: #1f77b4"/>
     <use xlink:href="#m610043a019" x="247.016529" y="140.581792" style="fill: #1f77b4; stroke: #1f77b4"/>
     <use xlink:href="#m610043a019" x="249.091736" y="67.670862" style="fill: #1f77b4; stroke: #1f77b4"/>
     <use xlink:href="#m610043a019" x="251.166942" y="94.778734" style="fill: #1f77b4; stroke: #1f77b4"/>
     <use xlink:href="#m610043a019" x="253.242149" y="120.95761" style="fill: #1f77b4; stroke: #1f77b4"/>
     <use xlink:href="#m610043a019" x="255.317355" y="114.139418" style="fill: #1f77b4; stroke: #1f77b4"/>
     <use xlink:href="#m610043a019" x="257.392562" y="49.535623" style="fill: #1f77b4; stroke: #1f77b4"/>
     <use xlink:href="#m610043a019" x="259.467769" y="94.181592" style="fill: #1f77b4; stroke: #1f77b4"/>
     <use xlink:href="#m610043a019" x="261.542975" y="64.754148" style="fill: #1f77b4; stroke: #1f77b4"/>
     <use xlink:href="#m610043a019" x="263.618182" y="96.39577" style="fill: #1f77b4; stroke: #1f77b4"/>
     <use xlink:href="#m610043a019" x="265.693388" y="110.226335" style="fill: #1f77b4; stroke: #1f77b4"/>
     <use xlink:href="#m610043a019" x="267.768595" y="84.946594" style="fill: #1f77b4; stroke: #1f77b4"/>
     <use xlink:href="#m610043a019" x="269.843802" y="115.189338" style="fill: #1f77b4; stroke: #1f77b4"/>
     <use xlink:href="#m610043a019" x="271.919008" y="129.133976" style="fill: #1f77b4; stroke: #1f77b4"/>
     <use xlink:href="#m610043a019" x="273.994215" y="154.417691" style="fill: #1f77b4; stroke: #1f77b4"/>
     <use xlink:href="#m610043a019" x="276.069421" y="57.823828" style="fill: #1f77b4; stroke: #1f77b4"/>
     <use xlink:href="#m610043a019" x="278.144628" y="92.850655" style="fill: #1f77b4; stroke: #1f77b4"/>
     <use xlink:href="#m610043a019" x="280.219835" y="86.83811" style="fill: #1f77b4; stroke: #1f77b4"/>
     <use xlink:href="#m610043a019" x="282.295041" y="108.590393" style="fill: #1f77b4; stroke: #1f77b4"/>
     <use xlink:href="#m610043a019" x="284.370248" y="76.586699" style="fill: #1f77b4; stroke: #1f77b4"/>
     <use xlink:href="#m610043a019" x="286.445455" y="122.422535" style="fill: #1f77b4; stroke: #1f77b4"/>
     <use xlink:href="#m610043a019" x="288.520661" y="90.510472" style="fill: #1f77b4; stroke: #1f77b4"/>
     <use xlink:href="#m610043a019" x="290.595868" y="80.139311" style="fill: #1f77b4; stroke: #1f77b4"/>
     <use xlink:href="#m610043a019" x="292.671074" y="54.516299" style="fill: #1f77b4; stroke: #1f77b4"/>
     <use xlink:href="#m610043a019" x="294.746281" y="122.135688" style="fill: #1f77b4; stroke: #1f77b4"/>
     <use xlink:href="#m610043a019" x="296.821488" y="95.01359" style="fill: #1f77b4; stroke: #1f77b4"/>
    </g>
   </g>
   <g id="line2d_24">
    <path d="M 91.376033 102.726845 
L 298.896694 102.726845 
" clip-path="url(#p01bb305362)" style="fill: none; stroke: #ff7f0e; stroke-width: 3; stroke-linecap: square"/>
   </g>
   <g id="patch_3">
    <path d="M 81 189 
L 81 25.92 
" style="fill: none; stroke: #000000; stroke-width: 0.8; stroke-linejoin: miter; stroke-linecap: square"/>
   </g>
   <g id="patch_4">
    <path d="M 309.272727 189 
L 309.272727 25.92 
" style="fill: none; stroke: #000000; stroke-width: 0.8; stroke-linejoin: miter; stroke-linecap: square"/>
   </g>
   <g id="patch_5">
    <path d="M 81 189 
L 309.272727 189 
" style="fill: none; stroke: #000000; stroke-width: 0.8; stroke-linejoin: miter; stroke-linecap: square"/>
   </g>
   <g id="patch_6">
    <path d="M 81 25.92 
L 309.272727 25.92 
" style="fill: none; stroke: #000000; stroke-width: 0.8; stroke-linejoin: miter; stroke-linecap: square"/>
   </g>
   <g id="legend_1">
    <g id="patch_7">
     <path d="M 202.530227 185 
L 303.672727 185 
Q 305.272727 185 305.272727 183.4 
L 305.272727 160.45625 
Q 305.272727 158.85625 303.672727 158.85625 
L 202.530227 158.85625 
Q 200.930227 158.85625 200.930227 160.45625 
L 200.930227 183.4 
Q 200.930227 185 202.530227 185 
z
" style="fill: #ffffff; opacity: 0.8; stroke: #cccccc; stroke-linejoin: miter"/>
    </g>
    <g id="line2d_25">
     <path d="M 204.130227 165.335 
L 212.130227 165.335 
L 220.130227 165.335 
" style="fill: none; stroke-dasharray: 1.85,0.8; stroke-dashoffset: 0; stroke: #1f77b4; stroke-width: 0.5"/>
     <g>
      <use xlink:href="#m610043a019" x="212.130227" y="165.335" style="fill: #1f77b4; stroke: #1f77b4"/>
     </g>
    </g>
    <g id="text_14">
     <!-- Media eșantionului -->
     <g transform="translate(226.530227 168.135)scale(0.08 -0.08)">
      <defs>
       <path id="DejaVuSans-4d" d="M 628 4666 
L 1569 4666 
L 2759 1491 
L 3956 4666 
L 4897 4666 
L 4897 0 
L 4281 0 
L 4281 4097 
L 3078 897 
L 2444 897 
L 1241 4097 
L 1241 0 
L 628 0 
L 628 4666 
z
" transform="scale(0.015625)"/>
       <path id="DejaVuSans-20" transform="scale(0.015625)"/>
       <path id="DejaVuSans-75" d="M 544 1381 
L 544 3500 
L 1119 3500 
L 1119 1403 
Q 1119 906 1312 657 
Q 1506 409 1894 409 
Q 2359 409 2629 706 
Q 2900 1003 2900 1516 
L 2900 3500 
L 3475 3500 
L 3475 0 
L 2900 0 
L 2900 538 
Q 2691 219 2414 64 
Q 2138 -91 1772 -91 
Q 1169 -91 856 284 
Q 544 659 544 1381 
z
M 1991 3584 
L 1991 3584 
z
" transform="scale(0.015625)"/>
       <path id="DejaVuSans-6c" d="M 603 4863 
L 1178 4863 
L 1178 0 
L 603 0 
L 603 4863 
z
" transform="scale(0.015625)"/>
      </defs>
      <use xlink:href="#DejaVuSans-4d"/>
      <use xlink:href="#DejaVuSans-65" x="86.279297"/>
      <use xlink:href="#DejaVuSans-64" x="147.802734"/>
      <use xlink:href="#DejaVuSans-69" x="211.279297"/>
      <use xlink:href="#DejaVuSans-61" x="239.0625"/>
      <use xlink:href="#DejaVuSans-20" x="300.341797"/>
      <use xlink:href="#DejaVuSans-65" x="332.128906"/>
      <use xlink:href="#DejaVuSans-219" x="393.652344"/>
      <use xlink:href="#DejaVuSans-61" x="445.751953"/>
      <use xlink:href="#DejaVuSans-6e" x="507.03125"/>
      <use xlink:href="#DejaVuSans-74" x="570.410156"/>
      <use xlink:href="#DejaVuSans-69" x="609.619141"/>
      <use xlink:href="#DejaVuSans-6f" x="637.402344"/>
      <use xlink:href="#DejaVuSans-6e" x="698.583984"/>
      <use xlink:href="#DejaVuSans-75" x="761.962891"/>
      <use xlink:href="#DejaVuSans-6c" x="825.341797"/>
      <use xlink:href="#DejaVuSans-75" x="853.125"/>
      <use xlink:href="#DejaVuSans-69" x="916.503906"/>
     </g>
    </g>
    <g id="line2d_26">
     <path d="M 204.130227 177.33625 
L 212.130227 177.33625 
L 220.130227 177.33625 
" style="fill: none; stroke: #ff7f0e; stroke-width: 3; stroke-linecap: square"/>
    </g>
    <g id="text_15">
     <!-- Media teoretică -->
     <g transform="translate(226.530227 180.13625)scale(0.08 -0.08)">
      <defs>
       <path id="DejaVuSans-72" d="M 2631 2963 
Q 2534 3019 2420 3045 
Q 2306 3072 2169 3072 
Q 1681 3072 1420 2755 
Q 1159 2438 1159 1844 
L 1159 0 
L 581 0 
L 581 3500 
L 1159 3500 
L 1159 2956 
Q 1341 3275 1631 3429 
Q 1922 3584 2338 3584 
Q 2397 3584 2469 3576 
Q 2541 3569 2628 3553 
L 2631 2963 
z
" transform="scale(0.015625)"/>
       <path id="DejaVuSans-63" d="M 3122 3366 
L 3122 2828 
Q 2878 2963 2633 3030 
Q 2388 3097 2138 3097 
Q 1578 3097 1268 2742 
Q 959 2388 959 1747 
Q 959 1106 1268 751 
Q 1578 397 2138 397 
Q 2388 397 2633 464 
Q 2878 531 3122 666 
L 3122 134 
Q 2881 22 2623 -34 
Q 2366 -91 2075 -91 
Q 1284 -91 818 406 
Q 353 903 353 1747 
Q 353 2603 823 3093 
Q 1294 3584 2113 3584 
Q 2378 3584 2631 3529 
Q 2884 3475 3122 3366 
z
" transform="scale(0.015625)"/>
       <path id="DejaVuSans-103" d="M 870 4897 
L 1239 4897 
Q 1273 4663 1424 4545 
Q 1576 4428 1848 4428 
Q 2117 4428 2267 4544 
Q 2417 4660 2457 4897 
L 2826 4897 
Q 2795 4450 2548 4225 
Q 2301 4000 1848 4000 
Q 1395 4000 1148 4225 
Q 901 4450 870 4897 
z
M 2194 1759 
Q 1497 1759 1228 1600 
Q 959 1441 959 1056 
Q 959 750 1161 570 
Q 1363 391 1709 391 
Q 2188 391 2477 730 
Q 2766 1069 2766 1631 
L 2766 1759 
L 2194 1759 
z
M 3341 1997 
L 3341 0 
L 2766 0 
L 2766 531 
Q 2569 213 2275 61 
Q 1981 -91 1556 -91 
Q 1019 -91 701 211 
Q 384 513 384 1019 
Q 384 1609 779 1909 
Q 1175 2209 1959 2209 
L 2766 2209 
L 2766 2266 
Q 2766 2663 2505 2880 
Q 2244 3097 1772 3097 
Q 1472 3097 1187 3025 
Q 903 2953 641 2809 
L 641 3341 
Q 956 3463 1253 3523 
Q 1550 3584 1831 3584 
Q 2591 3584 2966 3190 
Q 3341 2797 3341 1997 
z
" transform="scale(0.015625)"/>
      </defs>
      <use xlink:href="#DejaVuSans-4d"/>
      <use xlink:href="#DejaVuSans-65" x="86.279297"/>
      <use xlink:href="#DejaVuSans-64" x="147.802734"/>
      <use xlink:href="#DejaVuSans-69" x="211.279297"/>
      <use xlink:href="#DejaVuSans-61" x="239.0625"/>
      <use xlink:href="#DejaVuSans-20" x="300.341797"/>
      <use xlink:href="#DejaVuSans-74" x="332.128906"/>
      <use xlink:href="#DejaVuSans-65" x="371.337891"/>
      <use xlink:href="#DejaVuSans-6f" x="432.861328"/>
      <use xlink:href="#DejaVuSans-72" x="494.042969"/>
      <use xlink:href="#DejaVuSans-65" x="532.90625"/>
      <use xlink:href="#DejaVuSans-74" x="594.429688"/>
      <use xlink:href="#DejaVuSans-69" x="633.638672"/>
      <use xlink:href="#DejaVuSans-63" x="661.421875"/>
      <use xlink:href="#DejaVuSans-103" x="716.402344"/>
     </g>
    </g>
   </g>
  </g>
  <g id="axes_2">
   <g id="patch_8">
    <path d="M 354.927273 189 
L 583.2 189 
L 583.2 25.92 
L 354.927273 25.92 
z
" style="fill: #ffffff"/>
   </g>
   <g id="matplotlib.axis_3">
    <g id="xtick_7">
     <g id="line2d_27">
      <path d="M 365.303306 189 
L 365.303306 25.92 
" clip-path="url(#p5885fe4e88)" style="fill: none; stroke-dasharray: 2,3.3; stroke-dashoffset: 0; stroke: #b0b0b0; stroke-width: 2"/>
     </g>
     <g id="line2d_28">
      <g>
       <use xlink:href="#m1d5082914f" x="365.303306" y="189" style="stroke: #000000; stroke-width: 0.8"/>
      </g>
     </g>
     <g id="text_16">
      <!-- 0 -->
      <g transform="translate(362.758306 202.07875)scale(0.08 -0.08)">
       <use xlink:href="#DejaVuSans-30"/>
      </g>
     </g>
    </g>
    <g id="xtick_8">
     <g id="line2d_29">
      <path d="M 406.807438 189 
L 406.807438 25.92 
" clip-path="url(#p5885fe4e88)" style="fill: none; stroke-dasharray: 2,3.3; stroke-dashoffset: 0; stroke: #b0b0b0; stroke-width: 2"/>
     </g>
     <g id="line2d_30">
      <g>
       <use xlink:href="#m1d5082914f" x="406.807438" y="189" style="stroke: #000000; stroke-width: 0.8"/>
      </g>
     </g>
     <g id="text_17">
      <!-- 20 -->
      <g transform="translate(401.717438 202.07875)scale(0.08 -0.08)">
       <use xlink:href="#DejaVuSans-32"/>
       <use xlink:href="#DejaVuSans-30" x="63.623047"/>
      </g>
     </g>
    </g>
    <g id="xtick_9">
     <g id="line2d_31">
      <path d="M 448.31157 189 
L 448.31157 25.92 
" clip-path="url(#p5885fe4e88)" style="fill: none; stroke-dasharray: 2,3.3; stroke-dashoffset: 0; stroke: #b0b0b0; stroke-width: 2"/>
     </g>
     <g id="line2d_32">
      <g>
       <use xlink:href="#m1d5082914f" x="448.31157" y="189" style="stroke: #000000; stroke-width: 0.8"/>
      </g>
     </g>
     <g id="text_18">
      <!-- 40 -->
      <g transform="translate(443.22157 202.07875)scale(0.08 -0.08)">
       <use xlink:href="#DejaVuSans-34"/>
       <use xlink:href="#DejaVuSans-30" x="63.623047"/>
      </g>
     </g>
    </g>
    <g id="xtick_10">
     <g id="line2d_33">
      <path d="M 489.815702 189 
L 489.815702 25.92 
" clip-path="url(#p5885fe4e88)" style="fill: none; stroke-dasharray: 2,3.3; stroke-dashoffset: 0; stroke: #b0b0b0; stroke-width: 2"/>
     </g>
     <g id="line2d_34">
      <g>
       <use xlink:href="#m1d5082914f" x="489.815702" y="189" style="stroke: #000000; stroke-width: 0.8"/>
      </g>
     </g>
     <g id="text_19">
      <!-- 60 -->
      <g transform="translate(484.725702 202.07875)scale(0.08 -0.08)">
       <use xlink:href="#DejaVuSans-36"/>
       <use xlink:href="#DejaVuSans-30" x="63.623047"/>
      </g>
     </g>
    </g>
    <g id="xtick_11">
     <g id="line2d_35">
      <path d="M 531.319835 189 
L 531.319835 25.92 
" clip-path="url(#p5885fe4e88)" style="fill: none; stroke-dasharray: 2,3.3; stroke-dashoffset: 0; stroke: #b0b0b0; stroke-width: 2"/>
     </g>
     <g id="line2d_36">
      <g>
       <use xlink:href="#m1d5082914f" x="531.319835" y="189" style="stroke: #000000; stroke-width: 0.8"/>
      </g>
     </g>
     <g id="text_20">
      <!-- 80 -->
      <g transform="translate(526.229835 202.07875)scale(0.08 -0.08)">
       <use xlink:href="#DejaVuSans-38"/>
       <use xlink:href="#DejaVuSans-30" x="63.623047"/>
      </g>
     </g>
    </g>
    <g id="xtick_12">
     <g id="line2d_37">
      <path d="M 572.823967 189 
L 572.823967 25.92 
" clip-path="url(#p5885fe4e88)" style="fill: none; stroke-dasharray: 2,3.3; stroke-dashoffset: 0; stroke: #b0b0b0; stroke-width: 2"/>
     </g>
     <g id="line2d_38">
      <g>
       <use xlink:href="#m1d5082914f" x="572.823967" y="189" style="stroke: #000000; stroke-width: 0.8"/>
      </g>
     </g>
     <g id="text_21">
      <!-- 100 -->
      <g transform="translate(565.188967 202.07875)scale(0.08 -0.08)">
       <use xlink:href="#DejaVuSans-31"/>
       <use xlink:href="#DejaVuSans-30" x="63.623047"/>
       <use xlink:href="#DejaVuSans-30" x="127.246094"/>
      </g>
     </g>
    </g>
    <g id="text_22">
     <!-- eșantion -->
     <g transform="translate(451.870511 213.82125)scale(0.08 -0.08)">
      <use xlink:href="#DejaVuSans-65"/>
      <use xlink:href="#DejaVuSans-219" x="61.523438"/>
      <use xlink:href="#DejaVuSans-61" x="113.623047"/>
      <use xlink:href="#DejaVuSans-6e" x="174.902344"/>
      <use xlink:href="#DejaVuSans-74" x="238.28125"/>
      <use xlink:href="#DejaVuSans-69" x="277.490234"/>
      <use xlink:href="#DejaVuSans-6f" x="305.273438"/>
      <use xlink:href="#DejaVuSans-6e" x="366.455078"/>
     </g>
    </g>
   </g>
   <g id="matplotlib.axis_4">
    <g id="ytick_6">
     <g id="line2d_39">
      <path d="M 354.927273 186.792924 
L 583.2 186.792924 
" clip-path="url(#p5885fe4e88)" style="fill: none; stroke-dasharray: 2,3.3; stroke-dashoffset: 0; stroke: #b0b0b0; stroke-width: 2"/>
     </g>
     <g id="line2d_40">
      <g>
       <use xlink:href="#me967855536" x="354.927273" y="186.792924" style="stroke: #000000; stroke-width: 0.8"/>
      </g>
     </g>
     <g id="text_23">
      <!-- 0.38 -->
      <g transform="translate(330.114773 189.832299)scale(0.08 -0.08)">
       <use xlink:href="#DejaVuSans-30"/>
       <use xlink:href="#DejaVuSans-2e" x="63.623047"/>
       <use xlink:href="#DejaVuSans-33" x="95.410156"/>
       <use xlink:href="#DejaVuSans-38" x="159.033203"/>
      </g>
     </g>
    </g>
    <g id="ytick_7">
     <g id="line2d_41">
      <path d="M 354.927273 167.339109 
L 583.2 167.339109 
" clip-path="url(#p5885fe4e88)" style="fill: none; stroke-dasharray: 2,3.3; stroke-dashoffset: 0; stroke: #b0b0b0; stroke-width: 2"/>
     </g>
     <g id="line2d_42">
      <g>
       <use xlink:href="#me967855536" x="354.927273" y="167.339109" style="stroke: #000000; stroke-width: 0.8"/>
      </g>
     </g>
     <g id="text_24">
      <!-- 0.40 -->
      <g transform="translate(330.114773 170.378484)scale(0.08 -0.08)">
       <use xlink:href="#DejaVuSans-30"/>
       <use xlink:href="#DejaVuSans-2e" x="63.623047"/>
       <use xlink:href="#DejaVuSans-34" x="95.410156"/>
       <use xlink:href="#DejaVuSans-30" x="159.033203"/>
      </g>
     </g>
    </g>
    <g id="ytick_8">
     <g id="line2d_43">
      <path d="M 354.927273 147.885294 
L 583.2 147.885294 
" clip-path="url(#p5885fe4e88)" style="fill: none; stroke-dasharray: 2,3.3; stroke-dashoffset: 0; stroke: #b0b0b0; stroke-width: 2"/>
     </g>
     <g id="line2d_44">
      <g>
       <use xlink:href="#me967855536" x="354.927273" y="147.885294" style="stroke: #000000; stroke-width: 0.8"/>
      </g>
     </g>
     <g id="text_25">
      <!-- 0.42 -->
      <g transform="translate(330.114773 150.924669)scale(0.08 -0.08)">
       <use xlink:href="#DejaVuSans-30"/>
       <use xlink:href="#DejaVuSans-2e" x="63.623047"/>
       <use xlink:href="#DejaVuSans-34" x="95.410156"/>
       <use xlink:href="#DejaVuSans-32" x="159.033203"/>
      </g>
     </g>
    </g>
    <g id="ytick_9">
     <g id="line2d_45">
      <path d="M 354.927273 128.431479 
L 583.2 128.431479 
" clip-path="url(#p5885fe4e88)" style="fill: none; stroke-dasharray: 2,3.3; stroke-dashoffset: 0; stroke: #b0b0b0; stroke-width: 2"/>
     </g>
     <g id="line2d_46">
      <g>
       <use xlink:href="#me967855536" x="354.927273" y="128.431479" style="stroke: #000000; stroke-width: 0.8"/>
      </g>
     </g>
     <g id="text_26">
      <!-- 0.44 -->
      <g transform="translate(330.114773 131.470854)scale(0.08 -0.08)">
       <use xlink:href="#DejaVuSans-30"/>
       <use xlink:href="#DejaVuSans-2e" x="63.623047"/>
       <use xlink:href="#DejaVuSans-34" x="95.410156"/>
       <use xlink:href="#DejaVuSans-34" x="159.033203"/>
      </g>
     </g>
    </g>
    <g id="ytick_10">
     <g id="line2d_47">
      <path d="M 354.927273 108.977665 
L 583.2 108.977665 
" clip-path="url(#p5885fe4e88)" style="fill: none; stroke-dasharray: 2,3.3; stroke-dashoffset: 0; stroke: #b0b0b0; stroke-width: 2"/>
     </g>
     <g id="line2d_48">
      <g>
       <use xlink:href="#me967855536" x="354.927273" y="108.977665" style="stroke: #000000; stroke-width: 0.8"/>
      </g>
     </g>
     <g id="text_27">
      <!-- 0.46 -->
      <g transform="translate(330.114773 112.01704)scale(0.08 -0.08)">
       <use xlink:href="#DejaVuSans-30"/>
       <use xlink:href="#DejaVuSans-2e" x="63.623047"/>
       <use xlink:href="#DejaVuSans-34" x="95.410156"/>
       <use xlink:href="#DejaVuSans-36" x="159.033203"/>
      </g>
     </g>
    </g>
    <g id="ytick_11">
     <g id="line2d_49">
      <path d="M 354.927273 89.52385 
L 583.2 89.52385 
" clip-path="url(#p5885fe4e88)" style="fill: none; stroke-dasharray: 2,3.3; stroke-dashoffset: 0; stroke: #b0b0b0; stroke-width: 2"/>
     </g>
     <g id="line2d_50">
      <g>
       <use xlink:href="#me967855536" x="354.927273" y="89.52385" style="stroke: #000000; stroke-width: 0.8"/>
      </g>
     </g>
     <g id="text_28">
      <!-- 0.48 -->
      <g transform="translate(330.114773 92.563225)scale(0.08 -0.08)">
       <use xlink:href="#DejaVuSans-30"/>
       <use xlink:href="#DejaVuSans-2e" x="63.623047"/>
       <use xlink:href="#DejaVuSans-34" x="95.410156"/>
       <use xlink:href="#DejaVuSans-38" x="159.033203"/>
      </g>
     </g>
    </g>
    <g id="ytick_12">
     <g id="line2d_51">
      <path d="M 354.927273 70.070035 
L 583.2 70.070035 
" clip-path="url(#p5885fe4e88)" style="fill: none; stroke-dasharray: 2,3.3; stroke-dashoffset: 0; stroke: #b0b0b0; stroke-width: 2"/>
     </g>
     <g id="line2d_52">
      <g>
       <use xlink:href="#me967855536" x="354.927273" y="70.070035" style="stroke: #000000; stroke-width: 0.8"/>
      </g>
     </g>
     <g id="text_29">
      <!-- 0.50 -->
      <g transform="translate(330.114773 73.10941)scale(0.08 -0.08)">
       <use xlink:href="#DejaVuSans-30"/>
       <use xlink:href="#DejaVuSans-2e" x="63.623047"/>
       <use xlink:href="#DejaVuSans-35" x="95.410156"/>
       <use xlink:href="#DejaVuSans-30" x="159.033203"/>
      </g>
     </g>
    </g>
    <g id="ytick_13">
     <g id="line2d_53">
      <path d="M 354.927273 50.61622 
L 583.2 50.61622 
" clip-path="url(#p5885fe4e88)" style="fill: none; stroke-dasharray: 2,3.3; stroke-dashoffset: 0; stroke: #b0b0b0; stroke-width: 2"/>
     </g>
     <g id="line2d_54">
      <g>
       <use xlink:href="#me967855536" x="354.927273" y="50.61622" style="stroke: #000000; stroke-width: 0.8"/>
      </g>
     </g>
     <g id="text_30">
      <!-- 0.52 -->
      <g transform="translate(330.114773 53.655595)scale(0.08 -0.08)">
       <use xlink:href="#DejaVuSans-30"/>
       <use xlink:href="#DejaVuSans-2e" x="63.623047"/>
       <use xlink:href="#DejaVuSans-35" x="95.410156"/>
       <use xlink:href="#DejaVuSans-32" x="159.033203"/>
      </g>
     </g>
    </g>
    <g id="ytick_14">
     <g id="line2d_55">
      <path d="M 354.927273 31.162405 
L 583.2 31.162405 
" clip-path="url(#p5885fe4e88)" style="fill: none; stroke-dasharray: 2,3.3; stroke-dashoffset: 0; stroke: #b0b0b0; stroke-width: 2"/>
     </g>
     <g id="line2d_56">
      <g>
       <use xlink:href="#me967855536" x="354.927273" y="31.162405" style="stroke: #000000; stroke-width: 0.8"/>
      </g>
     </g>
     <g id="text_31">
      <!-- 0.54 -->
      <g transform="translate(330.114773 34.20178)scale(0.08 -0.08)">
       <use xlink:href="#DejaVuSans-30"/>
       <use xlink:href="#DejaVuSans-2e" x="63.623047"/>
       <use xlink:href="#DejaVuSans-35" x="95.410156"/>
       <use xlink:href="#DejaVuSans-34" x="159.033203"/>
      </g>
     </g>
    </g>
    <g id="text_32">
     <!-- medie -->
     <g transform="translate(324.451023 119.929375)rotate(-90)scale(0.08 -0.08)">
      <use xlink:href="#DejaVuSans-6d"/>
      <use xlink:href="#DejaVuSans-65" x="97.412109"/>
      <use xlink:href="#DejaVuSans-64" x="158.935547"/>
      <use xlink:href="#DejaVuSans-69" x="222.412109"/>
      <use xlink:href="#DejaVuSans-65" x="250.195312"/>
     </g>
    </g>
   </g>
   <g id="line2d_57">
    <path d="M 365.303306 181.587273 
L 367.378512 105.998075 
L 369.453719 75.142541 
L 371.528926 87.977257 
L 373.604132 85.8719 
L 375.679339 64.865275 
L 377.754545 46.716839 
L 379.829752 53.249501 
L 381.904959 59.35181 
L 383.980165 58.918443 
L 386.055372 45.678312 
L 388.130579 44.053418 
L 390.205785 40.036925 
L 392.280992 33.332727 
L 394.356198 38.999926 
L 396.431405 41.198841 
L 398.506612 40.836056 
L 400.581818 52.019919 
L 402.657025 59.591474 
L 404.732231 56.941122 
L 406.807438 62.670567 
L 408.882645 63.82934 
L 410.957851 64.808185 
L 413.033058 61.263926 
L 415.108264 65.44251 
L 417.183471 66.553943 
L 419.258678 66.22136 
L 421.333884 65.594206 
L 423.409091 58.988155 
L 425.484298 60.759571 
L 427.559504 61.06717 
L 429.634711 60.160684 
L 431.709917 58.832535 
L 433.785124 58.452788 
L 435.860331 58.651412 
L 437.935537 53.623365 
L 440.010744 58.543921 
L 442.08595 61.486544 
L 444.161157 62.650514 
L 446.236364 64.221163 
L 448.31157 68.548873 
L 450.386777 68.319322 
L 452.461983 73.775839 
L 454.53719 75.542307 
L 456.612397 75.471966 
L 458.687603 71.277084 
L 460.76281 70.847188 
L 462.838017 73.501405 
L 464.913223 73.995295 
L 466.98843 73.321688 
L 469.063636 73.537124 
L 471.138843 71.349731 
L 473.21405 72.999079 
L 475.289256 72.551304 
L 477.364463 74.123827 
L 479.439669 73.288108 
L 481.514876 71.529398 
L 483.590083 74.73559 
L 485.665289 76.408188 
L 487.740496 78.330659 
L 489.815702 80.290589 
L 491.890909 79.771621 
L 493.966116 79.702406 
L 496.041322 76.835407 
L 498.116529 76.776939 
L 500.191736 78.253936 
L 502.266942 78.521793 
L 504.342149 76.88285 
L 506.417355 77.16655 
L 508.492562 76.452202 
L 510.567769 77.46149 
L 512.642975 76.525382 
L 514.718182 78.321712 
L 516.793388 78.74964 
L 518.868595 78.136351 
L 520.943802 79.533402 
L 523.019008 78.154605 
L 525.094215 77.816656 
L 527.169421 78.446008 
L 529.244628 78.813046 
L 531.319835 76.863466 
L 533.395041 76.536679 
L 535.470248 75.191988 
L 537.545455 74.969144 
L 539.620661 75.222303 
L 541.695868 74.619116 
L 543.771074 75.035525 
L 545.846281 75.900932 
L 547.921488 77.568813 
L 549.996694 76.094454 
L 552.071901 75.766123 
L 554.147107 75.255847 
L 556.222314 75.433253 
L 558.297521 74.62185 
L 560.372727 75.223449 
L 562.447934 74.850764 
L 564.52314 74.176424 
L 566.598347 72.75939 
L 568.673554 73.347112 
L 570.74876 73.138382 
" clip-path="url(#p5885fe4e88)" style="fill: none; stroke: #1f77b4; stroke-width: 2; stroke-linecap: square"/>
   </g>
   <g id="line2d_58">
    <path d="M 365.303306 74.790133 
L 572.823967 74.790133 
" clip-path="url(#p5885fe4e88)" style="fill: none; stroke-dasharray: 7.4,3.2; stroke-dashoffset: 0; stroke: #ff7f0e; stroke-width: 2"/>
   </g>
   <g id="patch_9">
    <path d="M 354.927273 189 
L 354.927273 25.92 
" style="fill: none; stroke: #000000; stroke-width: 0.8; stroke-linejoin: miter; stroke-linecap: square"/>
   </g>
   <g id="patch_10">
    <path d="M 583.2 189 
L 583.2 25.92 
" style="fill: none; stroke: #000000; stroke-width: 0.8; stroke-linejoin: miter; stroke-linecap: square"/>
   </g>
   <g id="patch_11">
    <path d="M 354.927273 189 
L 583.2 189 
" style="fill: none; stroke: #000000; stroke-width: 0.8; stroke-linejoin: miter; stroke-linecap: square"/>
   </g>
   <g id="patch_12">
    <path d="M 354.927273 25.92 
L 583.2 25.92 
" style="fill: none; stroke: #000000; stroke-width: 0.8; stroke-linejoin: miter; stroke-linecap: square"/>
   </g>
   <g id="legend_2">
    <g id="patch_13">
     <path d="M 433.48625 185 
L 577.6 185 
Q 579.2 185 579.2 183.4 
L 579.2 160.45625 
Q 579.2 158.85625 577.6 158.85625 
L 433.48625 158.85625 
Q 431.88625 158.85625 431.88625 160.45625 
L 431.88625 183.4 
Q 431.88625 185 433.48625 185 
z
" style="fill: #ffffff; opacity: 0.8; stroke: #cccccc; stroke-linejoin: miter"/>
    </g>
    <g id="line2d_59">
     <path d="M 435.08625 165.335 
L 443.08625 165.335 
L 451.08625 165.335 
" style="fill: none; stroke: #1f77b4; stroke-width: 2; stroke-linecap: square"/>
    </g>
    <g id="text_33">
     <!-- Media mediilor de eșantioane -->
     <g transform="translate(457.48625 168.135)scale(0.08 -0.08)">
      <use xlink:href="#DejaVuSans-4d"/>
      <use xlink:href="#DejaVuSans-65" x="86.279297"/>
      <use xlink:href="#DejaVuSans-64" x="147.802734"/>
      <use xlink:href="#DejaVuSans-69" x="211.279297"/>
      <use xlink:href="#DejaVuSans-61" x="239.0625"/>
      <use xlink:href="#DejaVuSans-20" x="300.341797"/>
      <use xlink:href="#DejaVuSans-6d" x="332.128906"/>
      <use xlink:href="#DejaVuSans-65" x="429.541016"/>
      <use xlink:href="#DejaVuSans-64" x="491.064453"/>
      <use xlink:href="#DejaVuSans-69" x="554.541016"/>
      <use xlink:href="#DejaVuSans-69" x="582.324219"/>
      <use xlink:href="#DejaVuSans-6c" x="610.107422"/>
      <use xlink:href="#DejaVuSans-6f" x="637.890625"/>
      <use xlink:href="#DejaVuSans-72" x="699.072266"/>
      <use xlink:href="#DejaVuSans-20" x="740.185547"/>
      <use xlink:href="#DejaVuSans-64" x="771.972656"/>
      <use xlink:href="#DejaVuSans-65" x="835.449219"/>
      <use xlink:href="#DejaVuSans-20" x="896.972656"/>
      <use xlink:href="#DejaVuSans-65" x="928.759766"/>
      <use xlink:href="#DejaVuSans-219" x="990.283203"/>
      <use xlink:href="#DejaVuSans-61" x="1042.382812"/>
      <use xlink:href="#DejaVuSans-6e" x="1103.662109"/>
      <use xlink:href="#DejaVuSans-74" x="1167.041016"/>
      <use xlink:href="#DejaVuSans-69" x="1206.25"/>
      <use xlink:href="#DejaVuSans-6f" x="1234.033203"/>
      <use xlink:href="#DejaVuSans-61" x="1295.214844"/>
      <use xlink:href="#DejaVuSans-6e" x="1356.494141"/>
      <use xlink:href="#DejaVuSans-65" x="1419.873047"/>
     </g>
    </g>
    <g id="line2d_60">
     <path d="M 435.08625 177.33625 
L 443.08625 177.33625 
L 451.08625 177.33625 
" style="fill: none; stroke-dasharray: 7.4,3.2; stroke-dashoffset: 0; stroke: #ff7f0e; stroke-width: 2"/>
    </g>
    <g id="text_34">
     <!-- Media teoretică -->
     <g transform="translate(457.48625 180.13625)scale(0.08 -0.08)">
      <use xlink:href="#DejaVuSans-4d"/>
      <use xlink:href="#DejaVuSans-65" x="86.279297"/>
      <use xlink:href="#DejaVuSans-64" x="147.802734"/>
      <use xlink:href="#DejaVuSans-69" x="211.279297"/>
      <use xlink:href="#DejaVuSans-61" x="239.0625"/>
      <use xlink:href="#DejaVuSans-20" x="300.341797"/>
      <use xlink:href="#DejaVuSans-74" x="332.128906"/>
      <use xlink:href="#DejaVuSans-65" x="371.337891"/>
      <use xlink:href="#DejaVuSans-6f" x="432.861328"/>
      <use xlink:href="#DejaVuSans-72" x="494.042969"/>
      <use xlink:href="#DejaVuSans-65" x="532.90625"/>
      <use xlink:href="#DejaVuSans-74" x="594.429688"/>
      <use xlink:href="#DejaVuSans-69" x="633.638672"/>
      <use xlink:href="#DejaVuSans-63" x="661.421875"/>
      <use xlink:href="#DejaVuSans-103" x="716.402344"/>
     </g>
    </g>
   </g>
  </g>
 </g>
 <defs>
  <clipPath id="p01bb305362">
   <rect x="81" y="25.92" width="228.272727" height="163.08"/>
  </clipPath>
  <clipPath id="p5885fe4e88">
   <rect x="354.927273" y="25.92" width="228.272727" height="163.08"/>
  </clipPath>
 </defs>
</svg>
